<svg data-v-423bf9ae="" xmlns="http://www.w3.org/2000/svg" viewBox="0 0 113.38774402019455 60" class="font"><!----><!----><!----><g data-v-423bf9ae="" id="c8de924d-59ae-4d6b-9bd6-de5c9fe96750" fill="black" transform="matrix(6.1224488604322,0,0,6.1224488604322,-5.8163279365967995,-20.142856994106204)"><path d="M1.30 13.09L1.30 13.09Q1.16 13.09 1.06 12.98L1.06 12.98L1.06 12.98Q0.95 12.88 0.95 12.74L0.95 12.74L0.95 3.65L0.95 3.65Q0.95 3.50 1.05 3.39L1.05 3.39L1.05 3.39Q1.15 3.29 1.30 3.29L1.30 3.29L5.26 3.29L5.26 3.29Q7.08 3.29 8.12 4.12L8.12 4.12L8.12 4.12Q9.16 4.94 9.16 6.54L9.16 6.54L9.16 6.54Q9.16 8.13 8.12 8.93L8.12 8.93L8.12 8.93Q7.08 9.72 5.26 9.72L5.26 9.72L3.67 9.72L3.67 12.74L3.67 12.74Q3.67 12.88 3.57 12.98L3.57 12.98L3.57 12.98Q3.47 13.09 3.32 13.09L3.32 13.09L1.30 13.09ZM3.63 7.71L5.19 7.71L5.19 7.71Q5.77 7.71 6.10 7.41L6.10 7.41L6.10 7.41Q6.43 7.11 6.43 6.52L6.43 6.52L6.43 6.52Q6.43 5.98 6.13 5.64L6.13 5.64L6.13 5.64Q5.82 5.31 5.19 5.31L5.19 5.31L3.63 5.31L3.63 7.71ZM9.91 13.09L9.91 13.09Q9.80 13.09 9.71 13.00L9.71 13.00L9.71 13.00Q9.62 12.91 9.62 12.80L9.62 12.80L9.62 12.80Q9.62 12.71 9.63 12.67L9.63 12.67L12.89 3.70L12.89 3.70Q13.03 3.29 13.45 3.29L13.45 3.29L15.64 3.29L15.64 3.29Q16.06 3.29 16.20 3.70L16.20 3.70L19.46 12.67L19.46 12.67Q19.47 12.71 19.47 12.80L19.47 12.80L19.47 12.80Q19.47 12.91 19.38 13.00L19.38 13.00L19.38 13.00Q19.29 13.09 19.18 13.09L19.18 13.09L17.36 13.09L17.36 13.09Q17.02 13.09 16.88 12.78L16.88 12.78L16.38 11.42L12.71 11.42L12.21 12.78L12.21 12.78Q12.07 13.09 11.73 13.09L11.73 13.09L9.91 13.09ZM14.55 5.75L13.30 9.32L15.79 9.32L14.55 5.75Z"></path></g><!----><!----></svg>