<svg width="1024" height="633" viewBox="0 0 1024 633" fill="none" xmlns="http://www.w3.org/2000/svg">
<rect width="1024" height="632.88" fill="white"/>
<g clip-path="url(#clip0_16_10)" filter="url(#filter0_d_16_10)">
<mask id="mask0_16_10" style="mask-type:luminance" maskUnits="userSpaceOnUse" x="136" y="81" width="580" height="211">
<path d="M716 81H136V292H716V81Z" fill="white"/>
</mask>
<g mask="url(#mask0_16_10)">
<path d="M716 81H136V292H716V81Z" fill="white"/>
<mask id="mask1_16_10" style="mask-type:luminance" maskUnits="userSpaceOnUse" x="136" y="71" width="576" height="221">
<path d="M136.5 71.8333H710.707V291.424H136.5V71.8333Z" fill="white" stroke="white"/>
</mask>
<g mask="url(#mask1_16_10)">
<path d="M283.253 92.5101C278.364 97.5101 278.939 101.922 285.554 108.098C293.032 115.157 292.744 122.51 284.979 127.805C278.652 132.216 278.364 132.51 283.253 142.216C287.567 150.746 288.143 151.04 286.705 144.57C285.554 138.981 286.992 134.57 292.457 128.687C301.66 118.393 301.66 115.452 292.457 106.334C288.143 102.216 285.842 97.216 286.417 94.2748C288.143 88.0983 287.855 87.8041 283.253 92.5101Z" fill="#FFC107"/>
<path d="M231.427 178.941L220.913 176.057L187.665 206.63L187.66 206.634C178.186 215.295 169.366 223.656 162.779 230.173C159.483 233.433 156.761 236.217 154.801 238.339C153.819 239.403 153.047 240.279 152.495 240.955C151.959 241.612 151.76 241.927 151.722 241.987C151.717 241.996 151.714 241.999 151.715 241.997L151.649 242.15L151.562 242.292C151.315 242.697 151.148 243.513 151.488 244.884C151.818 246.211 152.555 247.742 153.596 249.217C154.633 250.685 155.896 251.989 157.178 252.904C158.334 253.729 159.35 254.13 160.137 254.215C160.206 254.176 160.292 254.125 160.399 254.057C160.853 253.77 161.484 253.307 162.294 252.654C163.905 251.355 166.046 249.446 168.581 247.054C173.638 242.283 180.142 235.706 186.875 228.527C193.664 221.142 200.244 214.486 205.359 209.663C207.912 207.255 210.127 205.28 211.832 203.895C212.679 203.206 213.442 202.63 214.081 202.213C214.398 202.007 214.731 201.809 215.06 201.654C215.313 201.535 215.866 201.29 216.529 201.29C217.291 201.29 217.946 201.624 218.201 201.755C218.579 201.95 218.989 202.205 219.406 202.488C220.249 203.057 221.312 203.864 222.546 204.856C225.024 206.847 228.34 209.7 232.251 213.184C240.081 220.158 250.385 229.738 261.325 240.189L261.331 240.196C273.538 251.945 283.776 261.315 291.231 267.589C294.967 270.733 297.954 273.058 300.116 274.511C301.208 275.245 302.007 275.701 302.541 275.937C302.55 275.941 302.559 275.944 302.567 275.948C302.619 275.912 302.677 275.87 302.741 275.823C303.082 275.567 303.509 275.208 304.021 274.737C305.044 273.798 306.302 272.511 307.722 270.964C310.557 267.876 313.935 263.859 317.183 259.77C320.432 255.681 323.524 251.555 325.793 248.25C326.931 246.593 327.837 245.178 328.45 244.095C328.728 243.603 328.926 243.214 329.055 242.923C328.877 242.606 328.605 242.173 328.228 241.619C327.398 240.4 326.17 238.758 324.619 236.79C321.527 232.864 317.245 227.754 312.518 222.335C304.939 213.852 300.43 208.429 297.867 203.734C295.193 198.838 294.661 194.788 294.661 189.276C294.661 184.938 294.299 182.121 293.586 180.175C292.926 178.377 291.948 177.266 290.414 176.363C287.185 174.604 284.97 173.636 283.421 173.36C282.687 173.229 282.27 173.287 282.038 173.366C281.844 173.432 281.624 173.562 281.364 173.931C280.733 174.825 280.144 176.712 279.783 180.346C279.431 183.869 279.322 188.616 279.322 194.864C279.322 201.396 279.032 207.362 278.591 211.724C278.372 213.892 278.109 215.731 277.808 217.065C277.662 217.714 277.48 218.362 277.24 218.898C277.124 219.155 276.935 219.523 276.633 219.864C276.349 220.183 275.678 220.792 274.625 220.792C272.295 220.792 270.081 219.426 268.284 217.856C266.403 216.211 264.576 213.986 262.983 211.542C259.844 206.728 257.273 200.527 257.273 195.453C257.273 192.937 257.087 191.265 256.595 189.975C256.142 188.787 255.363 187.761 253.799 186.704C252.163 185.599 249.727 184.505 246.035 183.246C242.365 181.995 237.612 180.633 231.427 178.941ZM329.243 243.294C329.242 243.292 329.241 243.289 329.24 243.286C329.248 243.312 329.251 243.315 329.243 243.294Z" fill="#FFC107"/>
<path d="M159.941 254.313C159.941 254.313 159.95 254.31 159.969 254.301M231.427 178.941L220.913 176.057L187.665 206.63L187.66 206.634C178.186 215.295 169.366 223.656 162.779 230.173C159.483 233.433 156.761 236.217 154.801 238.339C153.819 239.403 153.047 240.279 152.495 240.955C151.959 241.612 151.76 241.927 151.722 241.987C151.717 241.996 151.714 241.999 151.715 241.997L151.649 242.15L151.562 242.292C151.315 242.697 151.148 243.513 151.488 244.884C151.818 246.211 152.555 247.742 153.596 249.217C154.633 250.685 155.896 251.989 157.178 252.904C158.334 253.729 159.35 254.13 160.137 254.215C160.206 254.176 160.292 254.125 160.399 254.057C160.853 253.77 161.484 253.307 162.294 252.654C163.905 251.355 166.046 249.446 168.581 247.054C173.638 242.283 180.142 235.706 186.875 228.527C193.664 221.142 200.244 214.486 205.359 209.663C207.912 207.255 210.127 205.28 211.832 203.895C212.679 203.206 213.442 202.63 214.081 202.213C214.398 202.007 214.731 201.809 215.06 201.654C215.313 201.535 215.866 201.29 216.529 201.29C217.291 201.29 217.946 201.624 218.201 201.755C218.579 201.95 218.989 202.205 219.406 202.488C220.249 203.057 221.312 203.864 222.546 204.856C225.024 206.847 228.34 209.7 232.251 213.184C240.081 220.158 250.385 229.738 261.325 240.189L261.331 240.196C273.538 251.945 283.776 261.315 291.231 267.589C294.967 270.733 297.954 273.058 300.116 274.511C301.208 275.245 302.007 275.701 302.541 275.937C302.55 275.941 302.559 275.944 302.567 275.948C302.619 275.912 302.677 275.87 302.741 275.823C303.082 275.567 303.509 275.208 304.021 274.737C305.044 273.798 306.302 272.511 307.722 270.964C310.557 267.876 313.935 263.859 317.183 259.77C320.432 255.681 323.524 251.555 325.793 248.25C326.931 246.593 327.837 245.178 328.45 244.095C328.728 243.603 328.926 243.214 329.055 242.923C328.877 242.606 328.605 242.173 328.228 241.619C327.398 240.4 326.17 238.758 324.619 236.79C321.527 232.864 317.245 227.754 312.518 222.335C304.939 213.852 300.43 208.429 297.867 203.734C295.193 198.838 294.661 194.788 294.661 189.276C294.661 184.938 294.299 182.121 293.586 180.175C292.926 178.377 291.948 177.266 290.414 176.363C287.185 174.604 284.97 173.636 283.421 173.36C282.687 173.229 282.27 173.287 282.038 173.366C281.844 173.432 281.624 173.562 281.364 173.931C280.733 174.825 280.144 176.712 279.783 180.346C279.431 183.869 279.322 188.616 279.322 194.864C279.322 201.396 279.032 207.362 278.591 211.724C278.372 213.892 278.109 215.731 277.808 217.065C277.662 217.714 277.48 218.362 277.24 218.898C277.124 219.155 276.935 219.523 276.633 219.864C276.349 220.183 275.678 220.792 274.625 220.792C272.295 220.792 270.081 219.426 268.284 217.856C266.403 216.211 264.576 213.986 262.983 211.542C259.844 206.728 257.273 200.527 257.273 195.453C257.273 192.937 257.087 191.265 256.595 189.975C256.142 188.787 255.363 187.761 253.799 186.704C252.163 185.599 249.727 184.505 246.035 183.246C242.365 181.995 237.612 180.633 231.427 178.941ZM329.243 243.294C329.242 243.292 329.241 243.289 329.24 243.286C329.248 243.312 329.251 243.315 329.243 243.294Z" stroke="#FFC107"/>
<path d="M205.025 259.571V259.571C205.025 266.068 210.293 271.336 216.791 271.336H219.406H222.021C228.518 271.336 233.786 266.068 233.786 259.571V259.571V259.571C233.786 253.073 228.518 247.806 222.021 247.806H219.406H216.79C210.293 247.806 205.025 253.073 205.025 259.571V259.571Z" fill="#FFC107"/>
<path d="M281.157 179.003C280.273 179.102 280.625 181.289 280.625 181.937C280.625 183.075 280.448 184.106 280.448 185.226C280.448 186.323 279.917 187.412 279.917 188.516C279.917 189.583 279.917 190.65 279.917 191.717C279.917 192.616 280.271 193.538 280.271 194.472C280.271 195.481 280.448 196.476 280.448 197.406C280.448 199.581 280.271 201.568 280.271 203.718" stroke="#FFC107" stroke-linecap="square"/>
<path d="M301.571 274.664C301.127 274.574 300.7 273.859 300.449 273.534C300.13 273.122 299.827 272.578 299.398 272.275C298.894 271.919 298.517 271.332 298.097 270.887C297.923 270.702 297.703 270.562 297.554 270.371C297.452 270.239 297.256 270.047 297.118 269.951C296.904 269.802 296.768 269.614 296.589 269.435C296.416 269.26 296.164 269.108 296.039 268.889C295.974 268.775 295.725 268.603 295.621 268.498C295.422 268.298 295.125 268.174 294.895 268.014C294.674 267.861 294.54 267.674 294.302 267.548C294.103 267.443 293.777 267.196 293.655 267.014C293.545 266.848 293.194 266.66 293.019 266.562C292.736 266.401 292.525 266.134 292.258 265.948C291.186 265.203 290.182 264.232 289.235 263.316C289.029 263.116 288.766 262.812 288.513 262.67C288.312 262.558 288.183 262.3 287.966 262.204C287.731 262.099 287.501 261.753 287.291 261.587C286.996 261.355 286.751 261.064 286.44 260.848C286.181 260.668 285.925 260.466 285.697 260.253C285.436 260.01 285.112 259.858 284.843 259.622C284.359 259.197 283.808 258.84 283.288 258.46C282.86 258.146 282.461 257.736 282.045 257.395C281.79 257.185 281.503 256.964 281.28 256.72C281.119 256.544 280.771 256.214 280.551 256.121C280.364 256.042 280.112 255.709 279.958 255.555C279.773 255.369 279.576 255.211 279.411 255.009C279.04 254.554 278.569 254.161 278.157 253.747C277.427 253.014 276.724 252.259 275.969 251.581C275.149 250.844 274.179 250.271 273.396 249.486C273.063 249.151 272.678 248.894 272.335 248.55C271.943 248.156 271.549 247.805 271.145 247.42C270.715 247.01 270.275 246.619 269.855 246.197C269.672 246.014 269.447 245.811 269.244 245.645C269.069 245.501 268.875 245.259 268.701 245.147C268.356 244.922 267.959 244.485 267.708 244.16C267.566 243.978 267.361 243.816 267.189 243.644C267.037 243.491 266.691 243.298 266.593 243.131C266.366 242.744 265.893 242.471 265.581 242.159C265.29 241.866 264.987 241.591 264.698 241.302C264.55 241.153 264.362 241.036 264.212 240.885C264.125 240.798 263.863 240.631 263.812 240.541C263.708 240.359 263.269 239.95 263.104 239.867" stroke="#FFC107" stroke-linecap="square"/>
<path d="M302.021 272.865C303.597 272.865 304.234 270.658 305.444 269.714C305.929 269.336 306.407 268.858 306.715 268.333C306.913 267.996 307.393 267.751 307.556 267.383C307.867 266.682 308.498 265.442 309.086 264.97C309.456 264.674 309.594 264.168 309.96 263.882C310.296 263.621 310.663 263.306 310.874 262.924C311.301 262.153 312.201 261.723 312.623 260.878C313.328 259.461 314.578 258.018 315.746 256.963C316.716 256.086 318.083 255.016 318.627 253.787C318.96 253.034 319.591 252.338 319.8 251.603C319.889 251.29 320.476 251.145 320.521 250.79C320.549 250.557 320.983 250.189 321.103 249.978C321.91 248.56 322.932 247.253 323.984 246.08C324.489 245.516 325.098 244.86 325.441 244.212C325.754 243.616 326.341 243.201 326.638 242.603" stroke="#FFC107" stroke-linecap="square"/>
<path d="M304.353 273.304C304.942 272.777 305.677 272.417 306.279 271.874C306.814 271.39 307.656 271.205 307.994 270.526" stroke="#FFC107" stroke-linecap="square"/>
<path d="M306.828 270.526C306.88 270.003 307.778 268.633 308.204 268.366C308.518 268.169 308.993 267.617 309.191 267.31C309.335 267.086 309.522 266.968 309.742 266.839C309.94 266.721 309.917 266.399 310.114 266.286C310.724 265.936 311.278 265.147 311.602 264.532C311.881 264.004 312.164 263.254 312.573 262.843C313.535 261.877 314.273 260.65 315.244 259.675C316.219 258.697 316.859 257.42 317.72 256.459C318.282 255.832 318.546 254.944 319.096 254.331C319.453 253.933 320.097 253.264 320.237 252.772C320.291 252.582 320.695 252.229 320.811 252.025C320.996 251.701 321.23 251.438 321.426 251.083C321.548 250.864 321.925 250.216 322.122 250.092C322.365 249.94 322.419 249.5 322.632 249.328C322.752 249.232 323.096 248.697 323.134 248.524C323.204 248.208 323.584 247.913 323.79 247.647C324.235 247.073 324.64 246.298 325.149 245.787C325.61 245.325 326.18 244.533 326.493 243.985C326.762 243.511 326.891 242.55 327.366 242.311" stroke="#FFC107" stroke-linecap="square"/>
<path d="M325.788 240.794C325.788 240.376 325.672 239.791 325.407 239.449C325.125 239.085 324.981 238.557 324.692 238.234C324.181 237.664 324.031 236.906 323.535 236.38C323.384 236.219 323.423 235.956 323.261 235.794C323.128 235.66 322.989 235.522 322.892 235.351C322.67 234.96 322.441 234.565 322.141 234.227C321.763 233.8 321.336 232.962 320.854 232.72" stroke="#FFC107" stroke-linecap="square"/>
<path d="M320.639 235.196C320.246 235.117 320.129 234.615 319.829 234.442C319.594 234.308 319.258 233.917 319.054 233.712C318.649 233.306 318.177 232.872 317.695 232.564C317.438 232.4 317.036 232.183 316.885 231.918C316.745 231.673 316.511 231.464 316.372 231.212C316.23 230.956 316.203 230.551 316.026 230.351C315.654 229.93 315.618 229.103 315.335 228.574C315.057 228.055 314.733 227.33 314.31 226.906C313.859 226.453 313.378 225.996 313.016 225.452C312.641 224.887 312.117 224.166 311.628 223.675C311.347 223.394 311.162 223.067 310.925 222.76C310.668 222.429 310.246 222.158 310.126 221.737C309.914 220.992 309.154 220.351 308.839 219.638C308.592 219.082 308.075 218.436 307.658 217.969C307.298 217.565 306.846 216.967 306.586 216.509C306.246 215.913 305.659 215.344 305.191 214.847C304.93 214.569 304.737 214.224 304.494 213.926C304.278 213.66 303.955 213.342 303.797 213.064C303.422 212.406 302.694 211.862 302.426 211.162C302.219 210.622 301.674 210.177 301.305 209.757C301.041 209.456 300.842 209.06 300.578 208.77C300.165 208.314 299.664 207.736 299.398 207.202" stroke="#FFC107" stroke-linecap="square"/>
<path d="M281.757 205.877C281.092 205.877 280.152 206.85 280.152 207.488C280.152 208.264 280.523 208.961 280.523 209.718C280.523 211.49 279.412 213.082 279.412 214.86C279.412 215.685 278.845 216.42 278.794 217.275C278.776 217.599 278.475 218.076 278.417 218.453C278.351 218.884 278.054 219.402 278.054 219.815C278.054 220.571 277.483 221.676 277.162 222.355C276.934 222.839 276.645 223.27 276.422 223.718C276.263 224.035 275.832 224.06 275.832 224.461" stroke="#FFC107" stroke-linecap="square"/>
<path d="M296.694 207.488C296.694 205.561 295.83 203.856 295.83 201.913C295.83 201.48 295.583 201.157 295.583 200.736C295.583 200.497 295.451 199.577 295.274 199.435C294.967 199.189 295.022 198.604 294.781 198.314C294.578 198.07 294.348 197.331 294.348 197.02C294.348 196.589 293.995 196.146 293.978 195.691C293.962 195.261 293.754 194.748 293.731 194.356C293.678 193.443 293.484 192.698 293.484 191.727C293.484 190.733 293.361 189.74 293.361 188.719C293.361 187.775 293.731 186.934 293.731 185.994C293.731 185.548 293.855 185.152 293.855 184.693C293.855 184.388 293.89 183.715 293.704 183.481C293.471 183.189 293.474 182.841 293.299 182.525C293.172 182.294 292.867 181.663 292.867 181.41C292.867 179.957 290.939 178.871 289.905 178.223C289.229 177.799 288.8 176.987 287.998 176.757C287.684 176.667 287.373 176.268 287.004 176.268C286.667 176.268 286.319 175.896 285.893 175.896C285.1 175.896 284.219 175.649 283.362 175.649C282.606 175.649 281.634 176.34 281.634 177.135" stroke="#FFC107" stroke-linecap="square"/>
<path d="M263.109 238.7C261.799 238.081 260.376 237.514 259.233 236.622C258.973 236.418 258.591 236.156 258.306 235.972C258.028 235.793 257.767 235.595 257.497 235.392C257.186 235.157 256.927 234.792 256.597 234.597C256.175 234.348 255.879 233.903 255.457 233.653C255.123 233.456 254.727 233.057 254.444 232.772C254.195 232.522 253.831 232.163 253.666 231.874C253.546 231.662 252.939 230.857 252.689 230.857" stroke="#FFC107" stroke-linecap="square"/>
<path d="M254.888 231.919C254.458 231.487 254.021 231.058 253.622 230.658C253.189 230.223 252.348 229.966 252.039 229.423C251.908 229.194 251.542 228.897 251.324 228.733C251.089 228.556 250.928 228.227 250.732 227.997C250.352 227.553 249.895 226.848 249.393 226.568C248.869 226.276 248.502 225.714 247.969 225.447C247.34 225.131 246.875 224.403 246.259 224.094C245.99 223.959 245.669 223.612 245.476 223.377C245.162 222.991 244.684 222.75 244.323 222.424C243.811 221.961 243.247 221.528 242.74 221.071C241.558 220.003 240.188 219.236 238.968 218.234C238.641 217.965 238.302 217.743 238.001 217.458C237.864 217.329 237.553 217.165 237.386 217.068C237.236 216.981 237.165 216.845 237.019 216.764C236.703 216.587 236.477 216.262 236.165 216.087C235.797 215.882 235.365 215.594 235.066 215.293C234.786 215.013 234.415 214.786 234.175 214.476C234.006 214.259 233.68 214.099 233.542 213.863C233.204 213.287 232.422 213.034 232.112 212.475C231.976 212.229 231.632 212.105 231.525 211.862C231.439 211.667 231.111 211.407 230.937 211.267C230.402 210.838 229.787 210.235 229.164 209.86" stroke="#FFC107" stroke-linecap="square"/>
<g filter="url(#filter1_d_16_10)">
<g filter="url(#filter2_d_16_10)">
<path d="M413.07 238.491C413.757 237.365 414.101 236.277 414.101 235.227C414.101 234.176 414.032 233.361 413.897 232.78C413.754 232.194 413.525 231.678 413.21 231.232C412.523 230.252 411.493 229.762 410.12 229.762C408.424 229.762 406.889 230.27 405.516 231.285C404.049 232.334 403.316 233.687 403.316 235.341C403.316 236.391 403.763 237.321 404.658 238.13C405.552 238.934 406.686 239.711 408.059 240.462C409.433 241.213 410.896 241.964 412.448 242.715C414.008 243.466 415.474 244.293 416.848 245.196C420.003 247.261 421.58 249.681 421.58 252.455C421.58 254.333 420.976 256.069 419.766 257.665C418.55 259.26 416.937 260.642 414.927 261.809C410.527 264.36 405.419 265.637 399.603 265.637C394.889 265.637 391.319 265.009 388.894 263.753C386.469 262.492 385.256 260.905 385.256 258.993C385.256 255.573 386.88 253.432 390.128 252.57C391.043 252.306 392.199 252.174 393.594 252.174C394.996 252.174 396.498 252.42 398.101 252.913C397.364 254.45 396.995 255.913 396.995 257.304C396.995 260.307 398.301 261.809 400.913 261.809C402.608 261.809 404.153 261.301 405.548 260.287C406.943 259.272 407.641 258.193 407.641 257.048C407.641 255.905 407.193 254.919 406.299 254.092C405.412 253.265 404.303 252.523 402.973 251.866C401.642 251.209 400.211 250.561 398.68 249.921C397.149 249.288 395.718 248.519 394.388 247.616C391.276 245.551 389.72 242.867 389.72 239.565C389.72 237.423 390.36 235.517 391.641 233.845C392.921 232.173 394.592 230.775 396.652 229.648C400.773 227.36 405.362 226.216 410.42 226.216C415.485 226.216 419.241 226.835 421.688 228.073C424.134 229.311 425.357 230.983 425.357 233.088C425.357 234.925 424.488 236.426 422.75 237.594C421.24 238.568 419.57 239.054 417.738 239.054C415.907 239.054 414.351 238.866 413.07 238.491ZM456.134 255.834C456.999 256.738 457.432 257.923 457.432 259.389C457.432 261.413 456.516 262.962 454.685 264.035C452.854 265.103 450.496 265.637 447.613 265.637C445.968 265.637 443.886 265.487 441.368 265.188C436.417 264.548 433.187 264.229 431.678 264.229C430.168 264.229 429.117 264.258 428.523 264.317C427.929 264.37 427.15 264.434 426.184 264.51L434.629 227.342H464.236C464.236 229.63 463.559 231.375 462.208 232.578C460.855 233.781 458.852 234.382 456.198 234.382C453.544 234.382 450.865 233.874 448.16 232.86L446.036 242.715H458.258C458.258 244.703 457.665 246.252 456.477 247.361C455.282 248.469 453.691 249.024 451.702 249.024C449.706 249.024 448.092 248.836 446.862 248.461C445.624 248.085 444.938 247.842 444.802 247.73L442.323 258.369C443.425 258.486 445.005 258.545 447.066 258.545C450.593 258.545 453.615 257.641 456.134 255.834ZM493.907 265.637C488.04 265.637 484.835 262.219 484.292 255.385H472.477C471.561 257.116 470.781 258.732 470.138 260.234L468.356 264.51H458.741L480.375 227.342H495.14L498.027 254.708C498.485 258.65 499.629 261.205 501.461 262.372C500.13 264.548 497.612 265.637 493.907 265.637ZM478.379 244.123L474.602 251.277H484.077L483.261 236.802V235.279L478.379 244.123ZM519.521 264.51H504.82L513.201 227.51C517.737 227.099 523.309 226.894 529.919 226.894C536.537 226.894 541.38 227.683 544.449 229.261C547.518 230.833 549.053 233.206 549.053 236.379C549.053 239.553 548.055 242.134 546.059 244.123C544.07 246.111 541.359 247.425 537.925 248.065C538.705 251.18 539.985 253.995 541.766 256.512C543.419 258.876 545.207 260.433 547.132 261.184C546.445 262.762 545.401 263.9 543.999 264.598C542.603 265.29 540.912 265.637 538.923 265.637C536.927 265.637 535.152 265.158 533.6 264.202C532.04 263.246 530.642 261.885 529.405 260.119C526.8 256.289 525.359 251.353 525.08 245.311H525.563C528.953 245.234 531.494 244.472 533.182 243.023C534.877 241.58 535.725 239.339 535.725 236.3C535.725 232.505 533.779 230.534 529.887 230.387H528.374C527.967 230.387 527.648 230.405 527.419 230.44L519.521 264.51ZM588.06 252.851C589.247 253.567 589.841 254.685 589.841 256.204C589.841 257.723 589.44 259.02 588.639 260.093C587.838 261.16 586.661 262.108 585.109 262.935C581.768 264.701 577.178 265.584 571.341 265.584C565.503 265.584 560.993 264.334 557.809 261.835C554.625 259.336 553.034 255.872 553.034 251.443C553.034 245.172 555.026 239.656 559.011 234.892C562.03 231.361 566.24 228.844 571.642 227.342C574.438 226.592 577.21 226.216 579.958 226.216C582.705 226.216 584.926 226.366 586.622 226.665C588.31 226.964 589.798 227.416 591.086 228.02C593.876 229.334 595.271 231.041 595.271 233.141C595.271 235.059 594.173 236.731 591.976 238.157C589.959 239.43 588.127 240.066 586.482 240.066C584.83 240.066 583.66 239.972 582.973 239.785C583.159 238.435 583.252 237.321 583.252 236.441C583.252 235.555 583.23 234.793 583.188 234.153C583.138 233.519 582.998 232.901 582.769 232.297C582.312 230.906 581.385 230.211 579.99 230.211C578.595 230.211 577.2 230.748 575.805 231.821C574.403 232.889 573.108 234.323 571.92 236.124C569.216 240.219 567.864 244.689 567.864 249.534C567.864 251.857 568.665 253.687 570.268 255.025C571.87 256.356 574.389 257.022 577.822 257.022C580.39 257.022 582.887 256.327 585.312 254.937C586.364 254.338 587.28 253.643 588.06 252.851ZM621.162 260.287C621.162 257.659 621.805 253.716 623.085 248.461H612.923L609.146 264.51H594.788L603.512 227.342H617.999L614.017 243.955H624.178L627.96 227.342H642.455C641.812 230.123 641.079 233.071 640.255 236.186L637.915 245.363C636.175 252.496 635.308 257.62 635.308 260.736C635.308 262.014 635.562 263.009 636.07 263.718C633.779 264.997 631.296 265.637 628.611 265.637C625.937 265.637 624.024 265.111 622.883 264.061C621.738 263.011 621.162 261.753 621.162 260.287Z" fill="#FFC107"/>
</g>
</g>
</g>
<path d="M295.062 217.764C294.915 217.634 294.708 217.476 294.5 217.464C294.456 217.462 294.392 217.431 294.351 217.412C294.305 217.392 294.237 217.385 294.19 217.372C294.146 217.359 294.064 217.347 294.028 217.318C293.988 217.287 293.873 217.284 293.845 217.249C293.801 217.194 293.68 217.189 293.619 217.155C293.526 217.103 293.416 217.094 293.321 217.048C293.175 216.979 293.012 216.939 292.861 216.884C292.756 216.846 292.652 216.796 292.544 216.772C292.476 216.757 292.367 216.714 292.305 216.678C292.125 216.57 291.889 216.557 291.706 216.453C291.621 216.404 291.47 216.351 291.374 216.341C291.275 216.33 291.183 216.263 291.083 216.248C290.987 216.233 290.888 216.189 290.793 216.162C290.641 216.12 290.468 216.075 290.325 216.007C290.251 215.972 290.144 215.96 290.081 215.91C290.023 215.863 289.902 215.864 289.857 215.806C289.842 215.788 289.796 215.782 289.773 215.778C289.742 215.772 289.702 215.731 289.665 215.718C289.602 215.696 289.53 215.658 289.463 215.648C289.323 215.629 289.188 215.543 289.052 215.535C288.933 215.528 288.807 215.422 288.685 215.422C288.64 215.422 288.539 215.398 288.499 215.376C288.444 215.345 288.379 215.35 288.321 215.325C288.221 215.28 288.126 215.233 288.021 215.198" stroke="white" stroke-width="0.1"/>
<path d="M278.585 214.823C278.605 214.821 278.671 214.694 278.677 214.664C278.687 214.624 278.739 214.587 278.755 214.534C278.768 214.488 278.819 214.452 278.847 214.403C278.87 214.364 278.933 214.309 278.969 214.28C279.004 214.252 279.024 214.179 279.062 214.149C279.101 214.118 279.131 214.089 279.165 214.046C279.239 213.954 279.346 213.89 279.437 213.84C279.543 213.781 279.675 213.759 279.769 213.684C279.834 213.633 279.995 213.531 280.083 213.531C280.141 213.531 280.193 213.474 280.252 213.474C280.298 213.474 280.394 213.461 280.439 213.441C280.493 213.417 280.585 213.44 280.645 213.437C280.7 213.434 280.767 213.418 280.832 213.418" stroke="white" stroke-width="0.1"/>
<path d="M278.678 214.598C278.759 214.598 278.841 214.478 278.898 214.426C278.985 214.348 279.093 214.267 279.165 214.177C279.29 214.02 279.442 213.896 279.623 213.793C279.721 213.736 279.806 213.67 279.904 213.615C279.943 213.593 280.04 213.588 280.064 213.559C280.074 213.546 280.228 213.512 280.251 213.512C280.355 213.512 280.499 213.485 280.598 213.457C280.65 213.442 280.712 213.437 280.766 213.437C280.818 213.437 280.868 213.4 280.925 213.4" stroke="white" stroke-width="0.1"/>
<path d="M278.791 214.617C278.841 214.611 278.882 214.522 278.907 214.49C278.951 214.435 279.006 214.399 279.049 214.351C279.093 214.302 279.141 214.257 279.188 214.209C279.207 214.19 279.222 214.162 279.24 214.14C279.247 214.131 279.294 214.079 279.307 214.075C279.369 214.057 279.423 213.974 279.474 213.934C279.528 213.893 279.63 213.871 279.671 213.821C279.714 213.767 279.787 213.754 279.831 213.709C279.881 213.66 279.996 213.61 280.064 213.587" stroke="white" stroke-width="0.1"/>
<path d="M281.244 213.586C281.244 213.481 280.635 213.512 280.532 213.512C280.404 213.512 280.28 213.53 280.149 213.53C280.084 213.53 280.036 213.538 279.98 213.551C279.94 213.559 279.775 213.602 279.765 213.624" stroke="white" stroke-width="0.1"/>
<path d="M281.618 213.699C281.554 213.695 281.483 213.641 281.422 213.623C281.375 213.61 281.313 213.568 281.262 213.568C281.122 213.568 280.989 213.512 280.841 213.512C280.538 213.512 280.236 213.512 279.933 213.512" stroke="white" stroke-width="0.1"/>
<path d="M293.322 218.416H294.145" stroke="#FFC107" stroke-width="0.1"/>
<path d="M291.105 218.226H293.829" stroke="#FFC107" stroke-width="0.1"/>
<path d="M287.049 215.819H288.099" stroke="#FFC107" stroke-width="0.1"/>
<path d="M287.647 215.591C287.568 215.591 287.476 215.552 287.404 215.52C287.363 215.502 287.315 215.512 287.273 215.493C287.233 215.476 287.162 215.464 287.119 215.46C287.005 215.451 286.824 215.406 286.726 215.348C286.663 215.31 286.578 215.313 286.509 215.287C286.455 215.267 286.397 215.235 286.337 215.235" stroke="#FFC107" stroke-width="0.1"/>
<path d="M288.246 215.928C288.093 215.873 287.945 215.788 287.797 215.723C287.695 215.677 287.589 215.638 287.489 215.591C287.441 215.568 287.361 215.519 287.31 215.516C287.223 215.511 287.133 215.432 287.048 215.404C286.917 215.36 286.781 215.347 286.651 215.306C286.453 215.244 286.245 215.217 286.037 215.217" stroke="#FFC107" stroke-width="0.1"/>
<path d="M289.501 216.341C289.389 216.264 289.283 216.208 289.155 216.162C289.022 216.114 288.855 216.069 288.733 216.002C288.598 215.928 288.423 215.872 288.274 215.827C288.132 215.783 288 215.716 287.864 215.656C287.708 215.587 287.548 215.548 287.389 215.489C287.275 215.447 287.144 215.396 287.025 215.371C286.706 215.302 286.406 215.217 286.074 215.217" stroke="#FFC107" stroke-width="0.1"/>
<path d="M294.519 218.195C294.497 218.095 294.247 218.045 294.171 217.997C294.035 217.91 293.878 217.897 293.732 217.839" stroke="#FFC107" stroke-width="0.1"/>
<path d="M295.192 218.532C295.103 218.523 294.968 218.441 294.889 218.397C294.798 218.347 294.694 218.33 294.603 218.279C294.46 218.2 294.31 218.116 294.155 218.066C294.037 218.028 293.873 217.97 293.751 217.97" stroke="#FFC107" stroke-width="0.1"/>
<path d="M295.174 218.457C295.045 218.359 294.905 218.283 294.752 218.223C294.614 218.169 294.495 218.084 294.35 218.045C294.26 218.021 294.18 217.97 294.088 217.97" stroke="#FFC107" stroke-width="0.1"/>
<path d="M285.7 214.992C285.637 214.992 285.565 214.952 285.504 214.935C285.44 214.916 285.365 214.897 285.298 214.879C285.168 214.841 285.013 214.786 284.868 214.786C284.715 214.786 284.566 214.711 284.408 214.711C284.252 214.711 284.09 214.636 283.94 214.636C283.853 214.636 283.774 214.58 283.686 214.58C283.586 214.58 283.497 214.516 283.398 214.504C283.279 214.489 283.148 214.433 283.031 214.402C282.919 214.372 282.805 214.36 282.694 214.335C282.48 214.287 282.261 214.277 282.044 214.238C281.853 214.204 281.644 214.167 281.45 214.167C281.367 214.167 281.283 214.186 281.206 214.186" stroke="#FFC107" stroke-width="0.1"/>
<path d="M285.868 215.067C285.851 215.01 285.743 214.991 285.699 214.954C285.654 214.916 285.589 214.916 285.54 214.889C285.499 214.866 285.428 214.842 285.381 214.842C285.321 214.842 285.278 214.796 285.222 214.787C285.049 214.76 284.879 214.712 284.706 214.683C284.463 214.642 284.217 214.611 283.978 214.551C283.875 214.526 283.756 214.512 283.65 214.504C283.544 214.495 283.44 214.452 283.332 214.448C283.088 214.442 282.833 214.353 282.591 214.313C282.341 214.271 282.076 214.176 281.824 214.167C281.654 214.161 281.491 214.13 281.32 214.13C281.232 214.13 281.144 214.13 281.056 214.13" stroke="#FFC107" stroke-width="0.1"/>
<path d="M281.618 214.168C281.61 214.096 281.374 214.111 281.318 214.111" stroke="#FFC107" stroke-width="0.1"/>
<path d="M281.73 214.167C281.647 214.092 281.444 214.055 281.338 214.055C281.187 214.055 281.04 214.036 280.888 214.036" stroke="#FFC107" stroke-width="0.1"/>
<path d="M302.655 228.518C302.655 227.043 299.335 225.197 298.33 224.191C297.491 223.352 294.868 221.728 294.725 220.585C294.527 219.003 291.39 217.78 290.039 217.7C288.269 217.596 286.223 217.34 284.271 217.34" stroke="#FFC107" stroke-width="3" stroke-linecap="round"/>
</g>
<path d="M295.396 217.82C294.875 217.706 294.301 217.531 293.899 217.297C293.716 217.19 293.517 217.094 293.303 217.007C293.079 216.916 292.919 216.785 292.7 216.692C292.332 216.536 292.002 216.37 291.605 216.239C291.368 216.162 291.102 216.116 290.881 216.026C290.563 215.897 290.175 215.837 289.844 215.722C289.641 215.652 289.452 215.57 289.246 215.503C289.045 215.438 288.827 215.397 288.629 215.331C288.458 215.274 288.279 215.223 288.097 215.181C287.97 215.152 287.853 215.116 287.718 215.1C287.673 215.095 287.64 215.092 287.62 215.069" stroke="#FFC107" stroke-width="3" stroke-linecap="round"/>
<path d="M282.211 213.564C282.073 213.544 281.914 213.458 281.789 213.415C281.648 213.368 281.475 213.333 281.313 213.322C281.052 213.304 280.852 213.27 280.598 213.328C280.423 213.367 280.101 213.351 279.994 213.458C279.919 213.533 279.787 213.584 279.734 213.667C279.683 213.748 279.53 213.808 279.504 213.892C279.48 213.97 279.394 214.073 279.312 214.134C279.157 214.25 279.012 214.453 279.012 214.598" stroke="#FFC107" stroke-width="3" stroke-linecap="round"/>
<path d="M160.123 254.089C160.123 254.094 160.108 254.107 160.1 254.111C160.092 254.116 160.085 254.122 160.08 254.128C160.076 254.134 160.072 254.14 160.067 254.146C160.065 254.149 160.059 254.156 160.058 254.159C160.057 254.164 160.049 254.168 160.047 254.172C160.046 254.174 160.041 254.176 160.04 254.178C160.039 254.18 160.039 254.182 160.037 254.184C160.029 254.192 160.024 254.203 160.02 254.212C160.016 254.22 160.007 254.231 160.018 254.238C160.024 254.241 160.033 254.241 160.038 254.244C160.042 254.247 160.055 254.245 160.061 254.248C160.067 254.251 160.079 254.252 160.082 254.255C160.085 254.258 160.094 254.263 160.098 254.263C160.112 254.264 160.117 254.276 160.127 254.28" stroke="#FFC107" stroke-linecap="round"/>
<path d="M159.993 254.259C159.992 254.267 159.991 254.272 159.998 254.279C160.002 254.283 160.009 254.286 160.015 254.29C160.024 254.295 160.037 254.301 160.052 254.301C160.073 254.301 160.057 254.316 160.07 254.322C160.075 254.324 160.078 254.33 160.078 254.333C160.078 254.341 160.078 254.342 160.064 254.342" stroke="#FFC107" stroke-linecap="round"/>
<path d="M371.322 173.537C383.079 173.537 388.958 176.88 388.958 183.566C388.958 187.24 387.491 190.18 384.559 192.387C381.679 194.589 377.72 195.69 372.682 195.69C370.336 195.69 368.25 195.148 366.423 194.063C365.557 193.601 364.837 193.061 364.264 192.444C367.77 192.444 370.446 191.582 372.292 189.858C374.138 188.139 375.061 185.599 375.061 182.237C375.061 178.87 372.998 177.186 368.873 177.186H367.143C366.857 177.186 366.594 177.205 366.353 177.242L358.076 212.221H342.45L351.307 174.229C356.44 173.843 360.495 173.631 363.474 173.593C366.447 173.555 369.063 173.537 371.322 173.537ZM404.073 212.221H388.668L397.445 174.117C402.197 173.687 408.039 173.472 414.97 173.472C421.908 173.472 426.984 174.286 430.196 175.913C433.415 177.535 435.025 179.981 435.025 183.252C435.025 186.517 433.979 189.176 431.886 191.227C429.8 193.274 426.957 194.627 423.358 195.287C424.178 198.494 425.521 201.394 427.387 203.988C429.12 206.421 430.993 208.024 433.005 208.797C432.285 210.425 431.193 211.595 429.726 212.31C428.267 213.024 426.494 213.381 424.408 213.381C422.315 213.381 420.455 212.887 418.829 211.899C417.196 210.916 415.73 209.514 414.431 207.694C411.698 203.752 410.188 198.668 409.902 192.444H410.401C413.954 192.363 416.616 191.579 418.389 190.091C420.169 188.604 421.058 186.294 421.058 183.163C421.058 179.259 419.019 177.229 414.94 177.073H413.351C412.924 177.073 412.591 177.092 412.351 177.129L404.073 212.221ZM439.414 198.067C439.414 190.758 441.763 184.804 446.461 180.207C451.454 175.218 458.292 172.723 466.976 172.723C473.268 172.723 477.996 173.95 481.162 176.405C484.328 178.859 485.911 182.677 485.911 187.86C485.911 195.75 483.415 201.995 478.423 206.598C473.484 211.12 466.863 213.381 458.559 213.381C452.08 213.381 447.268 212.076 444.122 209.466C440.983 206.856 439.414 203.056 439.414 198.067ZM458.339 186.064C456.179 193.024 455.099 199.248 455.099 204.737C455.099 206.053 455.376 207.135 455.929 207.984C456.482 208.837 457.492 209.265 458.958 209.265C460.418 209.265 461.604 208.983 462.517 208.419C463.431 207.86 464.247 206.942 464.967 205.663C466.12 203.58 467.236 200.323 468.315 195.892C469.395 191.466 469.982 188.335 470.075 186.499C470.169 184.662 470.215 183.048 470.215 181.657C470.215 180.261 469.952 179.119 469.426 178.233C468.899 177.342 467.929 176.896 466.516 176.896C465.097 176.896 463.907 177.245 462.947 177.943C461.174 179.259 459.638 181.966 458.339 186.064ZM517.582 173.537C529.339 173.537 535.217 176.88 535.217 183.566C535.217 187.24 533.754 190.18 530.828 192.387C527.95 194.589 523.991 195.69 518.952 195.69C516.599 195.69 514.51 195.148 512.684 194.063C511.824 193.601 511.104 193.061 510.524 192.444C514.03 192.444 516.706 191.582 518.552 189.858C520.398 188.139 521.321 185.599 521.321 182.237C521.321 178.87 519.259 177.186 515.133 177.186H513.404C513.117 177.186 512.854 177.205 512.614 177.242L504.336 212.221H488.72L497.568 174.229C502.706 173.843 506.762 173.631 509.734 173.593C512.714 173.555 515.33 173.537 517.582 173.537ZM566.309 203.287C567.222 204.216 567.679 205.435 567.679 206.945C567.679 209.033 566.719 210.628 564.799 211.729C562.88 212.831 560.41 213.381 557.391 213.381C555.659 213.381 553.472 213.225 550.833 212.914C545.654 212.258 542.272 211.931 540.686 211.931C539.106 211.931 538.003 211.961 537.377 212.02C536.75 212.079 535.934 212.146 534.928 212.221L543.785 173.939H574.807C574.807 176.297 574.1 178.096 572.687 179.337C571.267 180.572 569.168 181.19 566.389 181.19C563.603 181.19 560.794 180.669 557.961 179.627L555.732 189.777H568.549C568.549 191.824 567.922 193.419 566.669 194.562C565.422 195.701 563.756 196.27 561.67 196.27C559.584 196.27 557.891 196.077 556.591 195.69C555.299 195.304 554.579 195.051 554.432 194.933L551.843 205.897C552.996 206.015 554.652 206.074 556.811 206.074C560.504 206.074 563.67 205.145 566.309 203.287ZM589.063 212.221H573.657L582.435 174.117C587.187 173.687 593.028 173.472 599.96 173.472C606.898 173.472 611.973 174.286 615.185 175.913C618.407 177.535 620.012 179.981 620.012 183.252C620.012 186.517 618.967 189.176 616.877 191.227C614.788 193.274 611.946 194.627 608.348 195.287C609.167 198.494 610.51 201.394 612.376 203.988C614.112 206.421 615.981 208.024 617.994 208.797C617.275 210.425 616.182 211.595 614.716 212.31C613.258 213.024 611.483 213.381 609.397 213.381C607.305 213.381 605.445 212.887 603.819 211.899C602.186 210.916 600.719 209.514 599.42 207.694C596.687 203.752 595.178 198.668 594.891 192.444H595.391C598.943 192.363 601.606 191.579 603.379 190.091C605.159 188.604 606.048 186.294 606.048 183.163C606.048 179.259 604.009 177.229 599.93 177.073H598.34C597.914 177.073 597.58 177.092 597.341 177.129L589.063 212.221ZM629.081 183.977C627.447 182.967 626.632 181.391 626.632 179.248C626.632 177.1 627.509 175.465 629.264 174.342C631.013 173.225 633.4 172.667 636.42 172.667C638.337 172.667 641.578 172.935 646.136 173.472L651.035 174.052C652.67 174.208 654.333 174.286 656.035 174.286C657.741 174.286 659.17 173.996 660.325 173.416C662.05 174.656 662.913 176.165 662.913 177.943C662.913 179.721 661.931 181.249 659.965 182.527C657.942 183.88 655.637 184.557 653.044 184.557C651.797 184.557 650.168 184.42 648.154 184.146C645.806 190.102 644.626 195.148 644.626 199.283C644.626 203.424 645.925 206.576 648.519 208.741C647.315 210.481 645.829 211.689 644.046 212.366C642.273 213.042 640.053 213.381 637.388 213.381C634.728 213.381 632.571 212.79 630.912 211.609C629.259 210.432 628.434 208.625 628.434 206.187C628.434 203.368 629.393 199.638 631.31 194.998C633.232 190.395 635.629 186.335 638.51 182.817C637.115 182.699 635.701 182.64 634.258 182.64C631.286 182.64 629.561 183.086 629.081 183.977ZM667.443 212.221L671.618 195.166C670.228 184.689 667.083 178.327 662.194 176.082C663.201 175.078 664.519 174.297 666.153 173.738C667.783 173.174 669.586 172.892 671.551 172.892C673.516 172.892 675.242 173.174 676.728 173.738C678.214 174.297 679.436 175.175 680.399 176.372C682.226 178.655 683.136 182.522 683.136 187.973V192.154C686.017 185.349 688.893 180.476 691.774 177.532C694.703 174.52 697.986 173.013 701.634 173.013C703.072 173.013 704.27 173.311 705.229 173.907C706.193 174.509 706.912 175.255 707.391 176.147C703.7 177.457 700.076 180.008 696.524 183.8C692.972 187.592 690.044 192.135 687.748 197.43L683.496 212.221H667.443Z" fill="black"/>
<path d="M257.791 200.138C257.791 200.719 258.348 201.231 258.348 201.803C258.348 201.947 258.41 202.081 258.41 202.229C258.41 202.363 258.523 202.473 258.534 202.599C258.553 202.81 258.591 203.192 258.83 203.367C258.936 203.445 258.924 203.633 258.981 203.729C259.029 203.81 259.081 203.897 259.139 203.974C259.182 204.03 259.124 204.099 259.167 204.155C259.291 204.318 259.285 204.509 259.353 204.682C259.449 204.929 259.556 205.174 259.662 205.422C260.063 206.359 260.703 207.246 261.272 208.144C261.515 208.527 261.762 208.921 262.029 209.302C262.193 209.536 262.328 209.789 262.497 210.017C262.621 210.186 262.649 210.508 262.854 210.641C263.036 210.759 262.996 211.026 263.116 211.175C263.238 211.327 263.311 211.515 263.411 211.674C263.644 212.04 263.838 212.413 264.106 212.776C264.278 213.009 264.503 213.208 264.664 213.447C264.818 213.678 264.907 213.918 265.049 214.151C265.175 214.357 265.356 214.551 265.482 214.75C265.605 214.944 265.778 215.166 265.95 215.345C266.341 215.754 266.588 216.208 267.016 216.612C267.266 216.847 267.691 217.508 268.317 217.508" stroke="#FFC107" stroke-linecap="round"/>
<path d="M255.253 201.875C255.394 201.875 255.587 202.208 255.655 202.291C255.86 202.54 256.168 202.758 256.395 202.999C256.732 203.357 257.012 203.777 257.248 204.163C257.48 204.542 257.81 204.924 257.977 205.315C258.128 205.667 258.574 205.982 258.72 206.324C258.842 206.609 259.131 206.873 259.264 207.159C259.345 207.334 259.446 207.535 259.563 207.701C259.662 207.843 259.765 208.07 259.924 208.19C260.064 208.295 260.167 208.489 260.22 208.614C260.306 208.815 260.513 208.996 260.626 209.193C260.802 209.502 261.06 209.78 261.245 210.082C261.493 210.487 261.973 210.829 262.246 211.228C262.534 211.649 262.944 212.097 263.364 212.478C263.697 212.781 263.957 213.083 264.172 213.417C264.37 213.725 264.622 214.045 264.784 214.362C264.958 214.699 265.272 215.017 265.531 215.337C265.786 215.652 266.037 215.965 266.305 216.278C266.574 216.593 266.926 216.876 267.202 217.183C267.337 217.332 267.687 217.686 267.945 217.762" stroke="#FFC107" stroke-width="4" stroke-linecap="round"/>
<path d="M256.435 194.06C256.736 194.797 256.659 195.523 256.887 196.254C257.006 196.637 257.136 196.994 257.136 197.383C257.136 198.326 257.504 199.346 257.705 200.283C257.813 200.788 257.977 201.311 257.977 201.826C257.977 202.239 257.83 202.821 258.188 203.197C258.474 203.498 258.258 203.976 258.507 204.303C258.659 204.504 258.818 204.941 258.818 205.164C258.818 205.466 259.099 205.758 259.099 206.065C259.099 206.268 259.404 206.804 259.551 207.007C260.177 207.877 260.573 208.767 261.311 209.63C262.764 211.328 264.386 212.965 266.109 214.565C267.046 215.434 267.777 216.363 268.695 217.242C268.962 217.497 269.314 217.732 269.505 218.006C269.692 218.275 270.505 218.909 270.938 219.053C271.507 219.243 271.662 219.807 272.278 220.019C272.777 220.19 273.098 220.544 273.548 220.774C274.102 221.058 274.727 221.349 275.331 221.594C275.89 221.82 276.081 221.668 275.573 221.43C275.033 221.177 274.944 220.552 274.451 220.36C273.985 220.178 273.657 219.641 273.259 219.381C273.038 219.237 272.808 219.053 272.628 218.89C272.509 218.781 272.054 218.698 272.005 218.598C271.672 217.917 269.873 217.358 269.131 216.8C268.359 216.22 267.691 215.572 266.88 214.993C266.072 214.415 265.951 213.545 265.19 212.989C264.921 212.793 264.686 212.295 264.497 212.052C264.241 211.723 263.866 211.433 263.616 211.105C263.022 210.323 262.56 209.493 261.872 208.728C261.492 208.307 260.933 207.672 260.789 207.208C260.662 206.798 260.307 206.207 259.94 205.842C259.567 205.47 259.292 204.676 259.239 204.239C259.166 203.643 258.845 202.964 258.608 202.382C258.024 200.947 257.36 199.593 256.513 198.198C256.249 197.764 255.913 197.312 255.734 196.864C255.664 196.689 255.594 196.512 255.594 196.332C255.594 196.093 255.846 196.785 255.983 197.01C256.821 198.376 257.767 199.713 258.46 201.112C259.107 202.419 259.568 203.735 260.361 205.022C260.938 205.96 261.577 206.932 261.965 207.904C262.808 210.016 264.436 212.258 267.09 213.809C269.865 215.43 272.654 217.058 275.082 218.871C275.427 219.129 275.713 219.406 276.063 219.668C276.288 219.836 276.51 220.012 276.764 220.164C276.932 220.265 277.294 220.592 277.294 220.451C277.294 219.836 275.713 219.025 275.082 218.625C273.919 217.89 272.591 217.254 271.748 216.367C270.495 215.049 269.394 213.689 268.002 212.416C266.9 211.408 265.882 210.363 264.878 209.32C263.87 208.272 262.813 207.28 262.168 206.129C261.801 205.474 261.177 204.857 260.921 204.185C260.616 203.381 260.184 202.595 259.769 201.808C259.036 200.42 258.298 199.089 257.892 197.665C257.711 197.034 257.523 196.417 257.385 195.781C257.359 195.659 257.028 195.191 257.035 195.243C257.154 196.187 257.739 197.164 258.086 198.084C258.797 199.968 259.102 201.867 259.59 203.77C259.938 205.133 260.117 206.529 261.202 207.777C262.662 209.457 264.836 210.831 266.701 212.352C267.395 212.918 267.896 213.56 268.617 214.114C269.505 214.795 270.419 215.461 271.382 216.108C272.568 216.904 273.993 217.54 275.284 218.27C276.159 218.765 277.412 219.709 278.727 219.709" stroke="#FFC107" stroke-width="4" stroke-linecap="round"/>
<path d="M256.949 192.921C257.386 193.885 257.641 194.879 258.179 195.822C258.705 196.744 259.198 197.665 259.322 198.647C259.404 199.297 259.946 199.918 259.982 200.577C260.018 201.221 260.58 201.839 260.638 202.483C260.657 202.696 260.872 202.905 260.948 203.116C261.011 203.292 261.115 203.524 261.258 203.678C261.602 204.052 261.868 204.487 262.155 204.878C262.471 205.309 263.051 205.696 263.28 206.145C263.378 206.339 263.606 206.518 263.735 206.71C263.854 206.887 263.995 207.11 264.163 207.271C264.673 207.76 264.978 208.341 265.539 208.807C265.927 209.131 266.24 209.483 266.541 209.835C266.812 210.152 267.156 210.548 267.524 210.817C267.952 211.13 268.165 211.639 268.713 211.895C269.106 212.079 269.45 212.544 269.674 212.806C269.852 213.013 270.206 213.572 270.64 213.572" stroke="#FFC107" stroke-width="4" stroke-linecap="round"/>
<path d="M270.817 213.555C270.817 214.062 271.486 214.607 272.011 215.001C272.406 215.298 272.765 215.71 273.054 216.049C273.386 216.436 273.928 216.775 274.296 217.146C274.679 217.532 275.262 217.855 275.638 218.246C275.941 218.561 276.428 218.815 276.724 219.141C276.789 219.213 276.871 219.279 276.961 219.341C276.976 219.351 277.192 219.589 277.212 219.559C277.335 219.379 276.779 219.119 276.624 219.014C276.008 218.594 275.235 218.204 274.723 217.733C274.266 217.314 273.518 217.014 273.083 216.597C272.531 216.069 271.842 215.636 271.201 215.151C270.408 214.551 269.391 214.056 268.598 213.455C268.172 213.133 267.636 212.873 267.237 212.538C267.094 212.418 266.928 212.289 266.721 212.208" stroke="#FFC107" stroke-width="4" stroke-linecap="round"/>
<path d="M256.087 191.697C256.087 192.217 256.512 192.851 256.77 193.347C257.002 193.793 257.054 194.289 257.273 194.746C257.608 195.446 257.824 196.152 258.277 196.833C259.024 197.956 259.634 199.131 260.606 200.208C261.609 201.319 262.757 202.432 263.494 203.616C263.957 204.36 264.799 205.057 265.223 205.801C265.525 206.329 266.044 206.842 266.576 207.309C267.647 208.248 268.626 209.271 269.582 210.265C270.473 211.19 271.829 212.014 272.561 212.976C273.108 213.695 274.122 214.349 274.423 215.14C274.649 215.734 275.235 216.355 275.699 216.897C275.942 217.181 276.55 218.385 277.178 218.405C277.409 218.413 277.303 217.906 277.303 217.818" stroke="#FFC107" stroke-width="4" stroke-linecap="round"/>
<path d="M274.039 217.011C273.66 216.762 273.425 216.363 273.279 216.049C273 215.451 272.504 214.832 272.1 214.26C271.435 213.316 270.819 212.315 270.245 211.345C269.753 210.515 268.628 209.797 267.951 209.005C266.762 207.616 265.677 206.136 264.875 204.651C264.546 204.043 264.257 203.458 263.968 202.85C263.707 202.299 263.16 201.811 262.894 201.268C262.368 200.192 261.312 199.219 260.676 198.158C259.946 196.938 259.303 195.606 258.221 194.468C257.083 193.271 256.262 192.057 255.306 190.816C255.076 190.517 255.059 190.239 254.894 189.931C254.757 189.675 255.057 189.114 254.769 188.912C254.681 188.851 254.654 188.529 254.734 188.81C254.93 189.497 255.547 190.079 255.934 190.726C256.518 191.705 257.34 192.644 257.719 193.661C258.506 195.773 259.26 197.85 261.36 199.69C263.102 201.217 264.708 202.786 265.823 204.505C266.376 205.356 267.152 206.166 267.637 207.032C268.053 207.776 268.636 208.426 269.143 209.144C270.016 210.379 271.252 211.499 272.414 212.645C273.731 213.944 275.533 215.086 276.745 216.424C277.207 216.934 277.653 217.457 278.182 217.949C278.406 218.157 278.594 218.699 279.061 218.699" stroke="#FFC107" stroke-width="4" stroke-linecap="round"/>
<path d="M250.631 186.34C249.667 185.699 248.714 185.075 247.785 184.423C246.912 183.81 245.729 183.328 244.764 182.764C243.158 181.825 241.088 181.352 239.401 180.514C239.11 180.37 238.647 180.323 238.329 180.178C237.893 179.98 237.373 179.811 236.877 179.666C235.908 179.383 235.016 179.038 234.101 178.711C233.198 178.389 232.285 178.066 231.424 177.712C230.405 177.293 229.528 176.678 228.549 176.22C227.805 175.872 227.123 175.55 226.467 175.167C226.002 174.895 225.272 174.635 224.89 174.356C224.523 174.088 222.351 176.256 222.016 176.474C221.85 176.582 221.841 176.822 221.672 176.9C221.521 176.971 221.573 176.578 221.672 176.532C221.923 176.414 222.15 175.738 222.247 175.54C222.256 175.523 222.601 175.315 222.682 175.278C222.885 175.183 223.091 175.062 223.25 174.946C223.402 174.835 224.009 174.466 224.322 174.466C224.681 174.466 224.969 174.24 225.297 174.171C225.941 174.037 226.204 174.736 226.306 174.999C226.472 175.425 226.889 175.846 227.161 176.253C227.42 176.64 227.605 176.971 228.115 177.269C228.257 177.352 228.424 177.436 228.549 177.527C228.671 177.616 228.397 177.237 228.234 177.163C227.732 176.934 227.095 176.642 226.46 176.536C226.171 176.487 225.917 176.508 225.619 176.441C225.235 176.355 224.875 176.201 224.512 176.089C223.714 175.842 225.001 176.636 225.199 176.769C225.851 177.208 226.72 177.689 227.638 177.933C228.558 178.177 229.371 178.574 230.316 178.814C231.029 178.995 231.668 179.096 232.398 179.191C232.763 179.238 233.196 179.521 233.499 179.645C233.973 179.84 234.459 179.959 234.971 180.108C235.124 180.153 235.406 180.359 235.209 180.17C234.871 179.846 234.433 179.602 233.975 179.334C233.018 178.775 231.904 178.335 230.947 177.785C230.513 177.536 229.848 177.278 229.531 176.974C228.999 176.465 227.842 176.135 227.442 175.589C227.235 175.308 227.166 174.968 226.909 174.704C226.85 174.643 226.66 174.425 226.895 174.589C227.472 174.992 228.074 175.395 228.739 175.749C229.81 176.32 231.085 176.858 232.279 177.339C232.915 177.595 233.692 177.808 234.179 178.158C234.682 178.52 235.471 178.876 236.12 179.15C237.655 179.797 239.182 180.522 240.943 180.957C241.92 181.198 242.811 181.547 243.761 181.825C244.93 182.167 246.085 182.492 247.168 182.932C249.088 183.709 250.925 184.498 252.776 185.324C253.759 185.763 254.786 186.185 255.875 186.529C256.396 186.694 256.808 187.152 257.445 187.152" stroke="#FFC107" stroke-width="4" stroke-linecap="round"/>
<path d="M254.558 186.013C254.558 186.598 255.648 187.056 256.243 187.491C256.948 188.006 257.267 188.453 257.573 189.079C257.754 189.449 257.573 189.968 257.592 190.349C257.625 191.007 258.382 191.66 258.604 192.309C258.915 193.22 259.591 194.015 260.121 194.881C261.098 196.48 262.499 197.984 263.661 199.513C264.297 200.349 264.685 201.254 265.309 202.074C265.838 202.77 266.353 203.689 266.714 204.428C267.069 205.155 268.072 205.842 268.363 206.607C268.662 207.394 269.218 208.256 269.899 208.972C271.383 210.533 272.532 212.17 273.907 213.778C274.471 214.438 274.962 215.015 275.462 215.672C275.629 215.891 277.003 217.326 276.792 216.647C276.516 215.759 275.429 215.008 274.638 214.282C274.041 213.734 273.382 212.419 272.577 212.015C271.498 211.475 270.918 210.447 270.479 209.705C269.905 208.735 268.943 207.826 268.307 206.859C266.936 204.776 264.711 202.837 263.586 200.684C263.102 199.758 262.244 198.923 261.713 197.991C261.082 196.884 260.831 195.761 260.215 194.641C259.191 192.779 258.117 190.942 257.929 188.969C257.895 188.607 257.592 188.304 257.592 187.907C257.592 187.356 257.557 189.01 257.592 189.561C257.725 191.62 259.791 193.712 260.552 195.714C261.558 198.36 264.144 200.742 265.609 203.312C266.42 204.734 267.816 206.037 268.456 207.494C268.982 208.688 269.72 210.04 270.479 211.194C271.607 212.908 273.038 215.025 274.788 216.559" stroke="#FFC107" stroke-width="4" stroke-linecap="round"/>
<path d="M272.41 213.111C271.89 212.769 271.67 212.314 271.186 211.951C270.705 211.589 270.058 210.939 269.877 210.491C269.647 209.918 269.303 209.344 268.888 208.81C268.724 208.6 268.776 208.258 268.696 208.024C268.594 207.726 268.312 207.461 268.312 207.159C268.312 207.012 268.188 206.731 268.084 206.598C267.838 206.282 267.791 205.763 267.415 205.517C266.941 205.205 266.933 204.534 266.583 204.165C265.786 203.327 265.473 202.322 264.697 201.491C264.272 201.035 264.182 200.513 263.829 200.047C263.56 199.694 263.513 199.212 263.188 198.904C262.958 198.685 262.891 198.423 262.797 198.176C262.734 198.011 262.492 197.898 262.427 197.727C262.34 197.497 262.015 196.781 261.715 196.641C261.309 196.451 261.223 195.859 260.982 195.593C260.816 195.409 260.81 195.19 260.691 194.994C260.552 194.768 260.309 194.562 260.25 194.321C260.053 193.515 259.371 192.733 259.218 191.925C259.08 191.198 258.071 190.536 257.937 189.829C257.869 189.47 257.553 189.108 257.553 188.743C257.553 188.569 257.553 188.394 257.553 188.219C257.553 187.875 257.666 188.696 257.752 188.818C258.886 190.428 259.255 192.273 260.05 193.946C260.838 195.603 261.473 197.34 262.548 198.945C262.696 199.167 262.992 200.035 262.925 199.328C262.844 198.471 262.089 197.661 261.772 196.828C261.586 196.338 261.135 195.885 260.911 195.402C260.676 194.893 260.46 194.371 260.186 193.871C259.674 192.94 259.269 191.855 259.083 190.877C259.002 190.451 258.705 190.048 258.705 189.608C258.705 189.507 258.488 189.042 258.456 189.126C258.245 189.682 259.124 190.53 259.446 191.027C259.899 191.728 260.319 192.435 260.755 193.139C261.411 194.2 261.881 195.348 262.164 196.462C262.458 197.623 262.886 198.794 263.445 199.919C263.619 200.27 263.859 200.62 264.056 200.967C264.161 201.15 264.296 201.494 264.597 201.582" stroke="#FFC107" stroke-width="4" stroke-linecap="round"/>
<path d="M259.222 193.913C259.222 192.913 258.239 191.855 257.581 190.941C256.903 189.999 256.863 188.935 256.128 187.969C255.866 187.624 255.832 187.004 255.832 186.624C255.832 186.168 255.152 185.737 255.106 185.28C255.064 184.858 254.851 185.321 254.864 185.531C254.891 185.992 255.204 186.545 255.469 186.978C255.831 187.57 256.228 188.095 256.559 188.676" stroke="#FFC107" stroke-width="4" stroke-linecap="round"/>
<path d="M258.012 188.676C258.012 187.988 257.163 187.43 257.043 186.836C256.986 186.554 256.534 185.438 256.196 185.28C256.022 185.198 256.075 185.059 256.075 184.941C256.075 184.759 256.097 185.311 256.196 185.484C256.477 185.978 256.514 186.591 256.936 187.049C257.26 187.401 257.528 188.961 257.528 187.796C257.528 187.284 257.197 186.515 256.855 186.066C256.476 185.568 256.778 185.099 255.954 184.713C255.116 184.322 254.006 184.105 253.048 183.793C252.114 183.49 250.393 183.006 249.833 182.449C249.568 182.186 247.924 181.948 247.357 181.773C246.17 181.405 244.962 180.986 243.833 180.609C242.82 180.271 241.829 179.938 240.712 179.752C239.711 179.585 238.632 178.94 237.671 178.659C235.689 178.08 233.995 177.028 231.981 176.505C231.131 176.284 229.56 175.996 228.9 175.687C228.369 175.439 226.374 175.655 228.591 175.655C229.496 175.655 230.826 176.199 231.739 176.363C233.035 176.596 234.059 177.07 235.304 177.322C237.439 177.754 239.799 178.323 241.801 178.981C243.179 179.434 244.722 179.697 246.146 180.114C246.931 180.343 248.678 180.978 249.537 181.034C250.46 181.094 251.832 181.904 252.685 182.197C253.588 182.508 254.62 183.043 255.469 183.44C255.558 183.481 256.245 184.135 256.061 183.652C255.969 183.409 255.582 182.846 255.241 182.732C254.474 182.476 254.223 181.78 253.411 181.49C252.483 181.158 251.114 180.709 250.317 180.294C248.962 179.591 246.929 179.496 245.447 178.918C244.831 178.678 244.142 178.679 243.59 178.415C243.037 178.151 242.345 177.986 241.653 177.912C239.932 177.729 238.266 176.985 236.46 176.929C235.036 176.885 233.74 176.505 232.344 176.505C231.286 176.505 230.496 176.363 229.438 176.363" stroke="#FFC107" stroke-width="4" stroke-linecap="round"/>
<path d="M251.883 180.344C250.831 179.972 249.793 179.506 248.875 179.026C247.519 178.316 245.399 177.878 243.78 177.405C241.175 176.644 238.295 176.226 235.501 175.818C234.078 175.61 232.592 175.522 231.132 175.427C230.089 175.359 229.148 175.209 228.158 175.002C227.897 174.948 226.256 174.687 227.014 174.861C227.827 175.047 228.543 175.375 229.328 175.598C230.349 175.888 231.521 176.079 232.602 176.282C233.73 176.493 234.845 176.68 235.961 176.921C237.634 177.283 239.194 177.807 240.889 178.137C242.135 178.38 243.865 178.458 244.832 178.996C246.267 179.795 248.153 180.304 249.995 180.695C250.356 180.772 250.804 181.15 251.014 181.33C251.461 181.714 252.162 182.031 252.718 182.365C253.555 182.869 253.917 183.503 254.447 184.123C254.995 184.764 255.595 185.427 256.243 186.037C256.553 186.328 256.885 186.663 257.07 186.989C257.294 187.382 257.694 187.736 257.897 188.122C258.174 188.647 258.765 189.124 258.95 189.665C259.204 190.408 259.609 191.134 259.885 191.877C260.346 193.114 261.03 194.355 261.623 195.568C262.202 196.752 262.666 197.919 263.043 199.132C263.316 200.011 263.591 200.971 264.179 201.788C264.451 202.166 264.567 202.583 264.814 202.98C265.013 203.299 265.352 203.668 265.416 204.005C265.528 204.595 266.2 205.235 266.543 205.792C267.065 206.64 267.726 207.465 268.239 208.311C269.092 209.717 270.482 211.01 271.647 212.335C272.191 212.953 272.878 214.208 273.986 214.532" stroke="#FFC107" stroke-width="4" stroke-linecap="round"/>
<path d="M257.446 186.848C256.756 185.991 256.038 185.155 255.266 184.343C255 184.063 254.89 183.608 254.89 183.288C254.89 182.887 254.595 182.448 254.447 182.058C254.417 181.98 254.34 181.637 254.255 181.594C253.863 181.393 254.555 182.182 254.806 182.448C255.356 183.033 255.965 183.654 256.243 184.304C256.863 185.753 257.499 187.241 258.19 188.654C258.83 189.963 256.236 186.178 255.458 184.895C254.879 183.939 254.273 182.926 253.537 182.014C253.47 181.932 252.847 181.309 252.793 181.594C252.679 182.194 252.759 182.815 252.668 183.42C252.549 184.208 252.577 185.046 252.643 185.837C252.692 186.427 253.063 186.977 253.086 187.57C253.09 187.698 253.148 188.387 253.378 188.454C253.634 188.529 253.39 188.119 253.386 187.951C253.377 187.549 253.231 187.171 253.086 186.779C252.782 185.962 252.625 185.122 252.258 184.313C252.197 184.178 251.857 183.512 251.916 183.615C252.312 184.31 252.804 184.98 253.169 185.681C253.588 186.485 253.838 187.376 254.89 187.99" stroke="#FFC107" stroke-width="4" stroke-linecap="round"/>
<path d="M258.198 187.902C256.473 186.834 255.642 185.153 255.642 183.728C255.642 183.027 255.3 182.365 254.773 181.75C254.52 181.455 253.797 180.835 253.353 180.627C252.85 180.392 252.036 180.374 251.432 180.256" stroke="#FFC107" stroke-width="4" stroke-linecap="round"/>
<path d="M256.545 185.793C256.545 185.179 255.555 184.662 255.333 184.079C255.096 183.455 254.515 182.843 254.139 182.238C253.764 181.637 252.963 181.151 252.184 180.695C251.798 180.47 251.355 180.306 250.906 180.124C250.365 179.906 248.546 179.154 247.974 179.377" stroke="#FFC107" stroke-width="4" stroke-linecap="round"/>
<path d="M254.138 185.881C254.138 185.607 254.269 185.417 254.405 185.158C254.579 184.829 254.439 184.378 254.439 184.035C254.439 183.444 254.286 182.682 253.954 182.121C253.557 181.451 253.036 180.722 252.183 180.168C251.934 180.006 251.621 179.678 251.281 179.572C250.867 179.444 250.319 179.442 249.928 179.289" stroke="#FFC107" stroke-width="4" stroke-linecap="round"/>
<path d="M254.589 183.596C254.589 183.087 253.912 182.692 253.445 182.273C252.74 181.639 251.978 181.103 251.064 180.569C249.6 179.713 247.833 178.618 245.868 178.235" stroke="#FFC107" stroke-width="4" stroke-linecap="round"/>
<path d="M225.231 177.354C224.725 177.317 224.915 175.966 224.915 175.757C224.915 175.376 224.892 174.965 225.652 175.261" stroke="#FFC107" stroke-width="4" stroke-linecap="round"/>
<path d="M248.189 178.4C247.754 178.315 247.449 178.032 247.077 177.907C246.377 177.674 245.712 177.433 244.983 177.23C243.923 176.936 242.841 176.644 241.741 176.396C240.148 176.036 238.484 175.719 236.821 175.476C235.174 175.235 233.469 174.953 231.761 174.953C230.632 174.953 229.564 174.83 228.443 174.83C228.113 174.83 226.287 175.173 226.097 175.062C225.614 174.78 227.132 174.461 227.39 174.461C227.955 174.461 228.432 174.372 229.023 174.447C229.823 174.548 230.64 174.527 231.445 174.632C233.076 174.843 234.656 174.882 236.242 175.233C237.31 175.47 238.379 175.637 239.471 175.815C240.341 175.956 241.203 176.155 242.081 176.259C242.805 176.346 243.502 176.607 244.24 176.673C244.983 176.74 245.786 176.934 246.498 177.08C247.682 177.322 248.79 177.693 249.956 177.955C250.73 178.13 251.397 178.453 252.032 178.742C252.384 178.901 253.193 179.193 253.243 179.446C253.306 179.756 253.953 179.928 254.092 180.212C254.285 180.608 254.827 180.805 255.139 181.17" stroke="#FFC107" stroke-width="4" stroke-linecap="round"/>
<path d="M255.771 183.324C255.771 182.899 255.984 182.234 255.689 181.847C255.322 181.364 254.886 180.95 254.425 180.493C253.968 180.038 253.22 179.673 252.588 179.337C251.948 178.997 251.215 178.523 250.295 178.523" stroke="#FFC107" stroke-width="4" stroke-linecap="round"/>
<path d="M254.191 182.154C254.478 182.134 254.274 180.72 254.168 180.54C253.937 180.151 253.653 179.802 253.144 179.504C252.667 179.226 251.985 178.709 251.348 178.585" stroke="#FFC107" stroke-width="4" stroke-linecap="round"/>
<path d="M242.923 179.077C242.689 179.077 242.547 178.934 242.315 178.879C241.878 178.775 241.324 178.453 240.945 178.277C240.47 178.056 239.875 177.896 239.342 177.723C238.89 177.576 238.506 177.342 238.079 177.169C236.747 176.63 235.758 175.814 234.288 175.384C232.339 174.814 230.181 174.325 228.016 174.043C227.457 173.971 226.513 173.854 226.05 174.105C225.434 174.439 225.021 174.741 225.021 175.261" stroke="#FFC107" stroke-width="4" stroke-linecap="round"/>
<path d="M277.288 219.88C277.19 218.964 275.107 218.366 274.915 217.415C274.88 217.241 274.237 216.902 274.11 216.567C273.949 216.145 273.605 215.683 273.216 215.326C272.829 214.971 273.023 214.542 272.748 214.179C272.477 213.823 272.179 213.261 272.03 212.87C271.619 211.788 271.179 210.481 270.17 209.523C268.606 208.038 268.321 206.225 266.875 204.704C265.758 203.529 265.22 202.142 264.429 200.894C264.18 200.502 264.047 199.795 263.697 199.474C263.161 198.982 263.215 198.201 262.642 197.77C261.581 196.972 261.949 195.608 261.075 194.689C260.266 193.837 260.525 192.597 259.831 191.684C259.509 191.261 259.217 190.53 259.113 190.075C259.045 189.778 259.059 189.543 258.893 189.253C258.726 188.96 259.029 189.929 259.098 190.058C260.475 192.613 262.156 195.099 263.712 197.625C264.67 199.181 265.776 200.748 266.875 202.247C268.094 203.91 268.575 205.837 269.174 207.588C269.771 209.331 270.532 211.349 271.898 212.947C272.475 213.62 273.597 214.827 273.597 215.566" stroke="#FFC107" stroke-width="4" stroke-linecap="round"/>
<path d="M275.969 216.028C275.969 215.457 275.402 214.961 275.193 214.41C275.014 213.94 275.09 213.391 274.709 212.947C274.455 212.649 274.35 211.727 273.992 211.56C273.722 211.434 273.169 210.493 273.055 210.259C272.473 209.069 271.023 207.991 270.433 206.784C269.89 205.673 268.324 204.589 268.324 203.394" stroke="#FFC107" stroke-width="4" stroke-linecap="round"/>
<path d="M268.324 203.394C268.324 204.562 268.956 205.404 269.774 206.467C270.473 207.374 270.881 208.531 271.751 209.369C273.353 210.911 273.299 212.966 274.915 214.522C275.443 215.031 276.526 215.991 276.745 216.567C276.869 216.892 277.884 218.108 277.492 217.192C276.759 215.478 275.199 213.798 274.373 212.108C273.787 210.91 272.399 209.692 272 208.41C271.837 207.885 271.185 206.471 270.492 206.116C269.014 205.36 272.059 208.222 272.937 209.249C274.882 211.522 276.651 213.857 278.473 216.105C278.666 216.344 279.004 216.652 279.118 216.884C279.284 217.225 279.089 216.605 278.869 216.525C278.402 216.354 277.702 214.995 277.551 214.642" stroke="#FFC107" stroke-width="4" stroke-linecap="round"/>
<path d="M272.015 212.793C271.524 212.183 270.961 211.228 270.961 210.558C270.961 209.829 269.906 209.013 269.906 208.247C269.906 207.527 269.047 206.655 268.647 205.979C268.163 205.162 267.948 204.362 267.329 203.548C266.647 202.651 266.325 201.446 265.952 200.466C265.562 199.44 264.437 198.469 264.121 197.453C263.902 196.747 263.329 195.704 262.73 195.074C261.823 194.12 261.28 193.066 260.621 192.026C260.38 191.646 259.804 191.422 259.64 190.991C259.357 190.247 259.802 191.834 260.021 192.146C261.038 193.599 261.749 195.074 262.672 196.537C263.356 197.623 263.68 198.592 264.165 199.696C264.487 200.426 264.769 201.634 265.425 202.281C266.24 203.085 266.365 204.044 267.138 204.858C268.1 205.869 268.439 207.114 269.496 208.085C269.88 208.437 270.268 209.029 270.492 209.437C270.95 210.27 271.702 211.017 272.22 211.834C272.434 212.171 272.572 212.57 273.011 212.827C273.084 212.869 273.07 212.19 273.07 212.022" stroke="#FFC107" stroke-width="4" stroke-linecap="round"/>
<path d="M273.07 211.406C273.07 209.364 271.786 207.56 270.375 205.705C268.846 203.695 267.566 201.841 266.069 199.842C265.319 198.839 264.506 197.858 264.122 196.846C263.799 195.998 263.265 194.946 262.584 194.149C261.815 193.25 261.427 192.281 260.739 191.376C260.14 190.588 260.053 189.377 259.098 188.68C258.365 188.144 257.508 186.769 257.238 186.06C257.099 185.692 256.532 185.112 256.257 184.751C255.902 184.283 255.886 183.918 255.657 183.45C255.535 183.2 255.435 183.032 255.408 182.748C255.37 182.35 254.83 182.299 255.408 182.679C256.075 183.118 256.203 183.73 256.843 184.211C257.916 185.017 257.861 186.264 258.513 187.216C259.381 188.484 259.667 189.944 260.358 191.256C260.73 191.962 260.76 192.729 261.207 193.447C261.61 194.095 262.306 194.963 262.511 195.622C262.959 197.064 264.216 198.674 265.425 199.936C266.78 201.349 267.464 202.963 268.325 204.472" stroke="#FFC107" stroke-width="4" stroke-linecap="round"/>
<path d="M255.604 182.047C255.604 182.214 255.93 182.375 256.053 182.536C256.222 182.758 256.556 183.023 256.58 183.27C256.627 183.771 256.968 184.259 256.998 184.755C257.09 186.266 257.57 187.695 258.392 189.138" stroke="#FFC107" stroke-width="4" stroke-linecap="round"/>
<path d="M257.138 186.774C257.138 188.651 259.261 190.448 260.314 192.171C260.844 193.039 261.386 193.898 261.817 194.797C262.219 195.637 262.687 196.661 263.552 197.369" stroke="#FFC107" stroke-width="4" stroke-linecap="round"/>
</g>
<defs>
<filter id="filter0_d_16_10" x="128" y="77" width="596" height="227" filterUnits="userSpaceOnUse" color-interpolation-filters="sRGB">
<feFlood flood-opacity="0" result="BackgroundImageFix"/>
<feColorMatrix in="SourceAlpha" type="matrix" values="0 0 0 0 0 0 0 0 0 0 0 0 0 0 0 0 0 0 127 0" result="hardAlpha"/>
<feOffset dy="4"/>
<feGaussianBlur stdDeviation="4"/>
<feComposite in2="hardAlpha" operator="out"/>
<feColorMatrix type="matrix" values="0 0 0 0 0 0 0 0 0 0 0 0 0 0 0 0 0 0 0.15 0"/>
<feBlend mode="normal" in2="BackgroundImageFix" result="effect1_dropShadow_16_10"/>
<feBlend mode="normal" in="SourceGraphic" in2="effect1_dropShadow_16_10" result="shape"/>
</filter>
<filter id="filter1_d_16_10" x="380.256" y="221.216" width="267.199" height="49.4201" filterUnits="userSpaceOnUse" color-interpolation-filters="sRGB">
<feFlood flood-opacity="0" result="BackgroundImageFix"/>
<feColorMatrix in="SourceAlpha" type="matrix" values="0 0 0 0 0 0 0 0 0 0 0 0 0 0 0 0 0 0 127 0" result="hardAlpha"/>
<feOffset/>
<feGaussianBlur stdDeviation="2.5"/>
<feColorMatrix type="matrix" values="0 0 0 0 0.266667 0 0 0 0 0.266667 0 0 0 0 0.266667 0 0 0 0.5 0"/>
<feBlend mode="normal" in2="BackgroundImageFix" result="effect1_dropShadow_16_10"/>
<feBlend mode="normal" in="SourceGraphic" in2="effect1_dropShadow_16_10" result="shape"/>
</filter>
<filter id="filter2_d_16_10" x="385.256" y="226.216" width="269.199" height="47.4201" filterUnits="userSpaceOnUse" color-interpolation-filters="sRGB">
<feFlood flood-opacity="0" result="BackgroundImageFix"/>
<feColorMatrix in="SourceAlpha" type="matrix" values="0 0 0 0 0 0 0 0 0 0 0 0 0 0 0 0 0 0 127 0" result="hardAlpha"/>
<feOffset dx="8" dy="4"/>
<feGaussianBlur stdDeviation="2"/>
<feComposite in2="hardAlpha" operator="out"/>
<feColorMatrix type="matrix" values="0 0 0 0 0 0 0 0 0 0 0 0 0 0 0 0 0 0 0.75 0"/>
<feBlend mode="normal" in2="BackgroundImageFix" result="effect1_dropShadow_16_10"/>
<feBlend mode="normal" in="SourceGraphic" in2="effect1_dropShadow_16_10" result="shape"/>
</filter>
<clipPath id="clip0_16_10">
<rect width="580" height="211" fill="white" transform="translate(136 81)"/>
</clipPath>
</defs>
</svg>
