<svg width="468" height="60" viewBox="0 0 468 60" fill="none" xmlns="http://www.w3.org/2000/svg">
<g clip-path="url(#clip0_17_176)">
<rect width="468" height="60" fill="white"/>
<g clip-path="url(#clip1_17_176)" filter="url(#filter0_d_17_176)">
<mask id="mask0_17_176" style="mask-type:luminance" maskUnits="userSpaceOnUse" x="94" y="-4" width="315" height="64">
<path d="M409 -4H94V60H409V-4Z" fill="white"/>
</mask>
<g mask="url(#mask0_17_176)">
<path d="M409 -4H94V60H409V-4Z" fill="white"/>
<mask id="mask1_17_176" style="mask-type:luminance" maskUnits="userSpaceOnUse" x="94" y="-7" width="313" height="67">
<path d="M94.5 -6.43207H405.897V59.477H94.5V-6.43207Z" fill="white" stroke="white"/>
</mask>
<g mask="url(#mask1_17_176)">
<path d="M173.974 -0.508791C171.319 1.0078 171.631 2.34599 175.223 4.21944C179.285 6.36053 179.128 8.59084 174.911 10.1967C171.475 11.5348 171.319 11.624 173.974 14.568C176.317 17.1552 176.629 17.2444 175.848 15.2817C175.223 13.5868 176.004 12.2486 178.972 10.4643C183.971 7.34187 183.971 6.44975 178.972 3.68417C176.629 2.43521 175.38 0.918598 175.692 0.0264812C176.629 -1.84697 176.473 -1.9362 173.974 -0.508791Z" fill="#FFC107"/>
<path d="M145.827 25.7073L140.117 24.8324L122.06 34.1057L122.057 34.107C116.912 36.7341 112.122 39.2699 108.544 41.2467C106.754 42.2356 105.276 43.0801 104.211 43.7238C103.678 44.0462 103.258 44.3121 102.959 44.5172C102.668 44.7165 102.56 44.8119 102.539 44.8302C102.536 44.833 102.535 44.8339 102.535 44.8333L102.499 44.8795L102.452 44.9227C102.318 45.0455 102.227 45.2931 102.412 45.7088C102.591 46.1113 102.991 46.5758 103.557 47.0231C104.12 47.4683 104.806 47.8638 105.502 48.1415C106.13 48.3917 106.682 48.5134 107.109 48.539C107.147 48.5274 107.194 48.5118 107.252 48.4913C107.498 48.4042 107.841 48.2638 108.281 48.0656C109.156 47.6715 110.319 47.0925 111.695 46.3671C114.442 44.92 117.974 42.9249 121.631 40.7475C125.318 38.5075 128.891 36.4887 131.669 35.0259C133.056 34.2954 134.259 33.6964 135.185 33.2761C135.645 33.0672 136.059 32.8923 136.406 32.7661C136.579 32.7034 136.759 32.6433 136.938 32.5963C137.076 32.5603 137.376 32.4861 137.736 32.4861C138.15 32.4861 138.506 32.5875 138.644 32.6272C138.849 32.6861 139.072 32.7636 139.298 32.8493C139.756 33.0221 140.334 33.2669 141.004 33.5677C142.35 34.1716 144.151 35.0371 146.275 36.0937C150.527 38.209 156.123 41.1147 162.065 44.2849L162.068 44.2868C168.698 47.8506 174.258 50.6928 178.307 52.5958C180.336 53.5494 181.958 54.2545 183.132 54.6953C183.725 54.9179 184.159 55.0563 184.449 55.1277C184.454 55.1289 184.459 55.13 184.464 55.1312C184.492 55.1203 184.523 55.1076 184.558 55.0931C184.743 55.0157 184.975 54.9066 185.253 54.7639C185.809 54.4791 186.492 54.0887 187.263 53.6195C188.803 52.6826 190.637 51.4644 192.402 50.2241C194.166 48.9838 195.845 47.7322 197.078 46.7299C197.696 46.2273 198.188 45.7979 198.521 45.4697C198.672 45.3204 198.779 45.2023 198.849 45.1142C198.753 45.018 198.605 44.8867 198.4 44.7187C197.949 44.3488 197.282 43.8509 196.44 43.2538C194.761 42.0631 192.435 40.5131 189.868 38.8692C185.752 36.2963 183.303 34.6515 181.911 33.2275C180.459 31.7424 180.17 30.514 180.17 28.842C180.17 27.5261 179.973 26.6717 179.586 26.0816C179.227 25.5361 178.696 25.1993 177.863 24.9254C176.109 24.3917 174.906 24.0982 174.065 24.0142C173.667 23.9745 173.44 23.9921 173.314 24.0161C173.209 24.0362 173.089 24.0756 172.948 24.1875C172.605 24.4589 172.286 25.0313 172.089 26.1332C171.898 27.2019 171.839 28.6419 171.839 30.537C171.839 32.5182 171.682 34.3277 171.442 35.6507C171.323 36.3085 171.18 36.8663 171.017 37.271C170.937 37.4676 170.839 37.6644 170.708 37.8267C170.645 37.9049 170.543 38.0166 170.379 38.1198C170.224 38.2167 169.86 38.4013 169.288 38.4013C168.023 38.4013 166.82 37.987 165.844 37.5107C164.823 37.0119 163.83 36.337 162.965 35.5956C161.261 34.1354 159.864 32.2547 159.864 30.7155C159.864 29.9526 159.763 29.4452 159.496 29.0541C159.25 28.6938 158.827 28.3824 157.977 28.0619C157.089 27.7268 155.766 27.3947 153.761 27.0129C151.768 26.6334 149.186 26.2205 145.827 25.7073ZM198.951 45.2265C198.951 45.2259 198.95 45.2251 198.95 45.2241C198.954 45.232 198.956 45.233 198.951 45.2265Z" fill="#FFC107"/>
<path d="M107.003 48.5687C107.003 48.5689 107.008 48.5678 107.018 48.5654M145.827 25.7073L140.117 24.8324L122.06 34.1057L122.057 34.107C116.912 36.7341 112.122 39.2699 108.544 41.2467C106.754 42.2356 105.276 43.0801 104.211 43.7238C103.678 44.0462 103.258 44.3121 102.959 44.5172C102.668 44.7165 102.56 44.8119 102.539 44.8302C102.536 44.833 102.535 44.8339 102.535 44.8333L102.499 44.8795L102.452 44.9227C102.318 45.0455 102.227 45.2931 102.412 45.7088C102.591 46.1113 102.991 46.5758 103.557 47.0231C104.12 47.4683 104.806 47.8638 105.502 48.1415C106.13 48.3917 106.682 48.5134 107.109 48.539C107.147 48.5274 107.194 48.5118 107.252 48.4913C107.498 48.4042 107.841 48.2638 108.281 48.0656C109.156 47.6715 110.319 47.0925 111.695 46.3671C114.442 44.92 117.974 42.9249 121.631 40.7475C125.318 38.5075 128.891 36.4887 131.669 35.0259C133.056 34.2954 134.259 33.6964 135.185 33.2761C135.645 33.0672 136.059 32.8923 136.406 32.7661C136.579 32.7034 136.759 32.6433 136.938 32.5963C137.076 32.5603 137.376 32.4861 137.736 32.4861C138.15 32.4861 138.506 32.5875 138.644 32.6272C138.849 32.6861 139.072 32.7636 139.298 32.8493C139.756 33.0221 140.334 33.2669 141.004 33.5677C142.35 34.1716 144.151 35.0371 146.275 36.0937C150.527 38.209 156.123 41.1147 162.065 44.2849L162.068 44.2868C168.698 47.8506 174.258 50.6928 178.307 52.5958C180.336 53.5494 181.958 54.2545 183.132 54.6953C183.725 54.9179 184.159 55.0563 184.449 55.1277C184.454 55.1289 184.459 55.13 184.464 55.1312C184.492 55.1203 184.523 55.1076 184.558 55.0931C184.743 55.0157 184.975 54.9066 185.253 54.7639C185.809 54.4791 186.492 54.0887 187.263 53.6195C188.803 52.6826 190.637 51.4644 192.402 50.2241C194.166 48.9838 195.845 47.7322 197.078 46.7299C197.696 46.2273 198.188 45.7979 198.521 45.4697C198.672 45.3204 198.779 45.2023 198.849 45.1142C198.753 45.018 198.605 44.8867 198.4 44.7187C197.949 44.3488 197.282 43.8509 196.44 43.2538C194.761 42.0631 192.435 40.5131 189.868 38.8692C185.752 36.2963 183.303 34.6515 181.911 33.2275C180.459 31.7424 180.17 30.514 180.17 28.842C180.17 27.5261 179.973 26.6717 179.586 26.0816C179.227 25.5361 178.696 25.1993 177.863 24.9254C176.109 24.3917 174.906 24.0982 174.065 24.0142C173.667 23.9745 173.44 23.9921 173.314 24.0161C173.209 24.0362 173.089 24.0756 172.948 24.1875C172.605 24.4589 172.286 25.0313 172.089 26.1332C171.898 27.2019 171.839 28.6419 171.839 30.537C171.839 32.5182 171.682 34.3277 171.442 35.6507C171.323 36.3085 171.18 36.8663 171.017 37.271C170.937 37.4676 170.839 37.6644 170.708 37.8267C170.645 37.9049 170.543 38.0166 170.379 38.1198C170.224 38.2167 169.86 38.4013 169.288 38.4013C168.023 38.4013 166.82 37.987 165.844 37.5107C164.823 37.0119 163.83 36.337 162.965 35.5956C161.261 34.1354 159.864 32.2547 159.864 30.7155C159.864 29.9526 159.763 29.4452 159.496 29.0541C159.25 28.6938 158.827 28.3824 157.977 28.0619C157.089 27.7268 155.766 27.3947 153.761 27.0129C151.768 26.6334 149.186 26.2205 145.827 25.7073ZM198.951 45.2265C198.951 45.2259 198.95 45.2251 198.95 45.2241C198.954 45.232 198.956 45.233 198.951 45.2265Z" stroke="#FFC107"/>
<path d="M131.488 50.1636V50.1636C131.488 52.1345 133.086 53.7322 135.057 53.7322H139.298H143.54C145.51 53.7322 147.108 52.1345 147.108 50.1636V50.1636V50.1636C147.108 48.1928 145.51 46.5952 143.54 46.5952H139.298H135.057C133.086 46.5952 131.488 48.1928 131.488 50.1636V50.1636Z" fill="#FFC107"/>
<path d="M172.836 25.7261C172.356 25.7561 172.547 26.4195 172.547 26.616C172.547 26.9612 172.451 27.2737 172.451 27.6137C172.451 27.9463 172.162 28.2765 172.162 28.6115C172.162 28.935 172.162 29.2586 172.162 29.5823C172.162 29.855 172.354 30.1347 172.354 30.4182C172.354 30.7242 172.451 31.0257 172.451 31.3079C172.451 31.9676 172.354 32.5703 172.354 33.2225" stroke="#FFC107" stroke-linecap="square"/>
<path d="M183.923 54.7415C183.681 54.7145 183.45 54.4974 183.313 54.3988C183.14 54.2739 182.975 54.1089 182.742 54.017C182.469 53.9091 182.264 53.731 182.036 53.5961C181.941 53.5401 181.822 53.4974 181.741 53.4394C181.686 53.3996 181.579 53.3412 181.504 53.3121C181.388 53.267 181.314 53.2099 181.217 53.1555C181.123 53.1027 180.986 53.0564 180.918 52.9901C180.883 52.9553 180.748 52.9033 180.691 52.8716C180.583 52.8108 180.422 52.7731 180.297 52.7246C180.177 52.6781 180.104 52.6215 179.975 52.5833C179.867 52.5513 179.69 52.4765 179.623 52.4212C179.564 52.3709 179.373 52.314 179.278 52.2841C179.124 52.2355 179.01 52.1543 178.865 52.098C178.282 51.8721 177.737 51.5774 177.223 51.2996C177.111 51.239 176.968 51.1466 176.831 51.1037C176.722 51.0698 176.651 50.9915 176.534 50.9623C176.406 50.9305 176.281 50.8256 176.167 50.7753C176.007 50.7047 175.874 50.6166 175.705 50.5511C175.564 50.4964 175.425 50.435 175.301 50.3705C175.16 50.2967 174.984 50.2509 174.838 50.179C174.575 50.0502 174.275 49.9421 173.993 49.8266C173.761 49.7313 173.544 49.6071 173.318 49.5035C173.179 49.44 173.024 49.3729 172.902 49.299C172.815 49.2455 172.626 49.1456 172.507 49.1174C172.405 49.0932 172.268 48.9923 172.184 48.9454C172.084 48.8891 171.977 48.8413 171.887 48.7801C171.686 48.642 171.43 48.5226 171.206 48.3971C170.81 48.175 170.428 47.9457 170.018 47.7401C169.573 47.5166 169.046 47.343 168.621 47.1047C168.44 47.0032 168.231 46.9251 168.044 46.8208C167.831 46.7014 167.617 46.5949 167.398 46.4781C167.165 46.3537 166.926 46.235 166.697 46.1072C166.598 46.0515 166.476 45.9901 166.366 45.9396C166.271 45.8961 166.165 45.8227 166.071 45.7885C165.883 45.7204 165.668 45.5878 165.531 45.4893C165.454 45.434 165.343 45.3849 165.25 45.3326C165.167 45.2864 164.979 45.2279 164.926 45.177C164.803 45.0599 164.546 44.977 164.376 44.8823C164.218 44.7936 164.054 44.7101 163.897 44.6222C163.816 44.5771 163.714 44.5417 163.633 44.496C163.585 44.4694 163.443 44.4187 163.415 44.3915C163.359 44.3363 163.121 44.2122 163.031 44.187" stroke="#FFC107" stroke-linecap="square"/>
<path d="M184.167 54.1959C185.023 54.1959 185.369 53.5267 186.026 53.2401C186.289 53.1255 186.549 52.9805 186.716 52.8214C186.823 52.7191 187.085 52.6448 187.173 52.5331C187.341 52.3207 187.685 51.9446 188.004 51.8014C188.204 51.7116 188.28 51.558 188.478 51.4714C188.661 51.392 188.86 51.2966 188.975 51.1806C189.207 50.9469 189.696 50.8164 189.924 50.56C190.308 50.1303 190.986 49.6926 191.621 49.3725C192.148 49.1068 192.89 48.782 193.185 48.4093C193.367 48.1809 193.709 47.9697 193.823 47.7468C193.871 47.6521 194.19 47.608 194.214 47.5003C194.23 47.4297 194.465 47.3181 194.53 47.254C194.969 46.824 195.524 46.4273 196.095 46.0715C196.369 45.9006 196.7 45.7017 196.886 45.505C197.056 45.3244 197.375 45.1984 197.536 45.0172" stroke="#FFC107" stroke-linecap="square"/>
<path d="M185.433 54.329C185.753 54.1695 186.152 54.0602 186.479 53.8954C186.77 53.7485 187.227 53.6925 187.41 53.4865" stroke="#FFC107" stroke-linecap="square"/>
<path d="M186.777 53.4866C186.806 53.3279 187.293 52.9123 187.524 52.8313C187.695 52.7715 187.953 52.6042 188.061 52.511C188.139 52.4432 188.24 52.4073 188.36 52.3682C188.468 52.3324 188.455 52.2348 188.562 52.2006C188.893 52.0944 189.194 51.8551 189.37 51.6685C189.521 51.5084 189.675 51.2807 189.898 51.1561C190.42 50.8633 190.821 50.4909 191.348 50.1954C191.878 49.8985 192.225 49.5113 192.693 49.2198C192.998 49.0297 193.141 48.7603 193.44 48.5744C193.634 48.4535 193.984 48.2506 194.06 48.1014C194.089 48.0438 194.309 47.9367 194.372 47.8748C194.472 47.7766 194.599 47.6969 194.706 47.5891C194.772 47.5226 194.976 47.3261 195.084 47.2884C195.215 47.2423 195.245 47.109 195.361 47.0569C195.426 47.0278 195.612 46.8653 195.633 46.8131C195.671 46.7172 195.877 46.6275 195.989 46.5471C196.231 46.3728 196.451 46.1378 196.727 45.9828C196.978 45.8426 197.287 45.6025 197.457 45.4361C197.603 45.2924 197.673 45.0009 197.932 44.9286" stroke="#FFC107" stroke-linecap="square"/>
<path d="M197.075 44.4684C197.075 44.3415 197.012 44.1641 196.867 44.0602C196.715 43.95 196.636 43.7898 196.479 43.6919C196.201 43.519 196.12 43.2892 195.851 43.1295C195.769 43.0806 195.79 43.001 195.702 42.9517C195.63 42.911 195.555 42.8692 195.502 42.8175C195.381 42.6989 195.256 42.5789 195.094 42.4764C194.888 42.3469 194.657 42.0927 194.395 42.0192" stroke="#FFC107" stroke-linecap="square"/>
<path d="M194.278 42.7703C194.064 42.7463 194.001 42.594 193.838 42.5417C193.711 42.5009 193.528 42.3825 193.417 42.3203C193.197 42.1971 192.941 42.0655 192.679 41.9719C192.539 41.9222 192.321 41.8566 192.239 41.776C192.163 41.7017 192.036 41.6384 191.96 41.562C191.883 41.4842 191.869 41.3613 191.773 41.3007C191.571 41.1731 191.551 40.9222 191.397 40.7619C191.246 40.6044 191.071 40.3846 190.841 40.2557C190.596 40.1184 190.335 39.9799 190.138 39.8148C189.934 39.6433 189.65 39.4247 189.384 39.2759C189.232 39.1905 189.131 39.0915 189.002 38.9984C188.863 38.898 188.633 38.8156 188.568 38.6881C188.453 38.462 188.041 38.2675 187.869 38.0513C187.735 37.8826 187.454 37.6867 187.228 37.5452C187.032 37.4225 186.787 37.2413 186.646 37.1024C186.461 36.9215 186.142 36.7489 185.888 36.5981C185.746 36.5137 185.642 36.4092 185.51 36.3187C185.392 36.2381 185.217 36.1417 185.131 36.0575C184.927 35.8576 184.532 35.6928 184.386 35.4804C184.274 35.3167 183.978 35.1815 183.778 35.0541C183.634 34.9631 183.526 34.8429 183.383 34.7548C183.158 34.6164 182.887 34.4413 182.742 34.2794" stroke="#FFC107" stroke-linecap="square"/>
<path d="M173.161 33.8775C172.8 33.8775 172.29 34.1725 172.29 34.3661C172.29 34.6013 172.491 34.813 172.491 35.0425C172.491 35.5798 171.888 36.0627 171.888 36.602C171.888 36.8522 171.58 37.0753 171.552 37.3347C171.542 37.433 171.379 37.5776 171.347 37.6918C171.311 37.8225 171.15 37.9796 171.15 38.105C171.15 38.3344 170.84 38.6694 170.666 38.8755C170.542 39.0221 170.385 39.153 170.264 39.2887C170.178 39.385 169.943 39.3926 169.943 39.5142" stroke="#FFC107" stroke-linecap="square"/>
<path d="M181.274 34.3661C181.274 33.7815 180.805 33.2643 180.805 32.675C180.805 32.5437 180.671 32.4457 180.671 32.3181C180.671 32.2454 180.599 31.9665 180.503 31.9235C180.336 31.8487 180.366 31.6714 180.235 31.5833C180.125 31.5092 180 31.2854 180 31.1908C180 31.0602 179.808 30.9257 179.799 30.7878C179.79 30.6573 179.677 30.5017 179.665 30.3828C179.636 30.106 179.531 29.88 179.531 29.5853C179.531 29.2841 179.464 28.9827 179.464 28.673C179.464 28.3868 179.665 28.1316 179.665 27.8464C179.665 27.7113 179.732 27.5913 179.732 27.4518C179.732 27.3593 179.751 27.1553 179.65 27.0844C179.523 26.9956 179.525 26.8902 179.43 26.7942C179.361 26.7244 179.196 26.5328 179.196 26.456C179.196 26.0154 178.148 25.6861 177.587 25.4893C177.22 25.3607 176.987 25.1145 176.551 25.0446C176.381 25.0174 176.212 24.8964 176.011 24.8964C175.828 24.8964 175.639 24.7837 175.408 24.7837C174.977 24.7837 174.499 24.7086 174.033 24.7086C173.623 24.7086 173.095 24.9184 173.095 25.1596" stroke="#FFC107" stroke-linecap="square"/>
<path d="M163.034 43.8333C162.322 43.6455 161.55 43.4733 160.929 43.2028C160.787 43.1409 160.58 43.0615 160.426 43.0058C160.275 42.9514 160.132 42.8913 159.986 42.8297C159.817 42.7585 159.677 42.6479 159.497 42.5887C159.268 42.5132 159.108 42.378 158.878 42.3024C158.697 42.2425 158.482 42.1215 158.328 42.0352C158.193 41.9594 157.995 41.8505 157.906 41.7626C157.84 41.6983 157.511 41.4543 157.375 41.4543" stroke="#FFC107" stroke-linecap="square"/>
<path d="M158.568 41.7764C158.335 41.6454 158.097 41.5152 157.881 41.3937C157.645 41.2618 157.189 41.1838 157.021 41.0192C156.95 40.9498 156.751 40.8598 156.633 40.8099C156.505 40.7562 156.418 40.6566 156.311 40.5869C156.105 40.4522 155.857 40.2381 155.584 40.1533C155.3 40.0647 155.1 39.8944 154.81 39.8132C154.469 39.7175 154.216 39.4966 153.882 39.4029C153.736 39.362 153.561 39.2569 153.457 39.1854C153.286 39.0682 153.027 38.9952 152.831 38.8963C152.552 38.7559 152.246 38.6247 151.971 38.4859C151.329 38.1622 150.585 37.9294 149.922 37.6256C149.744 37.5438 149.56 37.4766 149.397 37.3901C149.323 37.3508 149.154 37.3012 149.063 37.2717C148.982 37.2454 148.943 37.2041 148.864 37.1795C148.692 37.1258 148.57 37.0273 148.4 36.9744C148.2 36.9121 147.965 36.8246 147.803 36.7334C147.651 36.6484 147.45 36.5796 147.319 36.4857C147.228 36.4198 147.05 36.3713 146.975 36.2998C146.792 36.1249 146.367 36.0481 146.199 35.8785C146.125 35.8039 145.938 35.7664 145.88 35.6926C145.833 35.6336 145.655 35.5546 145.56 35.5123C145.27 35.3821 144.936 35.1993 144.598 35.0855" stroke="#FFC107" stroke-linecap="square"/>
<g filter="url(#filter1_d_17_176)">
<g filter="url(#filter2_d_17_176)">
<path d="M244.478 43.7699C244.851 43.4282 245.038 43.0982 245.038 42.7796C245.038 42.4611 245.001 42.2138 244.927 42.0377C244.849 41.8598 244.725 41.7031 244.554 41.568C244.181 41.2708 243.622 41.1222 242.876 41.1222C241.955 41.1222 241.121 41.2762 240.375 41.584C239.579 41.9024 239.181 42.3126 239.181 42.8144C239.181 43.1328 239.423 43.4148 239.909 43.6604C240.395 43.9041 241.011 44.1399 241.757 44.3677C242.503 44.5953 243.297 44.8231 244.14 45.0509C244.987 45.2787 245.784 45.5296 246.53 45.8035C248.243 46.4298 249.1 47.1638 249.1 48.0054C249.1 48.5748 248.772 49.1015 248.115 49.5855C247.454 50.0694 246.578 50.4884 245.487 50.8425C243.097 51.6164 240.323 52.0035 237.164 52.0035C234.604 52.0035 232.665 51.8131 231.348 51.4323C230.031 51.0497 229.372 50.5684 229.372 49.9884C229.372 48.9511 230.254 48.3017 232.018 48.0401C232.515 47.96 233.143 47.92 233.901 47.92C234.662 47.92 235.478 47.9948 236.348 48.1441C235.948 48.6103 235.748 49.0543 235.748 49.4761C235.748 50.3871 236.457 50.8425 237.875 50.8425C238.796 50.8425 239.635 50.6886 240.393 50.3808C241.15 50.073 241.529 49.7456 241.529 49.3985C241.529 49.0516 241.286 48.7527 240.801 48.5018C240.319 48.2509 239.717 48.0259 238.994 47.8266C238.271 47.6273 237.494 47.4307 236.663 47.2368C235.831 47.0447 235.054 46.8115 234.332 46.5375C232.642 45.9111 231.797 45.0972 231.797 44.0954C231.797 43.446 232.144 42.8678 232.84 42.3606C233.535 41.8535 234.443 41.4292 235.561 41.0876C237.799 40.3936 240.292 40.0467 243.039 40.0467C245.79 40.0467 247.829 40.2343 249.158 40.6097C250.487 40.9853 251.151 41.4924 251.151 42.1311C251.151 42.688 250.679 43.1436 249.735 43.4976C248.915 43.793 248.008 43.9407 247.013 43.9407C246.019 43.9407 245.174 43.8836 244.478 43.7699ZM267.866 49.0303C268.336 49.3043 268.571 49.6637 268.571 50.1085C268.571 50.7223 268.074 51.1921 267.079 51.5177C266.085 51.8416 264.804 52.0035 263.238 52.0035C262.345 52.0035 261.214 51.9581 259.847 51.8673C257.158 51.6735 255.404 51.5764 254.584 51.5764C253.764 51.5764 253.193 51.5853 252.871 51.6032C252.548 51.6192 252.125 51.6387 251.6 51.6618L256.187 40.3882H272.266C272.266 41.0822 271.899 41.6115 271.165 41.9763C270.43 42.3411 269.342 42.5235 267.901 42.5235C266.46 42.5235 265.005 42.3695 263.536 42.0617L262.382 45.0509H269.02C269.02 45.6541 268.698 46.1238 268.053 46.4601C267.404 46.7964 266.539 46.9645 265.459 46.9645C264.375 46.9645 263.499 46.9076 262.831 46.7937C262.158 46.6799 261.786 46.606 261.712 46.5722L260.365 49.799C260.964 49.8345 261.822 49.8524 262.941 49.8524C264.857 49.8524 266.498 49.5783 267.866 49.0303ZM288.381 52.0035C285.195 52.0035 283.454 50.967 283.159 48.8941H276.742C276.245 49.4191 275.821 49.9092 275.472 50.3648L274.504 51.6618H269.282L281.032 40.3882H289.051L290.618 48.6887C290.867 49.8844 291.489 50.6592 292.483 51.0132C291.761 51.6735 290.393 52.0035 288.381 52.0035ZM279.948 45.478L277.896 47.6479H283.042L282.599 43.2575V42.7956L279.948 45.478ZM302.292 51.6618H294.308L298.859 40.439C301.323 40.3145 304.349 40.2522 307.939 40.2522C311.533 40.2522 314.164 40.4915 315.83 40.9702C317.497 41.447 318.331 42.1667 318.331 43.1293C318.331 44.0919 317.789 44.8748 316.705 45.478C315.625 46.0812 314.152 46.4797 312.287 46.6736C312.711 47.6185 313.406 48.4724 314.373 49.2358C315.271 49.9529 316.242 50.4253 317.288 50.6529C316.914 51.1316 316.347 51.4768 315.586 51.6886C314.828 51.8985 313.909 52.0035 312.829 52.0035C311.745 52.0035 310.781 51.8585 309.938 51.5684C309.091 51.2784 308.332 50.8656 307.66 50.33C306.245 49.1681 305.463 47.671 305.311 45.8383H305.573C307.415 45.8151 308.794 45.5839 309.711 45.1443C310.632 44.7066 311.092 44.0269 311.092 43.1053C311.092 41.954 310.036 41.3562 307.922 41.3117H307.1C306.879 41.3117 306.706 41.3171 306.581 41.3277L302.292 51.6618ZM339.516 48.1255C340.16 48.3425 340.483 48.6816 340.483 49.1424C340.483 49.6032 340.265 49.9965 339.83 50.322C339.395 50.6458 338.756 50.9332 337.913 51.1841C336.098 51.7197 333.606 51.9875 330.436 51.9875C327.265 51.9875 324.815 51.6084 323.086 50.8505C321.357 50.0925 320.493 49.0419 320.493 47.6985C320.493 45.7964 321.575 44.1231 323.739 42.6783C325.379 41.6071 327.665 40.8438 330.599 40.3882C332.118 40.1606 333.623 40.0467 335.115 40.0467C336.607 40.0467 337.814 40.0921 338.735 40.1828C339.651 40.2735 340.46 40.4105 341.159 40.5937C342.674 40.9923 343.432 41.5101 343.432 42.1471C343.432 42.7289 342.836 43.2361 341.643 43.6684C340.547 44.0545 339.552 44.2476 338.659 44.2476C337.761 44.2476 337.126 44.2191 336.753 44.1622C336.854 43.7529 336.904 43.4148 336.904 43.1479C336.904 42.8793 336.893 42.648 336.87 42.4541C336.842 42.2618 336.767 42.0742 336.642 41.8909C336.394 41.4692 335.89 41.2583 335.133 41.2583C334.375 41.2583 333.618 41.4212 332.86 41.7468C332.098 42.0705 331.395 42.5056 330.75 43.0519C329.281 44.2938 328.547 45.6496 328.547 47.1193C328.547 47.824 328.982 48.3791 329.853 48.7847C330.723 49.1887 332.091 49.3906 333.955 49.3906C335.35 49.3906 336.706 49.1798 338.023 48.7581C338.595 48.5766 339.092 48.3657 339.516 48.1255ZM357.494 50.3808C357.494 49.5837 357.843 48.3879 358.538 46.7937H353.019L350.968 51.6618H343.17L347.908 40.3882H355.776L353.613 45.4272H359.131L361.185 40.3882H369.058C368.709 41.2317 368.311 42.1258 367.863 43.0705L366.592 45.8543C365.647 48.0179 365.176 49.5721 365.176 50.5169C365.176 50.9047 365.314 51.2064 365.59 51.4217C364.346 51.8096 362.997 52.0035 361.539 52.0035C360.087 52.0035 359.048 51.8442 358.428 51.5257C357.806 51.2073 357.494 50.8256 357.494 50.3808Z" fill="#FFC107"/>
</g>
</g>
</g>
<path d="M180.387 37.4829C180.308 37.4434 180.195 37.3955 180.082 37.392C180.058 37.3913 180.024 37.382 180.001 37.3763C179.976 37.3702 179.939 37.368 179.914 37.3639C179.889 37.3602 179.845 37.3565 179.826 37.3478C179.804 37.3382 179.741 37.3373 179.726 37.3267C179.703 37.3101 179.636 37.3087 179.604 37.2983C179.553 37.2823 179.494 37.2796 179.441 37.2658C179.363 37.245 179.274 37.2326 179.192 37.2159C179.135 37.2044 179.078 37.1894 179.019 37.1821C178.983 37.1776 178.924 37.1645 178.89 37.1535C178.792 37.1209 178.664 37.117 178.565 37.0852C178.519 37.0706 178.437 37.0544 178.384 37.0512C178.33 37.0479 178.28 37.0276 178.226 37.023C178.174 37.0185 178.12 37.0052 178.069 36.9971C177.986 36.9843 177.892 36.9706 177.814 36.9501C177.775 36.9395 177.716 36.9359 177.682 36.9204C177.651 36.9063 177.585 36.9066 177.56 36.8892C177.552 36.8835 177.527 36.8816 177.515 36.8804C177.498 36.8787 177.476 36.8662 177.456 36.8624C177.422 36.8557 177.383 36.8441 177.347 36.8412C177.27 36.8352 177.197 36.8092 177.123 36.8068C177.059 36.8048 176.99 36.7727 176.924 36.7727C176.9 36.7727 176.845 36.7652 176.823 36.7586C176.793 36.7492 176.757 36.7508 176.726 36.7431C176.672 36.7296 176.62 36.7152 176.563 36.7046" stroke="white" stroke-width="0.1"/>
<path d="M171.438 36.5908C171.449 36.5901 171.485 36.5517 171.489 36.5425C171.494 36.5305 171.522 36.5191 171.531 36.5031C171.538 36.4892 171.566 36.4782 171.581 36.4634C171.593 36.4515 171.627 36.4349 171.647 36.4262C171.666 36.4176 171.677 36.3956 171.698 36.3863C171.719 36.3772 171.735 36.3681 171.754 36.355C171.794 36.3271 171.852 36.3079 171.901 36.2926C171.959 36.2748 172.031 36.2682 172.081 36.2455C172.117 36.2298 172.204 36.1988 172.252 36.1988C172.284 36.1988 172.312 36.1818 172.344 36.1818C172.369 36.1818 172.421 36.1779 172.445 36.1718C172.475 36.1644 172.525 36.1715 172.557 36.1705C172.587 36.1695 172.624 36.1648 172.659 36.1648" stroke="white" stroke-width="0.1"/>
<path d="M171.489 36.5228C171.533 36.5228 171.578 36.4861 171.609 36.4704C171.656 36.4467 171.715 36.4221 171.754 36.3949C171.822 36.3472 171.904 36.3097 172.002 36.2784C172.056 36.2612 172.102 36.241 172.155 36.2244C172.176 36.2179 172.229 36.2163 172.242 36.2074C172.247 36.2035 172.331 36.1932 172.344 36.1932C172.4 36.1932 172.479 36.185 172.532 36.1764C172.56 36.1719 172.594 36.1705 172.623 36.1705C172.652 36.1705 172.679 36.1591 172.71 36.1591" stroke="white" stroke-width="0.1"/>
<path d="M171.55 36.5284C171.577 36.5265 171.599 36.4995 171.613 36.4899C171.637 36.4733 171.666 36.4621 171.69 36.4476C171.714 36.4329 171.74 36.4191 171.766 36.4047C171.776 36.399 171.784 36.3904 171.794 36.3836C171.797 36.3809 171.823 36.3651 171.83 36.3639C171.864 36.3585 171.893 36.3334 171.921 36.3213C171.95 36.3088 172.006 36.3023 172.028 36.287C172.051 36.2705 172.091 36.2666 172.115 36.2531C172.142 36.238 172.204 36.2228 172.241 36.2159" stroke="white" stroke-width="0.1"/>
<path d="M172.882 36.2154C172.882 36.184 172.552 36.1931 172.496 36.1931C172.426 36.1931 172.359 36.1987 172.288 36.1987C172.253 36.1987 172.227 36.2008 172.196 36.2047C172.174 36.2072 172.085 36.2201 172.079 36.2266" stroke="white" stroke-width="0.1"/>
<path d="M173.085 36.2489C173.051 36.2478 173.012 36.2315 172.979 36.2263C172.953 36.2223 172.919 36.2099 172.892 36.2099C172.816 36.2099 172.744 36.1932 172.663 36.1932C172.499 36.1932 172.334 36.1932 172.17 36.1932" stroke="white" stroke-width="0.1"/>
<path d="M179.442 37.6807H179.889" stroke="#FFC107" stroke-width="0.1"/>
<path d="M178.238 37.623H179.717" stroke="#FFC107" stroke-width="0.1"/>
<path d="M176.035 36.8929H176.606" stroke="#FFC107" stroke-width="0.1"/>
<path d="M176.36 36.8239C176.317 36.8239 176.267 36.8121 176.228 36.8023C176.206 36.7968 176.18 36.7999 176.157 36.7942C176.135 36.7888 176.097 36.7852 176.073 36.7842C176.011 36.7814 175.913 36.7677 175.86 36.75C175.825 36.7386 175.78 36.7395 175.742 36.7317C175.712 36.7255 175.681 36.7159 175.648 36.7159" stroke="#FFC107" stroke-width="0.1"/>
<path d="M176.685 36.9261C176.602 36.9094 176.521 36.8836 176.441 36.8637C176.386 36.8498 176.328 36.8381 176.274 36.8239C176.248 36.8169 176.204 36.802 176.177 36.8012C176.13 36.7996 176.08 36.7756 176.034 36.767C175.963 36.7538 175.889 36.7497 175.819 36.7373C175.711 36.7187 175.598 36.7103 175.485 36.7103" stroke="#FFC107" stroke-width="0.1"/>
<path d="M177.367 37.0512C177.306 37.0281 177.249 37.0111 177.179 36.9971C177.107 36.9826 177.016 36.9689 176.95 36.9485C176.877 36.9261 176.781 36.909 176.701 36.8953C176.623 36.882 176.552 36.8617 176.478 36.8435C176.393 36.8227 176.306 36.8108 176.22 36.7929C176.158 36.7801 176.087 36.7647 176.022 36.757C175.849 36.7363 175.686 36.7103 175.506 36.7103" stroke="#FFC107" stroke-width="0.1"/>
<path d="M180.092 37.6137C180.08 37.5834 179.944 37.5681 179.903 37.5536C179.83 37.5273 179.744 37.5233 179.665 37.5057" stroke="#FFC107" stroke-width="0.1"/>
<path d="M180.459 37.7159C180.41 37.7132 180.337 37.6882 180.294 37.6749C180.244 37.6597 180.188 37.6547 180.138 37.6393C180.061 37.6153 179.979 37.5898 179.895 37.5746C179.831 37.5629 179.742 37.5455 179.676 37.5455" stroke="#FFC107" stroke-width="0.1"/>
<path d="M180.448 37.6933C180.378 37.6634 180.302 37.6403 180.219 37.6221C180.144 37.6058 180.079 37.5801 180.001 37.5682C179.952 37.5609 179.909 37.5455 179.858 37.5455" stroke="#FFC107" stroke-width="0.1"/>
<path d="M175.303 36.642C175.269 36.642 175.229 36.63 175.197 36.6247C175.162 36.6192 175.121 36.6134 175.085 36.6077C175.014 36.5964 174.93 36.5795 174.851 36.5795C174.768 36.5795 174.687 36.5568 174.601 36.5568C174.517 36.5568 174.429 36.5341 174.347 36.5341C174.3 36.5341 174.257 36.5171 174.209 36.5171C174.155 36.5171 174.106 36.4977 174.053 36.494C173.988 36.4895 173.917 36.4724 173.854 36.4631C173.792 36.4541 173.731 36.4503 173.671 36.4429C173.554 36.4284 173.435 36.4252 173.318 36.4135C173.213 36.4032 173.1 36.392 172.995 36.392C172.95 36.392 172.904 36.3977 172.862 36.3977" stroke="#FFC107" stroke-width="0.1"/>
<path d="M175.394 36.6647C175.385 36.6477 175.326 36.6417 175.302 36.6307C175.278 36.6192 175.242 36.619 175.216 36.6108C175.194 36.6039 175.155 36.5966 175.129 36.5966C175.097 36.5966 175.074 36.5825 175.043 36.5799C174.949 36.5718 174.857 36.5571 174.763 36.5484C174.631 36.536 174.497 36.5267 174.367 36.5085C174.311 36.5006 174.247 36.4966 174.189 36.494C174.132 36.4915 174.075 36.4782 174.016 36.4772C173.884 36.4752 173.745 36.4484 173.614 36.4362C173.478 36.4236 173.335 36.3948 173.197 36.392C173.105 36.3901 173.017 36.3806 172.924 36.3806C172.876 36.3806 172.828 36.3806 172.78 36.3806" stroke="#FFC107" stroke-width="0.1"/>
<path d="M173.086 36.392C173.081 36.3705 172.953 36.375 172.923 36.375" stroke="#FFC107" stroke-width="0.1"/>
<path d="M173.147 36.3912C173.102 36.369 172.992 36.3579 172.934 36.3579C172.852 36.3579 172.772 36.3523 172.689 36.3523" stroke="#FFC107" stroke-width="0.1"/>
<path d="M184.511 40.7449C184.511 40.2973 182.708 39.7376 182.162 39.4324C181.707 39.1779 180.282 38.6852 180.205 38.3386C180.097 37.8586 178.393 37.4877 177.66 37.4636C176.698 37.432 175.587 37.3542 174.527 37.3542" stroke="#FFC107" stroke-width="3" stroke-linecap="round"/>
</g>
<path d="M180.569 37.5C180.286 37.4652 179.974 37.4123 179.756 37.3412C179.657 37.3087 179.548 37.2796 179.432 37.2533C179.31 37.2258 179.224 37.186 179.105 37.1578C178.905 37.1104 178.726 37.0601 178.51 37.0205C178.381 36.9969 178.237 36.9829 178.117 36.9557C177.944 36.9165 177.733 36.8983 177.553 36.8635C177.443 36.8422 177.341 36.8175 177.229 36.7971C177.12 36.7774 177.001 36.765 176.893 36.7449C176.801 36.7275 176.704 36.7123 176.605 36.6995C176.536 36.6907 176.472 36.6799 176.399 36.6749C176.374 36.6733 176.356 36.6724 176.346 36.6655" stroke="#FFC107" stroke-width="3" stroke-linecap="round"/>
<path d="M173.407 36.209C173.333 36.2029 173.246 36.1768 173.178 36.1639C173.101 36.1495 173.008 36.1389 172.92 36.1355C172.778 36.1301 172.669 36.1198 172.532 36.1373C172.436 36.1494 172.262 36.1445 172.204 36.1767C172.162 36.1996 172.091 36.2152 172.062 36.2403C172.034 36.2649 171.952 36.2831 171.938 36.3084C171.924 36.3321 171.877 36.3633 171.833 36.3819C171.749 36.4172 171.67 36.4785 171.67 36.5226" stroke="#FFC107" stroke-width="3" stroke-linecap="round"/>
<path d="M107.101 48.5008C107.101 48.5024 107.093 48.5064 107.089 48.5076C107.084 48.5089 107.08 48.5108 107.078 48.5126C107.075 48.5144 107.073 48.5161 107.071 48.5179C107.069 48.5188 107.066 48.5208 107.066 48.5217C107.065 48.5231 107.061 48.5245 107.059 48.5258C107.059 48.5263 107.056 48.5268 107.056 48.5274C107.055 48.5281 107.055 48.5287 107.054 48.5293C107.05 48.5318 107.047 48.5348 107.045 48.5374C107.043 48.5399 107.038 48.5433 107.044 48.5453C107.047 48.5462 107.052 48.5461 107.055 48.5471C107.057 48.5481 107.064 48.5475 107.067 48.5483C107.07 48.549 107.077 48.5495 107.079 48.5504C107.08 48.5511 107.085 48.5527 107.087 48.5528C107.095 48.5531 107.098 48.5567 107.103 48.5578" stroke="#FFC107" stroke-linecap="round"/>
<path d="M107.031 48.5525C107.03 48.5549 107.03 48.5562 107.033 48.5584C107.036 48.5597 107.039 48.5606 107.043 48.5616C107.048 48.5633 107.055 48.5651 107.063 48.5651C107.074 48.5651 107.066 48.5696 107.072 48.5713C107.075 48.572 107.077 48.5736 107.077 48.5746C107.077 48.577 107.077 48.5772 107.069 48.5772" stroke="#FFC107" stroke-linecap="round"/>
<path d="M221.805 24.068C228.19 24.068 231.382 25.0821 231.382 27.1101C231.382 28.2243 230.586 29.1163 228.993 29.7858C227.429 30.4536 225.279 30.7875 222.543 30.7875C221.269 30.7875 220.136 30.623 219.144 30.294C218.674 30.1539 218.283 29.9901 217.971 29.8028C219.875 29.8028 221.328 29.5414 222.331 29.0185C223.334 28.4972 223.835 27.7267 223.835 26.7069C223.835 25.6856 222.715 25.1749 220.474 25.1749H219.535C219.379 25.1749 219.236 25.1805 219.106 25.192L214.61 35.8016H206.124L210.934 24.2781C213.722 24.1608 215.924 24.0965 217.542 24.0851C219.157 24.0736 220.577 24.068 221.805 24.068ZM239.592 35.8016H231.225L235.992 24.244C238.573 24.1136 241.745 24.0485 245.51 24.0485C249.278 24.0485 252.034 24.2952 253.779 24.7888C255.527 25.2808 256.402 26.0227 256.402 27.0149C256.402 28.0053 255.833 28.8117 254.697 29.4339C253.564 30.0546 252.02 30.4651 250.065 30.6653C250.511 31.6379 251.24 32.5176 252.253 33.3043C253.195 34.0424 254.212 34.5286 255.305 34.7631C254.914 35.2568 254.32 35.6118 253.524 35.8285C252.731 36.0451 251.768 36.1535 250.635 36.1535C249.499 36.1535 248.489 36.0037 247.606 35.7039C246.719 35.4057 245.923 34.9805 245.217 34.4284C243.733 33.2328 242.913 31.6908 242.757 29.8028H243.028C244.958 29.7784 246.404 29.5405 247.367 29.0893C248.333 28.6381 248.816 27.9376 248.816 26.988C248.816 25.8037 247.709 25.188 245.494 25.1407H244.63C244.399 25.1407 244.218 25.1464 244.087 25.1577L239.592 35.8016ZM258.785 31.5084C258.785 29.2914 260.061 27.4856 262.613 26.0912C265.324 24.5779 269.038 23.8211 273.755 23.8211C277.171 23.8211 279.74 24.1933 281.459 24.9379C283.178 25.6824 284.038 26.8405 284.038 28.4125C284.038 30.8056 282.683 32.7 279.971 34.096C277.289 35.4677 273.693 36.1535 269.183 36.1535C265.664 36.1535 263.051 35.7576 261.342 34.966C259.638 34.1743 258.785 33.0217 258.785 31.5084ZM269.063 27.8677C267.891 29.9788 267.304 31.8668 267.304 33.5317C267.304 33.9307 267.454 34.2589 267.755 34.5164C268.055 34.7753 268.604 34.9049 269.4 34.9049C270.193 34.9049 270.837 34.8194 271.333 34.6483C271.829 34.4789 272.272 34.2003 272.663 33.8125C273.289 33.1805 273.896 32.1926 274.482 30.8486C275.068 29.5064 275.387 28.5567 275.438 27.9996C275.488 27.4425 275.514 26.9529 275.514 26.5309C275.514 26.1075 275.371 25.7613 275.085 25.4925C274.799 25.2221 274.272 25.0869 273.505 25.0869C272.734 25.0869 272.088 25.1928 271.566 25.4045C270.603 25.8037 269.769 26.6246 269.063 27.8677ZM301.239 24.068C307.624 24.068 310.816 25.0821 310.816 27.1101C310.816 28.2243 310.022 29.1163 308.433 29.7858C306.869 30.4536 304.719 30.7875 301.983 30.7875C300.705 30.7875 299.57 30.623 298.578 30.294C298.111 30.1539 297.721 29.9901 297.406 29.8028C299.31 29.8028 300.763 29.5414 301.766 29.0185C302.768 28.4972 303.27 27.7267 303.27 26.7069C303.27 25.6856 302.149 25.1749 299.909 25.1749H298.969C298.814 25.1749 298.671 25.1805 298.54 25.192L294.045 35.8016H285.564L290.369 24.2781C293.16 24.1608 295.362 24.0965 296.977 24.0851C298.595 24.0736 300.015 24.068 301.239 24.068ZM327.703 33.0918C328.198 33.3736 328.446 33.7433 328.446 34.2012C328.446 34.8348 327.925 35.3186 326.883 35.6525C325.84 35.9865 324.499 36.1535 322.859 36.1535C321.918 36.1535 320.731 36.1062 319.298 36.0118C316.485 35.813 314.648 35.7136 313.787 35.7136C312.929 35.7136 312.33 35.7227 311.989 35.7405C311.649 35.7584 311.206 35.7788 310.659 35.8016L315.47 24.1901H332.318C332.318 24.9053 331.934 25.4509 331.167 25.8272C330.395 26.2019 329.255 26.3893 327.746 26.3893C326.233 26.3893 324.707 26.2313 323.169 25.9152L321.958 28.9941H328.919C328.919 29.6147 328.579 30.0985 327.898 30.4454C327.221 30.7909 326.316 30.9635 325.183 30.9635C324.05 30.9635 323.131 30.9049 322.425 30.7875C321.723 30.6703 321.332 30.5938 321.252 30.5579L319.846 33.8835C320.472 33.9193 321.372 33.9372 322.544 33.9372C324.55 33.9372 326.269 33.6555 327.703 33.0918ZM340.06 35.8016H331.693L336.46 24.244C339.041 24.1136 342.214 24.0485 345.978 24.0485C349.747 24.0485 352.503 24.2952 354.247 24.7888C355.997 25.2808 356.869 26.0227 356.869 27.0149C356.869 28.0053 356.301 28.8117 355.166 29.4339C354.031 30.0546 352.488 30.4651 350.534 30.6653C350.979 31.6379 351.708 32.5176 352.722 33.3043C353.664 34.0424 354.68 34.5286 355.773 34.7631C355.382 35.2568 354.789 35.6118 353.992 35.8285C353.201 36.0451 352.237 36.1535 351.104 36.1535C349.967 36.1535 348.957 36.0037 348.074 35.7039C347.187 35.4057 346.391 34.9805 345.685 34.4284C344.201 33.2328 343.381 31.6908 343.226 29.8028H343.497C345.426 29.7784 346.873 29.5405 347.835 29.0893C348.802 28.6381 349.285 27.9376 349.285 26.988C349.285 25.8037 348.177 25.188 345.962 25.1407H345.099C344.867 25.1407 344.686 25.1464 344.556 25.1577L340.06 35.8016ZM361.794 27.2348C360.907 26.9285 360.464 26.4504 360.464 25.8005C360.464 25.1488 360.941 24.6528 361.893 24.3123C362.844 23.9736 364.14 23.8041 365.78 23.8041C366.821 23.8041 368.581 23.8856 371.057 24.0485L373.718 24.2243C374.605 24.2716 375.509 24.2952 376.433 24.2952C377.36 24.2952 378.135 24.2073 378.763 24.0313C379.7 24.4076 380.169 24.8653 380.169 25.4045C380.169 25.9437 379.635 26.4072 378.568 26.7949C377.469 27.2054 376.217 27.4107 374.808 27.4107C374.131 27.4107 373.246 27.3692 372.153 27.286C370.877 29.0925 370.237 30.623 370.237 31.8774C370.237 33.1333 370.942 34.0895 372.351 34.7461C371.697 35.2738 370.89 35.6403 369.922 35.8456C368.959 36.0508 367.753 36.1535 366.306 36.1535C364.861 36.1535 363.69 35.9743 362.789 35.6159C361.891 35.2591 361.443 34.711 361.443 33.9714C361.443 33.1163 361.964 31.9849 363.005 30.5775C364.049 29.1814 365.351 27.9499 366.915 26.8829C366.158 26.847 365.39 26.8291 364.606 26.8291C362.992 26.8291 362.055 26.9644 361.794 27.2348ZM382.629 35.8016L384.896 30.6287C384.141 27.4507 382.433 25.5211 379.778 24.8402C380.325 24.5355 381.041 24.2985 381.928 24.1291C382.814 23.958 383.792 23.8725 384.86 23.8725C385.927 23.8725 386.864 23.958 387.671 24.1291C388.478 24.2985 389.142 24.5648 389.665 24.928C390.657 25.6204 391.152 26.7933 391.152 28.4467V29.7149C392.716 27.6509 394.278 26.1727 395.843 25.2799C397.434 24.3661 399.217 23.9091 401.198 23.9091C401.979 23.9091 402.63 23.9996 403.151 24.1804C403.674 24.3628 404.064 24.5893 404.325 24.8597C402.32 25.2572 400.352 26.0309 398.423 27.181C396.494 28.3311 394.903 29.7091 393.656 31.3154L391.347 35.8016H382.629Z" fill="black"/>
<path d="M160.146 32.1367C160.146 32.3128 160.448 32.4682 160.448 32.6416C160.448 32.6854 160.482 32.7259 160.482 32.7709C160.482 32.8114 160.543 32.845 160.549 32.8831C160.559 32.9472 160.58 33.0631 160.71 33.116C160.767 33.1396 160.761 33.1967 160.792 33.2258C160.818 33.2504 160.846 33.2767 160.878 33.3002C160.901 33.3173 160.87 33.338 160.893 33.3551C160.96 33.4045 160.957 33.4624 160.994 33.5148C161.046 33.5898 161.104 33.6642 161.162 33.7393C161.38 34.0237 161.727 34.2926 162.036 34.5649C162.168 34.6811 162.302 34.8008 162.447 34.9162C162.536 34.9873 162.609 35.0641 162.701 35.1333C162.769 35.1843 162.784 35.2819 162.895 35.3223C162.994 35.3581 162.972 35.4393 163.037 35.4845C163.104 35.5306 163.143 35.5876 163.198 35.6357C163.324 35.7468 163.43 35.8598 163.575 35.9699C163.669 36.0405 163.791 36.101 163.878 36.1736C163.962 36.2435 164.01 36.3165 164.087 36.387C164.156 36.4494 164.254 36.5083 164.323 36.5687C164.39 36.6277 164.484 36.6948 164.577 36.7492C164.789 36.8734 164.923 37.0111 165.156 37.1334C165.291 37.2047 165.522 37.4054 165.862 37.4054" stroke="#FFC107" stroke-linecap="round"/>
<path d="M158.767 32.6635C158.843 32.6635 158.948 32.7644 158.985 32.7898C159.096 32.8651 159.264 32.9313 159.387 33.0044C159.57 33.1131 159.722 33.2405 159.85 33.3575C159.976 33.4725 160.155 33.5883 160.246 33.7069C160.328 33.8136 160.57 33.9091 160.65 34.013C160.716 34.0994 160.873 34.1794 160.945 34.2661C160.989 34.3193 161.044 34.3801 161.107 34.4308C161.161 34.4737 161.217 34.5426 161.304 34.5789C161.379 34.6108 161.435 34.6698 161.464 34.7076C161.511 34.7684 161.624 34.8235 161.685 34.8832C161.78 34.9769 161.921 35.0612 162.021 35.1528C162.155 35.2758 162.416 35.3795 162.564 35.5004C162.721 35.628 162.944 35.7639 163.172 35.8797C163.353 35.9716 163.494 36.063 163.611 36.1644C163.718 36.2579 163.855 36.355 163.943 36.451C164.037 36.5534 164.208 36.6498 164.349 36.7468C164.487 36.8423 164.624 36.9373 164.769 37.0322C164.915 37.1277 165.106 37.2136 165.256 37.3066C165.33 37.3519 165.52 37.4593 165.66 37.4822" stroke="#FFC107" stroke-width="4" stroke-linecap="round"/>
<path d="M159.409 30.293C159.573 30.5167 159.531 30.7369 159.654 30.9586C159.719 31.0746 159.79 31.183 159.79 31.3011C159.79 31.5871 159.99 31.8964 160.099 32.1807C160.157 32.3338 160.247 32.4923 160.247 32.6488C160.247 32.7739 160.167 32.9504 160.361 33.0644C160.516 33.1559 160.399 33.3008 160.534 33.4C160.617 33.4609 160.703 33.5936 160.703 33.661C160.703 33.7528 160.856 33.8413 160.856 33.9344C160.856 33.9959 161.022 34.1586 161.101 34.2202C161.441 34.484 161.656 34.754 162.057 35.0156C162.846 35.5308 163.727 36.0273 164.663 36.5125C165.172 36.7763 165.569 37.058 166.067 37.3244C166.212 37.4019 166.404 37.4733 166.507 37.5564C166.609 37.6378 167.05 37.8301 167.286 37.874C167.595 37.9316 167.679 38.1025 168.013 38.1668C168.284 38.2188 168.459 38.3262 168.703 38.396C169.004 38.482 169.344 38.5705 169.672 38.6446C169.975 38.7131 170.079 38.667 169.803 38.5948C169.51 38.5183 169.461 38.3285 169.194 38.2703C168.941 38.2153 168.762 38.0522 168.546 37.9735C168.426 37.9296 168.301 37.8739 168.204 37.8243C168.139 37.7915 167.892 37.7662 167.865 37.7359C167.684 37.5293 166.707 37.3597 166.304 37.1905C165.885 37.0145 165.522 36.8181 165.082 36.6423C164.643 36.4672 164.577 36.2033 164.164 36.0347C164.018 35.9752 163.89 35.8241 163.787 35.7502C163.649 35.6507 163.445 35.5626 163.309 35.463C162.986 35.2258 162.736 34.9741 162.362 34.7422C162.156 34.6143 161.852 34.4218 161.774 34.281C161.705 34.1568 161.512 33.9776 161.313 33.8667C161.11 33.7539 160.961 33.5131 160.932 33.3807C160.892 33.1997 160.718 32.9938 160.589 32.8173C160.272 32.3821 159.911 31.9714 159.451 31.5482C159.308 31.4165 159.125 31.2793 159.028 31.1436C158.99 31.0906 158.952 31.0368 158.952 30.9821C158.952 30.9097 159.089 31.1197 159.164 31.1878C159.619 31.6022 160.133 32.0077 160.509 32.432C160.86 32.8284 161.111 33.2278 161.541 33.6182C161.855 33.9026 162.202 34.1974 162.413 34.4923C162.87 35.1328 163.755 35.8127 165.196 36.2833C166.703 36.7751 168.218 37.2688 169.536 37.8188C169.724 37.8971 169.879 37.981 170.069 38.0604C170.191 38.1113 170.312 38.1647 170.45 38.211C170.541 38.2415 170.738 38.3406 170.738 38.298C170.738 38.1114 169.879 37.8653 169.536 37.7442C168.905 37.5211 168.183 37.3281 167.726 37.0593C167.045 36.6593 166.447 36.247 165.691 35.8607C165.093 35.5551 164.54 35.2381 163.995 34.9217C163.447 34.6038 162.873 34.303 162.522 33.9537C162.324 33.7553 161.984 33.568 161.846 33.3641C161.68 33.1202 161.445 32.882 161.22 32.6433C160.822 32.2223 160.421 31.8186 160.2 31.3867C160.102 31.1951 160 31.0081 159.925 30.815C159.911 30.7782 159.731 30.636 159.735 30.6521C159.8 30.9382 160.117 31.2347 160.306 31.5137C160.692 32.0852 160.858 32.661 161.122 33.2384C161.312 33.6518 161.409 34.0751 161.998 34.4536C162.791 34.9633 163.972 35.3799 164.985 35.8414C165.361 36.013 165.633 36.2079 166.025 36.3758C166.508 36.5824 167.004 36.7844 167.527 36.9806C168.171 37.2222 168.945 37.415 169.646 37.6365C170.121 37.7865 170.801 38.0729 171.516 38.0729" stroke="#FFC107" stroke-width="4" stroke-linecap="round"/>
<path d="M159.688 29.9476C159.925 30.2399 160.063 30.5414 160.355 30.8277C160.641 31.1073 160.909 31.3866 160.976 31.6843C161.021 31.8816 161.315 32.07 161.335 32.2697C161.354 32.4651 161.66 32.6526 161.691 32.8478C161.701 32.9125 161.818 32.9759 161.859 33.04C161.893 33.0932 161.95 33.1635 162.027 33.2103C162.214 33.3237 162.359 33.4558 162.515 33.5745C162.686 33.7052 163.001 33.8223 163.126 33.9588C163.179 34.0175 163.303 34.0718 163.373 34.13C163.438 34.1837 163.514 34.2513 163.606 34.3004C163.882 34.4487 164.048 34.6247 164.353 34.7662C164.564 34.8643 164.733 34.9711 164.897 35.0779C165.044 35.174 165.231 35.2942 165.431 35.3758C165.663 35.4707 165.779 35.6252 166.077 35.7028C166.29 35.7586 166.477 35.8995 166.598 35.979C166.695 36.0419 166.887 36.2115 167.123 36.2115" stroke="#FFC107" stroke-width="4" stroke-linecap="round"/>
<path d="M167.22 36.2063C167.22 36.36 167.583 36.5253 167.868 36.645C168.083 36.735 168.278 36.86 168.435 36.9627C168.615 37.0802 168.91 37.1828 169.109 37.2955C169.317 37.4127 169.634 37.5105 169.838 37.6291C170.003 37.7248 170.267 37.8017 170.428 37.9006C170.463 37.9224 170.508 37.9423 170.556 37.9611C170.565 37.9643 170.682 38.0363 170.693 38.0275C170.76 37.9728 170.458 37.8941 170.374 37.8619C170.039 37.7346 169.619 37.6164 169.341 37.4737C169.093 37.3464 168.687 37.2555 168.45 37.1291C168.15 36.9689 167.777 36.8375 167.428 36.6904C166.998 36.5084 166.446 36.3583 166.015 36.176C165.784 36.0782 165.492 35.9994 165.276 35.8978C165.198 35.8613 165.108 35.8223 164.995 35.7978" stroke="#FFC107" stroke-width="4" stroke-linecap="round"/>
<path d="M159.22 29.5762C159.22 29.7339 159.451 29.9264 159.591 30.077C159.717 30.2121 159.745 30.3627 159.864 30.5011C160.046 30.7134 160.163 30.9277 160.409 31.1341C160.815 31.4748 161.146 31.8312 161.674 32.1579C162.219 32.4949 162.842 32.8326 163.242 33.1916C163.494 33.4172 163.951 33.6288 164.182 33.8543C164.345 34.0146 164.627 34.1702 164.917 34.3118C165.498 34.5965 166.03 34.9067 166.549 35.2083C167.033 35.4891 167.769 35.7387 168.167 36.0305C168.464 36.2487 169.015 36.447 169.178 36.6871C169.301 36.8673 169.619 37.0554 169.871 37.22C170.003 37.3062 170.333 37.6713 170.674 37.6775C170.8 37.6797 170.742 37.5259 170.742 37.4994" stroke="#FFC107" stroke-width="4" stroke-linecap="round"/>
<path d="M168.97 37.2546C168.764 37.1789 168.636 37.0579 168.557 36.9628C168.405 36.7814 168.136 36.5937 167.917 36.42C167.555 36.1337 167.221 35.83 166.909 35.5359C166.642 35.284 166.031 35.0665 165.663 34.8262C165.017 34.4049 164.428 33.9559 163.992 33.5056C163.814 33.3212 163.657 33.1437 163.5 32.9591C163.358 32.7922 163.061 32.6441 162.917 32.4794C162.631 32.1532 162.057 31.8578 161.712 31.536C161.315 31.166 160.966 30.7621 160.379 30.417C159.761 30.0538 159.314 29.6856 158.795 29.3091C158.67 29.2183 158.661 29.1341 158.572 29.0408C158.497 28.9629 158.66 28.7929 158.504 28.7317C158.456 28.7131 158.441 28.6156 158.485 28.7008C158.591 28.9091 158.926 29.0855 159.136 29.2819C159.454 29.5786 159.9 29.8635 160.106 30.1722C160.534 30.8126 160.943 31.4426 162.083 32.0009C163.029 32.4641 163.902 32.9399 164.507 33.4611C164.808 33.7194 165.229 33.9651 165.492 34.2277C165.718 34.4533 166.035 34.6505 166.31 34.8682C166.784 35.2428 167.456 35.5826 168.087 35.9303C168.802 36.3243 169.781 36.6706 170.439 37.0765C170.69 37.231 170.932 37.3899 171.22 37.539C171.341 37.602 171.443 37.7665 171.697 37.7665" stroke="#FFC107" stroke-width="4" stroke-linecap="round"/>
<path d="M156.257 27.9516C155.733 27.7571 155.216 27.5677 154.711 27.37C154.237 27.1841 153.595 27.0378 153.07 26.8667C152.198 26.5819 151.074 26.4385 150.158 26.1844C150 26.1405 149.748 26.1264 149.575 26.0825C149.339 26.0225 149.056 25.971 148.787 25.9271C148.261 25.8412 147.776 25.7366 147.28 25.6375C146.789 25.5397 146.293 25.4418 145.825 25.3343C145.272 25.2072 144.796 25.0208 144.264 24.8819C143.86 24.7764 143.489 24.6787 143.133 24.5625C142.881 24.48 142.484 24.401 142.277 24.3165C142.077 24.2351 140.898 24.8929 140.716 24.959C140.626 24.9916 140.621 25.0644 140.529 25.0882C140.447 25.1097 140.475 24.9905 140.529 24.9764C140.666 24.9408 140.789 24.7357 140.841 24.6756C140.846 24.6705 141.034 24.6075 141.078 24.5961C141.188 24.5672 141.3 24.5306 141.386 24.4954C141.469 24.4617 141.798 24.35 141.968 24.35C142.163 24.35 142.32 24.2813 142.498 24.2605C142.847 24.2197 142.99 24.4316 143.046 24.5116C143.136 24.6407 143.362 24.7684 143.51 24.8919C143.651 25.0092 143.751 25.1098 144.028 25.2001C144.106 25.2254 144.196 25.2506 144.264 25.2784C144.33 25.3053 144.181 25.1903 144.093 25.1678C143.82 25.0986 143.474 25.0098 143.13 24.9776C142.973 24.963 142.834 24.9693 142.673 24.949C142.464 24.9229 142.268 24.8763 142.071 24.8422C141.638 24.7673 142.337 25.0082 142.444 25.0485C142.799 25.1817 143.271 25.3274 143.769 25.4014C144.269 25.4755 144.711 25.5958 145.224 25.6686C145.611 25.7236 145.958 25.7542 146.354 25.7829C146.553 25.7973 146.788 25.8831 146.952 25.9209C147.21 25.98 147.474 26.016 147.752 26.0613C147.835 26.075 147.988 26.1372 147.881 26.08C147.698 25.9817 147.46 25.9076 147.211 25.8264C146.691 25.6567 146.086 25.5233 145.566 25.3567C145.33 25.2811 144.97 25.2027 144.797 25.1106C144.508 24.9563 143.88 24.856 143.663 24.6905C143.551 24.6052 143.513 24.502 143.373 24.4221C143.341 24.4037 143.238 24.3376 143.366 24.3873C143.679 24.5094 144.006 24.6317 144.367 24.739C144.949 24.9121 145.641 25.0753 146.29 25.2212C146.635 25.299 147.057 25.3636 147.321 25.4698C147.595 25.5796 148.023 25.6874 148.376 25.7705C149.209 25.967 150.039 26.1868 150.995 26.3186C151.526 26.3917 152.009 26.4978 152.526 26.5821C153.161 26.6857 153.788 26.7844 154.376 26.9176C155.419 27.1535 156.416 27.3929 157.422 27.6434C157.956 27.7763 158.513 27.9044 159.105 28.0088C159.388 28.0587 159.611 28.1977 159.958 28.1977" stroke="#FFC107" stroke-width="4" stroke-linecap="round"/>
<path d="M158.389 27.8524C158.389 28.0297 158.981 28.1688 159.304 28.3007C159.687 28.4569 159.86 28.5923 160.027 28.7822C160.125 28.8945 160.026 29.0519 160.037 29.1674C160.055 29.367 160.465 29.5651 160.586 29.7619C160.755 30.0382 161.123 30.2794 161.41 30.5423C161.941 31.0271 162.702 31.4834 163.333 31.9469C163.678 32.2005 163.889 32.4751 164.228 32.724C164.515 32.935 164.795 33.2138 164.991 33.438C165.184 33.6583 165.728 33.8667 165.886 34.0988C166.049 34.3375 166.351 34.5989 166.72 34.8161C167.527 35.2897 168.15 35.7862 168.898 36.2739C169.204 36.474 169.47 36.649 169.742 36.8484C169.832 36.9149 170.579 37.35 170.464 37.144C170.314 36.8746 169.724 36.6471 169.294 36.4267C168.97 36.2604 168.612 35.8616 168.175 35.7393C167.589 35.5753 167.274 35.2635 167.036 35.0386C166.724 34.7442 166.202 34.4687 165.856 34.1752C165.111 33.5434 163.903 32.9551 163.292 32.3023C163.029 32.0215 162.563 31.768 162.275 31.4854C161.932 31.1497 161.796 30.8091 161.461 30.4692C160.905 29.9045 160.322 29.3473 160.22 28.749C160.201 28.639 160.037 28.5471 160.037 28.4269C160.037 28.2598 160.017 28.7613 160.037 28.9284C160.109 29.5531 161.231 30.1874 161.644 30.7946C162.191 31.5973 163.595 32.32 164.391 33.0993C164.831 33.5307 165.589 33.926 165.937 34.3678C166.223 34.7301 166.623 35.1402 167.036 35.4902C167.648 36.0101 168.425 36.6521 169.376 37.1174" stroke="#FFC107" stroke-width="4" stroke-linecap="round"/>
<path d="M168.085 36.0715C167.802 35.9678 167.683 35.8299 167.42 35.7196C167.159 35.6098 166.807 35.4128 166.709 35.2768C166.584 35.1031 166.397 34.9289 166.172 34.7671C166.083 34.7032 166.111 34.5995 166.068 34.5287C166.012 34.4381 165.859 34.3578 165.859 34.2663C165.859 34.2216 165.792 34.1365 165.735 34.096C165.602 34.0001 165.576 33.8429 165.372 33.768C165.114 33.6735 165.11 33.47 164.92 33.3581C164.487 33.1039 164.317 32.7991 163.896 32.5469C163.665 32.4088 163.616 32.2502 163.424 32.1092C163.278 32.002 163.252 31.8557 163.076 31.7623C162.951 31.6959 162.915 31.6165 162.864 31.5415C162.83 31.4916 162.698 31.4572 162.663 31.4053C162.615 31.3355 162.439 31.1185 162.276 31.076C162.056 31.0184 162.009 30.8386 161.878 30.7581C161.788 30.7022 161.785 30.6357 161.72 30.5765C161.645 30.5078 161.512 30.4453 161.48 30.3721C161.373 30.1278 161.003 29.8905 160.92 29.6455C160.845 29.425 160.297 29.2243 160.224 29.0097C160.187 28.9009 160.016 28.791 160.016 28.6804C160.016 28.6274 160.016 28.5745 160.016 28.5215C160.016 28.4172 160.077 28.666 160.124 28.7031C160.74 29.1916 160.94 29.751 161.372 30.2586C161.8 30.7611 162.145 31.2881 162.729 31.7749C162.809 31.842 162.97 32.1054 162.933 31.8909C162.889 31.631 162.479 31.3854 162.307 31.1328C162.206 30.9841 161.961 30.8465 161.84 30.7001C161.712 30.5458 161.595 30.3874 161.446 30.2359C161.167 29.9535 160.947 29.6243 160.847 29.3276C160.803 29.1985 160.642 29.076 160.642 28.9428C160.642 28.9121 160.524 28.7711 160.506 28.7965C160.392 28.965 160.869 29.2224 161.044 29.373C161.29 29.5856 161.518 29.8001 161.755 30.0138C162.111 30.3356 162.366 30.6838 162.52 31.0218C162.68 31.3737 162.912 31.729 163.215 32.0701C163.31 32.1768 163.44 32.2828 163.548 32.388C163.604 32.4435 163.678 32.548 163.842 32.5747" stroke="#FFC107" stroke-width="4" stroke-linecap="round"/>
<path d="M160.922 30.2485C160.922 29.9453 160.388 29.6242 160.031 29.347C159.662 29.0612 159.641 28.7386 159.242 28.4455C159.099 28.3409 159.081 28.1529 159.081 28.0377C159.081 27.8994 158.711 27.7686 158.686 27.6298C158.663 27.502 158.548 27.6424 158.555 27.7062C158.57 27.8459 158.74 28.0135 158.884 28.145C159.08 28.3245 159.296 28.4839 159.476 28.6601" stroke="#FFC107" stroke-width="4" stroke-linecap="round"/>
<path d="M160.265 28.6601C160.265 28.4512 159.804 28.282 159.739 28.102C159.708 28.0164 159.463 27.6778 159.279 27.6298C159.184 27.6052 159.213 27.563 159.213 27.5273C159.213 27.4719 159.225 27.6393 159.279 27.6918C159.432 27.8417 159.451 28.0275 159.68 28.1664C159.857 28.2733 160.002 28.7464 160.002 28.393C160.002 28.2378 159.822 28.0047 159.637 27.8683C159.431 27.7173 159.595 27.575 159.147 27.4581C158.692 27.3393 158.089 27.2734 157.569 27.1791C157.062 27.087 156.127 26.9403 155.823 26.7712C155.679 26.6916 154.786 26.6193 154.478 26.5661C153.833 26.4547 153.178 26.3276 152.564 26.2131C152.014 26.1106 151.476 26.0098 150.869 25.9532C150.325 25.9025 149.739 25.7068 149.218 25.6217C148.141 25.446 147.221 25.1269 146.127 24.9682C145.666 24.9013 144.813 24.8138 144.454 24.7202C144.166 24.6449 143.082 24.7106 144.286 24.7106C144.778 24.7106 145.5 24.8755 145.996 24.9253C146.7 24.996 147.256 25.1398 147.932 25.2162C149.092 25.3473 150.374 25.5198 151.461 25.7195C152.209 25.8569 153.047 25.9366 153.821 26.0629C154.247 26.1324 155.196 26.325 155.662 26.3419C156.163 26.3601 156.909 26.606 157.372 26.6949C157.862 26.7891 158.423 26.9513 158.884 27.0717C158.932 27.0843 159.305 27.2827 159.206 27.1361C159.155 27.0625 158.945 26.8916 158.76 26.8571C158.343 26.7794 158.207 26.5682 157.766 26.4803C157.262 26.3797 156.519 26.2434 156.086 26.1178C155.35 25.9043 154.246 25.8755 153.441 25.7004C153.106 25.6276 152.732 25.6277 152.433 25.5477C152.132 25.4675 151.756 25.4174 151.381 25.3951C150.446 25.3396 149.541 25.1138 148.56 25.097C147.787 25.0837 147.083 24.9682 146.325 24.9682C145.75 24.9682 145.321 24.9253 144.746 24.9253" stroke="#FFC107" stroke-width="4" stroke-linecap="round"/>
<path d="M156.936 26.1328C156.365 26.02 155.802 25.8785 155.303 25.7329C154.566 25.5177 153.415 25.3848 152.536 25.2412C151.121 25.0104 149.557 24.8837 148.039 24.7599C147.267 24.6968 146.46 24.6702 145.667 24.6414C145.1 24.6209 144.589 24.5753 144.052 24.5126C143.909 24.496 143.018 24.417 143.43 24.4696C143.872 24.5261 144.26 24.6256 144.687 24.6933C145.241 24.7813 145.878 24.839 146.465 24.9006C147.078 24.9648 147.683 25.0214 148.289 25.0946C149.198 25.2045 150.045 25.3632 150.966 25.4634C151.642 25.537 152.582 25.5607 153.107 25.724C153.886 25.9663 154.911 26.1207 155.911 26.2394C156.107 26.2627 156.351 26.3773 156.465 26.4319C156.708 26.5483 157.088 26.6444 157.39 26.7459C157.844 26.8986 158.041 27.091 158.329 27.279C158.627 27.4733 158.953 27.6745 159.305 27.8596C159.473 27.948 159.653 28.0496 159.754 28.1484C159.875 28.2674 160.093 28.3748 160.203 28.4919C160.353 28.6511 160.674 28.7958 160.775 28.9599C160.913 29.1854 161.133 29.4056 161.283 29.6308C161.533 30.0062 161.904 30.3825 162.226 30.7504C162.541 31.1096 162.793 31.4637 162.998 31.8315C163.146 32.098 163.295 32.3895 163.615 32.6372C163.762 32.7517 163.826 32.8783 163.959 32.9985C164.068 33.0956 164.251 33.2074 164.286 33.3096C164.347 33.4887 164.712 33.6825 164.899 33.8516C165.182 34.1087 165.541 34.3591 165.82 34.6158C166.283 35.0421 167.038 35.4343 167.671 35.8361C167.966 36.0235 168.339 36.4043 168.941 36.5025" stroke="#FFC107" stroke-width="4" stroke-linecap="round"/>
<path d="M159.958 28.1054C159.584 27.8455 159.194 27.5921 158.774 27.3457C158.63 27.2609 158.57 27.1229 158.57 27.0258C158.57 26.904 158.41 26.7709 158.33 26.6526C158.313 26.6289 158.271 26.5251 158.225 26.5119C158.012 26.4511 158.388 26.6902 158.525 26.7711C158.823 26.9483 159.154 27.1369 159.305 27.3338C159.642 27.7734 159.987 28.2247 160.362 28.6534C160.71 29.0505 159.301 27.9023 158.879 27.513C158.564 27.2232 158.235 26.9158 157.835 26.6393C157.799 26.6144 157.461 26.4255 157.431 26.5119C157.369 26.6939 157.413 26.8823 157.363 27.0658C157.299 27.3047 157.314 27.5591 157.35 27.7989C157.376 27.978 157.578 28.1448 157.59 28.3246C157.593 28.3633 157.624 28.5723 157.749 28.5927C157.888 28.6154 157.756 28.491 157.753 28.4401C157.748 28.3181 157.669 28.2034 157.59 28.0847C157.425 27.8369 157.34 27.582 157.141 27.3368C157.108 27.2958 156.923 27.0937 156.955 27.125C157.17 27.3357 157.437 27.5391 157.635 27.7515C157.863 27.9954 157.999 28.2656 158.57 28.452" stroke="#FFC107" stroke-width="4" stroke-linecap="round"/>
<path d="M160.366 28.4253C159.429 28.1014 158.978 27.5913 158.978 27.1591C158.978 26.9466 158.792 26.7459 158.506 26.5593C158.369 26.4697 157.976 26.2816 157.735 26.2187C157.462 26.1474 157.02 26.1418 156.691 26.1061" stroke="#FFC107" stroke-width="4" stroke-linecap="round"/>
<path d="M159.468 27.7855C159.468 27.5992 158.931 27.4426 158.81 27.2657C158.682 27.0764 158.366 26.8908 158.162 26.7074C157.958 26.5248 157.523 26.3774 157.1 26.2394C156.891 26.171 156.65 26.1212 156.406 26.0661C156.112 25.9998 155.125 25.7718 154.813 25.8395" stroke="#FFC107" stroke-width="4" stroke-linecap="round"/>
<path d="M158.162 27.8122C158.162 27.7292 158.233 27.6714 158.307 27.593C158.401 27.493 158.325 27.3563 158.325 27.2524C158.325 27.0731 158.242 26.8419 158.062 26.6718C157.846 26.4686 157.563 26.2475 157.1 26.0794C156.965 26.0303 156.794 25.9306 156.61 25.8988C156.385 25.8599 156.087 25.8591 155.875 25.8129" stroke="#FFC107" stroke-width="4" stroke-linecap="round"/>
<path d="M158.406 27.1191C158.406 26.9649 158.038 26.8451 157.785 26.7177C157.402 26.5256 156.988 26.3629 156.492 26.2009C155.697 25.9414 154.737 25.6091 153.67 25.493" stroke="#FFC107" stroke-width="4" stroke-linecap="round"/>
<path d="M142.462 25.2257C142.187 25.2145 142.29 24.8049 142.29 24.7413C142.29 24.626 142.278 24.5012 142.691 24.5909" stroke="#FFC107" stroke-width="4" stroke-linecap="round"/>
<path d="M154.93 25.5431C154.694 25.5174 154.528 25.4314 154.326 25.3937C153.946 25.3228 153.585 25.2499 153.189 25.1884C152.613 25.0989 152.026 25.0106 151.429 24.9353C150.563 24.8261 149.659 24.73 148.756 24.6563C147.861 24.5832 146.936 24.4976 146.008 24.4976C145.395 24.4976 144.815 24.4602 144.206 24.4602C144.027 24.4602 143.035 24.5644 142.932 24.5308C142.67 24.4451 143.494 24.3482 143.634 24.3482C143.941 24.3482 144.2 24.3214 144.521 24.3441C144.956 24.3748 145.399 24.3684 145.836 24.4001C146.722 24.4643 147.58 24.476 148.442 24.5826C149.022 24.6545 149.602 24.705 150.196 24.759C150.668 24.8019 151.136 24.8621 151.613 24.8938C152.006 24.92 152.385 24.9992 152.785 25.0193C153.189 25.0396 153.625 25.0986 154.012 25.1427C154.655 25.2162 155.257 25.3288 155.89 25.4082C156.31 25.4611 156.673 25.5592 157.018 25.6468C157.208 25.6952 157.648 25.7837 157.675 25.8605C157.709 25.9544 158.061 26.0065 158.136 26.0928C158.241 26.2129 158.535 26.2725 158.705 26.3832" stroke="#FFC107" stroke-width="4" stroke-linecap="round"/>
<path d="M159.047 27.0367C159.047 26.9078 159.163 26.7061 159.003 26.5886C158.804 26.4423 158.567 26.3167 158.316 26.1779C158.068 26.0399 157.662 25.9292 157.319 25.8273C156.971 25.7241 156.573 25.5804 156.073 25.5804" stroke="#FFC107" stroke-width="4" stroke-linecap="round"/>
<path d="M158.19 26.6819C158.345 26.6756 158.235 26.2468 158.177 26.1924C158.052 26.0742 157.898 25.9684 157.621 25.8781C157.362 25.7936 156.992 25.6368 156.646 25.5991" stroke="#FFC107" stroke-width="4" stroke-linecap="round"/>
<path d="M152.071 25.7484C151.944 25.7484 151.866 25.7051 151.74 25.6883C151.503 25.6567 151.202 25.5591 150.997 25.5057C150.739 25.4387 150.415 25.3902 150.126 25.3377C149.88 25.2932 149.672 25.2222 149.44 25.1697C148.717 25.0063 148.179 24.7586 147.381 24.6283C146.322 24.4555 145.15 24.307 143.974 24.2217C143.671 24.1997 143.158 24.1642 142.907 24.2404C142.572 24.3418 142.348 24.4333 142.348 24.5909" stroke="#FFC107" stroke-width="4" stroke-linecap="round"/>
<path d="M170.734 38.1248C170.681 37.847 169.549 37.6656 169.445 37.377C169.426 37.3242 169.077 37.2214 169.008 37.12C168.92 36.9917 168.734 36.8518 168.523 36.7435C168.312 36.6357 168.418 36.5055 168.268 36.3956C168.121 36.2876 167.959 36.117 167.878 35.9984C167.655 35.6703 167.416 35.274 166.868 34.9832C166.019 34.5327 165.864 33.983 165.079 33.5214C164.472 33.1652 164.18 32.7444 163.75 32.3661C163.615 32.247 163.543 32.0326 163.353 31.9351C163.062 31.7859 163.091 31.549 162.78 31.4184C162.203 31.1764 162.403 30.7626 161.929 30.4837C161.489 30.2254 161.63 29.8493 161.253 29.5724C161.078 29.4441 160.919 29.2224 160.863 29.0843C160.826 28.9942 160.834 28.9231 160.744 28.835C160.653 28.7463 160.817 29.0401 160.855 29.0791C161.603 29.8542 162.516 30.6082 163.361 31.3743C163.881 31.8463 164.481 32.3215 165.079 32.7763C165.741 33.2808 166.002 33.8653 166.327 34.3964C166.651 34.9252 167.064 35.5372 167.807 36.0217C168.12 36.2261 168.729 36.5919 168.729 36.8162" stroke="#FFC107" stroke-width="4" stroke-linecap="round"/>
<path d="M170.018 36.9564C170.018 36.7832 169.71 36.6328 169.597 36.4657C169.499 36.3231 169.541 36.1566 169.334 36.0217C169.196 35.9315 169.139 35.6519 168.944 35.6011C168.798 35.5628 168.498 35.2776 168.435 35.2065C168.119 34.8455 167.332 34.5186 167.012 34.1524C166.717 33.8155 165.866 33.4868 165.866 33.1242" stroke="#FFC107" stroke-width="4" stroke-linecap="round"/>
<path d="M165.866 33.1242C165.866 33.4786 166.209 33.7339 166.654 34.0563C167.033 34.3316 167.255 34.6824 167.727 34.9365C168.597 35.4042 168.568 36.0277 169.445 36.4995C169.733 36.6538 170.321 36.9451 170.44 37.12C170.507 37.2184 171.058 37.5874 170.845 37.3095C170.447 36.7896 169.6 36.28 169.151 35.7673C168.833 35.404 168.079 35.0344 167.863 34.6457C167.774 34.4865 167.42 34.0575 167.043 33.9498C166.241 33.7206 167.895 34.5887 168.372 34.9001C169.428 35.5895 170.389 36.2978 171.378 36.9798C171.483 37.052 171.666 37.1455 171.728 37.216C171.819 37.3194 171.713 37.1314 171.593 37.107C171.34 37.0553 170.959 36.6429 170.877 36.5358" stroke="#FFC107" stroke-width="4" stroke-linecap="round"/>
<path d="M167.87 35.975C167.604 35.7901 167.297 35.5005 167.297 35.2973C167.297 35.0762 166.725 34.8286 166.725 34.5963C166.725 34.378 166.258 34.1135 166.041 33.9083C165.778 33.6605 165.661 33.4178 165.325 33.1709C164.954 32.8989 164.78 32.5334 164.577 32.2363C164.365 31.925 163.755 31.6305 163.583 31.3223C163.464 31.1081 163.153 30.7917 162.827 30.6006C162.335 30.3111 162.04 29.9916 161.682 29.6763C161.551 29.5608 161.238 29.4928 161.149 29.3621C160.996 29.1366 161.237 29.6179 161.356 29.7126C161.908 30.1534 162.294 30.6005 162.796 31.0445C163.167 31.3738 163.343 31.6678 163.607 32.0026C163.781 32.2241 163.935 32.5905 164.291 32.7867C164.734 33.0306 164.802 33.3215 165.221 33.5682C165.744 33.875 165.928 34.2526 166.502 34.547C166.71 34.6539 166.921 34.8335 167.043 34.9572C167.292 35.2097 167.7 35.4364 167.981 35.6842C168.097 35.7864 168.172 35.9075 168.411 35.9854C168.451 35.9983 168.443 35.7923 168.443 35.7413" stroke="#FFC107" stroke-width="4" stroke-linecap="round"/>
<path d="M168.443 35.5544C168.443 34.9349 167.746 34.388 166.98 33.8252C166.15 33.2154 165.454 32.6532 164.641 32.0467C164.234 31.7427 163.793 31.445 163.584 31.138C163.408 30.8808 163.118 30.5617 162.748 30.3202C162.331 30.0475 162.12 29.7534 161.746 29.4789C161.421 29.24 161.374 28.8726 160.855 28.6611C160.457 28.4987 159.992 28.0815 159.845 27.8666C159.769 27.755 159.462 27.579 159.312 27.4694C159.119 27.3276 159.111 27.2167 158.986 27.0747C158.92 26.999 158.866 26.948 158.851 26.8618C158.831 26.7413 158.537 26.7259 158.851 26.8411C159.214 26.9742 159.283 27.1599 159.631 27.3058C160.213 27.5503 160.184 27.9285 160.537 28.2171C161.009 28.6019 161.164 29.0448 161.539 29.4426C161.741 29.6568 161.758 29.8894 162.001 30.1073C162.219 30.3036 162.597 30.5669 162.709 30.7667C162.952 31.2043 163.635 31.6926 164.291 32.0753C165.027 32.5041 165.399 32.9935 165.866 33.4514" stroke="#FFC107" stroke-width="4" stroke-linecap="round"/>
<path d="M158.957 26.6494C158.957 26.6999 159.134 26.7488 159.201 26.7977C159.293 26.8651 159.474 26.9454 159.487 27.0202C159.513 27.1722 159.698 27.3202 159.714 27.4707C159.764 27.929 160.025 28.3625 160.472 28.8" stroke="#FFC107" stroke-width="4" stroke-linecap="round"/>
<path d="M159.79 28.0832C159.79 28.6523 160.943 29.1976 161.515 29.7201C161.803 29.9835 162.097 30.2438 162.331 30.5167C162.55 30.7715 162.804 31.082 163.274 31.2967" stroke="#FFC107" stroke-width="4" stroke-linecap="round"/>
</g>
</g>
<defs>
<filter id="filter0_d_17_176" x="86" y="-8" width="331" height="80" filterUnits="userSpaceOnUse" color-interpolation-filters="sRGB">
<feFlood flood-opacity="0" result="BackgroundImageFix"/>
<feColorMatrix in="SourceAlpha" type="matrix" values="0 0 0 0 0 0 0 0 0 0 0 0 0 0 0 0 0 0 127 0" result="hardAlpha"/>
<feOffset dy="4"/>
<feGaussianBlur stdDeviation="4"/>
<feComposite in2="hardAlpha" operator="out"/>
<feColorMatrix type="matrix" values="0 0 0 0 0 0 0 0 0 0 0 0 0 0 0 0 0 0 0.15 0"/>
<feBlend mode="normal" in2="BackgroundImageFix" result="effect1_dropShadow_17_176"/>
<feBlend mode="normal" in="SourceGraphic" in2="effect1_dropShadow_17_176" result="shape"/>
</filter>
<filter id="filter1_d_17_176" x="224.372" y="35.0467" width="149.686" height="21.9568" filterUnits="userSpaceOnUse" color-interpolation-filters="sRGB">
<feFlood flood-opacity="0" result="BackgroundImageFix"/>
<feColorMatrix in="SourceAlpha" type="matrix" values="0 0 0 0 0 0 0 0 0 0 0 0 0 0 0 0 0 0 127 0" result="hardAlpha"/>
<feOffset/>
<feGaussianBlur stdDeviation="2.5"/>
<feColorMatrix type="matrix" values="0 0 0 0 0.266667 0 0 0 0 0.266667 0 0 0 0 0.266667 0 0 0 0.5 0"/>
<feBlend mode="normal" in2="BackgroundImageFix" result="effect1_dropShadow_17_176"/>
<feBlend mode="normal" in="SourceGraphic" in2="effect1_dropShadow_17_176" result="shape"/>
</filter>
<filter id="filter2_d_17_176" x="229.372" y="39.0467" width="143.686" height="15.9568" filterUnits="userSpaceOnUse" color-interpolation-filters="sRGB">
<feFlood flood-opacity="0" result="BackgroundImageFix"/>
<feColorMatrix in="SourceAlpha" type="matrix" values="0 0 0 0 0 0 0 0 0 0 0 0 0 0 0 0 0 0 127 0" result="hardAlpha"/>
<feOffset dx="2" dy="1"/>
<feGaussianBlur stdDeviation="1"/>
<feComposite in2="hardAlpha" operator="out"/>
<feColorMatrix type="matrix" values="0 0 0 0 0 0 0 0 0 0 0 0 0 0 0 0 0 0 0.75 0"/>
<feBlend mode="normal" in2="BackgroundImageFix" result="effect1_dropShadow_17_176"/>
<feBlend mode="normal" in="SourceGraphic" in2="effect1_dropShadow_17_176" result="shape"/>
</filter>
<clipPath id="clip0_17_176">
<rect width="468" height="60" fill="white"/>
</clipPath>
<clipPath id="clip1_17_176">
<rect width="315" height="64" fill="white" transform="translate(94 -4)"/>
</clipPath>
</defs>
</svg>
