<svg width="368" height="60" viewBox="0 0 368 60" fill="none" xmlns="http://www.w3.org/2000/svg">
<g clip-path="url(#clip0_17_176)">
<rect width="368" height="60" fill="white"/>
<g clip-path="url(#clip1_17_176)" filter="url(#filter0_d_17_176)">
<mask id="mask0_17_176" style="mask-type:luminance" maskUnits="userSpaceOnUse" x="26" y="-4" width="315" height="64">
<path d="M341 -4H26V60H341V-4Z" fill="white"/>
</mask>
<g mask="url(#mask0_17_176)">
<path d="M341 -4H26V60H341V-4Z" fill="white"/>
<mask id="mask1_17_176" style="mask-type:luminance" maskUnits="userSpaceOnUse" x="26" y="-7" width="313" height="67">
<path d="M26.5 -6.43207H337.897V59.477H26.5V-6.43207Z" fill="white" stroke="white"/>
</mask>
<g mask="url(#mask1_17_176)">
<path d="M105.974 -0.508791C103.319 1.0078 103.631 2.34599 107.223 4.21944C111.285 6.36053 111.128 8.59084 106.911 10.1967C103.475 11.5348 103.319 11.624 105.974 14.568C108.317 17.1552 108.629 17.2444 107.848 15.2817C107.223 13.5868 108.004 12.2486 110.972 10.4643C115.971 7.34187 115.971 6.44975 110.972 3.68417C108.629 2.43521 107.38 0.918598 107.692 0.0264812C108.629 -1.84697 108.473 -1.9362 105.974 -0.508791Z" fill="#FFC107"/>
<path d="M77.8273 25.7073L72.1169 24.8324L54.0599 34.1057L54.057 34.107C48.9118 36.7341 44.1216 39.2699 40.544 41.2467C38.754 42.2356 37.2758 43.0801 36.2111 43.7238C35.6778 44.0462 35.2585 44.3121 34.9589 44.5172C34.6675 44.7165 34.5599 44.8119 34.5392 44.8302C34.5361 44.833 34.5349 44.8339 34.5354 44.8333L34.4994 44.8795L34.4523 44.9227C34.3178 45.0455 34.2272 45.2931 34.4121 45.7088C34.5912 46.1113 34.9913 46.5758 35.5568 47.0231C36.12 47.4683 36.806 47.8638 37.5024 48.1415C38.1302 48.3917 38.682 48.5134 39.1094 48.539C39.1465 48.5274 39.1937 48.5118 39.2516 48.4913C39.498 48.4042 39.841 48.2638 40.281 48.0656C41.1555 47.6715 42.3185 47.0925 43.695 46.3671C46.4416 44.92 49.9741 42.9249 53.6309 40.7475C57.3179 38.5075 60.8915 36.4887 63.6692 35.0259C65.0563 34.2954 66.2587 33.6964 67.185 33.2761C67.6452 33.0672 68.0594 32.8923 68.4065 32.7661C68.5785 32.7034 68.7595 32.6433 68.938 32.5963C69.0758 32.5603 69.3759 32.4861 69.736 32.4861C70.1499 32.4861 70.5058 32.5875 70.644 32.6272C70.8491 32.6861 71.0717 32.7636 71.2985 32.8493C71.7564 33.0221 72.3335 33.2669 73.0039 33.5677C74.3498 34.1716 76.1508 35.0371 78.2748 36.0937C82.527 38.209 88.1231 41.1147 94.0646 44.2849L94.0683 44.2868C100.698 47.8506 106.258 50.6928 110.307 52.5958C112.336 53.5494 113.958 54.2545 115.132 54.6953C115.725 54.9179 116.159 55.0563 116.449 55.1277C116.454 55.1289 116.459 55.13 116.464 55.1312C116.492 55.1203 116.523 55.1076 116.558 55.0931C116.743 55.0157 116.975 54.9066 117.253 54.7639C117.809 54.4791 118.492 54.0887 119.263 53.6195C120.803 52.6826 122.637 51.4644 124.402 50.2241C126.166 48.9838 127.845 47.7322 129.078 46.7299C129.696 46.2273 130.188 45.7979 130.521 45.4697C130.672 45.3204 130.779 45.2023 130.849 45.1142C130.753 45.018 130.605 44.8867 130.4 44.7187C129.949 44.3488 129.282 43.8509 128.44 43.2538C126.761 42.0631 124.435 40.5131 121.868 38.8692C117.752 36.2963 115.303 34.6515 113.911 33.2275C112.459 31.7424 112.17 30.514 112.17 28.842C112.17 27.5261 111.973 26.6717 111.586 26.0816C111.227 25.5361 110.696 25.1993 109.863 24.9254C108.109 24.3917 106.906 24.0982 106.065 24.0142C105.667 23.9745 105.44 23.9921 105.314 24.0161C105.209 24.0362 105.089 24.0756 104.948 24.1875C104.605 24.4589 104.286 25.0313 104.089 26.1332C103.898 27.2019 103.839 28.6419 103.839 30.537C103.839 32.5182 103.682 34.3277 103.442 35.6507C103.323 36.3085 103.18 36.8663 103.017 37.271C102.937 37.4676 102.839 37.6644 102.708 37.8267C102.645 37.9049 102.543 38.0166 102.379 38.1198C102.224 38.2167 101.86 38.4013 101.288 38.4013C100.023 38.4013 98.8201 37.987 97.8444 37.5107C96.8228 37.0119 95.8305 36.337 94.9651 35.5956C93.2607 34.1354 91.8641 32.2547 91.8641 30.7155C91.8641 29.9526 91.7631 29.4452 91.4957 29.0541C91.2497 28.6938 90.8269 28.3824 89.9774 28.0619C89.0887 27.7268 87.7659 27.3947 85.7609 27.0129C83.7675 26.6334 81.1863 26.2205 77.8273 25.7073ZM130.951 45.2265C130.951 45.2259 130.95 45.2251 130.95 45.2241C130.954 45.232 130.956 45.233 130.951 45.2265Z" fill="#FFC107"/>
<path d="M39.0028 48.5687C39.0026 48.5689 39.0076 48.5678 39.018 48.5654M77.8273 25.7073L72.1169 24.8324L54.0599 34.1057L54.057 34.107C48.9118 36.7341 44.1216 39.2699 40.544 41.2467C38.754 42.2356 37.2758 43.0801 36.2111 43.7238C35.6778 44.0462 35.2585 44.3121 34.9589 44.5172C34.6675 44.7165 34.5599 44.8119 34.5392 44.8302C34.5361 44.833 34.5349 44.8339 34.5354 44.8333L34.4994 44.8795L34.4523 44.9227C34.3178 45.0455 34.2272 45.2931 34.4121 45.7088C34.5912 46.1113 34.9913 46.5758 35.5568 47.0231C36.12 47.4683 36.806 47.8638 37.5024 48.1415C38.1302 48.3917 38.682 48.5134 39.1094 48.539C39.1465 48.5274 39.1937 48.5118 39.2516 48.4913C39.498 48.4042 39.841 48.2638 40.281 48.0656C41.1555 47.6715 42.3185 47.0925 43.695 46.3671C46.4416 44.92 49.9741 42.9249 53.6309 40.7475C57.3179 38.5075 60.8915 36.4887 63.6692 35.0259C65.0563 34.2954 66.2587 33.6964 67.185 33.2761C67.6452 33.0672 68.0594 32.8923 68.4065 32.7661C68.5785 32.7034 68.7595 32.6433 68.938 32.5963C69.0758 32.5603 69.3759 32.4861 69.736 32.4861C70.1499 32.4861 70.5058 32.5875 70.644 32.6272C70.8491 32.6861 71.0717 32.7636 71.2985 32.8493C71.7564 33.0221 72.3335 33.2669 73.0039 33.5677C74.3498 34.1716 76.1508 35.0371 78.2748 36.0937C82.527 38.209 88.1231 41.1147 94.0646 44.2849L94.0683 44.2868C100.698 47.8506 106.258 50.6928 110.307 52.5958C112.336 53.5494 113.958 54.2545 115.132 54.6953C115.725 54.9179 116.159 55.0563 116.449 55.1277C116.454 55.1289 116.459 55.13 116.464 55.1312C116.492 55.1203 116.523 55.1076 116.558 55.0931C116.743 55.0157 116.975 54.9066 117.253 54.7639C117.809 54.4791 118.492 54.0887 119.263 53.6195C120.803 52.6826 122.637 51.4644 124.402 50.2241C126.166 48.9838 127.845 47.7322 129.078 46.7299C129.696 46.2273 130.188 45.7979 130.521 45.4697C130.672 45.3204 130.779 45.2023 130.849 45.1142C130.753 45.018 130.605 44.8867 130.4 44.7187C129.949 44.3488 129.282 43.8509 128.44 43.2538C126.761 42.0631 124.435 40.5131 121.868 38.8692C117.752 36.2963 115.303 34.6515 113.911 33.2275C112.459 31.7424 112.17 30.514 112.17 28.842C112.17 27.5261 111.973 26.6717 111.586 26.0816C111.227 25.5361 110.696 25.1993 109.863 24.9254C108.109 24.3917 106.906 24.0982 106.065 24.0142C105.667 23.9745 105.44 23.9921 105.314 24.0161C105.209 24.0362 105.089 24.0756 104.948 24.1875C104.605 24.4589 104.286 25.0313 104.089 26.1332C103.898 27.2019 103.839 28.6419 103.839 30.537C103.839 32.5182 103.682 34.3277 103.442 35.6507C103.323 36.3085 103.18 36.8663 103.017 37.271C102.937 37.4676 102.839 37.6644 102.708 37.8267C102.645 37.9049 102.543 38.0166 102.379 38.1198C102.224 38.2167 101.86 38.4013 101.288 38.4013C100.023 38.4013 98.8201 37.987 97.8444 37.5107C96.8228 37.0119 95.8305 36.337 94.9651 35.5956C93.2607 34.1354 91.8641 32.2547 91.8641 30.7155C91.8641 29.9526 91.7631 29.4452 91.4957 29.0541C91.2497 28.6938 90.8269 28.3824 89.9774 28.0619C89.0887 27.7268 87.7659 27.3947 85.7609 27.0129C83.7675 26.6334 81.1863 26.2205 77.8273 25.7073ZM130.951 45.2265C130.951 45.2259 130.95 45.2251 130.95 45.2241C130.954 45.232 130.956 45.233 130.951 45.2265Z" stroke="#FFC107"/>
<path d="M63.4883 50.1636V50.1636C63.4883 52.1345 65.086 53.7322 67.0569 53.7322H71.2982H75.5395C77.5104 53.7322 79.1081 52.1345 79.1081 50.1636V50.1636V50.1636C79.1081 48.1928 77.5105 46.5952 75.5397 46.5952H71.2982H67.0567C65.0859 46.5952 63.4883 48.1928 63.4883 50.1636V50.1636Z" fill="#FFC107"/>
<path d="M104.836 25.7261C104.356 25.7561 104.547 26.4195 104.547 26.616C104.547 26.9612 104.451 27.2737 104.451 27.6137C104.451 27.9463 104.162 28.2765 104.162 28.6115C104.162 28.935 104.162 29.2586 104.162 29.5823C104.162 29.855 104.354 30.1347 104.354 30.4182C104.354 30.7242 104.451 31.0257 104.451 31.3079C104.451 31.9676 104.354 32.5703 104.354 33.2225" stroke="#FFC107" stroke-linecap="square"/>
<path d="M115.923 54.7415C115.681 54.7145 115.45 54.4974 115.313 54.3988C115.14 54.2739 114.975 54.1089 114.742 54.017C114.469 53.9091 114.264 53.731 114.036 53.5961C113.941 53.5401 113.822 53.4974 113.741 53.4394C113.686 53.3996 113.579 53.3412 113.504 53.3121C113.388 53.267 113.314 53.2099 113.217 53.1555C113.123 53.1027 112.986 53.0564 112.918 52.9901C112.883 52.9553 112.748 52.9033 112.691 52.8716C112.583 52.8108 112.422 52.7731 112.297 52.7246C112.177 52.6781 112.104 52.6215 111.975 52.5833C111.867 52.5513 111.69 52.4765 111.623 52.4212C111.564 52.3709 111.373 52.314 111.278 52.2841C111.124 52.2355 111.01 52.1543 110.865 52.098C110.282 51.8721 109.737 51.5774 109.223 51.2996C109.111 51.239 108.968 51.1466 108.831 51.1037C108.722 51.0698 108.651 50.9915 108.534 50.9623C108.406 50.9305 108.281 50.8256 108.167 50.7753C108.007 50.7047 107.874 50.6166 107.705 50.5511C107.564 50.4964 107.425 50.435 107.301 50.3705C107.16 50.2967 106.984 50.2509 106.838 50.179C106.575 50.0502 106.275 49.9421 105.993 49.8266C105.761 49.7313 105.544 49.6071 105.318 49.5035C105.179 49.44 105.024 49.3729 104.902 49.299C104.815 49.2455 104.626 49.1456 104.507 49.1174C104.405 49.0932 104.268 48.9923 104.184 48.9454C104.084 48.8891 103.977 48.8413 103.887 48.7801C103.686 48.642 103.43 48.5226 103.206 48.3971C102.81 48.175 102.428 47.9457 102.018 47.7401C101.573 47.5166 101.046 47.343 100.621 47.1047C100.44 47.0032 100.231 46.9251 100.044 46.8208C99.8312 46.7014 99.6175 46.5949 99.3983 46.4781C99.1645 46.3537 98.9258 46.235 98.6975 46.1072C98.598 46.0515 98.4757 45.9901 98.3656 45.9396C98.2708 45.8961 98.1651 45.8227 98.0706 45.7885C97.8832 45.7204 97.6679 45.5878 97.5312 45.4893C97.4544 45.434 97.343 45.3849 97.2498 45.3326C97.1673 45.2864 96.979 45.2279 96.9257 45.177C96.8025 45.0599 96.5456 44.977 96.3764 44.8823C96.2181 44.7936 96.0538 44.7101 95.8969 44.6222C95.8164 44.5771 95.7144 44.5417 95.6329 44.496C95.5852 44.4694 95.4431 44.4187 95.4155 44.3915C95.3593 44.3363 95.1208 44.2122 95.0312 44.187" stroke="#FFC107" stroke-linecap="square"/>
<path d="M116.167 54.1959C117.023 54.1959 117.369 53.5267 118.026 53.2401C118.289 53.1255 118.549 52.9805 118.716 52.8214C118.823 52.7191 119.085 52.6448 119.173 52.5331C119.341 52.3207 119.685 51.9446 120.004 51.8014C120.204 51.7116 120.28 51.558 120.478 51.4714C120.661 51.392 120.86 51.2966 120.975 51.1806C121.207 50.9469 121.696 50.8164 121.924 50.56C122.308 50.1303 122.986 49.6926 123.621 49.3725C124.148 49.1068 124.89 48.782 125.185 48.4093C125.367 48.1809 125.709 47.9697 125.823 47.7468C125.871 47.6521 126.19 47.608 126.214 47.5003C126.23 47.4297 126.465 47.3181 126.53 47.254C126.969 46.824 127.524 46.4273 128.095 46.0715C128.369 45.9006 128.7 45.7017 128.886 45.505C129.056 45.3244 129.375 45.1984 129.536 45.0172" stroke="#FFC107" stroke-linecap="square"/>
<path d="M117.433 54.329C117.753 54.1695 118.152 54.0602 118.479 53.8954C118.77 53.7485 119.227 53.6925 119.41 53.4865" stroke="#FFC107" stroke-linecap="square"/>
<path d="M118.777 53.4866C118.806 53.3279 119.293 52.9123 119.524 52.8313C119.695 52.7715 119.953 52.6042 120.061 52.511C120.139 52.4432 120.24 52.4073 120.36 52.3682C120.468 52.3324 120.455 52.2348 120.562 52.2006C120.893 52.0944 121.194 51.8551 121.37 51.6685C121.521 51.5084 121.675 51.2807 121.898 51.1561C122.42 50.8633 122.821 50.4909 123.348 50.1954C123.878 49.8985 124.225 49.5113 124.693 49.2198C124.998 49.0297 125.141 48.7603 125.44 48.5744C125.634 48.4535 125.984 48.2506 126.06 48.1014C126.089 48.0438 126.309 47.9367 126.372 47.8748C126.472 47.7766 126.599 47.6969 126.706 47.5891C126.772 47.5226 126.976 47.3261 127.084 47.2884C127.215 47.2423 127.245 47.109 127.361 47.0569C127.426 47.0278 127.612 46.8653 127.633 46.8131C127.671 46.7172 127.877 46.6275 127.989 46.5471C128.231 46.3728 128.451 46.1378 128.727 45.9828C128.978 45.8426 129.287 45.6025 129.457 45.4361C129.603 45.2924 129.673 45.0009 129.932 44.9286" stroke="#FFC107" stroke-linecap="square"/>
<path d="M129.075 44.4684C129.075 44.3415 129.012 44.1641 128.867 44.0602C128.715 43.95 128.636 43.7898 128.479 43.6919C128.201 43.519 128.12 43.2892 127.851 43.1295C127.769 43.0806 127.79 43.001 127.702 42.9517C127.63 42.911 127.555 42.8692 127.502 42.8175C127.381 42.6989 127.256 42.5789 127.094 42.4764C126.888 42.3469 126.657 42.0927 126.395 42.0192" stroke="#FFC107" stroke-linecap="square"/>
<path d="M126.278 42.7703C126.064 42.7463 126.001 42.594 125.838 42.5417C125.711 42.5009 125.528 42.3825 125.417 42.3203C125.197 42.1971 124.941 42.0655 124.679 41.9719C124.539 41.9222 124.321 41.8566 124.239 41.776C124.163 41.7017 124.036 41.6384 123.96 41.562C123.883 41.4842 123.869 41.3613 123.773 41.3007C123.571 41.1731 123.551 40.9222 123.397 40.7619C123.246 40.6044 123.071 40.3846 122.841 40.2557C122.596 40.1184 122.335 39.9799 122.138 39.8148C121.934 39.6433 121.65 39.4247 121.384 39.2759C121.232 39.1905 121.131 39.0915 121.002 38.9984C120.863 38.898 120.633 38.8156 120.568 38.6881C120.453 38.462 120.041 38.2675 119.869 38.0513C119.735 37.8826 119.454 37.6867 119.228 37.5452C119.032 37.4225 118.787 37.2413 118.646 37.1024C118.461 36.9215 118.142 36.7489 117.888 36.5981C117.746 36.5137 117.642 36.4092 117.51 36.3187C117.392 36.2381 117.217 36.1417 117.131 36.0575C116.927 35.8576 116.532 35.6928 116.386 35.4804C116.274 35.3167 115.978 35.1815 115.778 35.0541C115.634 34.9631 115.526 34.8429 115.383 34.7548C115.158 34.6164 114.887 34.4413 114.742 34.2794" stroke="#FFC107" stroke-linecap="square"/>
<path d="M105.161 33.8775C104.8 33.8775 104.29 34.1725 104.29 34.3661C104.29 34.6013 104.491 34.813 104.491 35.0425C104.491 35.5798 103.888 36.0627 103.888 36.602C103.888 36.8522 103.58 37.0753 103.552 37.3347C103.542 37.433 103.379 37.5776 103.347 37.6918C103.311 37.8225 103.15 37.9796 103.15 38.105C103.15 38.3344 102.84 38.6694 102.666 38.8755C102.542 39.0221 102.385 39.153 102.264 39.2887C102.178 39.385 101.943 39.3926 101.943 39.5142" stroke="#FFC107" stroke-linecap="square"/>
<path d="M113.274 34.3661C113.274 33.7815 112.805 33.2643 112.805 32.675C112.805 32.5437 112.671 32.4457 112.671 32.3181C112.671 32.2454 112.599 31.9665 112.503 31.9235C112.336 31.8487 112.366 31.6714 112.235 31.5833C112.125 31.5092 112 31.2854 112 31.1908C112 31.0602 111.808 30.9257 111.799 30.7878C111.79 30.6573 111.677 30.5017 111.665 30.3828C111.636 30.106 111.531 29.88 111.531 29.5853C111.531 29.2841 111.464 28.9827 111.464 28.673C111.464 28.3868 111.665 28.1316 111.665 27.8464C111.665 27.7113 111.732 27.5913 111.732 27.4518C111.732 27.3593 111.751 27.1553 111.65 27.0844C111.523 26.9956 111.525 26.8902 111.43 26.7942C111.361 26.7244 111.196 26.5328 111.196 26.456C111.196 26.0154 110.148 25.6861 109.587 25.4893C109.22 25.3607 108.987 25.1145 108.551 25.0446C108.381 25.0174 108.212 24.8964 108.011 24.8964C107.828 24.8964 107.639 24.7837 107.408 24.7837C106.977 24.7837 106.499 24.7086 106.033 24.7086C105.623 24.7086 105.095 24.9184 105.095 25.1596" stroke="#FFC107" stroke-linecap="square"/>
<path d="M95.0341 43.8333C94.3223 43.6455 93.5497 43.4733 92.929 43.2028C92.7874 43.1409 92.5799 43.0615 92.4256 43.0058C92.2746 42.9514 92.1324 42.8913 91.9859 42.8297C91.8169 42.7585 91.6766 42.6479 91.4972 42.5887C91.2679 42.5132 91.1075 42.378 90.8781 42.3024C90.6967 42.2425 90.4817 42.1215 90.3281 42.0352C90.1927 41.9594 89.9951 41.8505 89.9056 41.7626C89.84 41.6983 89.5106 41.4543 89.375 41.4543" stroke="#FFC107" stroke-linecap="square"/>
<path d="M90.5683 41.7764C90.3348 41.6454 90.0974 41.5152 89.8808 41.3937C89.6454 41.2618 89.1888 41.1838 89.0209 41.0192C88.9501 40.9498 88.7514 40.8598 88.633 40.8099C88.5049 40.7562 88.4177 40.6566 88.3112 40.5869C88.105 40.4522 87.8567 40.2381 87.5841 40.1533C87.2996 40.0647 87.1002 39.8944 86.8104 39.8132C86.4689 39.7175 86.2164 39.4966 85.8821 39.4029C85.7358 39.362 85.5614 39.2569 85.457 39.1854C85.2859 39.0682 85.0266 38.9952 84.8306 38.8963C84.5523 38.7559 84.2462 38.6247 83.971 38.4859C83.329 38.1622 82.585 37.9294 81.9225 37.6256C81.7444 37.5438 81.5603 37.4766 81.3969 37.3901C81.3227 37.3508 81.1537 37.3012 81.0628 37.2717C80.9816 37.2454 80.9428 37.2041 80.864 37.1795C80.6919 37.1258 80.5695 37.0273 80.3998 36.9744C80.2001 36.9121 79.9653 36.8246 79.8028 36.7334C79.6511 36.6484 79.4496 36.5796 79.3189 36.4857C79.2275 36.4198 79.0502 36.3713 78.9753 36.2998C78.7917 36.1249 78.3671 36.0481 78.199 35.8785C78.125 35.8039 77.9381 35.7664 77.8798 35.6926C77.8329 35.6336 77.6549 35.5546 77.5604 35.5123C77.2701 35.3821 76.9361 35.1993 76.5977 35.0855" stroke="#FFC107" stroke-linecap="square"/>
<g filter="url(#filter1_d_17_176)">
<g filter="url(#filter2_d_17_176)">
<path d="M176.478 43.7699C176.851 43.4282 177.038 43.0982 177.038 42.7796C177.038 42.4611 177.001 42.2138 176.927 42.0377C176.849 41.8598 176.725 41.7031 176.554 41.568C176.181 41.2708 175.622 41.1222 174.876 41.1222C173.955 41.1222 173.121 41.2762 172.375 41.584C171.579 41.9024 171.181 42.3126 171.181 42.8144C171.181 43.1328 171.423 43.4148 171.909 43.6604C172.395 43.9041 173.011 44.1399 173.757 44.3677C174.503 44.5953 175.297 44.8231 176.14 45.0509C176.987 45.2787 177.784 45.5296 178.53 45.8035C180.243 46.4298 181.1 47.1638 181.1 48.0054C181.1 48.5748 180.772 49.1015 180.115 49.5855C179.454 50.0694 178.578 50.4884 177.487 50.8425C175.097 51.6164 172.323 52.0035 169.164 52.0035C166.604 52.0035 164.665 51.8131 163.348 51.4323C162.031 51.0497 161.372 50.5684 161.372 49.9884C161.372 48.9511 162.254 48.3017 164.018 48.0401C164.515 47.96 165.143 47.92 165.901 47.92C166.662 47.92 167.478 47.9948 168.348 48.1441C167.948 48.6103 167.748 49.0543 167.748 49.4761C167.748 50.3871 168.457 50.8425 169.875 50.8425C170.796 50.8425 171.635 50.6886 172.393 50.3808C173.15 50.073 173.529 49.7456 173.529 49.3985C173.529 49.0516 173.286 48.7527 172.801 48.5018C172.319 48.2509 171.717 48.0259 170.994 47.8266C170.271 47.6273 169.494 47.4307 168.663 47.2368C167.831 47.0447 167.054 46.8115 166.332 46.5375C164.642 45.9111 163.797 45.0972 163.797 44.0954C163.797 43.446 164.144 42.8678 164.84 42.3606C165.535 41.8535 166.443 41.4292 167.561 41.0876C169.799 40.3936 172.292 40.0467 175.039 40.0467C177.79 40.0467 179.829 40.2343 181.158 40.6097C182.487 40.9853 183.151 41.4924 183.151 42.1311C183.151 42.688 182.679 43.1436 181.735 43.4976C180.915 43.793 180.008 43.9407 179.013 43.9407C178.019 43.9407 177.174 43.8836 176.478 43.7699ZM199.866 49.0303C200.336 49.3043 200.571 49.6637 200.571 50.1085C200.571 50.7223 200.074 51.1921 199.079 51.5177C198.085 51.8416 196.804 52.0035 195.238 52.0035C194.345 52.0035 193.214 51.9581 191.847 51.8673C189.158 51.6735 187.404 51.5764 186.584 51.5764C185.764 51.5764 185.193 51.5853 184.871 51.6032C184.548 51.6192 184.125 51.6387 183.6 51.6618L188.187 40.3882H204.266C204.266 41.0822 203.899 41.6115 203.165 41.9763C202.43 42.3411 201.342 42.5235 199.901 42.5235C198.46 42.5235 197.005 42.3695 195.536 42.0617L194.382 45.0509H201.02C201.02 45.6541 200.698 46.1238 200.053 46.4601C199.404 46.7964 198.539 46.9645 197.459 46.9645C196.375 46.9645 195.499 46.9076 194.831 46.7937C194.158 46.6799 193.786 46.606 193.712 46.5722L192.365 49.799C192.964 49.8345 193.822 49.8524 194.941 49.8524C196.857 49.8524 198.498 49.5783 199.866 49.0303ZM220.381 52.0035C217.195 52.0035 215.454 50.967 215.159 48.8941H208.742C208.245 49.4191 207.821 49.9092 207.472 50.3648L206.504 51.6618H201.282L213.032 40.3882H221.051L222.618 48.6887C222.867 49.8844 223.489 50.6592 224.483 51.0132C223.761 51.6735 222.393 52.0035 220.381 52.0035ZM211.948 45.478L209.896 47.6479H215.042L214.599 43.2575V42.7956L211.948 45.478ZM234.292 51.6618H226.308L230.859 40.439C233.323 40.3145 236.349 40.2522 239.939 40.2522C243.533 40.2522 246.164 40.4915 247.83 40.9702C249.497 41.447 250.331 42.1667 250.331 43.1293C250.331 44.0919 249.789 44.8748 248.705 45.478C247.625 46.0812 246.152 46.4797 244.287 46.6736C244.711 47.6185 245.406 48.4724 246.373 49.2358C247.271 49.9529 248.242 50.4253 249.288 50.6529C248.914 51.1316 248.347 51.4768 247.586 51.6886C246.828 51.8985 245.909 52.0035 244.829 52.0035C243.745 52.0035 242.781 51.8585 241.938 51.5684C241.091 51.2784 240.332 50.8656 239.66 50.33C238.245 49.1681 237.463 47.671 237.311 45.8383H237.573C239.415 45.8151 240.794 45.5839 241.711 45.1443C242.632 44.7066 243.092 44.0269 243.092 43.1053C243.092 41.954 242.036 41.3562 239.922 41.3117H239.1C238.879 41.3117 238.706 41.3171 238.581 41.3277L234.292 51.6618ZM271.516 48.1255C272.16 48.3425 272.483 48.6816 272.483 49.1424C272.483 49.6032 272.265 49.9965 271.83 50.322C271.395 50.6458 270.756 50.9332 269.913 51.1841C268.098 51.7197 265.606 51.9875 262.436 51.9875C259.265 51.9875 256.815 51.6084 255.086 50.8505C253.357 50.0925 252.493 49.0419 252.493 47.6985C252.493 45.7964 253.575 44.1231 255.739 42.6783C257.379 41.6071 259.665 40.8438 262.599 40.3882C264.118 40.1606 265.623 40.0467 267.115 40.0467C268.607 40.0467 269.814 40.0921 270.735 40.1828C271.651 40.2735 272.46 40.4105 273.159 40.5937C274.674 40.9923 275.432 41.5101 275.432 42.1471C275.432 42.7289 274.836 43.2361 273.643 43.6684C272.547 44.0545 271.552 44.2476 270.659 44.2476C269.761 44.2476 269.126 44.2191 268.753 44.1622C268.854 43.7529 268.904 43.4148 268.904 43.1479C268.904 42.8793 268.893 42.648 268.87 42.4541C268.842 42.2618 268.767 42.0742 268.642 41.8909C268.394 41.4692 267.89 41.2583 267.133 41.2583C266.375 41.2583 265.618 41.4212 264.86 41.7468C264.098 42.0705 263.395 42.5056 262.75 43.0519C261.281 44.2938 260.547 45.6496 260.547 47.1193C260.547 47.824 260.982 48.3791 261.853 48.7847C262.723 49.1887 264.091 49.3906 265.955 49.3906C267.35 49.3906 268.706 49.1798 270.023 48.7581C270.595 48.5766 271.092 48.3657 271.516 48.1255ZM289.494 50.3808C289.494 49.5837 289.843 48.3879 290.538 46.7937H285.019L282.968 51.6618H275.17L279.908 40.3882H287.776L285.613 45.4272H291.131L293.185 40.3882H301.058C300.709 41.2317 300.311 42.1258 299.863 43.0705L298.592 45.8543C297.647 48.0179 297.176 49.5721 297.176 50.5169C297.176 50.9047 297.314 51.2064 297.59 51.4217C296.346 51.8096 294.997 52.0035 293.539 52.0035C292.087 52.0035 291.048 51.8442 290.428 51.5257C289.806 51.2073 289.494 50.8256 289.494 50.3808Z" fill="#FFC107"/>
</g>
</g>
</g>
<path d="M112.387 37.4829C112.308 37.4434 112.195 37.3955 112.082 37.392C112.058 37.3913 112.024 37.382 112.001 37.3763C111.976 37.3702 111.939 37.368 111.914 37.3639C111.889 37.3602 111.845 37.3565 111.826 37.3478C111.804 37.3382 111.741 37.3373 111.726 37.3267C111.703 37.3101 111.636 37.3087 111.604 37.2983C111.553 37.2823 111.494 37.2796 111.441 37.2658C111.363 37.245 111.274 37.2326 111.192 37.2159C111.135 37.2044 111.078 37.1894 111.019 37.1821C110.983 37.1776 110.924 37.1645 110.89 37.1535C110.792 37.1209 110.664 37.117 110.565 37.0852C110.519 37.0706 110.437 37.0544 110.384 37.0512C110.33 37.0479 110.28 37.0276 110.226 37.023C110.174 37.0185 110.12 37.0052 110.069 36.9971C109.986 36.9843 109.892 36.9706 109.814 36.9501C109.775 36.9395 109.716 36.9359 109.682 36.9204C109.651 36.9063 109.585 36.9066 109.56 36.8892C109.552 36.8835 109.527 36.8816 109.515 36.8804C109.498 36.8787 109.476 36.8662 109.456 36.8624C109.422 36.8557 109.383 36.8441 109.347 36.8412C109.27 36.8352 109.197 36.8092 109.123 36.8068C109.059 36.8048 108.99 36.7727 108.924 36.7727C108.9 36.7727 108.845 36.7652 108.823 36.7586C108.793 36.7492 108.757 36.7508 108.726 36.7431C108.672 36.7296 108.62 36.7152 108.563 36.7046" stroke="white" stroke-width="0.1"/>
<path d="M103.438 36.5908C103.449 36.5901 103.485 36.5517 103.489 36.5425C103.494 36.5305 103.522 36.5191 103.531 36.5031C103.538 36.4892 103.566 36.4782 103.581 36.4634C103.593 36.4515 103.627 36.4349 103.647 36.4262C103.666 36.4176 103.677 36.3956 103.698 36.3863C103.719 36.3772 103.735 36.3681 103.754 36.355C103.794 36.3271 103.852 36.3079 103.901 36.2926C103.959 36.2748 104.031 36.2682 104.081 36.2455C104.117 36.2298 104.204 36.1988 104.252 36.1988C104.284 36.1988 104.312 36.1818 104.344 36.1818C104.369 36.1818 104.421 36.1779 104.445 36.1718C104.475 36.1644 104.525 36.1715 104.557 36.1705C104.587 36.1695 104.624 36.1648 104.659 36.1648" stroke="white" stroke-width="0.1"/>
<path d="M103.489 36.5228C103.533 36.5228 103.578 36.4861 103.609 36.4704C103.656 36.4467 103.715 36.4221 103.754 36.3949C103.822 36.3472 103.904 36.3097 104.002 36.2784C104.056 36.2612 104.102 36.241 104.155 36.2244C104.176 36.2179 104.229 36.2163 104.242 36.2074C104.247 36.2035 104.331 36.1932 104.344 36.1932C104.4 36.1932 104.479 36.185 104.532 36.1764C104.56 36.1719 104.594 36.1705 104.623 36.1705C104.652 36.1705 104.679 36.1591 104.71 36.1591" stroke="white" stroke-width="0.1"/>
<path d="M103.55 36.5284C103.577 36.5265 103.599 36.4995 103.613 36.4899C103.637 36.4733 103.666 36.4621 103.69 36.4476C103.714 36.4329 103.74 36.4191 103.766 36.4047C103.776 36.399 103.784 36.3904 103.794 36.3836C103.797 36.3809 103.823 36.3651 103.83 36.3639C103.864 36.3585 103.893 36.3334 103.921 36.3213C103.95 36.3088 104.006 36.3023 104.028 36.287C104.051 36.2705 104.091 36.2666 104.115 36.2531C104.142 36.238 104.204 36.2228 104.241 36.2159" stroke="white" stroke-width="0.1"/>
<path d="M104.882 36.2154C104.882 36.184 104.552 36.1931 104.496 36.1931C104.426 36.1931 104.359 36.1987 104.288 36.1987C104.253 36.1987 104.227 36.2008 104.196 36.2047C104.174 36.2072 104.085 36.2201 104.079 36.2266" stroke="white" stroke-width="0.1"/>
<path d="M105.085 36.2489C105.051 36.2478 105.012 36.2315 104.979 36.2263C104.953 36.2223 104.919 36.2099 104.892 36.2099C104.816 36.2099 104.744 36.1932 104.663 36.1932C104.499 36.1932 104.334 36.1932 104.17 36.1932" stroke="white" stroke-width="0.1"/>
<path d="M111.442 37.6807H111.889" stroke="#FFC107" stroke-width="0.1"/>
<path d="M110.238 37.623H111.717" stroke="#FFC107" stroke-width="0.1"/>
<path d="M108.035 36.8929H108.606" stroke="#FFC107" stroke-width="0.1"/>
<path d="M108.36 36.8239C108.317 36.8239 108.267 36.8121 108.228 36.8023C108.206 36.7968 108.18 36.7999 108.157 36.7942C108.135 36.7888 108.097 36.7852 108.073 36.7842C108.011 36.7814 107.913 36.7677 107.86 36.75C107.825 36.7386 107.78 36.7395 107.742 36.7317C107.712 36.7255 107.681 36.7159 107.648 36.7159" stroke="#FFC107" stroke-width="0.1"/>
<path d="M108.685 36.9261C108.602 36.9094 108.521 36.8836 108.441 36.8637C108.386 36.8498 108.328 36.8381 108.274 36.8239C108.248 36.8169 108.204 36.802 108.177 36.8012C108.13 36.7996 108.08 36.7756 108.034 36.767C107.963 36.7538 107.889 36.7497 107.819 36.7373C107.711 36.7187 107.598 36.7103 107.485 36.7103" stroke="#FFC107" stroke-width="0.1"/>
<path d="M109.367 37.0512C109.306 37.0281 109.249 37.0111 109.179 36.9971C109.107 36.9826 109.016 36.9689 108.95 36.9485C108.877 36.9261 108.781 36.909 108.701 36.8953C108.623 36.882 108.552 36.8617 108.478 36.8435C108.393 36.8227 108.306 36.8108 108.22 36.7929C108.158 36.7801 108.087 36.7647 108.022 36.757C107.849 36.7363 107.686 36.7103 107.506 36.7103" stroke="#FFC107" stroke-width="0.1"/>
<path d="M112.092 37.6137C112.08 37.5834 111.944 37.5681 111.903 37.5536C111.83 37.5273 111.744 37.5233 111.665 37.5057" stroke="#FFC107" stroke-width="0.1"/>
<path d="M112.459 37.7159C112.41 37.7132 112.337 37.6882 112.294 37.6749C112.244 37.6597 112.188 37.6547 112.138 37.6393C112.061 37.6153 111.979 37.5898 111.895 37.5746C111.831 37.5629 111.742 37.5455 111.676 37.5455" stroke="#FFC107" stroke-width="0.1"/>
<path d="M112.448 37.6933C112.378 37.6634 112.302 37.6403 112.219 37.6221C112.144 37.6058 112.079 37.5801 112.001 37.5682C111.952 37.5609 111.909 37.5455 111.858 37.5455" stroke="#FFC107" stroke-width="0.1"/>
<path d="M107.303 36.642C107.269 36.642 107.229 36.63 107.197 36.6247C107.162 36.6192 107.121 36.6134 107.085 36.6077C107.014 36.5964 106.93 36.5795 106.851 36.5795C106.768 36.5795 106.687 36.5568 106.601 36.5568C106.517 36.5568 106.429 36.5341 106.347 36.5341C106.3 36.5341 106.257 36.5171 106.209 36.5171C106.155 36.5171 106.106 36.4977 106.053 36.494C105.988 36.4895 105.917 36.4724 105.854 36.4631C105.792 36.4541 105.731 36.4503 105.671 36.4429C105.554 36.4284 105.435 36.4252 105.318 36.4135C105.213 36.4032 105.1 36.392 104.995 36.392C104.95 36.392 104.904 36.3977 104.862 36.3977" stroke="#FFC107" stroke-width="0.1"/>
<path d="M107.394 36.6647C107.385 36.6477 107.326 36.6417 107.302 36.6307C107.278 36.6192 107.242 36.619 107.216 36.6108C107.194 36.6039 107.155 36.5966 107.129 36.5966C107.097 36.5966 107.074 36.5825 107.043 36.5799C106.949 36.5718 106.857 36.5571 106.763 36.5484C106.631 36.536 106.497 36.5267 106.367 36.5085C106.311 36.5006 106.247 36.4966 106.189 36.494C106.132 36.4915 106.075 36.4782 106.016 36.4772C105.884 36.4752 105.745 36.4484 105.614 36.4362C105.478 36.4236 105.335 36.3948 105.197 36.392C105.105 36.3901 105.017 36.3806 104.924 36.3806C104.876 36.3806 104.828 36.3806 104.78 36.3806" stroke="#FFC107" stroke-width="0.1"/>
<path d="M105.086 36.392C105.081 36.3705 104.953 36.375 104.923 36.375" stroke="#FFC107" stroke-width="0.1"/>
<path d="M105.147 36.3912C105.102 36.369 104.992 36.3579 104.934 36.3579C104.852 36.3579 104.772 36.3523 104.689 36.3523" stroke="#FFC107" stroke-width="0.1"/>
<path d="M116.511 40.7449C116.511 40.2973 114.708 39.7376 114.162 39.4324C113.707 39.1779 112.282 38.6852 112.205 38.3386C112.097 37.8586 110.393 37.4877 109.66 37.4636C108.698 37.432 107.587 37.3542 106.527 37.3542" stroke="#FFC107" stroke-width="3" stroke-linecap="round"/>
</g>
<path d="M112.569 37.5C112.286 37.4652 111.974 37.4123 111.756 37.3412C111.657 37.3087 111.548 37.2796 111.432 37.2533C111.31 37.2258 111.224 37.186 111.105 37.1578C110.905 37.1104 110.726 37.0601 110.51 37.0205C110.381 36.9969 110.237 36.9829 110.117 36.9557C109.944 36.9165 109.733 36.8983 109.553 36.8635C109.443 36.8422 109.341 36.8175 109.229 36.7971C109.12 36.7774 109.001 36.765 108.893 36.7449C108.801 36.7275 108.704 36.7123 108.605 36.6995C108.536 36.6907 108.472 36.6799 108.399 36.6749C108.374 36.6733 108.356 36.6724 108.346 36.6655" stroke="#FFC107" stroke-width="3" stroke-linecap="round"/>
<path d="M105.407 36.209C105.333 36.2029 105.246 36.1768 105.178 36.1639C105.101 36.1495 105.008 36.1389 104.92 36.1355C104.778 36.1301 104.669 36.1198 104.532 36.1373C104.436 36.1494 104.262 36.1445 104.204 36.1767C104.162 36.1996 104.091 36.2152 104.062 36.2403C104.034 36.2649 103.952 36.2831 103.938 36.3084C103.924 36.3321 103.877 36.3633 103.833 36.3819C103.749 36.4172 103.67 36.4785 103.67 36.5226" stroke="#FFC107" stroke-width="3" stroke-linecap="round"/>
<path d="M39.1007 48.5008C39.1007 48.5024 39.0927 48.5064 39.0887 48.5076C39.0842 48.5089 39.0802 48.5108 39.0777 48.5126C39.0753 48.5144 39.0732 48.5161 39.0707 48.5179C39.0693 48.5188 39.066 48.5208 39.0656 48.5217C39.0651 48.5231 39.0607 48.5245 39.0595 48.5258C39.059 48.5263 39.0565 48.5268 39.056 48.5274C39.0554 48.5281 39.0552 48.5287 39.0541 48.5293C39.0499 48.5318 39.0473 48.5348 39.045 48.5374C39.0428 48.5399 39.0378 48.5433 39.0441 48.5453C39.0469 48.5462 39.0522 48.5461 39.0547 48.5471C39.057 48.5481 39.0643 48.5475 39.0674 48.5483C39.0703 48.549 39.0768 48.5495 39.0786 48.5504C39.08 48.5511 39.085 48.5527 39.0874 48.5528C39.0947 48.5531 39.0978 48.5567 39.1031 48.5578" stroke="#FFC107" stroke-linecap="round"/>
<path d="M39.0307 48.5525C39.03 48.5549 39.0297 48.5562 39.0334 48.5584C39.0356 48.5597 39.0394 48.5606 39.0425 48.5616C39.0477 48.5633 39.0547 48.5651 39.0628 48.5651C39.0743 48.5651 39.0657 48.5696 39.0724 48.5713C39.075 48.572 39.0767 48.5736 39.0767 48.5746C39.0767 48.577 39.0768 48.5772 39.0694 48.5772" stroke="#FFC107" stroke-linecap="round"/>
<path d="M153.805 24.068C160.19 24.068 163.382 25.0821 163.382 27.1101C163.382 28.2243 162.586 29.1163 160.993 29.7858C159.429 30.4536 157.279 30.7875 154.543 30.7875C153.269 30.7875 152.136 30.623 151.144 30.294C150.674 30.1539 150.283 29.9901 149.971 29.8028C151.875 29.8028 153.328 29.5414 154.331 29.0185C155.334 28.4972 155.835 27.7267 155.835 26.7069C155.835 25.6856 154.715 25.1749 152.474 25.1749H151.535C151.379 25.1749 151.236 25.1805 151.106 25.192L146.61 35.8016H138.124L142.934 24.2781C145.722 24.1608 147.924 24.0965 149.542 24.0851C151.157 24.0736 152.577 24.068 153.805 24.068ZM171.592 35.8016H163.225L167.992 24.244C170.573 24.1136 173.745 24.0485 177.51 24.0485C181.278 24.0485 184.034 24.2952 185.779 24.7888C187.527 25.2808 188.402 26.0227 188.402 27.0149C188.402 28.0053 187.833 28.8117 186.697 29.4339C185.564 30.0546 184.02 30.4651 182.065 30.6653C182.511 31.6379 183.24 32.5176 184.253 33.3043C185.195 34.0424 186.212 34.5286 187.305 34.7631C186.914 35.2568 186.32 35.6118 185.524 35.8285C184.731 36.0451 183.768 36.1535 182.635 36.1535C181.499 36.1535 180.489 36.0037 179.606 35.7039C178.719 35.4057 177.923 34.9805 177.217 34.4284C175.733 33.2328 174.913 31.6908 174.757 29.8028H175.028C176.958 29.7784 178.404 29.5405 179.367 29.0893C180.333 28.6381 180.816 27.9376 180.816 26.988C180.816 25.8037 179.709 25.188 177.494 25.1407H176.63C176.399 25.1407 176.218 25.1464 176.087 25.1577L171.592 35.8016ZM190.785 31.5084C190.785 29.2914 192.061 27.4856 194.613 26.0912C197.324 24.5779 201.038 23.8211 205.755 23.8211C209.171 23.8211 211.74 24.1933 213.459 24.9379C215.178 25.6824 216.038 26.8405 216.038 28.4125C216.038 30.8056 214.683 32.7 211.971 34.096C209.289 35.4677 205.693 36.1535 201.183 36.1535C197.664 36.1535 195.051 35.7576 193.342 34.966C191.638 34.1743 190.785 33.0217 190.785 31.5084ZM201.063 27.8677C199.891 29.9788 199.304 31.8668 199.304 33.5317C199.304 33.9307 199.454 34.2589 199.755 34.5164C200.055 34.7753 200.604 34.9049 201.4 34.9049C202.193 34.9049 202.837 34.8194 203.333 34.6483C203.829 34.4789 204.272 34.2003 204.663 33.8125C205.289 33.1805 205.896 32.1926 206.482 30.8486C207.068 29.5064 207.387 28.5567 207.438 27.9996C207.488 27.4425 207.514 26.9529 207.514 26.5309C207.514 26.1075 207.371 25.7613 207.085 25.4925C206.799 25.2221 206.272 25.0869 205.505 25.0869C204.734 25.0869 204.088 25.1928 203.566 25.4045C202.603 25.8037 201.769 26.6246 201.063 27.8677ZM233.239 24.068C239.624 24.068 242.816 25.0821 242.816 27.1101C242.816 28.2243 242.022 29.1163 240.433 29.7858C238.869 30.4536 236.719 30.7875 233.983 30.7875C232.705 30.7875 231.57 30.623 230.578 30.294C230.111 30.1539 229.721 29.9901 229.406 29.8028C231.31 29.8028 232.763 29.5414 233.766 29.0185C234.768 28.4972 235.27 27.7267 235.27 26.7069C235.27 25.6856 234.149 25.1749 231.909 25.1749H230.969C230.814 25.1749 230.671 25.1805 230.54 25.192L226.045 35.8016H217.564L222.369 24.2781C225.16 24.1608 227.362 24.0965 228.977 24.0851C230.595 24.0736 232.015 24.068 233.239 24.068ZM259.703 33.0918C260.198 33.3736 260.446 33.7433 260.446 34.2012C260.446 34.8348 259.925 35.3186 258.883 35.6525C257.84 35.9865 256.499 36.1535 254.859 36.1535C253.918 36.1535 252.731 36.1062 251.298 36.0118C248.485 35.813 246.648 35.7136 245.787 35.7136C244.929 35.7136 244.33 35.7227 243.989 35.7405C243.649 35.7584 243.206 35.7788 242.659 35.8016L247.47 24.1901H264.318C264.318 24.9053 263.934 25.4509 263.167 25.8272C262.395 26.2019 261.255 26.3893 259.746 26.3893C258.233 26.3893 256.707 26.2313 255.169 25.9152L253.958 28.9941H260.919C260.919 29.6147 260.579 30.0985 259.898 30.4454C259.221 30.7909 258.316 30.9635 257.183 30.9635C256.05 30.9635 255.131 30.9049 254.425 30.7875C253.723 30.6703 253.332 30.5938 253.252 30.5579L251.846 33.8835C252.472 33.9193 253.372 33.9372 254.544 33.9372C256.55 33.9372 258.269 33.6555 259.703 33.0918ZM272.06 35.8016H263.693L268.46 24.244C271.041 24.1136 274.214 24.0485 277.978 24.0485C281.747 24.0485 284.503 24.2952 286.247 24.7888C287.997 25.2808 288.869 26.0227 288.869 27.0149C288.869 28.0053 288.301 28.8117 287.166 29.4339C286.031 30.0546 284.488 30.4651 282.534 30.6653C282.979 31.6379 283.708 32.5176 284.722 33.3043C285.664 34.0424 286.68 34.5286 287.773 34.7631C287.382 35.2568 286.789 35.6118 285.992 35.8285C285.201 36.0451 284.237 36.1535 283.104 36.1535C281.967 36.1535 280.957 36.0037 280.074 35.7039C279.187 35.4057 278.391 34.9805 277.685 34.4284C276.201 33.2328 275.381 31.6908 275.226 29.8028H275.497C277.426 29.7784 278.873 29.5405 279.835 29.0893C280.802 28.6381 281.285 27.9376 281.285 26.988C281.285 25.8037 280.177 25.188 277.962 25.1407H277.099C276.867 25.1407 276.686 25.1464 276.556 25.1577L272.06 35.8016ZM293.794 27.2348C292.907 26.9285 292.464 26.4504 292.464 25.8005C292.464 25.1488 292.941 24.6528 293.893 24.3123C294.844 23.9736 296.14 23.8041 297.78 23.8041C298.821 23.8041 300.581 23.8856 303.057 24.0485L305.718 24.2243C306.605 24.2716 307.509 24.2952 308.433 24.2952C309.36 24.2952 310.135 24.2073 310.763 24.0313C311.7 24.4076 312.169 24.8653 312.169 25.4045C312.169 25.9437 311.635 26.4072 310.568 26.7949C309.469 27.2054 308.217 27.4107 306.808 27.4107C306.131 27.4107 305.246 27.3692 304.153 27.286C302.877 29.0925 302.237 30.623 302.237 31.8774C302.237 33.1333 302.942 34.0895 304.351 34.7461C303.697 35.2738 302.89 35.6403 301.922 35.8456C300.959 36.0508 299.753 36.1535 298.306 36.1535C296.861 36.1535 295.69 35.9743 294.789 35.6159C293.891 35.2591 293.443 34.711 293.443 33.9714C293.443 33.1163 293.964 31.9849 295.005 30.5775C296.049 29.1814 297.351 27.9499 298.915 26.8829C298.158 26.847 297.39 26.8291 296.606 26.8291C294.992 26.8291 294.055 26.9644 293.794 27.2348ZM314.629 35.8016L316.896 30.6287C316.141 27.4507 314.433 25.5211 311.778 24.8402C312.325 24.5355 313.041 24.2985 313.928 24.1291C314.814 23.958 315.792 23.8725 316.86 23.8725C317.927 23.8725 318.864 23.958 319.671 24.1291C320.478 24.2985 321.142 24.5648 321.665 24.928C322.657 25.6204 323.152 26.7933 323.152 28.4467V29.7149C324.716 27.6509 326.278 26.1727 327.843 25.2799C329.434 24.3661 331.217 23.9091 333.198 23.9091C333.979 23.9091 334.63 23.9996 335.151 24.1804C335.674 24.3628 336.064 24.5893 336.325 24.8597C334.32 25.2572 332.352 26.0309 330.423 27.181C328.494 28.3311 326.903 29.7091 325.656 31.3154L323.347 35.8016H314.629Z" fill="black"/>
<path d="M92.1455 32.1367C92.1455 32.3128 92.4481 32.4682 92.4481 32.6416C92.4481 32.6854 92.4818 32.7259 92.4818 32.7709C92.4818 32.8114 92.5429 32.845 92.549 32.8831C92.5594 32.9472 92.5799 33.0631 92.7097 33.116C92.7675 33.1396 92.761 33.1967 92.7919 33.2258C92.818 33.2504 92.8458 33.2767 92.8778 33.3002C92.901 33.3173 92.8695 33.338 92.8928 33.3551C92.96 33.4045 92.9569 33.4624 92.9936 33.5148C93.0461 33.5898 93.1043 33.6642 93.1618 33.7393C93.3796 34.0237 93.727 34.2926 94.036 34.5649C94.1679 34.6811 94.3024 34.8008 94.447 34.9162C94.5362 34.9873 94.6095 35.0641 94.7011 35.1333C94.7688 35.1843 94.784 35.2819 94.8954 35.3223C94.994 35.3581 94.9721 35.4393 95.0374 35.4845C95.1038 35.5306 95.1434 35.5876 95.198 35.6357C95.324 35.7468 95.4297 35.8598 95.5754 35.9699C95.6687 36.0405 95.7909 36.101 95.878 36.1736C95.9618 36.2435 96.01 36.3165 96.0872 36.387C96.1555 36.4494 96.254 36.5083 96.3226 36.5687C96.3895 36.6277 96.4835 36.6948 96.5767 36.7492C96.7889 36.8734 96.9232 37.0111 97.1558 37.1334C97.2913 37.2047 97.5221 37.4054 97.8619 37.4054" stroke="#FFC107" stroke-linecap="round"/>
<path d="M90.7666 32.6635C90.8434 32.6635 90.9478 32.7644 90.9852 32.7898C91.0962 32.8651 91.2636 32.9313 91.3868 33.0044C91.5698 33.1131 91.7221 33.2405 91.8501 33.3575C91.9759 33.4725 92.1553 33.5883 92.2461 33.7069C92.3279 33.8136 92.5701 33.9091 92.6497 34.013C92.7158 34.0994 92.873 34.1794 92.9448 34.2661C92.9889 34.3193 93.0439 34.3801 93.1074 34.4308C93.1612 34.4737 93.2169 34.5426 93.3035 34.5789C93.3793 34.6108 93.4352 34.6698 93.4642 34.7076C93.5107 34.7684 93.6236 34.8235 93.6846 34.8832C93.7802 34.9769 93.9206 35.0612 94.0209 35.1528C94.1555 35.2758 94.4164 35.3795 94.5645 35.5004C94.7209 35.628 94.9437 35.7639 95.1716 35.8797C95.3527 35.9716 95.4941 36.063 95.6106 36.1644C95.718 36.2579 95.8549 36.355 95.9432 36.451C96.0372 36.5534 96.2078 36.6498 96.3485 36.7468C96.4872 36.8423 96.6235 36.9373 96.7689 37.0322C96.9151 37.1277 97.1061 37.2136 97.2564 37.3066C97.3297 37.3519 97.5198 37.4593 97.66 37.4822" stroke="#FFC107" stroke-width="4" stroke-linecap="round"/>
<path d="M91.409 30.293C91.5726 30.5167 91.5309 30.7369 91.6544 30.9586C91.719 31.0746 91.7897 31.183 91.7897 31.3011C91.7897 31.5871 91.9897 31.8964 92.0986 32.1807C92.1572 32.3338 92.2466 32.4923 92.2466 32.6488C92.2466 32.7739 92.1668 32.9504 92.3608 33.0644C92.5164 33.1559 92.3993 33.3008 92.5343 33.4C92.6171 33.4609 92.7035 33.5936 92.7035 33.661C92.7035 33.7528 92.8558 33.8413 92.8558 33.9344C92.8558 33.9959 93.0217 34.1586 93.1011 34.2202C93.4413 34.484 93.6564 34.754 94.0572 35.0156C94.8463 35.5308 95.7272 36.0273 96.663 36.5125C97.1719 36.7763 97.5687 37.058 98.0675 37.3244C98.2124 37.4019 98.4036 37.4733 98.5074 37.5564C98.609 37.6378 99.0504 37.8301 99.2858 37.874C99.5946 37.9316 99.6788 38.1025 100.013 38.1668C100.284 38.2188 100.459 38.3262 100.703 38.396C101.004 38.482 101.344 38.5705 101.672 38.6446C101.975 38.7131 102.079 38.667 101.803 38.5948C101.51 38.5183 101.461 38.3285 101.194 38.2703C100.941 38.2153 100.762 38.0522 100.546 37.9735C100.426 37.9296 100.301 37.8739 100.204 37.8243C100.139 37.7915 99.8918 37.7662 99.8653 37.7359C99.6845 37.5293 98.7074 37.3597 98.3043 37.1905C97.8851 37.0145 97.5224 36.8181 97.0818 36.6423C96.6429 36.4672 96.577 36.2033 96.1638 36.0347C96.018 35.9752 95.8902 35.8241 95.7873 35.7502C95.6488 35.6507 95.4449 35.5626 95.3093 35.463C94.9864 35.2258 94.7356 34.9741 94.3617 34.7422C94.1556 34.6143 93.8521 34.4218 93.7737 34.281C93.7046 34.1568 93.5118 33.9776 93.3126 33.8667C93.1101 33.7539 92.9609 33.5131 92.9319 33.3807C92.8923 33.1997 92.718 32.9938 92.5893 32.8173C92.2718 32.3821 91.9113 31.9714 91.4513 31.5482C91.3081 31.4165 91.1255 31.2793 91.0283 31.1436C90.9903 31.0906 90.9521 31.0368 90.9521 30.9821C90.9521 30.9097 91.0889 31.1197 91.1637 31.1878C91.6186 31.6022 92.1326 32.0077 92.5089 32.432C92.8604 32.8284 93.1106 33.2278 93.5411 33.6182C93.8548 33.9026 94.2017 34.1974 94.4125 34.4923C94.8704 35.1328 95.7546 35.8127 97.196 36.2833C98.7028 36.7751 100.218 37.2688 101.536 37.8188C101.724 37.8971 101.879 37.981 102.069 38.0604C102.191 38.1113 102.312 38.1647 102.45 38.211C102.541 38.2415 102.738 38.3406 102.738 38.298C102.738 38.1114 101.879 37.8653 101.536 37.7442C100.905 37.5211 100.183 37.3281 99.7257 37.0593C99.0449 36.6593 98.447 36.247 97.691 35.8607C97.0927 35.5551 96.5398 35.2381 95.9946 34.9217C95.4468 34.6038 94.8727 34.303 94.5225 33.9537C94.3235 33.7553 93.9845 33.568 93.8456 33.3641C93.6796 33.1202 93.4452 32.882 93.2196 32.6433C92.8217 32.2223 92.4206 31.8186 92.2001 31.3867C92.1022 31.1951 91.9999 31.0081 91.9251 30.815C91.9108 30.7782 91.7311 30.636 91.7347 30.6521C91.7997 30.9382 92.1172 31.2347 92.3058 31.5137C92.6921 32.0852 92.8576 32.661 93.1223 33.2384C93.3117 33.6518 93.409 34.0751 93.9979 34.4536C94.7911 34.9633 95.9718 35.3799 96.9845 35.8414C97.3612 36.013 97.6333 36.2079 98.0252 36.3758C98.5075 36.5824 99.0037 36.7844 99.5269 36.9806C100.171 37.2222 100.945 37.415 101.646 37.6365C102.121 37.7865 102.801 38.0729 103.516 38.0729" stroke="#FFC107" stroke-width="4" stroke-linecap="round"/>
<path d="M91.6875 29.9476C91.9246 30.2399 92.063 30.5414 92.3553 30.8277C92.6409 31.1073 92.9086 31.3866 92.9762 31.6843C93.021 31.8816 93.3151 32.07 93.3348 32.2697C93.3542 32.4651 93.6596 32.6526 93.691 32.8478C93.7015 32.9125 93.8181 32.9759 93.8592 33.04C93.8934 33.0932 93.9502 33.1635 94.0274 33.2103C94.2145 33.3237 94.3588 33.4558 94.5147 33.5745C94.6864 33.7052 95.0014 33.8223 95.1257 33.9588C95.1791 34.0175 95.303 34.0718 95.373 34.13C95.4377 34.1837 95.514 34.2513 95.6055 34.3004C95.8821 34.4487 96.0479 34.6247 96.3525 34.7662C96.5635 34.8643 96.7332 34.9711 96.8967 35.0779C97.0439 35.174 97.231 35.2942 97.431 35.3758C97.6634 35.4707 97.7791 35.6252 98.0765 35.7028C98.29 35.7586 98.4768 35.8995 98.5985 35.979C98.6948 36.0419 98.8871 36.2115 99.1228 36.2115" stroke="#FFC107" stroke-width="4" stroke-linecap="round"/>
<path d="M99.2197 36.2063C99.2197 36.36 99.5834 36.5253 99.8685 36.645C100.083 36.735 100.278 36.86 100.435 36.9627C100.615 37.0802 100.91 37.1828 101.109 37.2955C101.317 37.4127 101.634 37.5105 101.838 37.6291C102.003 37.7248 102.267 37.8017 102.428 37.9006C102.463 37.9224 102.508 37.9423 102.556 37.9611C102.565 37.9643 102.682 38.0363 102.693 38.0275C102.76 37.9728 102.458 37.8941 102.374 37.8619C102.039 37.7346 101.619 37.6164 101.341 37.4737C101.093 37.3464 100.687 37.2555 100.45 37.1291C100.15 36.9689 99.7766 36.8375 99.4282 36.6904C98.9975 36.5084 98.4456 36.3583 98.0147 36.176C97.7836 36.0782 97.4922 35.9994 97.2758 35.8978C97.198 35.8613 97.1079 35.8223 96.9951 35.7978" stroke="#FFC107" stroke-width="4" stroke-linecap="round"/>
<path d="M91.2197 29.5762C91.2197 29.7339 91.4505 29.9264 91.5909 30.077C91.717 30.2121 91.7449 30.3627 91.8637 30.5011C92.0458 30.7134 92.1631 30.9277 92.4091 31.1341C92.815 31.4748 93.146 31.8312 93.6742 32.1579C94.219 32.4949 94.8425 32.8326 95.2424 33.1916C95.4938 33.4172 95.9515 33.6288 96.1818 33.8543C96.3455 34.0146 96.6274 34.1702 96.9166 34.3118C97.4979 34.5965 98.0296 34.9067 98.5492 35.2083C99.0331 35.4891 99.7694 35.7387 100.167 36.0305C100.464 36.2487 101.015 36.447 101.178 36.6871C101.301 36.8673 101.619 37.0554 101.871 37.22C102.003 37.3062 102.333 37.6713 102.674 37.6775C102.8 37.6797 102.742 37.5259 102.742 37.4994" stroke="#FFC107" stroke-width="4" stroke-linecap="round"/>
<path d="M100.97 37.2546C100.764 37.1789 100.636 37.0579 100.557 36.9628C100.405 36.7814 100.136 36.5937 99.9165 36.42C99.5554 36.1337 99.2208 35.83 98.909 35.5359C98.6418 35.284 98.0308 35.0665 97.6628 34.8262C97.0175 34.4049 96.428 33.9559 95.9923 33.5056C95.8139 33.3212 95.657 33.1437 95.4999 32.9591C95.3579 32.7922 95.0607 32.6441 94.9166 32.4794C94.631 32.1532 94.0571 31.8578 93.712 31.536C93.3153 31.166 92.9662 30.7621 92.3787 30.417C91.7606 30.0538 91.3144 29.6856 90.7954 29.3091C90.6703 29.2183 90.6612 29.1341 90.5719 29.0408C90.4973 28.9629 90.66 28.7929 90.5037 28.7317C90.4563 28.7131 90.4413 28.6156 90.4848 28.7008C90.5912 28.9091 90.9261 29.0855 91.1363 29.2819C91.4539 29.5786 91.8999 29.8635 92.106 30.1722C92.5336 30.8126 92.9431 31.4426 94.0832 32.0009C95.0292 32.4641 95.9018 32.9399 96.5075 33.4611C96.8076 33.7194 97.229 33.9651 97.4923 34.2277C97.7184 34.4533 98.0349 34.6505 98.3105 34.8682C98.7844 35.2428 99.4558 35.5826 100.087 35.9303C100.802 36.3243 101.781 36.6706 102.439 37.0765C102.69 37.231 102.932 37.3899 103.22 37.539C103.341 37.602 103.443 37.7665 103.697 37.7665" stroke="#FFC107" stroke-width="4" stroke-linecap="round"/>
<path d="M88.257 27.9516C87.7335 27.7571 87.2159 27.5677 86.7112 27.37C86.2368 27.1841 85.5946 27.0378 85.0703 26.8667C84.1981 26.5819 83.0737 26.4385 82.1578 26.1844C81.9998 26.1405 81.7482 26.1264 81.5753 26.0825C81.339 26.0225 81.0563 25.971 80.7872 25.9271C80.2609 25.8412 79.776 25.7366 79.2795 25.6375C78.7891 25.5397 78.2932 25.4418 77.8251 25.3343C77.2718 25.2072 76.7959 25.0208 76.2642 24.8819C75.8601 24.7764 75.4894 24.6787 75.1334 24.5625C74.8806 24.48 74.4841 24.401 74.2768 24.3165C74.0774 24.2351 72.898 24.8929 72.7158 24.959C72.626 24.9916 72.6206 25.0644 72.5293 25.0882C72.4469 25.1097 72.4751 24.9905 72.5293 24.9764C72.6656 24.9408 72.7889 24.7357 72.8415 24.6756C72.846 24.6705 73.0337 24.6075 73.0775 24.5961C73.188 24.5672 73.2997 24.5306 73.3859 24.4954C73.4686 24.4617 73.7981 24.35 73.9684 24.35C74.1631 24.35 74.3197 24.2813 74.4976 24.2605C74.8475 24.2197 74.9902 24.4316 75.0459 24.5116C75.1357 24.6407 75.3623 24.7684 75.5103 24.8919C75.651 25.0092 75.7515 25.1098 76.0281 25.2001C76.1056 25.2254 76.1961 25.2506 76.2642 25.2784C76.3301 25.3053 76.1815 25.1903 76.0928 25.1678C75.8203 25.0986 75.4744 25.0098 75.1296 24.9776C74.9726 24.963 74.8344 24.9693 74.6727 24.949C74.4643 24.9229 74.2685 24.8763 74.0712 24.8422C73.6379 24.7673 74.3372 25.0082 74.4443 25.0485C74.7989 25.1817 75.2705 25.3274 75.7692 25.4014C76.2688 25.4755 76.7106 25.5958 77.2236 25.6686C77.6109 25.7236 77.9582 25.7542 78.3543 25.7829C78.5527 25.7973 78.7876 25.8831 78.9521 25.9209C79.2097 25.98 79.4738 26.016 79.7516 26.0613C79.8351 26.075 79.988 26.1372 79.881 26.08C79.6975 25.9817 79.4596 25.9076 79.211 25.8264C78.6911 25.6567 78.0862 25.5233 77.5662 25.3567C77.3304 25.2811 76.9697 25.2027 76.7972 25.1106C76.5082 24.9563 75.8798 24.856 75.6626 24.6905C75.5505 24.6052 75.5131 24.502 75.3733 24.4221C75.341 24.4037 75.2381 24.3376 75.3657 24.3873C75.6788 24.5094 76.0061 24.6317 76.367 24.739C76.9489 24.9121 77.6413 25.0753 78.2896 25.2212C78.6353 25.299 79.0572 25.3636 79.3214 25.4698C79.5949 25.5796 80.0233 25.6874 80.376 25.7705C81.2093 25.967 82.039 26.1868 82.9954 26.3186C83.5258 26.3917 84.0095 26.4978 84.5259 26.5821C85.1606 26.6857 85.7877 26.7844 86.3762 26.9176C87.4186 27.1535 88.4164 27.3929 89.422 27.6434C89.9555 27.7763 90.5134 27.9044 91.1048 28.0088C91.3878 28.0587 91.6113 28.1977 91.9576 28.1977" stroke="#FFC107" stroke-width="4" stroke-linecap="round"/>
<path d="M90.3887 27.8524C90.3887 28.0297 90.9809 28.1688 91.3043 28.3007C91.687 28.4569 91.8603 28.5923 92.0265 28.7822C92.1248 28.8945 92.0263 29.0519 92.0367 29.1674C92.0547 29.367 92.4655 29.5651 92.5861 29.7619C92.7554 30.0382 93.1225 30.2794 93.4101 30.5423C93.9405 31.0271 94.7016 31.4834 95.3328 31.9469C95.6781 32.2005 95.8891 32.4751 96.228 32.724C96.5152 32.935 96.7948 33.2138 96.991 33.438C97.1839 33.6583 97.7283 33.8667 97.8863 34.0988C98.0487 34.3375 98.3507 34.5989 98.7205 34.8161C99.5265 35.2897 100.15 35.7862 100.898 36.2739C101.204 36.474 101.47 36.649 101.742 36.8484C101.832 36.9149 102.579 37.35 102.464 37.144C102.314 36.8746 101.724 36.6471 101.294 36.4267C100.97 36.2604 100.612 35.8616 100.175 35.7393C99.5893 35.5753 99.2743 35.2635 99.0358 35.0386C98.7237 34.7442 98.2015 34.4687 97.8557 34.1752C97.1113 33.5434 95.9032 32.9551 95.2921 32.3023C95.0293 32.0215 94.5634 31.768 94.2748 31.4854C93.932 31.1497 93.7957 30.8091 93.461 30.4692C92.9049 29.9045 92.3217 29.3473 92.2198 28.749C92.2011 28.639 92.0367 28.5471 92.0367 28.4269C92.0367 28.2598 92.0174 28.7613 92.0367 28.9284C92.1089 29.5531 93.2307 30.1874 93.6441 30.7946C94.1905 31.5973 95.5951 32.32 96.3908 33.0993C96.8314 33.5307 97.5891 33.926 97.9371 34.3678C98.2225 34.7301 98.6234 35.1402 99.0358 35.4902C99.6484 36.0101 100.425 36.6521 101.376 37.1174" stroke="#FFC107" stroke-width="4" stroke-linecap="round"/>
<path d="M100.085 36.0715C99.8025 35.9678 99.6829 35.8299 99.4201 35.7196C99.1585 35.6098 98.807 35.4128 98.709 35.2768C98.5838 35.1031 98.3972 34.9289 98.1719 34.7671C98.0828 34.7032 98.1109 34.5995 98.0675 34.5287C98.012 34.4381 97.8588 34.3578 97.8588 34.2663C97.8588 34.2216 97.7916 34.1365 97.7352 34.096C97.6016 34.0001 97.5758 33.8429 97.3719 33.768C97.1143 33.6735 97.1102 33.47 96.9197 33.3581C96.4872 33.1039 96.317 32.7991 95.8956 32.5469C95.6649 32.4088 95.6162 32.2502 95.4242 32.1092C95.2782 32.002 95.2524 31.8557 95.0764 31.7623C94.9512 31.6959 94.9148 31.6165 94.8638 31.5415C94.8298 31.4916 94.6982 31.4572 94.6628 31.4053C94.6154 31.3355 94.439 31.1185 94.2764 31.076C94.0557 31.0184 94.0089 30.8386 93.8783 30.7581C93.7877 30.7022 93.7847 30.6357 93.7199 30.5765C93.6448 30.5078 93.5123 30.4453 93.4803 30.3721C93.3734 30.1278 93.0033 29.8905 92.9199 29.6455C92.8449 29.425 92.2974 29.2243 92.2243 29.0097C92.1873 28.9009 92.0156 28.791 92.0156 28.6804C92.0156 28.6274 92.0156 28.5745 92.0156 28.5215C92.0156 28.4172 92.077 28.666 92.1238 28.7031C92.74 29.1916 92.9401 29.751 93.3721 30.2586C93.7997 30.7611 94.145 31.2881 94.7285 31.7749C94.809 31.842 94.9699 32.1054 94.9334 31.8909C94.8891 31.631 94.4793 31.3854 94.3073 31.1328C94.2061 30.9841 93.9609 30.8465 93.8397 30.7001C93.712 30.5458 93.5947 30.3874 93.4455 30.2359C93.1674 29.9535 92.9475 29.6243 92.8465 29.3276C92.8026 29.1985 92.6417 29.076 92.6417 28.9428C92.6417 28.9121 92.5237 28.7711 92.5064 28.7965C92.3917 28.965 92.8691 29.2224 93.0436 29.373C93.29 29.5856 93.5178 29.8001 93.7547 30.0138C94.1112 30.3356 94.3665 30.6838 94.5199 31.0218C94.6796 31.3737 94.9121 31.729 95.2155 32.0701C95.3104 32.1768 95.4405 32.2828 95.5478 32.388C95.6045 32.4435 95.678 32.548 95.8415 32.5747" stroke="#FFC107" stroke-width="4" stroke-linecap="round"/>
<path d="M92.9222 30.2485C92.9222 29.9453 92.3883 29.6242 92.0308 29.347C91.6622 29.0612 91.6409 28.7386 91.2418 28.4455C91.0994 28.3409 91.081 28.1529 91.081 28.0377C91.081 27.8994 90.7115 27.7686 90.6865 27.6298C90.6634 27.502 90.5482 27.6424 90.555 27.7062C90.5697 27.8459 90.7399 28.0135 90.8838 28.145C91.0802 28.3245 91.2956 28.4839 91.4756 28.6601" stroke="#FFC107" stroke-width="4" stroke-linecap="round"/>
<path d="M92.2649 28.6601C92.2649 28.4512 91.8037 28.282 91.7389 28.102C91.708 28.0164 91.4625 27.6778 91.2786 27.6298C91.1843 27.6052 91.2128 27.563 91.2128 27.5273C91.2128 27.4719 91.225 27.6393 91.2786 27.6918C91.4316 27.8417 91.4513 28.0275 91.6804 28.1664C91.8568 28.2733 92.0019 28.7464 92.0019 28.393C92.0019 28.2378 91.8223 28.0047 91.6366 27.8683C91.4311 27.7173 91.5948 27.575 91.1471 27.4581C90.692 27.3393 90.0893 27.2734 89.5689 27.1791C89.0616 27.087 88.1274 26.9403 87.8227 26.7712C87.6792 26.6916 86.7863 26.6193 86.4784 26.5661C85.8334 26.4547 85.1778 26.3276 84.5642 26.2131C84.0144 26.1106 83.4757 26.0098 82.8691 25.9532C82.3255 25.9025 81.7395 25.7068 81.2179 25.6217C80.1413 25.446 79.2215 25.1269 78.1274 24.9682C77.6659 24.9013 76.8128 24.8138 76.4542 24.7202C76.166 24.6449 75.0825 24.7106 76.2862 24.7106C76.778 24.7106 77.5003 24.8755 77.9959 24.9253C78.6999 24.996 79.2559 25.1398 79.932 25.2162C81.0918 25.3473 82.3737 25.5198 83.4609 25.7195C84.2094 25.8569 85.0472 25.9366 85.8208 26.0629C86.247 26.1324 87.196 26.325 87.662 26.3419C88.1633 26.3601 88.9087 26.606 89.3717 26.6949C89.8623 26.7891 90.423 26.9513 90.8841 27.0717C90.932 27.0843 91.3053 27.2827 91.2055 27.1361C91.1554 27.0625 90.945 26.8916 90.7599 26.8571C90.3434 26.7794 90.207 26.5682 89.7662 26.4803C89.2622 26.3797 88.5189 26.2434 88.0858 26.1178C87.35 25.9043 86.2456 25.8755 85.4409 25.7004C85.1064 25.6276 84.7321 25.6277 84.4327 25.5477C84.1323 25.4675 83.7564 25.4174 83.3806 25.3951C82.4457 25.3396 81.5411 25.1138 80.5603 25.097C79.7867 25.0837 79.0826 24.9682 78.3246 24.9682C77.7501 24.9682 77.3208 24.9253 76.7465 24.9253" stroke="#FFC107" stroke-width="4" stroke-linecap="round"/>
<path d="M88.9363 26.1328C88.3651 26.02 87.8017 25.8785 87.3031 25.7329C86.5663 25.5177 85.415 25.3848 84.5355 25.2412C83.1211 25.0104 81.5567 24.8837 80.0395 24.7599C79.2666 24.6968 78.4598 24.6702 77.6667 24.6414C77.1003 24.6209 76.5892 24.5753 76.0515 24.5126C75.9095 24.496 75.0183 24.417 75.43 24.4696C75.8717 24.5261 76.2604 24.6256 76.6867 24.6933C77.2413 24.7813 77.8777 24.839 78.4652 24.9006C79.0777 24.9648 79.6834 25.0214 80.289 25.0946C81.1977 25.2045 82.0453 25.3632 82.9658 25.4634C83.6424 25.537 84.5818 25.5607 85.1072 25.724C85.8865 25.9663 86.9107 26.1207 87.911 26.2394C88.1072 26.2627 88.3505 26.3773 88.4645 26.4319C88.7076 26.5483 89.0881 26.6444 89.39 26.7459C89.8444 26.8986 90.0412 27.091 90.3292 27.279C90.6268 27.4733 90.9526 27.6745 91.3046 27.8596C91.4727 27.948 91.6529 28.0496 91.7538 28.1484C91.8754 28.2674 92.0925 28.3748 92.2029 28.4919C92.353 28.6511 92.674 28.7958 92.7746 28.9599C92.9127 29.1854 93.1327 29.4056 93.2827 29.6308C93.5327 30.0062 93.9043 30.3825 94.2264 30.7504C94.5407 31.1096 94.7928 31.4637 94.9977 31.8315C95.1461 32.098 95.2951 32.3895 95.6147 32.6372C95.7624 32.7517 95.8255 32.8783 95.9595 32.9985C96.0676 33.0956 96.2514 33.2074 96.2861 33.3096C96.3471 33.4887 96.7122 33.6825 96.8986 33.8516C97.1822 34.1087 97.5409 34.3591 97.8196 34.6158C98.2826 35.0421 99.0376 35.4343 99.6707 35.8361C99.966 36.0235 100.339 36.4043 100.941 36.5025" stroke="#FFC107" stroke-width="4" stroke-linecap="round"/>
<path d="M91.9583 28.1054C91.5836 27.8455 91.1936 27.5921 90.7742 27.3457C90.6299 27.2609 90.57 27.1229 90.57 27.0258C90.57 26.904 90.4101 26.7709 90.3296 26.6526C90.3134 26.6289 90.2715 26.5251 90.2252 26.5119C90.0123 26.4511 90.3883 26.6902 90.5246 26.7711C90.8232 26.9483 91.1542 27.1369 91.305 27.3338C91.6416 27.7734 91.9868 28.2247 92.3621 28.6534C92.7097 29.0505 91.3012 27.9023 90.8785 27.513C90.5639 27.2232 90.2351 26.9158 89.835 26.6393C89.7991 26.6144 89.4606 26.4255 89.4312 26.5119C89.3693 26.6939 89.4126 26.8823 89.3632 27.0658C89.2988 27.3047 89.3138 27.5591 89.3496 27.7989C89.3764 27.978 89.5778 28.1448 89.59 28.3246C89.5927 28.3633 89.6241 28.5723 89.7488 28.5927C89.8882 28.6154 89.7556 28.491 89.7534 28.4401C89.7481 28.3181 89.6689 28.2034 89.59 28.0847C89.4254 27.8369 89.3397 27.582 89.1409 27.3368C89.1077 27.2958 88.9229 27.0937 88.9549 27.125C89.17 27.3357 89.4374 27.5391 89.6354 27.7515C89.8628 27.9954 89.999 28.2656 90.57 28.452" stroke="#FFC107" stroke-width="4" stroke-linecap="round"/>
<path d="M92.3663 28.4253C91.4292 28.1014 90.978 27.5913 90.978 27.1591C90.978 26.9466 90.7921 26.7459 90.5062 26.5593C90.3689 26.4697 89.9758 26.2816 89.7349 26.2187C89.4619 26.1474 89.0197 26.1418 88.6914 26.1061" stroke="#FFC107" stroke-width="4" stroke-linecap="round"/>
<path d="M91.4684 27.7855C91.4684 27.5992 90.9309 27.4426 90.8105 27.2657C90.6817 27.0764 90.366 26.8908 90.1617 26.7074C89.9584 26.5248 89.523 26.3774 89.1001 26.2394C88.8906 26.171 88.6498 26.1212 88.4059 26.0661C88.1124 25.9998 87.1246 25.7718 86.8135 25.8395" stroke="#FFC107" stroke-width="4" stroke-linecap="round"/>
<path d="M90.1616 27.8122C90.1616 27.7292 90.2328 27.6714 90.3068 27.593C90.401 27.493 90.3249 27.3563 90.3249 27.2524C90.3249 27.0731 90.2421 26.8419 90.0618 26.6718C89.8462 26.4686 89.5633 26.2475 89.1 26.0794C88.9645 26.0303 88.7944 25.9306 88.61 25.8988C88.3852 25.8599 88.0872 25.8591 87.875 25.8129" stroke="#FFC107" stroke-width="4" stroke-linecap="round"/>
<path d="M90.4065 27.1191C90.4065 26.9649 90.0384 26.8451 89.7849 26.7177C89.4022 26.5256 88.9882 26.3629 88.4919 26.2009C87.6968 25.9414 86.7373 25.6091 85.6699 25.493" stroke="#FFC107" stroke-width="4" stroke-linecap="round"/>
<path d="M74.462 25.2257C74.1875 25.2145 74.2904 24.8049 74.2904 24.7413C74.2904 24.626 74.2783 24.5012 74.6907 24.5909" stroke="#FFC107" stroke-width="4" stroke-linecap="round"/>
<path d="M86.93 25.5431C86.694 25.5174 86.5281 25.4314 86.3263 25.3937C85.9462 25.3228 85.585 25.2499 85.1888 25.1884C84.6134 25.0989 84.0256 25.0106 83.4285 24.9353C82.563 24.8261 81.6593 24.73 80.7563 24.6563C79.8615 24.5832 78.9356 24.4976 78.0078 24.4976C77.3947 24.4976 76.815 24.4602 76.2063 24.4602C76.0266 24.4602 75.0352 24.5644 74.9321 24.5308C74.6696 24.4451 75.4942 24.3482 75.6343 24.3482C75.9409 24.3482 76.2001 24.3214 76.5208 24.3441C76.9557 24.3748 77.3992 24.3684 77.8363 24.4001C78.7221 24.4643 79.5804 24.476 80.4417 24.5826C81.0219 24.6545 81.6023 24.705 82.1957 24.759C82.6681 24.8019 83.1362 24.8621 83.6128 24.8938C84.0063 24.92 84.3848 24.9992 84.7853 25.0193C85.1892 25.0396 85.6252 25.0986 86.0117 25.1427C86.6548 25.2162 87.2566 25.3288 87.8896 25.4082C88.3104 25.4611 88.6725 25.5592 89.0176 25.6468C89.2083 25.6952 89.6476 25.7837 89.6753 25.8605C89.7092 25.9544 90.0605 26.0065 90.136 26.0928C90.2411 26.2129 90.5352 26.2725 90.7048 26.3832" stroke="#FFC107" stroke-width="4" stroke-linecap="round"/>
<path d="M91.0473 27.0367C91.0473 26.9078 91.1628 26.7061 91.0028 26.5886C90.8037 26.4423 90.5667 26.3167 90.3165 26.1779C90.0679 26.0399 89.662 25.9292 89.3188 25.8273C88.9711 25.7241 88.5728 25.5804 88.0732 25.5804" stroke="#FFC107" stroke-width="4" stroke-linecap="round"/>
<path d="M90.1897 26.6819C90.3454 26.6756 90.2348 26.2468 90.177 26.1924C90.0518 26.0742 89.8976 25.9684 89.621 25.8781C89.362 25.7936 88.9918 25.6368 88.6455 25.5991" stroke="#FFC107" stroke-width="4" stroke-linecap="round"/>
<path d="M84.0705 25.7484C83.9436 25.7484 83.8662 25.7051 83.7401 25.6883C83.5028 25.6567 83.2021 25.5591 82.9966 25.5057C82.7386 25.4387 82.4153 25.3902 82.126 25.3377C81.8803 25.2932 81.6718 25.2222 81.4396 25.1697C80.7165 25.0063 80.1794 24.7586 79.3807 24.6283C78.3223 24.4555 77.1504 24.307 75.9745 24.2217C75.671 24.1997 75.1582 24.1642 74.9069 24.2404C74.5722 24.3418 74.3477 24.4333 74.3477 24.5909" stroke="#FFC107" stroke-width="4" stroke-linecap="round"/>
<path d="M102.734 38.1248C102.681 37.847 101.549 37.6656 101.445 37.377C101.426 37.3242 101.077 37.2214 101.008 37.12C100.92 36.9917 100.734 36.8518 100.523 36.7435C100.312 36.6357 100.418 36.5055 100.268 36.3956C100.121 36.2876 99.959 36.117 99.8783 35.9984C99.6549 35.6703 99.4164 35.274 98.8681 34.9832C98.0189 34.5327 97.864 33.983 97.0785 33.5214C96.4722 33.1652 96.1795 32.7444 95.7502 32.3661C95.6152 32.247 95.5427 32.0326 95.3526 31.9351C95.0618 31.7859 95.091 31.549 94.7799 31.4184C94.2032 31.1764 94.4034 30.7626 93.9288 30.4837C93.4891 30.2254 93.6298 29.8493 93.2527 29.5724C93.0781 29.4441 92.9194 29.2224 92.863 29.0843C92.8262 28.9942 92.8336 28.9231 92.7437 28.835C92.653 28.7463 92.8175 29.0401 92.8551 29.0791C93.6026 29.8542 94.5156 30.6082 95.3605 31.3743C95.881 31.8463 96.4815 32.3215 97.0785 32.7763C97.7409 33.2808 98.0018 33.8653 98.3273 34.3964C98.6513 34.9252 99.0645 35.5372 99.8067 36.0217C100.12 36.2261 100.729 36.5919 100.729 36.8162" stroke="#FFC107" stroke-width="4" stroke-linecap="round"/>
<path d="M102.018 36.9564C102.018 36.7832 101.71 36.6328 101.597 36.4657C101.499 36.3231 101.541 36.1566 101.334 36.0217C101.196 35.9315 101.139 35.6519 100.944 35.6011C100.798 35.5628 100.498 35.2776 100.435 35.2065C100.119 34.8455 99.3321 34.5186 99.0116 34.1524C98.7167 33.8155 97.8662 33.4868 97.8662 33.1242" stroke="#FFC107" stroke-width="4" stroke-linecap="round"/>
<path d="M97.8662 33.1242C97.8662 33.4786 98.2092 33.7339 98.6536 34.0563C99.0331 34.3316 99.2549 34.6824 99.7274 34.9365C100.597 35.4042 100.568 36.0277 101.445 36.4995C101.733 36.6538 102.321 36.9451 102.44 37.12C102.507 37.2184 103.058 37.5874 102.845 37.3095C102.447 36.7896 101.6 36.28 101.151 35.7673C100.833 35.404 100.079 35.0344 99.8626 34.6457C99.774 34.4865 99.4202 34.0575 99.0434 33.9498C98.2407 33.7206 99.8947 34.5887 100.372 34.9001C101.428 35.5895 102.389 36.2978 103.378 36.9798C103.483 37.052 103.666 37.1455 103.728 37.216C103.819 37.3194 103.713 37.1314 103.593 37.107C103.34 37.0553 102.959 36.6429 102.877 36.5358" stroke="#FFC107" stroke-width="4" stroke-linecap="round"/>
<path d="M99.8701 35.975C99.6036 35.7901 99.2974 35.5005 99.2974 35.2973C99.2974 35.0762 98.7248 34.8286 98.7248 34.5963C98.7248 34.378 98.2583 34.1135 98.0407 33.9083C97.7779 33.6605 97.661 33.4178 97.3249 33.1709C96.9544 32.8989 96.7795 32.5334 96.5772 32.2363C96.3653 31.925 95.7547 31.6305 95.583 31.3223C95.4637 31.1081 95.1527 30.7917 94.8274 30.6006C94.3348 30.3111 94.0399 29.9916 93.682 29.6763C93.551 29.5608 93.2381 29.4928 93.1491 29.3621C92.9956 29.1366 93.2372 29.6179 93.3559 29.7126C93.9083 30.1534 94.2944 30.6005 94.7956 31.0445C95.1672 31.3738 95.3432 31.6678 95.6069 32.0026C95.7814 32.2241 95.9348 32.5905 96.2909 32.7867C96.7337 33.0306 96.8017 33.3215 97.2215 33.5682C97.7437 33.875 97.9281 34.2526 98.5021 34.547C98.7104 34.6539 98.9211 34.8335 99.0429 34.9572C99.2916 35.2097 99.7003 35.4364 99.9815 35.6842C100.097 35.7864 100.172 35.9075 100.411 35.9854C100.451 35.9983 100.443 35.7923 100.443 35.7413" stroke="#FFC107" stroke-width="4" stroke-linecap="round"/>
<path d="M100.443 35.5544C100.443 34.9349 99.7461 34.388 98.9799 33.8252C98.1496 33.2154 97.4543 32.6532 96.6415 32.0467C96.234 31.7427 95.7926 31.445 95.5836 31.138C95.4085 30.8808 95.1185 30.5617 94.7485 30.3202C94.3309 30.0475 94.12 29.7534 93.7463 29.4789C93.421 29.24 93.3738 28.8726 92.8554 28.6611C92.4574 28.4987 91.9916 28.0815 91.8453 27.8666C91.7694 27.755 91.4617 27.579 91.3124 27.4694C91.1194 27.3276 91.1106 27.2167 90.9863 27.0747C90.92 26.999 90.8657 26.948 90.8511 26.8618C90.8306 26.7413 90.5375 26.7259 90.8511 26.8411C91.2137 26.9742 91.2829 27.1599 91.6306 27.3058C92.213 27.5503 92.1837 27.9285 92.5373 28.2171C93.0087 28.6019 93.1645 29.0448 93.5395 29.4426C93.7414 29.6568 93.758 29.8894 94.0008 30.1073C94.2195 30.3036 94.5974 30.5669 94.7087 30.7667C94.9524 31.2043 95.6351 31.6926 96.2915 32.0753C97.0271 32.5041 97.3988 32.9935 97.8663 33.4514" stroke="#FFC107" stroke-width="4" stroke-linecap="round"/>
<path d="M90.957 26.6494C90.957 26.6999 91.1344 26.7488 91.201 26.7977C91.2928 26.8651 91.4744 26.9454 91.4871 27.0202C91.513 27.1722 91.6979 27.3202 91.7143 27.4707C91.7645 27.929 92.0248 28.3625 92.4716 28.8" stroke="#FFC107" stroke-width="4" stroke-linecap="round"/>
<path d="M91.79 28.0832C91.79 28.6523 92.9433 29.1976 93.5149 29.7201C93.8031 29.9835 94.0971 30.2438 94.3311 30.5167C94.5497 30.7715 94.8037 31.082 95.2735 31.2967" stroke="#FFC107" stroke-width="4" stroke-linecap="round"/>
</g>
</g>
<defs>
<filter id="filter0_d_17_176" x="18" y="-8" width="331" height="80" filterUnits="userSpaceOnUse" color-interpolation-filters="sRGB">
<feFlood flood-opacity="0" result="BackgroundImageFix"/>
<feColorMatrix in="SourceAlpha" type="matrix" values="0 0 0 0 0 0 0 0 0 0 0 0 0 0 0 0 0 0 127 0" result="hardAlpha"/>
<feOffset dy="4"/>
<feGaussianBlur stdDeviation="4"/>
<feComposite in2="hardAlpha" operator="out"/>
<feColorMatrix type="matrix" values="0 0 0 0 0 0 0 0 0 0 0 0 0 0 0 0 0 0 0.15 0"/>
<feBlend mode="normal" in2="BackgroundImageFix" result="effect1_dropShadow_17_176"/>
<feBlend mode="normal" in="SourceGraphic" in2="effect1_dropShadow_17_176" result="shape"/>
</filter>
<filter id="filter1_d_17_176" x="156.372" y="35.0467" width="149.686" height="21.9568" filterUnits="userSpaceOnUse" color-interpolation-filters="sRGB">
<feFlood flood-opacity="0" result="BackgroundImageFix"/>
<feColorMatrix in="SourceAlpha" type="matrix" values="0 0 0 0 0 0 0 0 0 0 0 0 0 0 0 0 0 0 127 0" result="hardAlpha"/>
<feOffset/>
<feGaussianBlur stdDeviation="2.5"/>
<feColorMatrix type="matrix" values="0 0 0 0 0.266667 0 0 0 0 0.266667 0 0 0 0 0.266667 0 0 0 0.5 0"/>
<feBlend mode="normal" in2="BackgroundImageFix" result="effect1_dropShadow_17_176"/>
<feBlend mode="normal" in="SourceGraphic" in2="effect1_dropShadow_17_176" result="shape"/>
</filter>
<filter id="filter2_d_17_176" x="161.372" y="39.0467" width="143.686" height="15.9568" filterUnits="userSpaceOnUse" color-interpolation-filters="sRGB">
<feFlood flood-opacity="0" result="BackgroundImageFix"/>
<feColorMatrix in="SourceAlpha" type="matrix" values="0 0 0 0 0 0 0 0 0 0 0 0 0 0 0 0 0 0 127 0" result="hardAlpha"/>
<feOffset dx="2" dy="1"/>
<feGaussianBlur stdDeviation="1"/>
<feComposite in2="hardAlpha" operator="out"/>
<feColorMatrix type="matrix" values="0 0 0 0 0 0 0 0 0 0 0 0 0 0 0 0 0 0 0.75 0"/>
<feBlend mode="normal" in2="BackgroundImageFix" result="effect1_dropShadow_17_176"/>
<feBlend mode="normal" in="SourceGraphic" in2="effect1_dropShadow_17_176" result="shape"/>
</filter>
<clipPath id="clip0_17_176">
<rect width="368" height="60" fill="white"/>
</clipPath>
<clipPath id="clip1_17_176">
<rect width="315" height="64" fill="white" transform="translate(26 -4)"/>
</clipPath>
</defs>
</svg>
