<svg width="1009" height="621" viewBox="0 0 1009 621" fill="none" xmlns="http://www.w3.org/2000/svg">
<g clip-path="url(#clip0_2_2)" filter="url(#filter0_d_2_2)">
<mask id="mask0_2_2" style="mask-type:luminance" maskUnits="userSpaceOnUse" x="4" y="0" width="1017" height="633">
<path d="M1021 0H4V633H1021V0Z" fill="white"/>
</mask>
<g mask="url(#mask0_2_2)">
<path d="M1021 0H4V633H1021V0Z" fill="white"/>
<mask id="mask1_2_2" style="mask-type:luminance" maskUnits="userSpaceOnUse" x="4" y="-29" width="1009" height="662">
<path d="M4.5 -28.5H1012.1V632.273H4.5V-28.5Z" fill="white" stroke="white"/>
</mask>
<g mask="url(#mask1_2_2)">
<path d="M262.2 34.5303C253.627 49.5304 254.636 62.7659 266.235 81.2955C279.346 102.472 278.842 124.531 265.226 140.414C254.132 153.649 253.627 154.531 262.2 183.649C269.765 209.238 270.773 210.12 268.252 190.709C266.235 173.944 268.756 160.709 278.338 143.061C294.475 112.178 294.475 103.355 278.338 76.0013C270.773 63.6483 266.739 48.6481 267.748 39.8245C270.773 21.2949 270.269 20.4124 262.2 34.5303Z" fill="#FFC107"/>
<path d="M171.327 293.824L152.89 285.171L94.592 376.89L94.5828 376.903C77.9711 402.886 62.5056 427.967 50.9549 447.518C45.1757 457.299 40.4034 465.652 36.966 472.018C35.2441 475.208 33.8903 477.837 32.9231 479.866C31.9824 481.837 31.6347 482.78 31.5681 482.962C31.558 482.989 31.5543 482.998 31.5559 482.992L31.4396 483.449L31.2874 483.877C30.8533 485.091 30.5606 487.539 31.1578 491.651C31.7358 495.632 33.0277 500.227 34.8534 504.651C36.6717 509.054 38.8867 512.966 41.1349 515.712C43.162 518.187 44.9434 519.391 46.3232 519.644C46.4431 519.529 46.5953 519.375 46.7824 519.172C47.5779 518.31 48.6851 516.922 50.1057 514.961C52.9293 511.064 56.6841 505.337 61.1282 498.162C69.9959 483.849 81.4007 464.117 93.2069 442.581C105.111 420.426 116.648 400.459 125.616 385.99C130.095 378.766 133.977 372.841 136.967 368.684C138.453 366.618 139.791 364.889 140.911 363.64C141.466 363.02 142.051 362.426 142.627 361.961C143.072 361.604 144.041 360.87 145.203 360.87C146.54 360.87 147.689 361.873 148.135 362.266C148.797 362.849 149.516 363.615 150.248 364.463C151.726 366.172 153.59 368.593 155.754 371.568C160.099 377.541 165.914 386.101 172.772 396.551C186.5 417.474 204.568 446.213 223.75 477.568L223.762 477.587C245.166 512.835 263.118 540.946 276.19 559.768C282.74 569.199 287.977 576.174 291.769 580.533C293.683 582.735 295.085 584.104 296.02 584.81C296.036 584.821 296.052 584.833 296.067 584.845C296.157 584.737 296.259 584.611 296.372 584.468C296.969 583.702 297.719 582.623 298.616 581.212C300.409 578.395 302.616 574.534 305.106 569.893C310.077 560.627 315.999 548.578 321.696 536.311C327.393 524.043 332.814 511.664 336.792 501.75C338.787 496.78 340.377 492.533 341.451 489.286C341.939 487.81 342.286 486.642 342.512 485.77C342.2 484.819 341.723 483.52 341.062 481.858C339.606 478.2 337.452 473.275 334.733 467.37C329.311 455.593 321.803 440.263 313.515 424.004C300.225 398.555 292.319 382.287 287.825 368.203C283.137 353.515 282.204 341.365 282.204 324.828C282.204 311.813 281.569 303.362 280.318 297.526C279.162 292.131 277.446 288.799 274.757 286.09C269.095 280.812 265.211 277.909 262.494 277.078C261.208 276.686 260.477 276.86 260.07 277.097C259.73 277.296 259.344 277.686 258.889 278.792C257.781 281.476 256.75 287.137 256.115 298.037C255.499 308.606 255.308 322.849 255.308 341.593C255.308 361.188 254.8 379.085 254.027 392.171C253.642 398.676 253.18 404.194 252.652 408.196C252.396 410.141 252.078 412.087 251.656 413.693C251.453 414.465 251.122 415.57 250.592 416.592C250.095 417.55 248.918 419.375 247.071 419.375C242.987 419.375 239.104 415.278 235.953 410.567C232.655 405.634 229.451 398.958 226.657 391.626C221.155 377.183 216.645 358.582 216.645 343.358C216.645 335.812 216.319 330.794 215.456 326.926C214.662 323.362 213.297 320.282 210.554 317.113C207.685 313.798 203.414 310.514 196.941 306.737C190.505 302.984 182.172 298.9 171.327 293.824ZM342.841 486.881C342.84 486.875 342.838 486.868 342.836 486.858C342.85 486.935 342.856 486.945 342.841 486.881Z" fill="#FFC107"/>
<path d="M45.9791 519.938C45.9786 519.939 45.9945 519.929 46.0283 519.904M171.327 293.824L152.89 285.171L94.592 376.89L94.5828 376.903C77.9711 402.886 62.5056 427.967 50.9549 447.518C45.1757 457.299 40.4034 465.652 36.966 472.018C35.2441 475.208 33.8903 477.837 32.9231 479.866C31.9824 481.837 31.6347 482.78 31.5681 482.962C31.558 482.989 31.5543 482.998 31.5559 482.992L31.4396 483.449L31.2874 483.877C30.8533 485.091 30.5606 487.539 31.1578 491.651C31.7358 495.632 33.0277 500.227 34.8534 504.651C36.6717 509.054 38.8867 512.966 41.1349 515.712C43.162 518.187 44.9434 519.391 46.3232 519.644C46.4431 519.529 46.5953 519.375 46.7824 519.172C47.5779 518.31 48.6851 516.922 50.1057 514.961C52.9293 511.064 56.6841 505.337 61.1282 498.162C69.9959 483.849 81.4007 464.117 93.2069 442.581C105.111 420.426 116.648 400.459 125.616 385.99C130.095 378.766 133.977 372.841 136.967 368.684C138.453 366.618 139.791 364.889 140.911 363.64C141.466 363.02 142.051 362.426 142.627 361.961C143.072 361.604 144.041 360.87 145.203 360.87C146.54 360.87 147.689 361.873 148.135 362.266C148.797 362.849 149.516 363.615 150.248 364.463C151.726 366.172 153.59 368.593 155.754 371.568C160.099 377.541 165.914 386.101 172.772 396.551C186.5 417.474 204.568 446.213 223.75 477.568L223.762 477.587C245.166 512.835 263.118 540.946 276.19 559.768C282.74 569.199 287.977 576.174 291.769 580.533C293.683 582.735 295.085 584.104 296.02 584.81C296.036 584.821 296.052 584.833 296.067 584.845C296.157 584.737 296.259 584.611 296.372 584.468C296.969 583.702 297.719 582.623 298.616 581.212C300.409 578.395 302.616 574.534 305.106 569.893C310.077 560.627 315.999 548.578 321.696 536.311C327.393 524.043 332.814 511.664 336.792 501.75C338.787 496.78 340.377 492.533 341.451 489.286C341.939 487.81 342.286 486.642 342.512 485.77C342.2 484.819 341.723 483.52 341.062 481.858C339.606 478.2 337.452 473.275 334.733 467.37C329.311 455.593 321.803 440.263 313.515 424.004C300.225 398.555 292.319 382.287 287.825 368.203C283.137 353.515 282.204 341.365 282.204 324.828C282.204 311.813 281.569 303.362 280.318 297.526C279.162 292.131 277.446 288.799 274.757 286.09C269.095 280.812 265.211 277.909 262.494 277.078C261.208 276.686 260.477 276.86 260.07 277.097C259.73 277.296 259.344 277.686 258.889 278.792C257.781 281.476 256.75 287.137 256.115 298.037C255.499 308.606 255.308 322.849 255.308 341.593C255.308 361.188 254.8 379.085 254.027 392.171C253.642 398.676 253.18 404.194 252.652 408.196C252.396 410.141 252.078 412.087 251.656 413.693C251.453 414.465 251.122 415.57 250.592 416.592C250.095 417.55 248.918 419.375 247.071 419.375C242.987 419.375 239.104 415.278 235.953 410.567C232.655 405.634 229.451 398.958 226.657 391.626C221.155 377.183 216.645 358.582 216.645 343.358C216.645 335.812 216.319 330.794 215.456 326.926C214.662 323.362 213.297 320.282 210.554 317.113C207.685 313.798 203.414 310.514 196.941 306.737C190.505 302.984 182.172 298.9 171.327 293.824ZM342.841 486.881C342.84 486.875 342.838 486.868 342.836 486.858C342.85 486.935 342.856 486.945 342.841 486.881Z" stroke="#FFC107"/>
<path d="M125.031 535.712V571.008H150.246H175.461V535.712V500.418H150.246H125.031V535.712Z" fill="#FFC107"/>
<path d="M258.526 294.01C256.976 294.306 257.594 300.868 257.594 302.811C257.594 306.225 257.283 309.317 257.283 312.679C257.283 315.969 256.351 319.235 256.351 322.548C256.351 325.748 256.351 328.949 256.351 332.15C256.351 334.847 256.972 337.613 256.972 340.417C256.972 343.444 257.283 346.427 257.283 349.218C257.283 355.742 256.972 361.703 256.972 368.154" stroke="#FFC107" stroke-linecap="square"/>
<path d="M294.32 580.99C293.541 580.723 292.794 578.576 292.352 577.601C291.793 576.365 291.262 574.734 290.51 573.825C289.626 572.757 288.965 570.996 288.229 569.661C287.924 569.107 287.537 568.686 287.277 568.112C287.098 567.718 286.754 567.141 286.513 566.853C286.137 566.407 285.898 565.842 285.585 565.304C285.28 564.781 284.838 564.324 284.62 563.668C284.505 563.324 284.069 562.809 283.887 562.495C283.537 561.894 283.017 561.521 282.614 561.042C282.227 560.582 281.992 560.022 281.575 559.644C281.225 559.327 280.653 558.588 280.44 558.041C280.247 557.544 279.631 556.981 279.325 556.685C278.828 556.204 278.459 555.401 277.99 554.845C276.111 552.61 274.35 549.696 272.689 546.948C272.327 546.348 271.868 545.435 271.423 545.01C271.071 544.675 270.844 543.901 270.465 543.612C270.051 543.297 269.65 542.26 269.281 541.762C268.763 541.064 268.333 540.192 267.789 539.545C267.334 539.004 266.885 538.397 266.486 537.758C266.028 537.029 265.461 536.575 264.988 535.865C264.139 534.59 263.173 533.521 262.263 532.379C261.511 531.437 260.811 530.208 260.081 529.184C259.634 528.555 259.132 527.892 258.741 527.161C258.458 526.632 257.847 525.643 257.462 525.364C257.135 525.125 256.693 524.127 256.422 523.664C256.098 523.107 255.752 522.634 255.464 522.028C254.812 520.663 253.987 519.482 253.264 518.24C251.985 516.043 250.753 513.776 249.429 511.742C247.991 509.532 246.29 507.814 244.917 505.458C244.332 504.454 243.657 503.681 243.056 502.65C242.368 501.468 241.678 500.415 240.97 499.26C240.215 498.03 239.445 496.856 238.708 495.592C238.387 495.041 237.992 494.433 237.636 493.934C237.33 493.504 236.989 492.778 236.684 492.44C236.079 491.766 235.383 490.454 234.942 489.48C234.694 488.934 234.335 488.447 234.034 487.931C233.767 487.473 233.16 486.895 232.987 486.392C232.59 485.233 231.76 484.413 231.214 483.477C230.703 482.599 230.172 481.773 229.666 480.905C229.406 480.459 229.076 480.108 228.813 479.656C228.66 479.393 228.201 478.892 228.112 478.623C227.93 478.076 227.16 476.849 226.871 476.6" stroke="#FFC107" stroke-linecap="square"/>
<path d="M295.11 575.594C297.873 575.594 298.99 568.975 301.112 566.141C301.961 565.007 302.8 563.573 303.34 561.999C303.686 560.988 304.529 560.253 304.815 559.148C305.359 557.047 306.467 553.327 307.497 551.911C308.145 551.022 308.388 549.503 309.029 548.647C309.619 547.862 310.262 546.918 310.633 545.771C311.381 543.459 312.96 542.169 313.698 539.633C314.936 535.383 317.127 531.054 319.175 527.888C320.876 525.259 323.272 522.047 324.226 518.361C324.811 516.102 325.917 514.013 326.284 511.808C326.44 510.871 327.469 510.435 327.547 509.371C327.598 508.672 328.357 507.568 328.568 506.934C329.984 502.681 331.776 498.758 333.62 495.239C334.506 493.549 335.574 491.581 336.174 489.636C336.725 487.849 337.753 486.603 338.274 484.81" stroke="#FFC107" stroke-linecap="square"/>
<path d="M299.196 576.911C300.23 575.332 301.519 574.252 302.574 572.622C303.513 571.169 304.988 570.615 305.582 568.578" stroke="#FFC107" stroke-linecap="square"/>
<path d="M303.538 568.578C303.63 567.008 305.203 562.898 305.951 562.097C306.501 561.506 307.334 559.851 307.682 558.929C307.934 558.259 308.262 557.903 308.647 557.516C308.996 557.162 308.955 556.197 309.299 555.859C310.369 554.809 311.341 552.442 311.91 550.596C312.398 549.012 312.895 546.761 313.613 545.528C315.299 542.632 316.593 538.949 318.295 536.026C320.005 533.09 321.127 529.26 322.637 526.377C323.623 524.497 324.085 521.832 325.049 519.994C325.676 518.798 326.805 516.791 327.05 515.315C327.145 514.746 327.854 513.687 328.057 513.074C328.381 512.103 328.791 511.314 329.136 510.248C329.349 509.591 330.01 507.647 330.356 507.275C330.781 506.819 330.876 505.499 331.25 504.984C331.46 504.697 332.063 503.09 332.13 502.573C332.252 501.625 332.919 500.738 333.279 499.942C334.06 498.218 334.771 495.894 335.663 494.362C336.471 492.975 337.471 490.599 338.019 488.954C338.491 487.532 338.717 484.649 339.551 483.934" stroke="#FFC107" stroke-linecap="square"/>
<path d="M336.783 479.382C336.783 478.128 336.58 476.373 336.114 475.346C335.621 474.255 335.368 472.671 334.86 471.703C333.964 469.992 333.701 467.719 332.833 466.14C332.567 465.656 332.636 464.869 332.352 464.382C332.118 463.979 331.876 463.566 331.705 463.054C331.315 461.881 330.913 460.695 330.388 459.68C329.725 458.4 328.977 455.885 328.131 455.159" stroke="#FFC107" stroke-linecap="square"/>
<path d="M327.755 462.588C327.065 462.35 326.861 460.844 326.334 460.326C325.923 459.923 325.333 458.752 324.974 458.137C324.265 456.918 323.438 455.616 322.592 454.691C322.141 454.199 321.436 453.55 321.171 452.753C320.926 452.018 320.516 451.392 320.272 450.637C320.023 449.867 319.976 448.652 319.666 448.052C319.013 446.79 318.951 444.308 318.454 442.723C317.966 441.165 317.399 438.991 316.656 437.717C315.866 436.359 315.023 434.989 314.388 433.356C313.73 431.66 312.811 429.498 311.953 428.026C311.462 427.182 311.137 426.202 310.72 425.281C310.271 424.288 309.53 423.473 309.32 422.212C308.948 419.975 307.617 418.052 307.063 415.914C306.631 414.245 305.724 412.307 304.993 410.908C304.361 409.695 303.57 407.902 303.112 406.528C302.516 404.739 301.488 403.033 300.667 401.541C300.208 400.706 299.871 399.672 299.444 398.777C299.065 397.98 298.499 397.026 298.222 396.193C297.564 394.217 296.288 392.587 295.818 390.486C295.455 388.866 294.501 387.53 293.853 386.27C293.39 385.369 293.041 384.181 292.578 383.309C291.854 381.941 290.976 380.209 290.51 378.607" stroke="#FFC107" stroke-linecap="square"/>
<path d="M259.577 374.632C258.411 374.632 256.763 377.55 256.763 379.465C256.763 381.791 257.413 383.884 257.413 386.154C257.413 391.469 255.465 396.245 255.465 401.58C255.465 404.054 254.47 406.261 254.382 408.826C254.349 409.798 253.822 411.228 253.721 412.358C253.605 413.651 253.083 415.205 253.083 416.445C253.083 418.714 252.082 422.027 251.52 424.065C251.12 425.516 250.612 426.81 250.222 428.153C249.944 429.105 249.188 429.18 249.188 430.382" stroke="#FFC107" stroke-linecap="square"/>
<path d="M285.767 379.465C285.767 373.683 284.252 368.567 284.252 362.739C284.252 361.44 283.82 360.471 283.82 359.209C283.82 358.49 283.588 355.732 283.278 355.306C282.74 354.566 282.835 352.813 282.413 351.941C282.057 351.209 281.654 348.994 281.654 348.059C281.654 346.767 281.036 345.437 281.006 344.073C280.977 342.782 280.613 341.243 280.573 340.068C280.479 337.33 280.14 335.094 280.14 332.18C280.14 329.2 279.923 326.219 279.923 323.157C279.923 320.325 280.573 317.802 280.573 314.981C280.573 313.644 280.789 312.457 280.789 311.078C280.789 310.163 280.852 308.146 280.525 307.444C280.116 306.566 280.122 305.523 279.815 304.574C279.592 303.883 279.057 301.988 279.057 301.229C279.057 296.871 275.676 293.614 273.863 291.668C272.678 290.396 271.926 287.96 270.52 287.27C269.97 287.001 269.424 285.804 268.776 285.804C268.186 285.804 267.575 284.689 266.828 284.689C265.439 284.689 263.894 283.947 262.391 283.947C261.065 283.947 259.36 286.021 259.36 288.406" stroke="#FFC107" stroke-linecap="square"/>
<path d="M226.88 473.101C224.582 471.244 222.088 469.541 220.084 466.865C219.627 466.253 218.957 465.468 218.458 464.917C217.971 464.379 217.512 463.785 217.039 463.175C216.493 462.471 216.04 461.376 215.461 460.791C214.721 460.044 214.203 458.708 213.463 457.96C212.877 457.367 212.182 456.17 211.687 455.317C211.249 454.567 210.612 453.49 210.322 452.621C210.111 451.985 209.047 449.571 208.609 449.571" stroke="#FFC107" stroke-linecap="square"/>
<path d="M212.463 452.758C211.709 451.461 210.943 450.174 210.243 448.973C209.484 447.668 208.009 446.897 207.467 445.268C207.239 444.582 206.597 443.691 206.215 443.198C205.801 442.667 205.52 441.681 205.176 440.992C204.51 439.66 203.709 437.543 202.829 436.704C201.91 435.828 201.266 434.143 200.331 433.34C199.228 432.394 198.413 430.208 197.333 429.282C196.861 428.878 196.298 427.837 195.961 427.131C195.409 425.972 194.572 425.249 193.939 424.271C193.04 422.883 192.052 421.585 191.163 420.213C189.091 417.01 186.689 414.709 184.549 411.703C183.975 410.895 183.38 410.23 182.852 409.374C182.613 408.986 182.067 408.495 181.774 408.203C181.512 407.943 181.387 407.534 181.132 407.291C180.576 406.76 180.181 405.786 179.633 405.262C178.989 404.647 178.231 403.781 177.706 402.879C177.216 402.038 176.566 401.358 176.144 400.429C175.849 399.777 175.276 399.298 175.034 398.59C174.442 396.861 173.071 396.101 172.528 394.424C172.289 393.686 171.686 393.315 171.497 392.585C171.346 392.001 170.771 391.22 170.466 390.801C169.529 389.514 168.451 387.705 167.358 386.58" stroke="#FFC107" stroke-linecap="square"/>
<g filter="url(#filter1_d_2_2)">
<g filter="url(#filter2_d_2_2)">
<path d="M489.829 472.474C491.034 469.095 491.636 465.83 491.636 462.68C491.636 459.529 491.516 457.084 491.278 455.341C491.027 453.582 490.626 452.033 490.074 450.696C488.869 447.757 487.063 446.287 484.655 446.287C481.682 446.287 478.991 447.81 476.583 450.854C474.011 454.003 472.725 458.06 472.725 463.024C472.725 466.173 473.509 468.962 475.078 471.391C476.645 473.802 478.634 476.134 481.042 478.387C483.451 480.638 486.016 482.891 488.737 485.144C491.472 487.397 494.044 489.879 496.452 492.588C501.985 498.782 504.751 506.042 504.751 514.366C504.751 519.998 503.691 525.207 501.57 529.994C499.438 534.78 496.61 538.925 493.085 542.426C485.37 550.081 476.413 553.91 466.215 553.91C457.948 553.91 451.689 552.026 447.436 548.26C443.184 544.476 441.058 539.716 441.058 533.979C441.058 523.72 443.905 517.296 449.601 514.71C451.206 513.917 453.232 513.521 455.678 513.521C458.137 513.521 460.771 514.261 463.581 515.738C462.289 520.349 461.642 524.74 461.642 528.912C461.642 537.922 463.932 542.426 468.511 542.426C471.484 542.426 474.193 540.904 476.639 537.86C479.085 534.816 480.308 531.578 480.308 528.145C480.308 524.714 479.524 521.758 477.956 519.276C476.401 516.794 474.457 514.569 472.123 512.598C469.79 510.627 467.281 508.682 464.597 506.764C461.912 504.864 459.403 502.557 457.07 499.847C451.614 493.652 448.885 485.602 448.885 475.694C448.885 469.27 450.008 463.552 452.253 458.535C454.499 453.52 457.428 449.324 461.041 445.944C468.266 439.08 476.313 435.649 485.181 435.649C494.063 435.649 500.648 437.505 504.939 441.218C509.229 444.933 511.374 449.948 511.374 456.265C511.374 461.774 509.85 466.279 506.801 469.781C504.155 472.703 501.226 474.163 498.014 474.163C494.803 474.163 492.074 473.599 489.829 472.474ZM565.339 524.502C566.857 527.213 567.615 530.768 567.615 535.167C567.615 541.238 566.009 545.885 562.798 549.105C559.587 552.308 555.454 553.91 550.398 553.91C547.513 553.91 543.863 553.461 539.447 552.563C530.767 550.645 525.103 549.686 522.457 549.686C519.81 549.686 517.966 549.773 516.924 549.95C515.883 550.109 514.516 550.301 512.823 550.53L527.631 439.027H579.545C579.545 445.891 578.359 451.126 575.989 454.734C573.618 458.342 570.105 460.146 565.451 460.146C560.797 460.146 556.1 458.623 551.358 455.579L547.633 485.144H569.064C569.064 491.11 568.023 495.756 565.94 499.082C563.846 502.408 561.055 504.071 557.567 504.071C554.068 504.071 551.238 503.508 549.081 502.382C546.911 501.255 545.707 500.525 545.468 500.191L541.122 532.106C543.054 532.457 545.826 532.634 549.439 532.634C555.623 532.634 560.923 529.923 565.339 524.502ZM631.571 553.91C621.285 553.91 615.665 543.658 614.712 523.156H593.995C592.39 528.348 591.022 533.196 589.894 537.702L586.77 550.53H569.911L607.844 439.027H633.735L638.796 521.124C639.599 532.95 641.606 540.614 644.818 544.115C642.484 550.645 638.069 553.91 631.571 553.91ZM604.344 489.368L597.721 510.83H614.335L612.906 467.406V462.838L604.344 489.368ZM676.485 550.53H650.707L665.402 439.529C673.356 438.298 683.127 437.682 694.718 437.682C706.321 437.682 714.813 440.049 720.195 444.783C725.577 449.499 728.267 456.617 728.267 466.138C728.267 475.659 726.517 483.402 723.017 489.368C719.53 495.334 714.776 499.276 708.755 501.194C710.122 510.539 712.367 518.985 715.491 526.535C718.389 533.628 721.525 538.3 724.899 540.552C723.695 545.286 721.863 548.7 719.405 550.795C716.958 552.871 713.992 553.91 710.505 553.91C707.005 553.91 703.894 552.475 701.172 549.607C698.437 546.738 695.985 542.655 693.815 537.358C689.249 525.866 686.721 511.058 686.232 492.931H687.079C693.024 492.703 697.478 490.415 700.438 486.068C703.411 481.739 704.897 475.016 704.897 465.901C704.897 454.514 701.486 448.601 694.662 448.161H692.008C691.294 448.161 690.736 448.214 690.334 448.319L676.485 550.53ZM796.664 515.554C798.746 517.701 799.787 521.054 799.787 525.612C799.787 530.169 799.085 534.059 797.679 537.279C796.275 540.481 794.212 543.324 791.489 545.806C785.631 551.103 777.584 553.751 767.348 553.751C757.112 553.751 749.203 550.002 743.621 542.505C738.039 535.009 735.248 524.617 735.248 511.33C735.248 492.517 738.741 475.967 745.728 461.677C751.022 451.083 758.404 443.533 767.875 439.027C772.78 436.776 777.64 435.649 782.457 435.649C787.274 435.649 791.17 436.098 794.143 436.996C797.103 437.892 799.712 439.247 801.97 441.06C806.862 445.002 809.309 450.123 809.309 456.423C809.309 462.178 807.383 467.194 803.532 471.47C799.994 475.29 796.783 477.199 793.898 477.199C791 477.199 788.949 476.917 787.745 476.354C788.071 472.306 788.234 468.962 788.234 466.323C788.234 463.665 788.196 461.378 788.121 459.46C788.033 457.558 787.788 455.702 787.388 453.89C786.585 449.719 784.96 447.633 782.514 447.633C780.068 447.633 777.622 449.244 775.176 452.464C772.717 455.667 770.447 459.969 768.365 465.373C763.623 477.656 761.252 491.066 761.252 505.602C761.252 512.572 762.657 518.062 765.467 522.074C768.276 526.069 772.692 528.066 778.713 528.066C783.216 528.066 787.594 525.981 791.846 521.811C793.69 520.015 795.297 517.929 796.664 515.554ZM854.708 537.86C854.708 529.976 855.834 518.149 858.078 502.382H840.261L833.638 550.53H808.461L823.759 439.027H849.161L842.18 488.866H859.995L866.626 439.027H892.043C890.916 447.37 889.63 456.213 888.185 465.557L884.083 493.09C881.032 514.489 879.511 529.861 879.511 539.207C879.511 543.042 879.956 546.026 880.847 548.155C876.83 551.992 872.476 553.91 867.769 553.91C863.079 553.91 859.726 552.334 857.725 549.184C855.716 546.034 854.708 542.259 854.708 537.86Z" fill="#CCCCCC"/>
</g>
</g>
</g>
<path d="M282.907 410.292C282.65 409.901 282.286 409.427 281.922 409.393C281.844 409.386 281.733 409.293 281.659 409.237C281.58 409.177 281.459 409.155 281.378 409.115C281.3 409.078 281.156 409.042 281.094 408.955C281.024 408.86 280.821 408.852 280.773 408.747C280.696 408.583 280.483 408.568 280.377 408.466C280.213 408.308 280.021 408.281 279.853 408.144C279.599 407.938 279.312 407.816 279.047 407.651C278.863 407.537 278.681 407.389 278.491 407.317C278.372 407.272 278.182 407.143 278.073 407.033C277.756 406.711 277.344 406.672 277.022 406.359C276.874 406.213 276.609 406.054 276.439 406.022C276.266 405.989 276.105 405.789 275.93 405.743C275.761 405.698 275.588 405.567 275.421 405.487C275.154 405.36 274.851 405.225 274.6 405.022C274.472 404.917 274.284 404.881 274.173 404.729C274.071 404.589 273.86 404.592 273.78 404.419C273.753 404.363 273.672 404.345 273.634 404.333C273.579 404.316 273.508 404.192 273.444 404.155C273.334 404.088 273.207 403.973 273.09 403.945C272.843 403.886 272.606 403.628 272.368 403.605C272.16 403.585 271.938 403.267 271.726 403.267C271.647 403.267 271.469 403.194 271.4 403.127C271.302 403.035 271.188 403.051 271.087 402.975C270.912 402.841 270.746 402.699 270.562 402.594" stroke="white" stroke-width="0.1"/>
<path d="M254.015 401.469C254.05 401.462 254.165 401.082 254.177 400.991C254.193 400.872 254.285 400.76 254.312 400.601C254.335 400.463 254.425 400.355 254.475 400.209C254.514 400.091 254.625 399.927 254.688 399.84C254.749 399.755 254.785 399.538 254.852 399.446C254.919 399.355 254.972 399.266 255.033 399.137C255.162 398.861 255.349 398.671 255.508 398.52C255.695 398.343 255.927 398.278 256.091 398.053C256.204 397.898 256.487 397.592 256.641 397.592C256.743 397.592 256.835 397.423 256.937 397.423C257.018 397.423 257.186 397.384 257.265 397.324C257.36 397.251 257.522 397.321 257.626 397.311C257.724 397.301 257.841 397.255 257.954 397.255" stroke="white" stroke-width="0.1"/>
<path d="M254.179 400.795C254.321 400.795 254.464 400.433 254.565 400.278C254.717 400.043 254.907 399.8 255.033 399.531C255.253 399.059 255.518 398.688 255.835 398.379C256.008 398.209 256.157 398.009 256.329 397.845C256.397 397.78 256.567 397.764 256.609 397.676C256.626 397.638 256.898 397.535 256.937 397.535C257.12 397.535 257.373 397.455 257.546 397.37C257.636 397.325 257.745 397.311 257.84 397.311C257.931 397.311 258.02 397.199 258.119 397.199" stroke="white" stroke-width="0.1"/>
<path d="M254.376 400.852C254.464 400.833 254.536 400.565 254.58 400.47C254.657 400.306 254.753 400.196 254.828 400.052C254.905 399.906 254.99 399.77 255.073 399.627C255.105 399.571 255.132 399.486 255.164 399.419C255.175 399.393 255.258 399.236 255.281 399.224C255.389 399.171 255.485 398.922 255.574 398.803C255.668 398.679 255.848 398.615 255.919 398.463C255.995 398.301 256.122 398.262 256.2 398.128C256.287 397.979 256.488 397.829 256.609 397.76" stroke="white" stroke-width="0.1"/>
<path d="M258.677 397.759C258.677 397.444 257.609 397.535 257.429 397.535C257.204 397.535 256.987 397.591 256.756 397.591C256.644 397.591 256.56 397.613 256.461 397.652C256.39 397.678 256.102 397.807 256.083 397.873" stroke="white" stroke-width="0.1"/>
<path d="M259.333 398.097C259.222 398.086 259.097 397.922 258.99 397.869C258.907 397.829 258.798 397.704 258.71 397.704C258.463 397.704 258.231 397.536 257.971 397.536C257.44 397.536 256.909 397.536 256.378 397.536" stroke="white" stroke-width="0.1"/>
<path d="M279.857 412.248H281.3" stroke="#FFC107" stroke-width="0.1"/>
<path d="M275.969 411.677H280.745" stroke="#FFC107" stroke-width="0.1"/>
<path d="M268.857 404.457H270.699" stroke="#FFC107" stroke-width="0.1"/>
<path d="M269.905 403.773C269.766 403.773 269.605 403.657 269.478 403.561C269.407 403.506 269.323 403.536 269.249 403.48C269.178 403.427 269.055 403.391 268.979 403.381C268.779 403.353 268.462 403.218 268.289 403.043C268.179 402.93 268.031 402.939 267.91 402.861C267.814 402.801 267.712 402.706 267.607 402.706" stroke="#FFC107" stroke-width="0.1"/>
<path d="M270.956 404.785C270.688 404.619 270.427 404.365 270.168 404.168C269.989 404.03 269.803 403.914 269.628 403.773C269.543 403.704 269.403 403.558 269.314 403.549C269.162 403.533 269.003 403.296 268.855 403.211C268.624 403.08 268.386 403.04 268.158 402.917C267.811 402.733 267.447 402.65 267.082 402.65" stroke="#FFC107" stroke-width="0.1"/>
<path d="M273.155 406.022C272.96 405.793 272.774 405.625 272.55 405.487C272.317 405.343 272.024 405.208 271.81 405.006C271.573 404.785 271.266 404.615 271.005 404.48C270.755 404.349 270.524 404.148 270.285 403.968C270.012 403.762 269.731 403.644 269.453 403.467C269.253 403.34 269.023 403.188 268.814 403.112C268.256 402.907 267.73 402.65 267.147 402.65" stroke="#FFC107" stroke-width="0.1"/>
<path d="M281.954 411.585C281.916 411.286 281.477 411.135 281.345 410.991C281.106 410.731 280.831 410.692 280.575 410.518" stroke="#FFC107" stroke-width="0.1"/>
<path d="M283.136 412.597C282.979 412.569 282.742 412.322 282.604 412.191C282.444 412.04 282.263 411.991 282.102 411.838C281.853 411.601 281.589 411.349 281.317 411.198C281.111 411.083 280.823 410.911 280.609 410.911" stroke="#FFC107" stroke-width="0.1"/>
<path d="M283.103 412.372C282.877 412.077 282.633 411.849 282.365 411.669C282.123 411.508 281.913 411.253 281.659 411.135C281.502 411.063 281.362 410.911 281.2 410.911" stroke="#FFC107" stroke-width="0.1"/>
<path d="M266.491 401.975C266.381 401.975 266.254 401.856 266.148 401.804C266.036 401.749 265.904 401.692 265.787 401.636C265.558 401.523 265.287 401.357 265.032 401.357C264.765 401.357 264.502 401.132 264.225 401.132C263.953 401.132 263.669 400.908 263.405 400.908C263.253 400.908 263.115 400.739 262.959 400.739C262.784 400.739 262.628 400.548 262.454 400.511C262.247 400.466 262.016 400.298 261.812 400.206C261.615 400.116 261.415 400.079 261.221 400.006C260.845 399.862 260.461 399.83 260.081 399.715C259.745 399.613 259.379 399.502 259.038 399.502C258.893 399.502 258.747 399.558 258.611 399.558" stroke="#FFC107" stroke-width="0.1"/>
<path d="M266.786 402.2C266.757 402.031 266.567 401.972 266.491 401.863C266.412 401.749 266.298 401.748 266.212 401.666C266.14 401.598 266.015 401.526 265.933 401.526C265.827 401.526 265.752 401.387 265.654 401.361C265.351 401.28 265.053 401.135 264.749 401.049C264.323 400.926 263.892 400.834 263.472 400.654C263.291 400.577 263.084 400.536 262.898 400.511C262.712 400.486 262.53 400.355 262.339 400.345C261.911 400.325 261.464 400.06 261.04 399.939C260.602 399.814 260.138 399.529 259.695 399.502C259.397 399.483 259.112 399.39 258.811 399.39C258.658 399.39 258.503 399.39 258.348 399.39" stroke="#FFC107" stroke-width="0.1"/>
<path d="M259.334 399.503C259.319 399.289 258.907 399.334 258.808 399.334" stroke="#FFC107" stroke-width="0.1"/>
<path d="M259.53 399.502C259.385 399.277 259.029 399.165 258.843 399.165C258.579 399.165 258.32 399.109 258.053 399.109" stroke="#FFC107" stroke-width="0.1"/>
<path d="M296.221 442.555C296.221 438.128 290.401 432.592 288.637 429.574C287.166 427.056 282.567 422.184 282.317 418.755C281.97 414.008 276.469 410.339 274.1 410.101C270.996 409.788 267.41 409.019 263.987 409.019" stroke="#FFC107" stroke-width="3" stroke-linecap="round"/>
</g>
<path d="M283.494 410.461C282.58 410.117 281.573 409.594 280.869 408.89C280.548 408.569 280.198 408.281 279.823 408.021C279.429 407.749 279.15 407.355 278.766 407.076C278.121 406.608 277.542 406.11 276.846 405.718C276.431 405.485 275.964 405.347 275.576 405.077C275.019 404.69 274.338 404.51 273.757 404.165C273.402 403.955 273.071 403.711 272.709 403.509C272.357 403.314 271.974 403.192 271.627 402.992C271.328 402.821 271.015 402.67 270.694 402.544C270.473 402.457 270.266 402.349 270.031 402.301C269.951 402.284 269.893 402.275 269.858 402.207" stroke="#FFC107" stroke-width="3" stroke-linecap="round"/>
<path d="M260.373 397.692C260.132 397.632 259.852 397.373 259.633 397.246C259.386 397.103 259.084 396.999 258.8 396.965C258.342 396.911 257.991 396.81 257.546 396.983C257.239 397.102 256.674 397.054 256.487 397.373C256.354 397.599 256.123 397.753 256.031 398.001C255.94 398.245 255.673 398.425 255.628 398.675C255.585 398.909 255.434 399.218 255.291 399.402C255.019 399.751 254.764 400.358 254.764 400.793" stroke="#FFC107" stroke-width="3" stroke-linecap="round"/>
<path d="M46.2969 519.266C46.2969 519.282 46.2712 519.322 46.258 519.334C46.2438 519.347 46.2307 519.367 46.2227 519.385C46.2149 519.402 46.208 519.42 46.2001 519.438C46.1957 519.447 46.1847 519.467 46.1836 519.477C46.1819 519.491 46.1677 519.504 46.1638 519.517C46.1623 519.523 46.1541 519.528 46.1526 519.533C46.1506 519.54 46.1501 519.546 46.1465 519.553C46.1328 519.577 46.1246 519.608 46.117 519.635C46.1099 519.659 46.0938 519.694 46.1141 519.714C46.1233 519.723 46.1402 519.722 46.1484 519.732C46.1559 519.742 46.1792 519.736 46.1895 519.744C46.1987 519.752 46.2198 519.756 46.2257 519.766C46.2301 519.773 46.2462 519.788 46.2539 519.789C46.2776 519.792 46.2874 519.828 46.3047 519.84" stroke="#FFC107" stroke-linecap="round"/>
<path d="M46.0703 519.777C46.0681 519.801 46.067 519.814 46.079 519.836C46.086 519.849 46.0985 519.858 46.1085 519.868C46.1252 519.885 46.1476 519.902 46.1738 519.902C46.2112 519.902 46.1833 519.947 46.2051 519.965C46.2134 519.971 46.2187 519.988 46.2187 519.998C46.2187 520.021 46.2192 520.023 46.1953 520.023" stroke="#FFC107" stroke-linecap="round"/>
<path d="M416.626 277.61C437.24 277.61 447.548 287.64 447.548 307.699C447.548 318.719 444.977 327.54 439.835 334.162C434.786 340.767 427.845 344.07 419.009 344.07C414.896 344.07 411.238 342.443 408.036 339.189C406.517 337.804 405.255 336.184 404.249 334.331C410.397 334.331 415.088 331.746 418.326 326.574C421.563 321.418 423.181 313.797 423.181 303.711C423.181 293.609 419.565 288.558 412.331 288.558H409.298C408.796 288.558 408.334 288.614 407.913 288.727L393.398 393.663H366L381.531 279.689C390.53 278.528 397.64 277.892 402.865 277.779C408.077 277.666 412.663 277.61 416.626 277.61ZM474.052 393.663H447.04L462.431 279.35C470.763 278.061 481.006 277.417 493.16 277.417C505.326 277.417 514.225 279.857 519.858 284.74C525.503 289.605 528.325 296.944 528.325 306.756C528.325 316.552 526.49 324.528 522.821 330.682C519.163 336.821 514.179 340.881 507.867 342.862C509.305 352.481 511.66 361.181 514.932 368.963C517.971 376.263 521.255 381.072 524.784 383.391C523.522 388.274 521.605 391.786 519.034 393.929C516.475 396.071 513.366 397.143 509.708 397.143C506.038 397.143 502.778 395.661 499.926 392.696C497.064 389.747 494.493 385.542 492.214 380.081C487.422 368.255 484.776 353.004 484.273 334.331H485.149C491.378 334.089 496.047 331.737 499.156 327.274C502.275 322.812 503.835 315.883 503.835 306.49C503.835 294.777 500.26 288.687 493.107 288.22H490.32C489.572 288.22 488.988 288.276 488.567 288.388L474.052 393.663ZM536.021 351.2C536.021 329.273 540.14 311.412 548.378 297.621C557.132 282.654 569.122 275.168 584.35 275.168C595.381 275.168 603.673 278.85 609.224 286.214C614.775 293.577 617.551 305.032 617.551 320.58C617.551 344.249 613.175 362.986 604.421 376.794C595.761 390.36 584.151 397.143 569.59 397.143C558.231 397.143 549.793 393.227 544.277 385.398C538.772 377.568 536.021 366.168 536.021 351.2ZM569.204 315.191C565.418 336.072 563.524 354.745 563.524 371.212C563.524 375.158 564.009 378.405 564.979 380.951C565.949 383.512 567.72 384.794 570.291 384.794C572.85 384.794 574.93 383.948 576.532 382.256C578.133 380.58 579.564 377.825 580.827 373.99C582.848 367.739 584.805 357.968 586.698 344.675C588.592 331.399 589.621 322.006 589.784 316.496C589.948 310.986 590.029 306.144 590.029 301.97C590.029 297.782 589.568 294.358 588.645 291.7C587.721 289.025 586.021 287.687 583.543 287.687C581.054 287.687 578.968 288.735 577.286 290.829C574.177 294.777 571.483 302.897 569.204 315.191ZM673.085 277.61C693.7 277.61 704.007 287.64 704.007 307.699C704.007 318.719 701.442 327.54 696.312 334.162C691.263 340.767 684.322 344.07 675.487 344.07C671.361 344.07 667.698 342.443 664.495 339.189C662.988 337.804 661.726 336.184 660.709 334.331C666.856 334.331 671.548 331.746 674.786 326.574C678.022 321.418 679.641 313.797 679.641 303.711C679.641 293.609 676.024 288.558 668.79 288.558H665.758C665.255 288.558 664.794 288.614 664.373 288.727L649.858 393.663H622.476L637.99 279.689C647 278.528 654.112 277.892 659.324 277.779C664.548 277.666 669.135 277.61 673.085 277.61ZM758.525 366.861C760.126 369.648 760.926 373.305 760.926 377.834C760.926 384.1 759.244 388.885 755.877 392.188C752.512 395.492 748.182 397.143 742.888 397.143C739.85 397.143 736.017 396.676 731.389 395.742C722.308 393.775 716.378 392.793 713.596 392.793C710.826 392.793 708.892 392.882 707.794 393.059C706.695 393.236 705.264 393.437 703.499 393.663L719.03 278.818H773.425C773.425 285.892 772.186 291.288 769.709 295.01C767.219 298.716 763.539 300.569 758.665 300.569C753.78 300.569 748.854 299.007 743.888 295.88L739.979 326.332H762.452C762.452 332.471 761.353 337.256 759.156 340.687C756.97 344.103 754.049 345.811 750.391 345.811C746.733 345.811 743.765 345.231 741.486 344.07C739.219 342.911 737.956 342.154 737.699 341.799L733.16 374.692C735.181 375.046 738.085 375.223 741.871 375.223C748.346 375.223 753.897 372.436 758.525 366.861ZM798.423 393.663H771.409L786.8 279.35C795.133 278.061 805.376 277.417 817.53 277.417C829.696 277.417 838.595 279.857 844.227 284.74C849.875 289.605 852.691 296.944 852.691 306.756C852.691 316.552 850.859 324.528 847.194 330.682C843.529 336.821 838.548 340.881 832.237 342.862C833.675 352.481 836.03 361.181 839.302 368.963C842.344 376.263 845.622 381.072 849.152 383.391C847.892 388.274 845.975 391.786 843.403 393.929C840.848 396.071 837.736 397.143 834.078 397.143C830.408 397.143 827.147 395.661 824.296 392.696C821.433 389.747 818.862 385.542 816.583 380.081C811.791 368.255 809.145 353.004 808.642 334.331H809.519C815.748 334.089 820.417 331.737 823.525 327.274C826.646 322.812 828.206 315.883 828.206 306.49C828.206 294.777 824.629 288.687 817.477 288.22H814.69C813.942 288.22 813.357 288.276 812.937 288.388L798.423 393.663ZM868.593 308.932C865.727 305.902 864.298 301.173 864.298 294.745C864.298 288.3 865.836 283.394 868.912 280.027C871.98 276.676 876.166 275 881.461 275C884.823 275 890.505 275.806 898.498 277.417L907.088 279.156C909.954 279.624 912.87 279.857 915.854 279.857C918.846 279.857 921.351 278.988 923.377 277.247C926.402 280.969 927.915 285.496 927.915 290.829C927.915 296.162 926.192 300.746 922.746 304.581C919.199 308.641 915.156 310.671 910.609 310.671C908.424 310.671 905.566 310.261 902.036 309.438C897.918 327.306 895.85 342.443 895.85 354.85C895.85 367.271 898.128 376.729 902.675 383.223C900.565 388.442 897.96 392.068 894.833 394.098C891.723 396.127 887.832 397.143 883.159 397.143C878.494 397.143 874.712 395.371 871.804 391.826C868.904 388.297 867.458 382.876 867.458 375.561C867.458 367.103 869.139 355.913 872.501 341.993C875.872 328.185 880.074 316.004 885.126 305.452C882.68 305.096 880.2 304.919 877.67 304.919C872.459 304.919 869.434 306.257 868.593 308.932ZM935.858 393.663L943.179 342.499C940.741 311.067 935.228 291.982 926.654 285.247C928.419 282.233 930.731 279.89 933.597 278.214C936.455 276.522 939.615 275.676 943.061 275.676C946.507 275.676 949.533 276.522 952.138 278.214C954.744 279.89 956.887 282.524 958.577 286.116C961.779 292.964 963.376 304.565 963.376 320.918V333.462C968.427 313.048 973.47 298.427 978.521 289.596C983.657 280.559 989.414 276.039 995.81 276.039C998.332 276.039 1000.43 276.934 1002.11 278.722C1003.8 280.526 1005.06 282.766 1005.9 285.44C999.433 289.372 993.079 297.024 986.851 308.399C980.623 319.775 975.487 333.404 971.461 349.291L964.006 393.663H935.858Z" fill="black"/>
</g>
<defs>
<filter id="filter0_d_2_2" x="0" y="0" width="1025" height="641" filterUnits="userSpaceOnUse" color-interpolation-filters="sRGB">
<feFlood flood-opacity="0" result="BackgroundImageFix"/>
<feColorMatrix in="SourceAlpha" type="matrix" values="0 0 0 0 0 0 0 0 0 0 0 0 0 0 0 0 0 0 127 0" result="hardAlpha"/>
<feOffset dy="4"/>
<feGaussianBlur stdDeviation="2"/>
<feComposite in2="hardAlpha" operator="out"/>
<feColorMatrix type="matrix" values="0 0 0 0 0 0 0 0 0 0 0 0 0 0 0 0 0 0 0.25 0"/>
<feBlend mode="normal" in2="BackgroundImageFix" result="effect1_dropShadow_2_2"/>
<feBlend mode="normal" in="SourceGraphic" in2="effect1_dropShadow_2_2" result="shape"/>
</filter>
<filter id="filter1_d_2_2" x="441.058" y="435.649" width="452.985" height="120.26" filterUnits="userSpaceOnUse" color-interpolation-filters="sRGB">
<feFlood flood-opacity="0" result="BackgroundImageFix"/>
<feColorMatrix in="SourceAlpha" type="matrix" values="0 0 0 0 0 0 0 0 0 0 0 0 0 0 0 0 0 0 127 0" result="hardAlpha"/>
<feOffset dx="1" dy="1"/>
<feGaussianBlur stdDeviation="0.5"/>
<feColorMatrix type="matrix" values="0 0 0 0 0.266667 0 0 0 0 0.266667 0 0 0 0 0.266667 0 0 0 1 0"/>
<feBlend mode="normal" in2="BackgroundImageFix" result="effect1_dropShadow_2_2"/>
<feBlend mode="normal" in="SourceGraphic" in2="effect1_dropShadow_2_2" result="shape"/>
</filter>
<filter id="filter2_d_2_2" x="441.058" y="435.649" width="470.985" height="126.26" filterUnits="userSpaceOnUse" color-interpolation-filters="sRGB">
<feFlood flood-opacity="0" result="BackgroundImageFix"/>
<feColorMatrix in="SourceAlpha" type="matrix" values="0 0 0 0 0 0 0 0 0 0 0 0 0 0 0 0 0 0 127 0" result="hardAlpha"/>
<feOffset dx="16" dy="4"/>
<feGaussianBlur stdDeviation="2"/>
<feComposite in2="hardAlpha" operator="out"/>
<feColorMatrix type="matrix" values="0 0 0 0 0 0 0 0 0 0 0 0 0 0 0 0 0 0 0.75 0"/>
<feBlend mode="normal" in2="BackgroundImageFix" result="effect1_dropShadow_2_2"/>
<feBlend mode="normal" in="SourceGraphic" in2="effect1_dropShadow_2_2" result="shape"/>
</filter>
<clipPath id="clip0_2_2">
<rect width="1017" height="633" fill="white" transform="translate(4)"/>
</clipPath>
</defs>
</svg>
