<svg width="1024" height="633" viewBox="0 0 1024 633" fill="none" xmlns="http://www.w3.org/2000/svg">
<g clip-path="url(#clip0_4_406)">
<rect width="1024" height="632.88" fill="white"/>
<g clip-path="url(#clip1_4_406)" filter="url(#filter0_d_4_406)">
<mask id="mask0_4_406" style="mask-type:luminance" maskUnits="userSpaceOnUse" x="19" y="12" width="1017" height="633">
<path d="M1036 12H19V645H1036V12Z" fill="white"/>
</mask>
<g mask="url(#mask0_4_406)">
<path d="M1036 12H19V645H1036V12Z" fill="white"/>
<mask id="mask1_4_406" style="mask-type:luminance" maskUnits="userSpaceOnUse" x="19" y="-17" width="1009" height="662">
<path d="M19.5 644.273V-16.5H1027.1V644.273H19.5Z" fill="white" stroke="white"/>
</mask>
<g mask="url(#mask1_4_406)">
<path d="M277.2 46.5303C268.627 61.5304 269.636 74.7659 281.235 93.2955C294.346 114.472 293.842 136.531 280.226 152.414C269.132 165.649 268.627 166.531 277.2 195.649C284.765 221.238 285.773 222.12 283.252 202.709C281.235 185.944 283.756 172.709 293.338 155.061C309.475 124.178 309.475 115.355 293.338 88.0013C285.773 75.6483 281.739 60.6481 282.748 51.8245C285.773 33.2949 285.269 32.4124 277.2 46.5303Z" fill="#FFC107"/>
<path d="M186.327 305.824L167.89 297.171L109.592 388.89L109.583 388.903C92.9711 414.886 77.5055 439.967 65.9548 459.518C60.1757 469.299 55.4033 477.652 51.966 484.018C50.244 487.208 48.8902 489.837 47.9231 491.866C46.9823 493.837 46.6347 494.78 46.568 494.962C46.558 494.989 46.5543 494.998 46.5559 494.992L46.4395 495.449L46.2873 495.877C45.8532 497.091 45.5605 499.539 46.1578 503.651C46.7357 507.632 48.0276 512.227 49.8534 516.651C51.6716 521.054 53.8867 524.966 56.1348 527.712C58.1619 530.187 59.9434 531.391 61.3231 531.644C61.4431 531.529 61.5953 531.375 61.7824 531.172C62.5778 530.31 63.6851 528.922 65.1057 526.961C67.9292 523.064 71.6841 517.337 76.1281 510.162C84.9958 495.849 96.4006 476.117 108.207 454.581C120.111 432.426 131.648 412.459 140.616 397.99C145.094 390.766 148.977 384.841 151.967 380.684C153.453 378.618 154.79 376.889 155.911 375.64C156.466 375.02 157.051 374.426 157.627 373.961C158.072 373.604 159.041 372.87 160.203 372.87C161.54 372.87 162.689 373.873 163.135 374.266C163.797 374.849 164.516 375.615 165.248 376.463C166.726 378.172 168.59 380.593 170.754 383.568C175.099 389.541 180.914 398.101 187.772 408.551C201.5 429.474 219.567 458.213 238.75 489.568L238.762 489.587C260.166 524.835 278.118 552.946 291.189 571.768C297.739 581.199 302.977 588.174 306.769 592.533C308.683 594.736 310.085 596.104 311.02 596.81C311.036 596.822 311.052 596.833 311.067 596.845C311.157 596.737 311.259 596.611 311.371 596.468C311.969 595.702 312.719 594.623 313.616 593.212C315.409 590.395 317.616 586.534 320.106 581.893C325.077 572.627 330.999 560.578 336.696 548.311C342.392 536.043 347.814 523.664 351.792 513.75C353.787 508.78 355.376 504.533 356.451 501.286C356.939 499.81 357.286 498.642 357.512 497.77C357.2 496.819 356.723 495.52 356.061 493.858C354.606 490.2 352.452 485.275 349.733 479.37C344.311 467.593 336.803 452.263 328.515 436.004C315.225 410.555 307.319 394.287 302.824 380.203C298.137 365.515 297.204 353.365 297.204 336.828C297.204 323.813 296.569 315.362 295.318 309.526C294.161 304.131 292.446 300.799 289.756 298.09C284.095 292.812 280.211 289.909 277.494 289.078C276.208 288.686 275.477 288.86 275.07 289.097C274.73 289.296 274.344 289.686 273.889 290.792C272.781 293.476 271.75 299.137 271.115 310.037C270.499 320.606 270.308 334.849 270.308 353.593C270.308 373.188 269.8 391.085 269.026 404.171C268.642 410.676 268.18 416.194 267.652 420.196C267.396 422.141 267.078 424.087 266.656 425.693C266.453 426.465 266.122 427.57 265.592 428.592C265.095 429.55 263.918 431.375 262.071 431.375C257.987 431.375 254.103 427.278 250.953 422.567C247.655 417.634 244.451 410.958 241.657 403.626C236.155 389.183 231.645 370.582 231.645 355.358C231.645 347.812 231.319 342.794 230.456 338.926C229.662 335.362 228.297 332.282 225.554 329.113C222.685 325.798 218.414 322.514 211.941 318.737C205.505 314.984 197.172 310.9 186.327 305.824ZM357.841 498.881C357.84 498.875 357.838 498.868 357.836 498.858C357.85 498.935 357.856 498.945 357.841 498.881Z" fill="#FFC107"/>
<path d="M60.979 531.938C60.9785 531.939 60.9944 531.929 61.0283 531.904M186.327 305.824L167.89 297.171L109.592 388.89L109.583 388.903C92.9711 414.886 77.5055 439.967 65.9548 459.518C60.1757 469.299 55.4033 477.652 51.966 484.018C50.244 487.208 48.8902 489.837 47.9231 491.866C46.9823 493.837 46.6347 494.78 46.568 494.962C46.558 494.989 46.5543 494.998 46.5559 494.992L46.4395 495.449L46.2873 495.877C45.8532 497.091 45.5605 499.539 46.1578 503.651C46.7357 507.632 48.0276 512.227 49.8534 516.651C51.6716 521.054 53.8867 524.966 56.1348 527.712C58.1619 530.187 59.9434 531.391 61.3231 531.644C61.4431 531.529 61.5953 531.375 61.7824 531.172C62.5778 530.31 63.6851 528.922 65.1057 526.961C67.9292 523.064 71.6841 517.337 76.1281 510.162C84.9958 495.849 96.4006 476.117 108.207 454.581C120.111 432.426 131.648 412.459 140.616 397.99C145.094 390.766 148.977 384.841 151.967 380.684C153.453 378.618 154.79 376.889 155.911 375.64C156.466 375.02 157.051 374.426 157.627 373.961C158.072 373.604 159.041 372.87 160.203 372.87C161.54 372.87 162.689 373.873 163.135 374.266C163.797 374.849 164.516 375.615 165.248 376.463C166.726 378.172 168.59 380.593 170.754 383.568C175.099 389.541 180.914 398.101 187.772 408.551C201.5 429.474 219.567 458.213 238.75 489.568L238.762 489.587C260.166 524.835 278.118 552.946 291.189 571.768C297.739 581.199 302.977 588.174 306.769 592.533C308.683 594.735 310.085 596.104 311.02 596.81C311.036 596.821 311.052 596.833 311.067 596.845C311.157 596.737 311.259 596.611 311.371 596.468C311.969 595.702 312.719 594.623 313.616 593.212C315.409 590.395 317.616 586.534 320.106 581.893C325.077 572.627 330.999 560.578 336.696 548.311C342.392 536.043 347.814 523.664 351.792 513.75C353.787 508.78 355.376 504.533 356.451 501.286C356.939 499.81 357.286 498.642 357.512 497.77C357.2 496.819 356.723 495.52 356.061 493.858C354.606 490.2 352.452 485.275 349.733 479.37C344.311 467.593 336.803 452.263 328.515 436.004C315.225 410.555 307.319 394.287 302.824 380.203C298.137 365.515 297.204 353.365 297.204 336.828C297.204 323.813 296.569 315.362 295.318 309.526C294.161 304.131 292.446 300.799 289.756 298.09C284.095 292.812 280.211 289.909 277.494 289.078C276.208 288.686 275.477 288.86 275.07 289.097C274.73 289.296 274.344 289.686 273.889 290.792C272.781 293.476 271.75 299.137 271.115 310.037C270.499 320.606 270.308 334.849 270.308 353.593C270.308 373.188 269.8 391.085 269.026 404.171C268.642 410.676 268.18 416.194 267.652 420.196C267.396 422.141 267.078 424.087 266.656 425.693C266.453 426.465 266.122 427.57 265.592 428.592C265.095 429.55 263.918 431.375 262.071 431.375C257.987 431.375 254.103 427.278 250.953 422.567C247.655 417.634 244.451 410.958 241.657 403.626C236.155 389.183 231.645 370.582 231.645 355.358C231.645 347.812 231.319 342.794 230.456 338.926C229.662 335.362 228.297 332.282 225.554 329.113C222.685 325.798 218.414 322.514 211.941 318.737C205.505 314.984 197.172 310.9 186.327 305.824ZM357.841 498.881C357.84 498.875 357.838 498.868 357.836 498.858C357.85 498.935 357.856 498.945 357.841 498.881Z" stroke="#FFC107"/>
<path d="M140.031 547.712V557.793C140.031 564.507 140.031 567.865 140.916 570.581C142.697 576.052 146.987 580.342 152.458 582.123C155.174 583.008 158.532 583.008 165.246 583.008C171.961 583.008 175.318 583.008 178.034 582.123C183.505 580.342 187.795 576.052 189.576 570.581C190.461 567.865 190.461 564.507 190.461 557.793V547.712V537.633C190.461 530.919 190.461 527.561 189.576 524.845C187.795 519.374 183.505 515.084 178.034 513.303C175.318 512.418 171.961 512.418 165.246 512.418C158.532 512.418 155.174 512.418 152.458 513.303C146.987 515.084 142.697 519.374 140.916 524.845C140.031 527.561 140.031 530.919 140.031 537.633V547.712Z" fill="#FFC107"/>
<path d="M273.525 306.01C271.976 306.306 272.593 312.868 272.593 314.811C272.593 318.225 272.282 321.317 272.282 324.679C272.282 327.969 271.351 331.235 271.351 334.548C271.351 337.748 271.351 340.949 271.351 344.15C271.351 346.847 271.972 349.613 271.972 352.417C271.972 355.444 272.282 358.427 272.282 361.218C272.282 367.742 271.972 373.703 271.972 380.154" stroke="#FFC107" stroke-linecap="square"/>
<path d="M309.32 592.99C308.541 592.723 307.794 590.576 307.352 589.601C306.793 588.365 306.262 586.734 305.51 585.825C304.626 584.757 303.965 582.996 303.229 581.661C302.924 581.107 302.537 580.686 302.277 580.112C302.098 579.718 301.754 579.141 301.513 578.853C301.137 578.407 300.898 577.842 300.585 577.304C300.281 576.781 299.838 576.324 299.62 575.668C299.506 575.324 299.069 574.809 298.887 574.495C298.537 573.894 298.017 573.521 297.614 573.042C297.227 572.582 296.993 572.022 296.575 571.644C296.225 571.327 295.654 570.588 295.44 570.041C295.248 569.544 294.632 568.981 294.325 568.685C293.828 568.204 293.459 567.401 292.99 566.845C291.111 564.61 289.35 561.696 287.689 558.948C287.328 558.348 286.868 557.435 286.423 557.01C286.071 556.675 285.844 555.901 285.465 555.612C285.052 555.297 284.65 554.26 284.281 553.762C283.763 553.064 283.334 552.192 282.789 551.545C282.334 551.004 281.885 550.397 281.486 549.758C281.028 549.029 280.461 548.575 279.988 547.865C279.14 546.59 278.173 545.521 277.263 544.379C276.511 543.437 275.811 542.208 275.082 541.184C274.634 540.555 274.132 539.892 273.741 539.161C273.459 538.632 272.848 537.643 272.463 537.364C272.135 537.125 271.693 536.127 271.422 535.664C271.098 535.107 270.752 534.634 270.464 534.028C269.813 532.663 268.987 531.482 268.264 530.24C266.985 528.043 265.753 525.776 264.429 523.742C262.991 521.532 261.29 519.814 259.917 517.458C259.332 516.454 258.657 515.681 258.057 514.65C257.368 513.468 256.678 512.415 255.97 511.26C255.216 510.03 254.445 508.856 253.708 507.592C253.387 507.041 252.992 506.433 252.636 505.934C252.33 505.504 251.989 504.778 251.684 504.44C251.079 503.766 250.384 502.454 249.942 501.48C249.694 500.934 249.335 500.447 249.034 499.931C248.767 499.473 248.16 498.895 247.987 498.392C247.59 497.233 246.76 496.413 246.214 495.477C245.703 494.599 245.173 493.773 244.666 492.905C244.406 492.459 244.077 492.108 243.813 491.656C243.66 491.393 243.201 490.892 243.112 490.623C242.93 490.076 242.16 488.849 241.871 488.6" stroke="#FFC107" stroke-linecap="square"/>
<path d="M310.11 587.594C312.873 587.594 313.99 580.975 316.112 578.141C316.961 577.007 317.8 575.573 318.34 573.999C318.686 572.988 319.529 572.253 319.815 571.148C320.359 569.047 321.467 565.327 322.497 563.911C323.145 563.022 323.388 561.503 324.029 560.647C324.618 559.862 325.262 558.918 325.633 557.771C326.381 555.459 327.959 554.169 328.698 551.633C329.935 547.383 332.127 543.054 334.175 539.888C335.876 537.259 338.272 534.047 339.226 530.361C339.811 528.102 340.917 526.013 341.284 523.808C341.44 522.871 342.469 522.435 342.547 521.371C342.598 520.672 343.357 519.568 343.568 518.934C344.984 514.681 346.776 510.758 348.62 507.239C349.506 505.549 350.574 503.581 351.174 501.636C351.724 499.849 352.752 498.603 353.274 496.81" stroke="#FFC107" stroke-linecap="square"/>
<path d="M314.196 588.911C315.23 587.332 316.519 586.252 317.573 584.622C318.513 583.169 319.988 582.615 320.582 580.578" stroke="#FFC107" stroke-linecap="square"/>
<path d="M318.539 580.578C318.63 579.008 320.204 574.898 320.951 574.097C321.501 573.506 322.334 571.851 322.682 570.929C322.934 570.259 323.262 569.903 323.647 569.516C323.996 569.162 323.955 568.197 324.299 567.859C325.369 566.809 326.341 564.442 326.91 562.596C327.398 561.012 327.895 558.761 328.613 557.528C330.299 554.632 331.593 550.949 333.295 548.026C335.006 545.09 336.127 541.26 337.637 538.377C338.623 536.497 339.085 533.832 340.049 531.994C340.676 530.798 341.805 528.791 342.051 527.315C342.146 526.746 342.854 525.687 343.058 525.074C343.381 524.103 343.791 523.314 344.136 522.248C344.349 521.591 345.01 519.647 345.356 519.275C345.782 518.819 345.877 517.499 346.251 516.984C346.46 516.697 347.063 515.09 347.131 514.573C347.252 513.625 347.919 512.738 348.279 511.942C349.06 510.218 349.771 507.894 350.663 506.362C351.471 504.975 352.471 502.599 353.019 500.954C353.491 499.532 353.718 496.649 354.551 495.934" stroke="#FFC107" stroke-linecap="square"/>
<path d="M351.783 491.382C351.783 490.128 351.58 488.373 351.114 487.346C350.621 486.255 350.368 484.671 349.86 483.703C348.964 481.992 348.701 479.719 347.833 478.14C347.567 477.656 347.636 476.869 347.352 476.382C347.118 475.979 346.876 475.566 346.705 475.054C346.315 473.881 345.913 472.695 345.388 471.68C344.725 470.4 343.977 467.885 343.13 467.159" stroke="#FFC107" stroke-linecap="square"/>
<path d="M342.755 474.588C342.065 474.35 341.86 472.844 341.333 472.326C340.922 471.923 340.333 470.752 339.974 470.137C339.265 468.918 338.438 467.616 337.592 466.691C337.141 466.199 336.436 465.55 336.171 464.753C335.926 464.018 335.516 463.392 335.272 462.637C335.023 461.867 334.976 460.652 334.666 460.052C334.013 458.79 333.95 456.308 333.454 454.723C332.965 453.165 332.399 450.991 331.656 449.717C330.866 448.359 330.023 446.989 329.388 445.356C328.73 443.66 327.811 441.498 326.953 440.026C326.462 439.182 326.137 438.202 325.72 437.281C325.271 436.288 324.53 435.473 324.32 434.212C323.948 431.975 322.616 430.052 322.062 427.914C321.63 426.245 320.724 424.307 319.993 422.908C319.361 421.695 318.569 419.902 318.112 418.528C317.516 416.739 316.487 415.033 315.667 413.541C315.208 412.706 314.871 411.672 314.444 410.777C314.065 409.98 313.499 409.026 313.222 408.193C312.564 406.217 311.288 404.587 310.818 402.486C310.455 400.866 309.5 399.53 308.853 398.27C308.39 397.369 308.041 396.181 307.578 395.309C306.854 393.941 305.976 392.209 305.51 390.607" stroke="#FFC107" stroke-linecap="square"/>
<path d="M274.577 386.632C273.411 386.632 271.763 389.55 271.763 391.465C271.763 393.791 272.413 395.884 272.413 398.154C272.413 403.469 270.464 408.245 270.464 413.58C270.464 416.054 269.47 418.261 269.382 420.826C269.349 421.798 268.822 423.228 268.72 424.358C268.604 425.651 268.083 427.205 268.083 428.445C268.083 430.714 267.082 434.027 266.52 436.065C266.12 437.516 265.612 438.81 265.221 440.153C264.944 441.105 264.188 441.18 264.188 442.382" stroke="#FFC107" stroke-linecap="square"/>
<path d="M300.767 391.465C300.767 385.683 299.252 380.567 299.252 374.739C299.252 373.44 298.82 372.471 298.82 371.209C298.82 370.49 298.588 367.732 298.278 367.306C297.74 366.566 297.835 364.813 297.413 363.941C297.057 363.209 296.655 360.994 296.655 360.059C296.655 358.767 296.036 357.437 296.006 356.073C295.977 354.782 295.613 353.243 295.573 352.068C295.479 349.33 295.14 347.094 295.14 344.18C295.14 341.2 294.923 338.219 294.923 335.157C294.923 332.325 295.573 329.802 295.573 326.981C295.573 325.644 295.789 324.457 295.789 323.078C295.789 322.163 295.852 320.146 295.525 319.444C295.116 318.566 295.122 317.523 294.816 316.574C294.592 315.883 294.057 313.988 294.057 313.229C294.057 308.871 290.676 305.614 288.863 303.668C287.678 302.396 286.926 299.96 285.52 299.27C284.97 299.001 284.424 297.804 283.776 297.804C283.186 297.804 282.575 296.689 281.828 296.689C280.439 296.689 278.894 295.947 277.391 295.947C276.065 295.947 274.36 298.021 274.36 300.406" stroke="#FFC107" stroke-linecap="square"/>
<path d="M241.88 485.101C239.582 483.244 237.088 481.541 235.084 478.865C234.627 478.253 233.957 477.468 233.458 476.917C232.971 476.379 232.512 475.785 232.039 475.175C231.493 474.471 231.04 473.376 230.461 472.791C229.721 472.044 229.203 470.708 228.462 469.96C227.877 469.367 227.182 468.17 226.686 467.317C226.249 466.567 225.611 465.49 225.322 464.621C225.111 463.985 224.047 461.571 223.609 461.571" stroke="#FFC107" stroke-linecap="square"/>
<path d="M227.463 464.758C226.709 463.461 225.943 462.174 225.243 460.973C224.484 459.668 223.009 458.897 222.467 457.268C222.239 456.582 221.597 455.691 221.215 455.198C220.801 454.667 220.52 453.681 220.176 452.992C219.51 451.66 218.709 449.543 217.829 448.704C216.91 447.828 216.266 446.143 215.331 445.34C214.228 444.394 213.413 442.208 212.333 441.282C211.861 440.878 211.298 439.837 210.961 439.131C210.409 437.972 209.571 437.249 208.939 436.271C208.04 434.883 207.052 433.585 206.163 432.213C204.091 429.01 201.688 426.709 199.549 423.703C198.975 422.895 198.38 422.23 197.852 421.374C197.613 420.986 197.067 420.495 196.774 420.203C196.512 419.943 196.387 419.534 196.132 419.291C195.576 418.76 195.181 417.786 194.633 417.262C193.989 416.647 193.231 415.781 192.706 414.879C192.216 414.038 191.566 413.358 191.144 412.429C190.849 411.777 190.276 411.298 190.034 410.59C189.442 408.861 188.071 408.101 187.528 406.424C187.289 405.686 186.686 405.315 186.497 404.585C186.346 404.001 185.771 403.22 185.466 402.801C184.529 401.514 183.451 399.705 182.358 398.58" stroke="#FFC107" stroke-linecap="square"/>
<g filter="url(#filter1_d_4_406)">
<g filter="url(#filter2_d_4_406)">
<path d="M504.829 484.474C506.034 481.095 506.635 477.83 506.635 474.68C506.635 471.529 506.516 469.084 506.278 467.341C506.027 465.582 505.626 464.033 505.074 462.696C503.869 459.757 502.063 458.287 499.655 458.287C496.681 458.287 493.991 459.81 491.583 462.854C489.011 466.003 487.725 470.06 487.725 475.024C487.725 478.173 488.509 480.962 490.078 483.391C491.645 485.802 493.634 488.134 496.042 490.387C498.451 492.638 501.016 494.891 503.737 497.144C506.472 499.397 509.044 501.879 511.452 504.588C516.984 510.782 519.75 518.042 519.75 526.366C519.75 531.998 518.691 537.207 516.57 541.994C514.438 546.78 511.609 550.925 508.084 554.426C500.369 562.081 491.413 565.91 481.214 565.91C472.948 565.91 466.689 564.026 462.436 560.26C458.184 556.476 456.058 551.716 456.058 545.979C456.058 535.72 458.905 529.296 464.6 526.71C466.206 525.917 468.231 525.521 470.678 525.521C473.136 525.521 475.771 526.261 478.58 527.738C477.289 532.349 476.642 536.74 476.642 540.912C476.642 549.922 478.932 554.426 483.511 554.426C486.484 554.426 489.192 552.904 491.639 549.86C494.085 546.816 495.308 543.578 495.308 540.145C495.308 536.714 494.524 533.757 492.956 531.276C491.4 528.794 489.456 526.569 487.123 524.598C484.79 522.627 482.281 520.682 479.597 518.764C476.912 516.864 474.403 514.557 472.07 511.847C466.613 505.652 463.885 497.602 463.885 487.694C463.885 481.27 465.008 475.552 467.253 470.535C469.499 465.52 472.428 461.324 476.04 457.944C483.265 451.08 491.313 447.649 500.181 447.649C509.063 447.649 515.648 449.505 519.939 453.218C524.229 456.933 526.374 461.948 526.374 468.265C526.374 473.774 524.85 478.279 521.801 481.781C519.154 484.703 516.225 486.163 513.014 486.163C509.803 486.163 507.074 485.599 504.829 484.474ZM580.338 536.502C581.856 539.213 582.614 542.768 582.614 547.167C582.614 553.238 581.009 557.885 577.798 561.105C574.587 564.308 570.453 565.91 565.398 565.91C562.513 565.91 558.863 565.461 554.447 564.563C545.766 562.645 540.103 561.686 537.456 561.686C534.81 561.686 532.966 561.773 531.924 561.95C530.883 562.109 529.516 562.301 527.823 562.53L542.63 451.027H594.544C594.544 457.891 593.359 463.126 590.988 466.734C588.617 470.342 585.105 472.146 580.451 472.146C575.797 472.146 571.1 470.623 566.358 467.579L562.632 497.144H584.063C584.063 503.11 583.023 507.756 580.94 511.082C578.846 514.408 576.054 516.071 572.567 516.071C569.067 516.071 566.238 515.508 564.081 514.382C561.911 513.255 560.707 512.525 560.468 512.191L556.122 544.106C558.053 544.457 560.825 544.634 564.439 544.634C570.623 544.634 575.922 541.923 580.338 536.502ZM646.571 565.91C636.284 565.91 630.665 555.658 629.712 535.156H608.995C607.39 540.348 606.022 545.196 604.893 549.702L601.769 562.53H584.911L622.844 451.027H648.735L653.796 533.124C654.599 544.95 656.606 552.614 659.817 556.115C657.484 562.645 653.069 565.91 646.571 565.91ZM619.344 501.368L612.721 522.83H629.335L627.905 479.406V474.838L619.344 501.368ZM691.485 562.53H665.707L680.402 451.529C688.356 450.298 698.127 449.682 709.718 449.682C721.321 449.682 729.813 452.049 735.195 456.783C740.576 461.499 743.267 468.617 743.267 478.138C743.267 487.659 741.517 495.402 738.017 501.368C734.53 507.334 729.776 511.276 723.755 513.194C725.122 522.539 727.367 530.985 730.49 538.535C733.388 545.628 736.524 550.3 739.899 552.552C738.695 557.286 736.863 560.7 734.405 562.795C731.958 564.871 728.992 565.91 725.505 565.91C722.005 565.91 718.893 564.475 716.172 561.607C713.437 558.738 710.985 554.655 708.815 549.358C704.249 537.866 701.721 523.058 701.232 504.931H702.078C708.024 504.703 712.478 502.415 715.438 498.068C718.411 493.739 719.897 487.016 719.897 477.901C719.897 466.514 716.485 460.601 709.661 460.161H707.008C706.293 460.161 705.735 460.214 705.334 460.319L691.485 562.53ZM811.664 527.554C813.746 529.701 814.787 533.054 814.787 537.612C814.787 542.169 814.085 546.059 812.679 549.279C811.275 552.481 809.211 555.324 806.489 557.806C800.631 563.103 792.584 565.751 782.348 565.751C772.112 565.751 764.203 562.002 758.621 554.505C753.038 547.009 750.248 536.617 750.248 523.33C750.248 504.517 753.741 487.967 760.728 473.677C766.022 463.083 773.404 455.533 782.875 451.027C787.78 448.776 792.64 447.649 797.457 447.649C802.274 447.649 806.17 448.098 809.142 448.996C812.103 449.892 814.711 451.247 816.97 453.06C821.862 457.002 824.308 462.123 824.308 468.423C824.308 474.178 822.383 479.194 818.532 483.47C814.994 487.29 811.782 489.199 808.898 489.199C806 489.199 803.949 488.917 802.745 488.354C803.071 484.306 803.234 480.962 803.234 478.323C803.234 475.665 803.196 473.378 803.121 471.46C803.033 469.558 802.788 467.702 802.387 465.89C801.585 461.719 799.96 459.633 797.514 459.633C795.067 459.633 792.622 461.244 790.176 464.464C787.716 467.667 785.446 471.969 783.364 477.373C778.622 489.656 776.251 503.066 776.251 517.602C776.251 524.572 777.657 530.062 780.466 534.074C783.276 538.069 787.692 540.066 793.713 540.066C798.216 540.066 802.594 537.981 806.846 533.811C808.69 532.015 810.296 529.929 811.664 527.554ZM869.708 549.86C869.708 541.976 870.834 530.149 873.078 514.382H855.26L848.637 562.53H823.461L838.759 451.027H864.16L857.179 500.866H874.994L881.626 451.027H907.042C905.916 459.37 904.63 468.213 903.185 477.557L899.083 505.09C896.032 526.489 894.511 541.861 894.511 551.207C894.511 555.042 894.956 558.026 895.847 560.155C891.829 563.992 887.476 565.91 882.769 565.91C878.079 565.91 874.725 564.334 872.725 561.184C870.716 558.034 869.708 554.259 869.708 549.86Z" fill="#FFC107"/>
</g>
</g>
</g>
<path d="M297.907 422.292C297.65 421.901 297.286 421.427 296.922 421.393C296.844 421.386 296.733 421.293 296.659 421.237C296.58 421.177 296.459 421.155 296.378 421.115C296.3 421.078 296.156 421.042 296.094 420.955C296.024 420.86 295.821 420.852 295.773 420.747C295.696 420.583 295.483 420.568 295.377 420.466C295.213 420.308 295.021 420.281 294.853 420.144C294.599 419.938 294.312 419.816 294.047 419.651C293.863 419.537 293.681 419.389 293.491 419.317C293.372 419.272 293.181 419.143 293.073 419.033C292.756 418.711 292.343 418.672 292.022 418.359C291.874 418.213 291.609 418.054 291.439 418.022C291.266 417.989 291.105 417.789 290.93 417.743C290.761 417.698 290.588 417.567 290.421 417.487C290.154 417.36 289.851 417.225 289.6 417.022C289.472 416.917 289.284 416.881 289.173 416.729C289.071 416.589 288.86 416.592 288.78 416.419C288.753 416.363 288.672 416.345 288.634 416.333C288.579 416.316 288.507 416.192 288.444 416.155C288.333 416.088 288.207 415.973 288.09 415.945C287.843 415.886 287.606 415.628 287.368 415.605C287.16 415.585 286.938 415.267 286.726 415.267C286.647 415.267 286.469 415.194 286.4 415.127C286.302 415.035 286.188 415.051 286.087 414.975C285.912 414.841 285.746 414.699 285.562 414.594" stroke="white" stroke-width="0.1"/>
<path d="M269.015 413.469C269.05 413.462 269.165 413.082 269.177 412.991C269.193 412.872 269.285 412.76 269.312 412.601C269.335 412.463 269.425 412.355 269.474 412.209C269.514 412.091 269.625 411.927 269.688 411.84C269.749 411.755 269.785 411.538 269.852 411.446C269.919 411.355 269.972 411.266 270.033 411.137C270.162 410.861 270.349 410.671 270.508 410.52C270.695 410.343 270.927 410.278 271.091 410.053C271.204 409.898 271.487 409.592 271.641 409.592C271.743 409.592 271.835 409.423 271.937 409.423C272.018 409.423 272.186 409.384 272.265 409.324C272.36 409.251 272.522 409.321 272.626 409.311C272.724 409.301 272.841 409.255 272.954 409.255" stroke="white" stroke-width="0.1"/>
<path d="M269.179 412.795C269.321 412.795 269.464 412.433 269.565 412.278C269.717 412.043 269.907 411.8 270.033 411.531C270.253 411.059 270.518 410.688 270.835 410.379C271.008 410.209 271.157 410.009 271.33 409.845C271.397 409.78 271.567 409.764 271.609 409.676C271.626 409.638 271.898 409.535 271.937 409.535C272.12 409.535 272.373 409.455 272.546 409.37C272.637 409.325 272.745 409.311 272.84 409.311C272.932 409.311 273.02 409.199 273.119 409.199" stroke="white" stroke-width="0.1"/>
<path d="M269.376 412.852C269.463 412.833 269.536 412.565 269.58 412.47C269.657 412.306 269.753 412.196 269.828 412.052C269.905 411.906 269.99 411.77 270.073 411.627C270.105 411.571 270.132 411.486 270.164 411.419C270.175 411.393 270.258 411.236 270.28 411.224C270.389 411.171 270.485 410.922 270.574 410.803C270.668 410.679 270.848 410.615 270.919 410.463C270.995 410.301 271.122 410.262 271.2 410.128C271.287 409.979 271.488 409.829 271.608 409.76" stroke="white" stroke-width="0.1"/>
<path d="M273.677 409.759C273.677 409.444 272.608 409.535 272.429 409.535C272.204 409.535 271.987 409.591 271.756 409.591C271.644 409.591 271.56 409.613 271.46 409.652C271.39 409.678 271.101 409.807 271.083 409.873" stroke="white" stroke-width="0.1"/>
<path d="M274.334 410.097C274.222 410.086 274.097 409.922 273.991 409.869C273.907 409.829 273.798 409.704 273.71 409.704C273.464 409.704 273.231 409.536 272.971 409.536C272.44 409.536 271.91 409.536 271.378 409.536" stroke="white" stroke-width="0.1"/>
<path d="M294.856 424.248H296.3" stroke="#FFC107" stroke-width="0.1"/>
<path d="M290.969 423.677H295.745" stroke="#FFC107" stroke-width="0.1"/>
<path d="M283.857 416.457H285.698" stroke="#FFC107" stroke-width="0.1"/>
<path d="M284.905 415.773C284.767 415.773 284.605 415.657 284.478 415.561C284.407 415.506 284.323 415.536 284.249 415.48C284.178 415.427 284.055 415.391 283.979 415.381C283.779 415.353 283.462 415.218 283.289 415.043C283.179 414.93 283.031 414.939 282.91 414.861C282.814 414.801 282.712 414.706 282.607 414.706" stroke="#FFC107" stroke-width="0.1"/>
<path d="M285.956 416.785C285.688 416.619 285.427 416.365 285.168 416.168C284.989 416.03 284.804 415.914 284.628 415.773C284.543 415.704 284.403 415.558 284.314 415.549C284.162 415.533 284.003 415.296 283.855 415.211C283.624 415.08 283.386 415.04 283.158 414.917C282.812 414.733 282.447 414.65 282.082 414.65" stroke="#FFC107" stroke-width="0.1"/>
<path d="M288.155 418.022C287.959 417.793 287.774 417.625 287.55 417.487C287.317 417.343 287.024 417.208 286.81 417.006C286.573 416.785 286.266 416.615 286.005 416.48C285.755 416.349 285.524 416.148 285.285 415.968C285.012 415.762 284.731 415.644 284.453 415.467C284.253 415.34 284.023 415.188 283.814 415.112C283.256 414.907 282.73 414.65 282.147 414.65" stroke="#FFC107" stroke-width="0.1"/>
<path d="M296.954 423.585C296.916 423.286 296.477 423.135 296.345 422.991C296.106 422.731 295.831 422.692 295.575 422.518" stroke="#FFC107" stroke-width="0.1"/>
<path d="M298.136 424.597C297.979 424.569 297.742 424.322 297.604 424.191C297.445 424.04 297.263 423.991 297.102 423.838C296.853 423.601 296.589 423.349 296.317 423.198C296.111 423.083 295.823 422.911 295.609 422.911" stroke="#FFC107" stroke-width="0.1"/>
<path d="M298.103 424.372C297.877 424.077 297.633 423.849 297.365 423.669C297.123 423.508 296.913 423.253 296.659 423.135C296.502 423.063 296.362 422.911 296.2 422.911" stroke="#FFC107" stroke-width="0.1"/>
<path d="M281.491 413.975C281.381 413.975 281.254 413.856 281.148 413.804C281.035 413.749 280.903 413.692 280.787 413.636C280.558 413.523 280.287 413.357 280.032 413.357C279.765 413.357 279.502 413.132 279.225 413.132C278.953 413.132 278.669 412.908 278.405 412.908C278.253 412.908 278.115 412.739 277.959 412.739C277.784 412.739 277.628 412.548 277.454 412.511C277.246 412.466 277.016 412.298 276.812 412.206C276.614 412.116 276.415 412.079 276.221 412.006C275.845 411.862 275.46 411.83 275.081 411.715C274.745 411.613 274.379 411.502 274.038 411.502C273.893 411.502 273.747 411.558 273.611 411.558" stroke="#FFC107" stroke-width="0.1"/>
<path d="M281.786 414.2C281.756 414.031 281.567 413.972 281.491 413.863C281.412 413.749 281.298 413.748 281.212 413.666C281.14 413.598 281.014 413.526 280.933 413.526C280.827 413.526 280.752 413.387 280.654 413.361C280.35 413.28 280.053 413.135 279.749 413.049C279.323 412.926 278.892 412.834 278.472 412.654C278.291 412.577 278.083 412.536 277.898 412.511C277.712 412.486 277.53 412.355 277.339 412.345C276.911 412.325 276.464 412.06 276.04 411.939C275.602 411.814 275.138 411.529 274.695 411.502C274.397 411.483 274.112 411.39 273.811 411.39C273.657 411.39 273.503 411.39 273.348 411.39" stroke="#FFC107" stroke-width="0.1"/>
<path d="M274.334 411.503C274.319 411.289 273.907 411.334 273.808 411.334" stroke="#FFC107" stroke-width="0.1"/>
<path d="M274.53 411.502C274.385 411.277 274.029 411.165 273.842 411.165C273.579 411.165 273.32 411.109 273.053 411.109" stroke="#FFC107" stroke-width="0.1"/>
<path d="M311.221 454.555C311.221 450.128 305.401 444.592 303.637 441.574C302.166 439.056 297.567 434.184 297.317 430.755C296.97 426.008 291.469 422.339 289.1 422.101C285.996 421.788 282.41 421.019 278.987 421.019" stroke="#FFC107" stroke-width="3" stroke-linecap="round"/>
</g>
<path d="M298.494 422.461C297.58 422.117 296.573 421.594 295.869 420.89C295.548 420.569 295.198 420.281 294.823 420.021C294.429 419.749 294.15 419.355 293.766 419.076C293.121 418.608 292.542 418.11 291.846 417.718C291.431 417.485 290.964 417.347 290.576 417.077C290.019 416.69 289.338 416.51 288.757 416.165C288.402 415.955 288.071 415.711 287.709 415.509C287.357 415.314 286.974 415.192 286.627 414.992C286.328 414.821 286.015 414.67 285.694 414.544C285.473 414.457 285.266 414.349 285.031 414.301C284.951 414.284 284.893 414.275 284.858 414.207" stroke="#FFC107" stroke-width="3" stroke-linecap="round"/>
<path d="M275.373 409.692C275.132 409.632 274.852 409.373 274.633 409.246C274.385 409.103 274.084 408.999 273.8 408.965C273.342 408.911 272.99 408.81 272.545 408.983C272.239 409.102 271.674 409.054 271.486 409.373C271.354 409.599 271.122 409.753 271.03 410.001C270.94 410.245 270.673 410.425 270.628 410.675C270.585 410.909 270.434 411.218 270.291 411.402C270.019 411.751 269.764 412.358 269.764 412.793" stroke="#FFC107" stroke-width="3" stroke-linecap="round"/>
<path d="M61.2967 531.266C61.2967 531.282 61.271 531.322 61.2578 531.334C61.2436 531.347 61.2305 531.367 61.2224 531.385C61.2147 531.402 61.2078 531.42 61.1999 531.438C61.1955 531.447 61.1845 531.467 61.1834 531.477C61.1817 531.491 61.1675 531.504 61.1636 531.517C61.1621 531.523 61.1539 531.528 61.1523 531.533C61.1504 531.54 61.1499 531.546 61.1463 531.553C61.1326 531.577 61.1244 531.608 61.1168 531.635C61.1097 531.659 61.0936 531.694 61.1139 531.714C61.1231 531.723 61.14 531.722 61.1482 531.732C61.1557 531.742 61.179 531.736 61.1892 531.744C61.1985 531.752 61.2196 531.756 61.2255 531.766C61.2299 531.773 61.246 531.788 61.2537 531.789C61.2774 531.792 61.2872 531.828 61.3045 531.84" stroke="#FFC107" stroke-linecap="round"/>
<path d="M61.0702 531.777C61.068 531.801 61.067 531.814 61.0789 531.836C61.0859 531.849 61.0984 531.858 61.1084 531.868C61.1252 531.885 61.1476 531.902 61.1737 531.902C61.2111 531.902 61.1832 531.947 61.205 531.965C61.2133 531.971 61.2187 531.988 61.2187 531.998C61.2187 532.021 61.2191 532.023 61.1952 532.023" stroke="#FFC107" stroke-linecap="round"/>
<path d="M431.626 289.61C452.24 289.61 462.548 299.64 462.548 319.699C462.548 330.719 459.977 339.54 454.835 346.162C449.786 352.767 442.845 356.07 434.009 356.07C429.896 356.07 426.238 354.443 423.036 351.189C421.517 349.804 420.255 348.184 419.249 346.331C425.397 346.331 430.088 343.746 433.326 338.574C436.563 333.418 438.181 325.797 438.181 315.711C438.181 305.609 434.565 300.558 427.331 300.558H424.298C423.796 300.558 423.334 300.614 422.913 300.727L408.398 405.663H381L396.531 291.689C405.53 290.528 412.64 289.892 417.865 289.779C423.077 289.666 427.663 289.61 431.626 289.61ZM489.052 405.663H462.04L477.431 291.35C485.763 290.061 496.006 289.417 508.16 289.417C520.326 289.417 529.225 291.857 534.858 296.74C540.503 301.605 543.325 308.944 543.325 318.756C543.325 328.552 541.49 336.528 537.821 342.682C534.163 348.821 529.179 352.881 522.867 354.862C524.305 364.481 526.66 373.181 529.932 380.963C532.971 388.263 536.255 393.072 539.784 395.391C538.522 400.274 536.605 403.786 534.034 405.929C531.475 408.071 528.366 409.143 524.708 409.143C521.038 409.143 517.778 407.661 514.926 404.696C512.064 401.747 509.493 397.542 507.214 392.081C502.422 380.255 499.776 365.004 499.273 346.331H500.149C506.378 346.089 511.047 343.737 514.156 339.274C517.275 334.812 518.835 327.883 518.835 318.49C518.835 306.777 515.26 300.687 508.107 300.22H505.32C504.572 300.22 503.988 300.276 503.567 300.388L489.052 405.663ZM551.021 363.2C551.021 341.273 555.14 323.412 563.378 309.621C572.132 294.654 584.122 287.168 599.35 287.168C610.381 287.168 618.673 290.85 624.224 298.214C629.775 305.577 632.551 317.032 632.551 332.58C632.551 356.249 628.175 374.986 619.421 388.794C610.761 402.36 599.151 409.143 584.59 409.143C573.231 409.143 564.793 405.227 559.277 397.398C553.772 389.568 551.021 378.168 551.021 363.2ZM584.204 327.191C580.418 348.072 578.524 366.745 578.524 383.212C578.524 387.158 579.009 390.405 579.979 392.951C580.949 395.512 582.72 396.794 585.291 396.794C587.85 396.794 589.93 395.948 591.532 394.256C593.133 392.58 594.564 389.825 595.827 385.99C597.848 379.739 599.805 369.968 601.698 356.675C603.592 343.399 604.621 334.006 604.784 328.496C604.948 322.986 605.029 318.144 605.029 313.97C605.029 309.782 604.568 306.358 603.645 303.7C602.721 301.025 601.021 299.687 598.543 299.687C596.054 299.687 593.968 300.735 592.286 302.829C589.177 306.777 586.483 314.897 584.204 327.191ZM688.085 289.61C708.7 289.61 719.007 299.64 719.007 319.699C719.007 330.719 716.442 339.54 711.311 346.162C706.263 352.767 699.322 356.07 690.487 356.07C686.361 356.07 682.698 354.443 679.495 351.189C677.988 349.804 676.726 348.184 675.709 346.331C681.856 346.331 686.548 343.746 689.786 338.574C693.022 333.418 694.641 325.797 694.641 315.711C694.641 305.609 691.024 300.558 683.79 300.558H680.758C680.255 300.558 679.794 300.614 679.373 300.727L664.858 405.663H637.476L652.99 291.689C662 290.528 669.112 289.892 674.324 289.779C679.548 289.666 684.135 289.61 688.085 289.61ZM773.525 378.861C775.126 381.648 775.926 385.305 775.926 389.834C775.926 396.1 774.244 400.885 770.878 404.188C767.512 407.492 763.182 409.143 757.888 409.143C754.85 409.143 751.017 408.676 746.389 407.742C737.308 405.775 731.378 404.793 728.596 404.793C725.826 404.793 723.892 404.882 722.794 405.059C721.695 405.236 720.264 405.437 718.499 405.663L734.03 290.818H788.425C788.425 297.892 787.186 303.288 784.709 307.01C782.219 310.716 778.539 312.569 773.665 312.569C768.78 312.569 763.854 311.007 758.888 307.88L754.979 338.332H777.452C777.452 344.471 776.353 349.256 774.156 352.687C771.97 356.103 769.049 357.811 765.391 357.811C761.733 357.811 758.765 357.231 756.486 356.07C754.219 354.911 752.956 354.154 752.699 353.799L748.16 386.692C750.181 387.046 753.085 387.223 756.871 387.223C763.346 387.223 768.897 384.436 773.525 378.861ZM813.423 405.663H786.409L801.8 291.35C810.133 290.061 820.376 289.417 832.53 289.417C844.696 289.417 853.595 291.857 859.227 296.74C864.875 301.605 867.691 308.944 867.691 318.756C867.691 328.552 865.859 336.528 862.194 342.682C858.529 348.821 853.548 352.881 847.237 354.862C848.675 364.481 851.03 373.181 854.302 380.963C857.344 388.263 860.622 393.072 864.152 395.391C862.892 400.274 860.975 403.786 858.403 405.929C855.848 408.071 852.736 409.143 849.078 409.143C845.408 409.143 842.147 407.661 839.296 404.696C836.433 401.747 833.862 397.542 831.583 392.081C826.791 380.255 824.145 365.004 823.642 346.331H824.519C830.748 346.089 835.417 343.737 838.525 339.274C841.646 334.812 843.206 327.883 843.206 318.49C843.206 306.777 839.629 300.687 832.477 300.22H829.69C828.942 300.22 828.357 300.276 827.937 300.388L813.423 405.663ZM883.593 320.932C880.727 317.902 879.298 313.173 879.298 306.745C879.298 300.3 880.836 295.394 883.912 292.027C886.98 288.676 891.166 287 896.461 287C899.823 287 905.505 287.806 913.498 289.417L922.088 291.156C924.954 291.624 927.87 291.857 930.854 291.857C933.846 291.857 936.351 290.988 938.377 289.247C941.402 292.969 942.915 297.496 942.915 302.829C942.915 308.162 941.192 312.746 937.746 316.581C934.199 320.641 930.156 322.671 925.609 322.671C923.424 322.671 920.566 322.261 917.036 321.438C912.918 339.306 910.85 354.443 910.85 366.85C910.85 379.271 913.128 388.729 917.675 395.223C915.565 400.442 912.96 404.068 909.833 406.098C906.723 408.127 902.832 409.143 898.159 409.143C893.494 409.143 889.712 407.371 886.804 403.826C883.904 400.297 882.458 394.876 882.458 387.561C882.458 379.103 884.139 367.913 887.501 353.993C890.872 340.185 895.074 328.004 900.126 317.452C897.68 317.096 895.2 316.919 892.67 316.919C887.459 316.919 884.434 318.257 883.593 320.932ZM950.858 405.663L958.179 354.499C955.741 323.067 950.228 303.982 941.654 297.247C943.419 294.233 945.731 291.89 948.597 290.214C951.455 288.522 954.615 287.676 958.061 287.676C961.507 287.676 964.533 288.522 967.138 290.214C969.744 291.89 971.887 294.524 973.577 298.116C976.779 304.964 978.376 316.565 978.376 332.918V345.462C983.427 325.048 988.47 310.427 993.521 301.596C998.657 292.559 1004.41 288.039 1010.81 288.039C1013.33 288.039 1015.43 288.934 1017.11 290.722C1018.8 292.526 1020.06 294.766 1020.9 297.44C1014.43 301.372 1008.08 309.024 1001.85 320.399C995.623 331.775 990.487 345.404 986.461 361.291L979.006 405.663H950.858Z" fill="black"/>
<path d="M232.555 369.414C232.555 371.156 233.532 372.694 233.532 374.408C233.532 374.842 233.64 375.242 233.64 375.687C233.64 376.088 233.838 376.42 233.857 376.797C233.891 377.431 233.957 378.577 234.376 379.101C234.563 379.334 234.542 379.898 234.642 380.186C234.726 380.43 234.816 380.69 234.919 380.922C234.994 381.091 234.892 381.296 234.967 381.465C235.184 381.954 235.174 382.527 235.293 383.045C235.462 383.786 235.65 384.523 235.836 385.265C236.539 388.078 237.661 390.738 238.658 393.431C239.084 394.58 239.518 395.764 239.985 396.905C240.273 397.609 240.51 398.368 240.806 399.052C241.024 399.558 241.073 400.523 241.433 400.922C241.751 401.276 241.681 402.079 241.891 402.526C242.106 402.982 242.234 403.546 242.41 404.022C242.817 405.121 243.158 406.238 243.628 407.327C243.93 408.026 244.324 408.624 244.605 409.342C244.876 410.034 245.032 410.755 245.281 411.453C245.501 412.07 245.819 412.652 246.041 413.25C246.257 413.833 246.56 414.497 246.861 415.036C247.546 416.263 247.98 417.625 248.731 418.835C249.168 419.54 249.913 421.525 251.011 421.525" stroke="#FFC107" stroke-linecap="round"/>
<path d="M228.104 374.625C228.351 374.625 228.688 375.623 228.809 375.874C229.168 376.619 229.708 377.274 230.106 377.997C230.697 379.071 231.188 380.332 231.602 381.489C232.008 382.626 232.587 383.771 232.88 384.945C233.144 386 233.926 386.945 234.183 387.973C234.397 388.827 234.904 389.618 235.136 390.476C235.278 391.002 235.456 391.604 235.661 392.104C235.835 392.529 236.015 393.21 236.294 393.57C236.539 393.885 236.719 394.468 236.813 394.843C236.963 395.444 237.328 395.989 237.524 396.58C237.833 397.506 238.287 398.339 238.61 399.245C239.045 400.462 239.887 401.488 240.365 402.683C240.87 403.946 241.59 405.29 242.325 406.435C242.91 407.344 243.366 408.248 243.743 409.251C244.09 410.176 244.531 411.136 244.816 412.086C245.12 413.098 245.671 414.052 246.125 415.011C246.573 415.956 247.013 416.896 247.482 417.834C247.954 418.778 248.571 419.628 249.056 420.548C249.293 420.996 249.907 422.059 250.359 422.285" stroke="#FFC107" stroke-width="4" stroke-linecap="round"/>
<path d="M230.177 351.179C230.705 353.392 230.571 355.57 230.969 357.762C231.178 358.91 231.406 359.982 231.406 361.15C231.406 363.979 232.052 367.038 232.403 369.85C232.593 371.364 232.881 372.932 232.881 374.479C232.881 375.717 232.624 377.463 233.25 378.59C233.753 379.495 233.374 380.928 233.81 381.909C234.078 382.511 234.356 383.824 234.356 384.491C234.356 385.399 234.848 386.275 234.848 387.195C234.848 387.803 235.384 389.413 235.64 390.022C236.739 392.63 237.433 395.301 238.727 397.889C241.275 402.985 244.119 407.895 247.14 412.694C248.783 415.303 250.064 418.09 251.674 420.724C252.142 421.49 252.76 422.197 253.095 423.019C253.423 423.824 254.848 425.726 255.608 426.16C256.605 426.73 256.877 428.42 257.957 429.056C258.832 429.57 259.395 430.633 260.183 431.323C261.155 432.173 262.252 433.048 263.311 433.781C264.29 434.459 264.626 434.003 263.734 433.29C262.788 432.532 262.631 430.656 261.767 430.08C260.95 429.535 260.374 427.922 259.678 427.144C259.29 426.71 258.887 426.159 258.572 425.669C258.363 425.344 257.564 425.094 257.479 424.794C256.895 422.751 253.741 421.073 252.439 419.4C251.086 417.659 249.915 415.716 248.492 413.978C247.075 412.246 246.862 409.636 245.528 407.968C245.058 407.38 244.645 405.885 244.313 405.155C243.865 404.17 243.207 403.298 242.77 402.314C241.727 399.968 240.917 397.478 239.71 395.185C239.045 393.92 238.065 392.015 237.812 390.623C237.588 389.394 236.966 387.622 236.323 386.526C235.669 385.41 235.188 383.028 235.094 381.718C234.966 379.928 234.403 377.892 233.988 376.146C232.963 371.842 231.799 367.78 230.314 363.594C229.851 362.291 229.262 360.935 228.948 359.593C228.825 359.068 228.702 358.536 228.702 357.995C228.702 357.279 229.144 359.356 229.385 360.03C230.854 364.128 232.513 368.138 233.728 372.335C234.863 376.256 235.671 380.206 237.061 384.067C238.074 386.881 239.194 389.796 239.874 392.713C241.352 399.048 244.207 405.773 248.861 410.427C253.726 415.291 258.617 420.174 262.874 425.614C263.48 426.388 263.98 427.218 264.595 428.004C264.988 428.507 265.378 429.035 265.824 429.493C266.118 429.795 266.753 430.775 266.753 430.353C266.753 428.508 263.98 426.074 262.874 424.876C260.835 422.67 258.505 420.761 257.028 418.102C254.83 414.146 252.9 410.068 250.459 406.247C248.527 403.224 246.742 400.089 244.982 396.96C243.213 393.816 241.36 390.841 240.229 387.386C239.587 385.423 238.492 383.571 238.044 381.554C237.508 379.142 236.751 376.786 236.023 374.425C234.738 370.261 233.443 366.268 232.731 361.996C232.415 360.101 232.085 358.252 231.843 356.342C231.797 355.978 231.217 354.572 231.229 354.73C231.438 357.561 232.464 360.493 233.073 363.253C234.32 368.905 234.854 374.6 235.709 380.311C236.32 384.399 236.634 388.587 238.536 392.33C241.096 397.371 244.908 401.492 248.178 406.056C249.394 407.754 250.273 409.681 251.538 411.342C253.095 413.386 254.697 415.383 256.386 417.324C258.466 419.713 260.964 421.621 263.229 423.811C264.762 425.294 266.959 428.127 269.266 428.127" stroke="#FFC107" stroke-width="4" stroke-linecap="round"/>
<path d="M231.078 347.763C231.843 350.654 232.29 353.636 233.234 356.467C234.156 359.233 235.02 361.996 235.238 364.94C235.383 366.891 236.333 368.755 236.396 370.73C236.459 372.663 237.445 374.517 237.546 376.448C237.58 377.088 237.957 377.715 238.089 378.349C238.199 378.875 238.383 379.571 238.632 380.034C239.236 381.155 239.702 382.461 240.205 383.635C240.76 384.928 241.777 386.087 242.178 387.436C242.351 388.017 242.751 388.554 242.977 389.129C243.185 389.661 243.432 390.329 243.727 390.815C244.62 392.281 245.155 394.023 246.139 395.422C246.82 396.392 247.368 397.449 247.896 398.505C248.371 399.456 248.975 400.645 249.621 401.452C250.371 402.39 250.745 403.918 251.705 404.686C252.394 405.237 252.997 406.631 253.39 407.417C253.701 408.039 254.322 409.717 255.083 409.717" stroke="#FFC107" stroke-width="4" stroke-linecap="round"/>
<path d="M255.394 409.665C255.394 411.186 256.568 412.821 257.489 414.004C258.182 414.895 258.81 416.131 259.318 417.146C259.899 418.309 260.85 419.324 261.495 420.438C262.166 421.597 263.188 422.565 263.848 423.738C264.38 424.684 265.234 425.445 265.752 426.423C265.866 426.639 266.01 426.836 266.167 427.022C266.193 427.053 266.573 427.766 266.608 427.678C266.824 427.137 265.849 426.358 265.577 426.041C264.497 424.781 263.142 423.612 262.244 422.2C261.443 420.942 260.131 420.042 259.367 418.792C258.399 417.208 257.192 415.909 256.067 414.453C254.677 412.654 252.895 411.169 251.504 409.366C250.757 408.398 249.817 407.619 249.118 406.614C248.867 406.253 248.576 405.868 248.212 405.625" stroke="#FFC107" stroke-width="4" stroke-linecap="round"/>
<path d="M229.566 344.09C229.566 345.65 230.311 347.553 230.764 349.042C231.171 350.379 231.262 351.868 231.645 353.237C232.233 355.338 232.612 357.456 233.406 359.498C234.716 362.868 235.785 366.393 237.491 369.624C239.249 372.957 241.262 376.297 242.553 379.848C243.365 382.08 244.843 384.172 245.586 386.403C246.115 387.988 247.025 389.527 247.959 390.928C249.836 393.743 251.552 396.812 253.23 399.794C254.792 402.571 257.169 405.041 258.452 407.927C259.411 410.085 261.189 412.046 261.717 414.42C262.113 416.203 263.141 418.064 263.955 419.691C264.381 420.544 265.446 424.155 266.547 424.216C266.954 424.239 266.767 422.717 266.767 422.455" stroke="#FFC107" stroke-width="4" stroke-linecap="round"/>
<path d="M261.044 420.034C260.379 419.286 259.968 418.089 259.711 417.147C259.222 415.353 258.352 413.497 257.644 411.779C256.478 408.947 255.398 405.944 254.391 403.035C253.529 400.544 251.556 398.392 250.368 396.015C248.284 391.848 246.381 387.408 244.975 382.954C244.399 381.13 243.892 379.374 243.385 377.549C242.926 375.898 241.967 374.433 241.502 372.804C240.58 369.577 238.727 366.656 237.613 363.473C236.332 359.814 235.205 355.819 233.308 352.405C231.312 348.813 229.872 345.172 228.196 341.448C227.792 340.55 227.763 339.717 227.474 338.794C227.234 338.024 227.759 336.342 227.254 335.737C227.101 335.553 227.053 334.588 227.193 335.431C227.537 337.491 228.618 339.237 229.297 341.179C230.322 344.114 231.762 346.932 232.427 349.984C233.808 356.319 235.13 362.55 238.811 368.071C241.865 372.652 244.682 377.359 246.638 382.514C247.607 385.069 248.967 387.499 249.817 390.096C250.548 392.327 251.569 394.277 252.459 396.431C253.989 400.136 256.157 403.497 258.195 406.936C260.504 410.833 263.663 414.258 265.789 418.273C266.598 419.801 267.38 421.372 268.308 422.846C268.701 423.47 269.03 425.096 269.849 425.096" stroke="#FFC107" stroke-width="4" stroke-linecap="round"/>
<path d="M220.001 328.021C218.311 326.097 216.64 324.224 215.01 322.269C213.478 320.431 211.405 318.983 209.712 317.291C206.896 314.475 203.266 313.056 200.309 310.542C199.799 310.109 198.987 309.969 198.428 309.534C197.665 308.941 196.753 308.432 195.884 307.998C194.185 307.148 192.619 306.114 191.016 305.134C189.433 304.166 187.832 303.198 186.321 302.135C184.534 300.878 182.998 299.034 181.281 297.66C179.977 296.617 178.78 295.651 177.63 294.501C176.814 293.685 175.534 292.904 174.865 292.068C174.221 291.263 170.413 297.769 169.825 298.422C169.535 298.745 169.517 299.465 169.223 299.701C168.957 299.914 169.048 298.735 169.223 298.595C169.663 298.242 170.061 296.214 170.231 295.62C170.245 295.569 170.851 294.946 170.993 294.833C171.35 294.548 171.71 294.186 171.988 293.838C172.255 293.504 173.319 292.399 173.869 292.399C174.498 292.399 175.003 291.719 175.578 291.514C176.707 291.111 177.168 293.207 177.348 293.997C177.638 295.274 178.369 296.537 178.847 297.759C179.301 298.919 179.626 299.914 180.519 300.807C180.769 301.057 181.061 301.307 181.281 301.582C181.494 301.847 181.014 300.71 180.728 300.488C179.848 299.803 178.731 298.925 177.618 298.607C177.111 298.462 176.665 298.525 176.143 298.324C175.47 298.065 174.838 297.604 174.201 297.267C172.802 296.526 175.06 298.909 175.406 299.307C176.55 300.625 178.073 302.067 179.683 302.798C181.296 303.531 182.722 304.721 184.379 305.441C185.629 305.985 186.75 306.288 188.029 306.572C188.67 306.714 189.428 307.563 189.959 307.936C190.791 308.521 191.644 308.877 192.541 309.325C192.81 309.46 193.304 310.076 192.958 309.51C192.366 308.538 191.598 307.805 190.795 307.002C189.116 305.324 187.164 304.004 185.485 302.356C184.723 301.608 183.559 300.833 183.002 299.922C182.069 298.396 180.04 297.404 179.339 295.767C178.977 294.923 178.856 293.903 178.405 293.112C178.301 292.93 177.968 292.276 178.38 292.768C179.391 293.976 180.448 295.185 181.613 296.247C183.492 297.959 185.727 299.573 187.82 301.016C188.936 301.786 190.299 302.425 191.152 303.474C192.034 304.561 193.418 305.627 194.556 306.449C197.247 308.392 199.925 310.566 203.013 311.87C204.726 312.593 206.287 313.642 207.955 314.476C210.004 315.5 212.028 316.477 213.928 317.795C217.294 320.128 220.515 322.495 223.762 324.973C225.485 326.288 227.286 327.555 229.195 328.587C230.109 329.081 230.83 330.455 231.948 330.455" stroke="#FFC107" stroke-width="4" stroke-linecap="round"/>
<path d="M226.884 327.04C226.884 328.793 228.796 330.169 229.84 331.474C231.075 333.019 231.635 334.358 232.172 336.237C232.489 337.347 232.171 338.904 232.205 340.047C232.263 342.02 233.589 343.98 233.978 345.926C234.525 348.659 235.71 351.045 236.639 353.644C238.351 358.44 240.808 362.953 242.846 367.538C243.961 370.046 244.642 372.762 245.737 375.223C246.664 377.31 247.567 380.068 248.2 382.285C248.823 384.464 250.58 386.525 251.09 388.821C251.615 391.182 252.59 393.767 253.784 395.916C256.386 400.6 258.4 405.511 260.812 410.334C261.802 412.313 262.662 414.044 263.538 416.016C263.831 416.674 266.241 420.978 265.87 418.94C265.386 416.276 263.48 414.025 262.093 411.845C261.047 410.201 259.892 406.256 258.48 405.046C256.589 403.425 255.572 400.341 254.802 398.116C253.794 395.205 252.108 392.479 250.992 389.577C248.588 383.328 244.688 377.51 242.715 371.052C241.866 368.275 240.362 365.768 239.43 362.972C238.324 359.652 237.884 356.284 236.803 352.922C235.008 347.337 233.125 341.826 232.796 335.908C232.735 334.82 232.205 333.911 232.205 332.722C232.205 331.069 232.142 336.03 232.205 337.682C232.438 343.861 236.059 350.135 237.394 356.141C239.158 364.08 243.693 371.227 246.262 378.935C247.685 383.202 250.131 387.112 251.255 391.482C252.176 395.065 253.47 399.121 254.802 402.583C256.779 407.725 259.288 414.075 262.356 418.677" stroke="#FFC107" stroke-width="4" stroke-linecap="round"/>
<path d="M258.188 408.333C257.276 407.307 256.89 405.942 256.042 404.852C255.197 403.766 254.062 401.817 253.746 400.472C253.342 398.754 252.739 397.032 252.012 395.431C251.724 394.799 251.815 393.774 251.675 393.073C251.495 392.177 251.001 391.382 251.001 390.478C251.001 390.035 250.784 389.194 250.602 388.794C250.17 387.845 250.087 386.29 249.429 385.55C248.597 384.614 248.584 382.601 247.969 381.495C246.573 378.981 246.023 375.966 244.663 373.472C243.918 372.106 243.761 370.538 243.14 369.142C242.669 368.082 242.586 366.635 242.018 365.711C241.613 365.055 241.496 364.269 241.331 363.528C241.222 363.034 240.797 362.694 240.682 362.18C240.529 361.491 239.96 359.344 239.435 358.924C238.722 358.354 238.571 356.576 238.15 355.78C237.857 355.227 237.847 354.569 237.638 353.983C237.396 353.304 236.968 352.686 236.865 351.962C236.519 349.546 235.325 347.198 235.055 344.775C234.813 342.595 233.045 340.609 232.809 338.486C232.69 337.41 232.136 336.324 232.136 335.23C232.136 334.706 232.136 334.182 232.136 333.658C232.136 332.626 232.334 335.088 232.485 335.455C234.474 340.285 235.121 345.818 236.515 350.839C237.896 355.809 239.01 361.021 240.895 365.836C241.154 366.5 241.674 369.105 241.556 366.984C241.413 364.413 240.09 361.984 239.535 359.485C239.208 358.015 238.416 356.654 238.025 355.206C237.612 353.68 237.234 352.113 236.752 350.614C235.854 347.821 235.144 344.565 234.818 341.631C234.676 340.354 234.157 339.143 234.157 337.825C234.157 337.521 233.776 336.127 233.72 336.378C233.35 338.045 234.891 340.591 235.455 342.08C236.25 344.183 236.986 346.304 237.75 348.418C238.901 351.601 239.726 355.045 240.221 358.387C240.736 361.868 241.487 365.382 242.467 368.756C242.773 369.811 243.193 370.86 243.54 371.9C243.723 372.449 243.96 373.483 244.488 373.746" stroke="#FFC107" stroke-width="4" stroke-linecap="round"/>
<path d="M235.064 350.739C235.064 347.74 233.34 344.564 232.186 341.823C230.996 338.996 230.927 335.806 229.639 332.906C229.179 331.872 229.12 330.013 229.12 328.872C229.12 327.505 227.927 326.211 227.846 324.839C227.772 323.574 227.4 324.963 227.421 325.594C227.469 326.976 228.018 328.633 228.483 329.934C229.117 331.709 229.813 333.286 230.394 335.029" stroke="#FFC107" stroke-width="4" stroke-linecap="round"/>
<path d="M232.941 335.029C232.941 332.963 231.452 331.289 231.242 329.509C231.143 328.662 230.35 325.314 229.756 324.839C229.452 324.595 229.544 324.178 229.544 323.824C229.544 323.277 229.583 324.933 229.756 325.452C230.25 326.934 230.314 328.772 231.054 330.146C231.623 331.203 232.092 335.883 232.092 332.387C232.092 330.852 231.512 328.546 230.912 327.198C230.249 325.704 230.777 324.297 229.332 323.14C227.863 321.965 225.917 321.314 224.237 320.38C222.599 319.47 219.582 318.019 218.599 316.347C218.135 315.559 215.253 314.844 214.259 314.318C212.176 313.216 210.059 311.959 208.078 310.827C206.304 309.813 204.564 308.815 202.606 308.256C200.851 307.754 198.959 305.819 197.275 304.977C193.799 303.239 190.829 300.084 187.297 298.514C185.807 297.852 183.052 296.987 181.895 296.06C180.964 295.316 177.466 295.966 181.352 295.966C182.94 295.966 185.272 297.597 186.872 298.089C189.145 298.788 190.94 300.211 193.123 300.967C196.867 302.263 201.006 303.97 204.516 305.944C206.933 307.303 209.638 308.092 212.136 309.341C213.511 310.029 216.575 311.934 218.08 312.101C219.698 312.281 222.105 314.713 223.6 315.592C225.184 316.524 226.994 318.128 228.483 319.319C228.637 319.443 229.843 321.406 229.52 319.956C229.359 319.228 228.679 317.538 228.082 317.196C226.737 316.428 226.297 314.339 224.873 313.469C223.246 312.475 220.846 311.126 219.448 309.883C217.073 307.772 213.507 307.488 210.909 305.755C209.829 305.035 208.621 305.037 207.654 304.246C206.684 303.452 205.47 302.957 204.257 302.736C201.239 302.187 198.318 299.954 195.152 299.787C192.654 299.656 190.381 298.514 187.934 298.514C186.079 298.514 184.693 298.089 182.838 298.089" stroke="#FFC107" stroke-width="4" stroke-linecap="round"/>
<path d="M222.194 310.032C220.35 308.917 218.531 307.517 216.921 306.077C214.543 303.949 210.825 302.634 207.986 301.214C203.419 298.931 198.369 297.678 193.47 296.453C190.975 295.83 188.37 295.566 185.809 295.282C183.981 295.078 182.331 294.627 180.595 294.007C180.136 293.843 177.259 293.062 178.588 293.582C180.014 294.14 181.269 295.125 182.645 295.794C184.436 296.665 186.491 297.236 188.387 297.845C190.365 298.48 192.32 299.04 194.276 299.764C197.21 300.85 199.946 302.42 202.918 303.411C205.102 304.139 208.135 304.374 209.832 305.989C212.347 308.385 215.654 309.912 218.884 311.086C219.517 311.317 220.303 312.451 220.671 312.991C221.456 314.142 222.684 315.093 223.659 316.096C225.126 317.606 225.761 319.509 226.691 321.369C227.652 323.291 228.704 325.28 229.84 327.111C230.383 327.985 230.965 328.99 231.291 329.967C231.683 331.145 232.384 332.207 232.741 333.366C233.225 334.94 234.262 336.371 234.586 337.994C235.032 340.224 235.743 342.402 236.227 344.63C237.034 348.342 238.234 352.064 239.274 355.703C240.288 359.256 241.102 362.758 241.764 366.396C242.243 369.032 242.724 371.914 243.756 374.365C244.233 375.497 244.437 376.749 244.869 377.939C245.218 378.898 245.811 380.005 245.924 381.015C246.12 382.786 247.299 384.704 247.901 386.376C248.816 388.919 249.975 391.395 250.875 393.934C252.369 398.151 254.807 402.03 256.851 406.004C257.804 407.858 259.009 411.624 260.952 412.595" stroke="#FFC107" stroke-width="4" stroke-linecap="round"/>
<path d="M231.95 329.543C230.74 326.972 229.481 324.466 228.127 322.028C227.661 321.19 227.468 319.825 227.468 318.864C227.468 317.66 226.952 316.344 226.691 315.173C226.639 314.939 226.504 313.912 226.355 313.782C225.667 313.18 226.881 315.545 227.321 316.345C228.285 318.098 229.354 319.963 229.841 321.911C230.928 326.259 232.042 330.722 233.254 334.962C234.376 338.89 229.828 327.533 228.464 323.684C227.448 320.817 226.386 317.777 225.095 315.041C224.979 314.796 223.886 312.927 223.791 313.782C223.591 315.582 223.731 317.446 223.571 319.26C223.364 321.623 223.412 324.139 223.528 326.511C223.614 328.282 224.264 329.932 224.304 331.71C224.312 332.093 224.414 334.16 224.817 334.362C225.266 334.587 224.838 333.356 224.831 332.853C224.814 331.646 224.558 330.512 224.304 329.338C223.772 326.887 223.496 324.366 222.854 321.94C222.746 321.535 222.15 319.536 222.253 319.846C222.948 321.929 223.811 323.941 224.45 326.042C225.184 328.454 225.624 331.127 227.468 332.97" stroke="#FFC107" stroke-width="4" stroke-linecap="round"/>
<path d="M233.268 332.707C230.242 329.503 228.786 324.458 228.786 320.183C228.786 318.081 228.185 316.096 227.262 314.25C226.819 313.364 225.55 311.504 224.772 310.881C223.891 310.176 222.463 310.121 221.403 309.768" stroke="#FFC107" stroke-width="4" stroke-linecap="round"/>
<path d="M230.368 326.379C230.368 324.536 228.633 322.987 228.244 321.237C227.828 319.365 226.809 317.529 226.149 315.715C225.493 313.91 224.087 312.452 222.722 311.086C222.045 310.41 221.268 309.918 220.481 309.373C219.533 308.717 216.344 306.462 215.339 307.132" stroke="#FFC107" stroke-width="4" stroke-linecap="round"/>
<path d="M226.149 326.642C226.149 325.821 226.379 325.25 226.618 324.474C226.922 323.486 226.676 322.133 226.676 321.106C226.676 319.333 226.409 317.045 225.827 315.364C225.131 313.353 224.217 311.167 222.721 309.504C222.284 309.019 221.735 308.033 221.14 307.717C220.414 307.333 219.452 307.325 218.767 306.868" stroke="#FFC107" stroke-width="4" stroke-linecap="round"/>
<path d="M226.94 319.787C226.94 318.262 225.752 317.077 224.933 315.818C223.698 313.917 222.361 312.308 220.759 310.706C218.192 308.139 215.094 304.853 211.648 303.704" stroke="#FFC107" stroke-width="4" stroke-linecap="round"/>
<path d="M175.462 301.061C174.576 300.95 174.908 296.899 174.908 296.27C174.908 295.129 174.869 293.895 176.201 294.782" stroke="#FFC107" stroke-width="4" stroke-linecap="round"/>
<path d="M215.717 304.2C214.955 303.946 214.419 303.095 213.767 302.722C212.54 302.021 211.374 301.3 210.095 300.691C208.237 299.807 206.339 298.933 204.412 298.188C201.617 297.109 198.7 296.157 195.784 295.429C192.895 294.706 189.906 293.859 186.911 293.859C184.931 293.859 183.06 293.49 181.094 293.49C180.514 293.49 177.313 294.52 176.98 294.187C176.133 293.34 178.795 292.382 179.248 292.382C180.237 292.382 181.074 292.117 182.11 292.341C183.514 292.644 184.946 292.581 186.357 292.895C189.217 293.53 191.988 293.645 194.769 294.7C196.642 295.411 198.516 295.91 200.431 296.444C201.957 296.869 203.468 297.464 205.007 297.778C206.277 298.037 207.499 298.82 208.792 299.019C210.096 299.22 211.504 299.803 212.752 300.24C214.828 300.966 216.771 302.08 218.815 302.866C220.173 303.389 221.342 304.359 222.456 305.225C223.072 305.704 224.491 306.58 224.58 307.339C224.689 308.268 225.824 308.783 226.067 309.637C226.407 310.824 227.356 311.414 227.904 312.509" stroke="#FFC107" stroke-width="4" stroke-linecap="round"/>
<path d="M229.012 318.972C229.012 317.697 229.385 315.703 228.868 314.54C228.225 313.093 227.46 311.851 226.652 310.478C225.85 309.114 224.539 308.018 223.431 307.01C222.309 305.99 221.023 304.569 219.41 304.569" stroke="#FFC107" stroke-width="4" stroke-linecap="round"/>
<path d="M226.241 315.463C226.744 315.401 226.387 311.16 226.2 310.621C225.796 309.453 225.298 308.406 224.405 307.513C223.569 306.677 222.374 305.126 221.256 304.754" stroke="#FFC107" stroke-width="4" stroke-linecap="round"/>
<path d="M206.484 306.231C206.074 306.231 205.824 305.802 205.417 305.636C204.651 305.324 203.68 304.358 203.016 303.83C202.183 303.168 201.14 302.687 200.206 302.168C199.412 301.728 198.739 301.025 197.99 300.507C195.655 298.89 193.921 296.441 191.342 295.152C187.925 293.443 184.142 291.974 180.345 291.13C179.365 290.913 177.71 290.561 176.898 291.315C175.818 292.318 175.093 293.223 175.093 294.782" stroke="#FFC107" stroke-width="4" stroke-linecap="round"/>
<path d="M266.74 428.64C266.568 425.893 262.916 424.099 262.58 421.245C262.519 420.722 261.391 419.706 261.168 418.702C260.886 417.434 260.283 416.05 259.601 414.979C258.923 413.913 259.263 412.625 258.78 411.538C258.305 410.47 257.782 408.782 257.521 407.609C256.8 404.364 256.03 400.444 254.26 397.568C251.518 393.113 251.018 387.675 248.482 383.111C246.524 379.587 245.58 375.426 244.194 371.683C243.758 370.506 243.524 368.385 242.91 367.421C241.971 365.945 242.065 363.602 241.061 362.31C239.199 359.917 239.845 355.824 238.313 353.066C236.893 350.51 237.348 346.791 236.13 344.052C235.566 342.784 235.054 340.59 234.872 339.224C234.753 338.334 234.777 337.63 234.487 336.759C234.194 335.881 234.725 338.788 234.846 339.173C237.26 346.839 240.208 354.297 242.935 361.874C244.616 366.542 246.554 371.243 248.482 375.741C250.62 380.73 251.463 386.511 252.514 391.765C253.56 396.994 254.894 403.047 257.29 407.84C258.301 409.861 260.269 413.48 260.269 415.698" stroke="#FFC107" stroke-width="4" stroke-linecap="round"/>
<path d="M264.429 417.085C264.429 415.371 263.435 413.884 263.068 412.231C262.755 410.821 262.888 409.174 262.221 407.84C261.774 406.947 261.59 404.182 260.962 403.68C260.488 403.301 259.52 400.48 259.319 399.777C258.299 396.206 255.757 392.973 254.722 389.351C253.77 386.019 251.024 382.768 251.024 379.182" stroke="#FFC107" stroke-width="4" stroke-linecap="round"/>
<path d="M251.024 379.182C251.024 382.687 252.132 385.212 253.567 388.401C254.792 391.123 255.508 394.593 257.033 397.106C259.842 401.732 259.747 407.899 262.58 412.565C263.507 414.092 265.406 416.972 265.79 418.702C266.006 419.676 267.787 423.325 267.1 420.577C265.814 415.435 263.079 410.395 261.63 405.323C260.604 401.731 258.169 398.075 257.47 394.23C257.184 392.656 256.041 388.412 254.825 387.348C252.233 385.08 257.573 393.666 259.113 396.746C262.523 403.565 265.625 410.571 268.82 417.316C269.159 418.031 269.751 418.955 269.95 419.653C270.242 420.675 269.9 418.815 269.514 418.574C268.696 418.063 267.467 413.984 267.202 412.925" stroke="#FFC107" stroke-width="4" stroke-linecap="round"/>
<path d="M257.495 407.378C256.635 405.549 255.646 402.685 255.646 400.675C255.646 398.488 253.797 396.039 253.797 393.742C253.797 391.582 252.291 388.966 251.589 386.937C250.741 384.486 250.363 382.086 249.278 379.644C248.082 376.953 247.517 373.338 246.864 370.399C246.18 367.321 244.208 364.408 243.654 361.36C243.269 359.241 242.265 356.112 241.215 354.221C239.624 351.359 238.672 348.199 237.517 345.079C237.094 343.937 236.083 343.265 235.796 341.972C235.3 339.742 236.08 344.502 236.464 345.439C238.247 349.798 239.494 354.221 241.112 358.612C242.312 361.869 242.88 364.777 243.731 368.088C244.294 370.279 244.79 373.903 245.94 375.843C247.369 378.256 247.589 381.133 248.944 383.573C250.63 386.607 251.225 390.342 253.078 393.254C253.751 394.311 254.431 396.088 254.825 397.311C255.627 399.809 256.947 402.05 257.855 404.502C258.229 405.513 258.471 406.71 259.242 407.48C259.369 407.608 259.344 405.571 259.344 405.067" stroke="#FFC107" stroke-width="4" stroke-linecap="round"/>
<path d="M259.344 403.218C259.344 397.091 257.093 391.681 254.619 386.115C251.939 380.084 249.694 374.523 247.069 368.525C245.754 365.518 244.329 362.573 243.654 359.537C243.089 356.993 242.152 353.837 240.958 351.448C239.609 348.751 238.929 345.843 237.722 343.128C236.672 340.765 236.52 337.131 234.846 335.039C233.561 333.432 232.057 329.307 231.585 327.181C231.339 326.077 230.346 324.336 229.864 323.252C229.241 321.85 229.213 320.753 228.811 319.349C228.597 318.6 228.422 318.095 228.375 317.243C228.309 316.051 227.362 315.898 228.375 317.037C229.545 318.354 229.769 320.191 230.891 321.634C232.772 324.052 232.677 327.793 233.819 330.648C235.341 334.453 235.844 338.833 237.054 342.768C237.706 344.887 237.76 347.187 238.544 349.342C239.25 351.284 240.47 353.888 240.829 355.865C241.616 360.192 243.82 365.023 245.939 368.807C248.314 373.048 249.515 377.889 251.024 382.417" stroke="#FFC107" stroke-width="4" stroke-linecap="round"/>
<path d="M228.719 315.142C228.719 315.642 229.291 316.125 229.507 316.609C229.803 317.275 230.389 318.07 230.43 318.809C230.514 320.312 231.111 321.777 231.164 323.265C231.326 327.798 232.166 332.085 233.609 336.413" stroke="#FFC107" stroke-width="4" stroke-linecap="round"/>
<path d="M231.408 329.322C231.408 334.952 235.131 340.345 236.977 345.513C237.907 348.118 238.857 350.693 239.612 353.391C240.318 355.912 241.138 358.983 242.655 361.106" stroke="#FFC107" stroke-width="4" stroke-linecap="round"/>
</g>
</g>
<defs>
<filter id="filter0_d_4_406" x="15" y="12" width="1025" height="641" filterUnits="userSpaceOnUse" color-interpolation-filters="sRGB">
<feFlood flood-opacity="0" result="BackgroundImageFix"/>
<feColorMatrix in="SourceAlpha" type="matrix" values="0 0 0 0 0 0 0 0 0 0 0 0 0 0 0 0 0 0 127 0" result="hardAlpha"/>
<feOffset dy="4"/>
<feGaussianBlur stdDeviation="2"/>
<feComposite in2="hardAlpha" operator="out"/>
<feColorMatrix type="matrix" values="0 0 0 0 0 0 0 0 0 0 0 0 0 0 0 0 0 0 0.25 0"/>
<feBlend mode="normal" in2="BackgroundImageFix" result="effect1_dropShadow_4_406"/>
<feBlend mode="normal" in="SourceGraphic" in2="effect1_dropShadow_4_406" result="shape"/>
</filter>
<filter id="filter1_d_4_406" x="456.058" y="447.649" width="452.985" height="120.26" filterUnits="userSpaceOnUse" color-interpolation-filters="sRGB">
<feFlood flood-opacity="0" result="BackgroundImageFix"/>
<feColorMatrix in="SourceAlpha" type="matrix" values="0 0 0 0 0 0 0 0 0 0 0 0 0 0 0 0 0 0 127 0" result="hardAlpha"/>
<feOffset dx="1" dy="1"/>
<feGaussianBlur stdDeviation="0.5"/>
<feColorMatrix type="matrix" values="0 0 0 0 0.266667 0 0 0 0 0.266667 0 0 0 0 0.266667 0 0 0 1 0"/>
<feBlend mode="normal" in2="BackgroundImageFix" result="effect1_dropShadow_4_406"/>
<feBlend mode="normal" in="SourceGraphic" in2="effect1_dropShadow_4_406" result="shape"/>
</filter>
<filter id="filter2_d_4_406" x="456.058" y="447.649" width="470.985" height="126.26" filterUnits="userSpaceOnUse" color-interpolation-filters="sRGB">
<feFlood flood-opacity="0" result="BackgroundImageFix"/>
<feColorMatrix in="SourceAlpha" type="matrix" values="0 0 0 0 0 0 0 0 0 0 0 0 0 0 0 0 0 0 127 0" result="hardAlpha"/>
<feOffset dx="16" dy="4"/>
<feGaussianBlur stdDeviation="2"/>
<feComposite in2="hardAlpha" operator="out"/>
<feColorMatrix type="matrix" values="0 0 0 0 0 0 0 0 0 0 0 0 0 0 0 0 0 0 0.75 0"/>
<feBlend mode="normal" in2="BackgroundImageFix" result="effect1_dropShadow_4_406"/>
<feBlend mode="normal" in="SourceGraphic" in2="effect1_dropShadow_4_406" result="shape"/>
</filter>
<clipPath id="clip0_4_406">
<rect width="1024" height="632.88" fill="white"/>
</clipPath>
<clipPath id="clip1_4_406">
<rect width="1017" height="633" fill="white" transform="translate(19 12)"/>
</clipPath>
</defs>
</svg>
