<svg width="120" height="100" viewBox="0 0 120 100" fill="none" xmlns="http://www.w3.org/2000/svg">
<g clip-path="url(#clip0_2_167)">
<rect width="120" height="100" fill="white"/>
<g clip-path="url(#clip1_2_167)">
<path d="M30.72 11.512C29.7 12.5773 29.82 13.5173 31.2 14.8333C32.76 16.3373 32.7 17.904 31.08 19.032C29.76 19.972 29.7 20.0347 30.72 22.1027C31.62 23.92 31.74 23.9827 31.44 22.604C31.2 21.4133 31.5 20.4733 32.64 19.22C34.56 17.0267 34.56 16.4 32.64 14.4573C31.74 13.58 31.26 12.5147 31.38 11.888C31.74 10.572 31.68 10.5093 30.72 11.512Z" fill="#5844E4"/>
<path d="M19.9055 29.9162L19.9051 29.9161L17.7167 29.3029L10.7823 35.8151L10.7812 35.8161C8.8048 37.6615 6.9647 39.4428 5.59038 40.8314C4.90276 41.5261 4.33489 42.1194 3.92582 42.5717C3.72092 42.7982 3.55972 42.9851 3.44451 43.1293C3.32584 43.2778 3.28564 43.3452 3.28062 43.3536C3.28021 43.3543 3.28003 43.3545 3.28008 43.3544L3.26665 43.386L3.24905 43.4154C3.19418 43.5071 3.15997 43.6873 3.23177 43.9824C3.30123 44.2679 3.45603 44.5961 3.67375 44.911C3.89073 45.2247 4.15477 45.5029 4.42235 45.698C4.66242 45.873 4.87218 45.9576 5.03353 45.9761C5.04741 45.9681 5.06482 45.9575 5.08603 45.9438C5.18063 45.8826 5.31239 45.7839 5.48145 45.6447C5.81747 45.3678 6.26429 44.9609 6.79307 44.4514C7.84824 43.4348 9.20525 42.0332 10.61 40.5036C12.0262 38.9303 13.3988 37.5122 14.4657 36.4848C14.9985 35.9718 15.4603 35.551 15.816 35.2559C15.9928 35.1092 16.1518 34.9864 16.2851 34.8976C16.3512 34.8536 16.4209 34.8113 16.4897 34.7782C16.5425 34.7529 16.6592 34.7 16.8 34.7C16.8951 34.7 16.9734 34.724 17.0173 34.7396C17.067 34.7573 17.1132 34.7792 17.1527 34.7999C17.2317 34.8414 17.3172 34.896 17.4043 34.9561C17.5802 35.0775 17.8019 35.2494 18.0593 35.4607C18.5763 35.8849 19.268 36.4928 20.084 37.235C21.7173 38.7208 23.8669 40.7619 26.1492 42.9888L26.1505 42.9901C28.6972 45.4935 30.8332 47.49 32.3884 48.8268C33.1678 49.4968 33.7911 49.992 34.2421 50.3017C34.4699 50.4581 34.6366 50.5552 34.7475 50.6052C34.7478 50.6053 34.7481 50.6055 34.7485 50.6056C34.7584 50.5985 34.7694 50.5903 34.7815 50.5811C34.8526 50.5268 34.9419 50.45 35.0488 50.3498C35.2622 50.1495 35.5249 49.8752 35.8212 49.5455C36.4128 48.8872 37.1175 48.0314 37.7954 47.16C38.4732 46.2886 39.1184 45.4092 39.5919 44.7049C39.8294 44.3517 40.0187 44.0499 40.1468 43.8187C40.2078 43.7085 40.2506 43.6221 40.2776 43.5586C40.2403 43.4899 40.182 43.3946 40.0999 43.2716C39.9265 43.0114 39.6701 42.6615 39.3466 42.242C38.7014 41.4055 37.8079 40.3166 36.8218 39.1617C35.2403 37.354 34.3005 36.1996 33.7666 35.2007C33.2106 34.1608 33.1 33.3016 33.1 32.1293C33.1 31.2042 33.0244 30.6011 32.8744 30.1833C32.7354 29.796 32.5293 29.5584 32.2098 29.3663C31.536 28.9913 31.0748 28.7857 30.7531 28.7271C30.6012 28.6994 30.5163 28.7118 30.4697 28.7281C30.4309 28.7416 30.3844 28.7689 30.3289 28.8494C30.1948 29.0434 30.0717 29.4496 29.9961 30.2244C29.9227 30.9763 29.9 31.9887 29.9 33.32C29.9 34.7112 29.8395 35.9814 29.7476 36.9099C29.7018 37.3716 29.647 37.7625 29.5845 38.0456C29.5541 38.1833 29.5166 38.3201 29.4671 38.4325C29.4433 38.4866 29.4045 38.5638 29.3424 38.6353C29.2849 38.7015 29.1441 38.8333 28.92 38.8333C28.4302 38.8333 27.9668 38.5405 27.5933 38.2069C27.2012 37.8569 26.8205 37.3834 26.4885 36.8633C25.8341 35.8381 25.3 34.5207 25.3 33.4453C25.3 32.9088 25.2613 32.5493 25.1573 32.2711C25.0613 32.0143 24.8971 31.7944 24.5711 31.5696C24.23 31.3343 23.7224 31.1012 22.9525 30.8332C22.1871 30.5667 21.1958 30.2766 19.9055 29.9162ZM4.99102 45.9978C4.99096 45.9979 4.9929 45.9972 4.99702 45.9954C4.99313 45.9967 4.99108 45.9977 4.99102 45.9978ZM40.3132 43.6313C40.313 43.6309 40.3128 43.6304 40.3126 43.6299C40.3144 43.6356 40.3151 43.6363 40.3132 43.6313Z" fill="#5844E4" stroke="#5844E4"/>
<path d="M14.4 47.1067V49.6133H17.4H20.4V47.1067V44.6H17.4H14.4V47.1067Z" fill="#5844E4"/>
<path d="M30.2828 29.9406C30.0984 29.9616 30.1719 30.4276 30.1719 30.5657C30.1719 30.8082 30.1349 31.0277 30.1349 31.2665C30.1349 31.5001 30.0241 31.7321 30.0241 31.9674C30.0241 32.1947 30.0241 32.422 30.0241 32.6493C30.0241 32.8409 30.098 33.0374 30.098 33.2365C30.098 33.4515 30.1349 33.6633 30.1349 33.8616C30.1349 34.3249 30.098 34.7483 30.098 35.2064" stroke="#5844E4" stroke-linecap="square"/>
<path d="M34.5415 50.3224C34.4488 50.3034 34.3599 50.1509 34.3074 50.0817C34.2408 49.9939 34.1777 49.878 34.0882 49.8135C33.983 49.7376 33.9044 49.6125 33.8168 49.5177C33.7805 49.4784 33.7345 49.4485 33.7035 49.4077C33.6823 49.3797 33.6413 49.3387 33.6126 49.3183C33.5679 49.2866 33.5395 49.2465 33.5022 49.2082C33.466 49.1711 33.4134 49.1387 33.3874 49.0921C33.3738 49.0676 33.3219 49.031 33.3002 49.0088C33.2586 48.9661 33.1967 48.9396 33.1488 48.9056C33.1027 48.8729 33.0748 48.8331 33.0251 48.8063C32.9835 48.7839 32.9155 48.7313 32.8901 48.6924C32.8672 48.6571 32.7939 48.6172 32.7574 48.5961C32.6983 48.562 32.6544 48.505 32.5986 48.4655C32.375 48.3067 32.1655 48.0998 31.9679 47.9046C31.9249 47.862 31.8702 47.7971 31.8173 47.767C31.7754 47.7432 31.7484 47.6882 31.7033 47.6677C31.6541 47.6453 31.6063 47.5716 31.5624 47.5362C31.5008 47.4867 31.4497 47.4248 31.3849 47.3788C31.3308 47.3404 31.2774 47.2973 31.2299 47.252C31.1754 47.2001 31.1079 47.1679 31.0517 47.1175C30.9507 47.0269 30.8357 46.951 30.7274 46.8699C30.638 46.803 30.5547 46.7157 30.4679 46.6429C30.4147 46.5983 30.3549 46.5513 30.3084 46.4993C30.2748 46.4617 30.2021 46.3915 30.1563 46.3716C30.1173 46.3547 30.0647 46.2839 30.0325 46.2509C29.994 46.2114 29.9528 46.1778 29.9185 46.1348C29.841 46.0377 29.7428 45.9539 29.6568 45.8658C29.5046 45.7097 29.358 45.5487 29.2005 45.4042C29.0294 45.2473 28.827 45.1253 28.6637 44.9579C28.5941 44.8866 28.5138 44.8317 28.4423 44.7585C28.3604 44.6746 28.2783 44.5998 28.1941 44.5178C28.1043 44.4304 28.0126 44.3471 27.9249 44.2572C27.8867 44.2181 27.8397 44.1749 27.7974 44.1395C27.761 44.109 27.7204 44.0573 27.6841 44.0333C27.6121 43.9856 27.5294 43.8923 27.4769 43.8232C27.4474 43.7843 27.4046 43.7498 27.3688 43.7131C27.3371 43.6806 27.2648 43.6396 27.2443 43.6038C27.197 43.5216 27.0983 43.4634 27.0333 43.3967C26.9725 43.3344 26.9094 43.2758 26.8491 43.2141C26.8182 43.1825 26.779 43.1575 26.7477 43.1255C26.7294 43.1067 26.6748 43.0711 26.6642 43.0521C26.6426 43.0133 26.551 42.9261 26.5166 42.9084" stroke="#5844E4" stroke-linecap="square"/>
<path d="M34.6355 49.9391C34.9642 49.9391 35.0971 49.469 35.3496 49.2677C35.4506 49.1872 35.5505 49.0853 35.6147 48.9735C35.6559 48.9017 35.7562 48.8495 35.7902 48.7711C35.8549 48.6219 35.9867 48.3576 36.1093 48.2571C36.1864 48.1939 36.2153 48.0861 36.2916 48.0252C36.3617 47.9694 36.4383 47.9025 36.4824 47.8211C36.5714 47.6568 36.7592 47.5652 36.8471 47.385C36.9943 47.0832 37.255 46.7758 37.4987 46.5509C37.7011 46.3642 37.9862 46.136 38.0997 45.8743C38.1693 45.7139 38.3008 45.5655 38.3445 45.4089C38.3631 45.3423 38.4855 45.3114 38.4948 45.2358C38.5008 45.1861 38.5912 45.1077 38.6163 45.0628C38.7847 44.7607 38.9979 44.4821 39.2173 44.2322C39.3227 44.1121 39.4498 43.9724 39.5212 43.8342C39.5867 43.7073 39.709 43.6188 39.771 43.4915" stroke="#5844E4" stroke-linecap="square"/>
<path d="M35.1217 50.0325C35.2447 49.9205 35.398 49.8438 35.5235 49.728C35.6353 49.6248 35.8108 49.5854 35.8814 49.4407" stroke="#5844E4" stroke-linecap="square"/>
<path d="M35.6383 49.4407C35.6492 49.3294 35.8364 49.0374 35.9253 48.9804C35.9908 48.9385 36.0899 48.821 36.1313 48.7555C36.1613 48.7079 36.2003 48.6827 36.2461 48.6551C36.2876 48.6301 36.2827 48.5615 36.3237 48.5375C36.451 48.4629 36.5666 48.2948 36.6343 48.1637C36.6924 48.0513 36.7515 47.8913 36.8369 47.8038C37.0375 47.5981 37.1915 47.3365 37.394 47.1289C37.5975 46.9204 37.7309 46.6484 37.9106 46.4437C38.0279 46.3101 38.0829 46.1209 38.1976 45.9903C38.2722 45.9053 38.4065 45.7628 38.4357 45.658C38.447 45.6175 38.5313 45.5423 38.5555 45.4988C38.594 45.4299 38.6428 45.3739 38.6838 45.2981C38.7092 45.2514 38.7878 45.1134 38.829 45.087C38.8796 45.0546 38.8909 44.9608 38.9354 44.9243C38.9603 44.9039 39.0321 44.7897 39.0401 44.753C39.0546 44.6858 39.1339 44.6227 39.1768 44.5661C39.2697 44.4438 39.3543 44.2786 39.4604 44.1699C39.5565 44.0714 39.6755 43.9026 39.7407 43.7857C39.7969 43.6848 39.8238 43.4801 39.923 43.4293" stroke="#5844E4" stroke-linecap="square"/>
<path d="M39.5937 43.1061C39.5937 43.017 39.5695 42.8923 39.5141 42.8193C39.4554 42.7419 39.4253 42.6294 39.3649 42.5606C39.2583 42.4391 39.227 42.2777 39.1237 42.1655C39.0921 42.1312 39.1003 42.0753 39.0665 42.0406C39.0386 42.0121 39.0098 41.9828 38.9895 41.9463C38.9431 41.8631 38.8953 41.7788 38.8328 41.7067C38.7539 41.6158 38.6649 41.4372 38.5642 41.3856" stroke="#5844E4" stroke-linecap="square"/>
<path d="M38.5195 41.9132C38.4374 41.8964 38.4131 41.7894 38.3504 41.7526C38.3015 41.724 38.2314 41.6409 38.1887 41.5971C38.1043 41.5106 38.0059 41.4181 37.9053 41.3525C37.8516 41.3175 37.7677 41.2714 37.7362 41.2148C37.707 41.1626 37.6583 41.1181 37.6292 41.0644C37.5996 41.0098 37.594 40.9234 37.5571 40.8809C37.4794 40.7913 37.472 40.615 37.4129 40.5024C37.3548 40.3918 37.2874 40.2374 37.199 40.1468C37.105 40.0504 37.0047 39.9532 36.9292 39.8372C36.8509 39.7167 36.7415 39.5632 36.6395 39.4586C36.581 39.3987 36.5424 39.329 36.4928 39.2637C36.4393 39.1932 36.3512 39.1353 36.3262 39.0457C36.2819 38.8869 36.1235 38.7503 36.0576 38.5984C36.0062 38.4798 35.8983 38.3423 35.8114 38.2428C35.7362 38.1567 35.642 38.0294 35.5876 37.9319C35.5167 37.8047 35.3943 37.6835 35.2967 37.5776C35.2421 37.5183 35.202 37.4449 35.1512 37.3813C35.1061 37.3247 35.0387 37.257 35.0058 37.1978C34.9275 37.0574 34.7757 36.9416 34.7198 36.7925C34.6766 36.6774 34.563 36.5825 34.486 36.493C34.4309 36.429 34.3893 36.3447 34.3343 36.2828C34.2481 36.1855 34.1437 36.0626 34.0882 35.9489" stroke="#5844E4" stroke-linecap="square"/>
<path d="M30.4079 35.6666C30.2692 35.6666 30.0731 35.8738 30.0731 36.0097C30.0731 36.175 30.1504 36.3236 30.1504 36.4849C30.1504 36.8623 29.9186 37.2015 29.9186 37.5803C29.9186 37.756 29.8003 37.9128 29.7898 38.095C29.7859 38.1641 29.7232 38.2656 29.7111 38.3458C29.6973 38.4377 29.6353 38.548 29.6353 38.6362C29.6353 38.7972 29.5162 39.0326 29.4493 39.1773C29.4017 39.2803 29.3413 39.3723 29.2948 39.4676C29.2618 39.5352 29.1718 39.5406 29.1718 39.626" stroke="#5844E4" stroke-linecap="square"/>
<path d="M33.5239 36.0097C33.5239 35.5991 33.3437 35.2358 33.3437 34.8219C33.3437 34.7296 33.2922 34.6607 33.2922 34.5711C33.2922 34.5201 33.2647 34.3242 33.2278 34.294C33.1637 34.2414 33.1751 34.1168 33.1248 34.0549C33.0825 34.0029 33.0346 33.8457 33.0346 33.7792C33.0346 33.6875 32.961 33.593 32.9574 33.4962C32.954 33.4045 32.9107 33.2952 32.9059 33.2117C32.8947 33.0172 32.8544 32.8585 32.8544 32.6515C32.8544 32.4399 32.8286 32.2281 32.8286 32.0107C32.8286 31.8095 32.9059 31.6304 32.9059 31.43C32.9059 31.335 32.9316 31.2508 32.9316 31.1528C32.9316 31.0879 32.9391 30.9446 32.9002 30.8947C32.8515 30.8324 32.8523 30.7583 32.8158 30.6909C32.7892 30.6418 32.7256 30.5073 32.7256 30.4533C32.7256 30.1438 32.3233 29.9125 32.1076 29.7743C31.9666 29.684 31.8771 29.511 31.7098 29.462C31.6444 29.4428 31.5795 29.3578 31.5024 29.3578C31.4322 29.3578 31.3595 29.2787 31.2706 29.2787C31.1053 29.2787 30.9215 29.2259 30.7427 29.2259C30.5849 29.2259 30.3821 29.3732 30.3821 29.5426" stroke="#5844E4" stroke-linecap="square"/>
<path d="M26.5177 42.6599C26.2443 42.528 25.9475 42.407 25.7091 42.217C25.6547 42.1735 25.575 42.1178 25.5157 42.0787C25.4577 42.0405 25.4031 41.9982 25.3468 41.9549C25.2819 41.9049 25.228 41.8272 25.1591 41.7856C25.071 41.7325 25.0094 41.6376 24.9213 41.5845C24.8516 41.5425 24.769 41.4574 24.71 41.3969C24.658 41.3436 24.5821 41.267 24.5477 41.2054C24.5225 41.1602 24.396 40.9888 24.3439 40.9888" stroke="#5844E4" stroke-linecap="square"/>
<path d="M24.8024 41.2151C24.7127 41.1231 24.6215 41.0316 24.5383 40.9462C24.4479 40.8536 24.2725 40.7988 24.208 40.6832C24.1808 40.6344 24.1045 40.5712 24.059 40.5362C24.0098 40.4984 23.9763 40.4285 23.9354 40.3795C23.8562 40.2849 23.7608 40.1345 23.6561 40.0749C23.5468 40.0127 23.4702 39.8931 23.3589 39.836C23.2277 39.7688 23.1307 39.6136 23.0023 39.5478C22.9461 39.5191 22.8791 39.4452 22.839 39.395C22.7733 39.3127 22.6737 39.2614 22.5984 39.1919C22.4915 39.0933 22.3739 39.0012 22.2682 38.9038C22.0216 38.6763 21.7358 38.5128 21.4813 38.2993C21.4129 38.242 21.3422 38.1947 21.2794 38.134C21.2509 38.1063 21.186 38.0715 21.1511 38.0508C21.1199 38.0323 21.105 38.0033 21.0747 37.986C21.0086 37.9483 20.9616 37.8791 20.8964 37.8419C20.8197 37.7982 20.7295 37.7366 20.6671 37.6727C20.6088 37.6129 20.5314 37.5646 20.4812 37.4986C20.4461 37.4523 20.378 37.4183 20.3492 37.368C20.2787 37.2452 20.1156 37.1912 20.051 37.0721C20.0226 37.0197 19.9508 36.9933 19.9284 36.9416C19.9104 36.9001 19.842 36.8446 19.8057 36.8149C19.6942 36.7234 19.5659 36.595 19.4359 36.5151" stroke="#5844E4" stroke-linecap="square"/>
<path d="M20.2341 37.1418C20.2236 37.0884 20.1531 37.0512 20.1227 37.0112C20.0823 36.9579 20.0255 36.9012 19.9925 36.8458C19.938 36.7544 19.8726 36.6743 19.8095 36.5934C19.7602 36.5302 19.6842 36.4163 19.6151 36.3758C19.5284 36.325 19.4875 36.205 19.4019 36.1534C19.328 36.1089 19.2607 36.0361 19.1981 35.9755C19.1313 35.9108 19.051 35.8576 18.9868 35.7917C18.8484 35.6499 18.7011 35.5319 18.5565 35.3971C18.4984 35.343 18.4207 35.2946 18.349 35.2579C18.2791 35.2221 18.2222 35.1537 18.1537 35.1225C18.1015 35.0987 17.9693 35.0256 17.9414 34.9755C17.9233 34.943 17.8511 34.9239 17.8225 34.8962C17.8093 34.8834 17.7043 34.8287 17.6866 34.8266C17.6204 34.8186 17.5699 34.7475 17.4998 34.7395C17.4706 34.7362 17.315 34.6506 17.296 34.6264C17.277 34.6021 17.2065 34.5941 17.1771 34.579C17.1269 34.5532 17.0748 34.5339 17.0243 34.5094C16.9389 34.4679 16.8694 34.4635 16.778 34.4426C16.6946 34.4236 16.6111 34.4262 16.5233 34.4262C16.4222 34.4262 16.3401 34.4919 16.2393 34.4958C16.2006 34.4974 16.1128 34.5156 16.0818 34.5403C16.0323 34.5798 15.9623 34.5725 15.9072 34.608C15.8237 34.6619 15.7272 34.7132 15.6581 34.784C15.3988 35.0499 14.9288 35.0726 14.7316 35.4262C14.7033 35.477 14.6387 35.569 14.5873 35.5925C14.5442 35.6121 14.5037 35.6519 14.4599 35.6757C14.4288 35.6925 14.3682 35.7306 14.341 35.7569C14.2862 35.8099 14.2104 35.8466 14.1627 35.9068C14.1121 35.9706 14.0555 36.0364 13.9976 36.0934C13.9095 36.1803 13.8506 36.2918 13.7561 36.3749C13.6823 36.4396 13.6248 36.5323 13.5353 36.5847C13.447 36.6364 13.3658 36.7161 13.2843 36.7762C13.1033 36.9098 13.0091 37.1455 12.8126 37.2462" stroke="#5844E4" stroke-linecap="square"/>
<path d="M15.3698 35.3189C15.2405 35.3189 15.168 35.3991 15.0698 35.4774C15.006 35.5283 14.8529 35.6112 14.8178 35.6743C14.7924 35.7198 14.7075 35.7307 14.6724 35.7727C14.635 35.8174 14.5618 35.8519 14.5177 35.897C14.4237 35.9934 14.3148 36.0661 14.2044 36.1308C13.8286 36.3509 13.4933 36.6484 13.1803 36.9372C12.9989 37.1045 12.7973 37.245 12.6229 37.4238C12.5528 37.4956 12.4733 37.6016 12.3802 37.6561C12.2718 37.7196 12.1954 37.8811 12.0935 37.9623C12.0127 38.0267 11.9404 38.1542 11.8841 38.2466C11.8442 38.3121 11.7644 38.4823 11.6974 38.5227C11.6111 38.5747 11.5305 38.7129 11.4574 38.7879C11.3782 38.8691 11.2966 38.9527 11.2174 39.0339C11.0622 39.1929 10.8447 39.3717 10.7373 39.5642C10.6758 39.6746 10.5699 39.7987 10.4866 39.884C10.4135 39.959 10.3745 40.0653 10.2933 40.1301C10.2072 40.1987 10.1576 40.3013 10.0652 40.357C9.98902 40.4029 9.86527 40.5094 9.81989 40.5839C9.77002 40.6656 9.64757 40.7304 9.57986 40.7998C9.51081 40.8706 9.46033 40.9442 9.39317 41.013C9.3313 41.0765 9.21992 41.1823 9.17715 41.2591C9.12524 41.3522 9.00978 41.4178 8.96112 41.5051C8.91199 41.5932 8.8177 41.6709 8.75577 41.7525C8.70486 41.8196 8.59182 41.8812 8.55308 41.9507C8.45455 42.1274 8.18681 42.267 8.04369 42.399C7.89717 42.5342 7.71576 42.7352 7.54497 42.8227" stroke="#5844E4" stroke-linecap="square"/>
<path d="M14.1697 36.303C13.9061 36.5732 13.6717 36.8554 13.3963 37.1094C13.2828 37.2141 13.1451 37.3387 13.0176 37.4156C12.8499 37.5167 12.7503 37.7291 12.5855 37.8229C12.439 37.9063 12.3338 38.0713 12.1962 38.1728C12.0397 38.2883 11.9059 38.4545 11.7454 38.561C11.7017 38.59 11.6467 38.6369 11.6134 38.6785C11.57 38.7329 11.495 38.769 11.4587 38.8248C11.3958 38.9216 11.2709 39.0068 11.188 39.0886C11.0146 39.2597 10.8598 39.442 10.6787 39.6011C10.5969 39.673 10.5457 39.7909 10.4493 39.8513C10.3885 39.8893 10.2811 40.0327 10.2466 40.0932C10.2201 40.1397 10.1886 40.1545 10.1613 40.1957C10.1298 40.2432 10.0859 40.2721 10.0599 40.3133C10.0141 40.3859 9.93336 40.5163 9.85989 40.5593C9.80123 40.5936 9.73287 40.6873 9.84923 40.6276C9.94816 40.5769 10.0665 40.5088 10.1386 40.4226C10.2066 40.3413 10.314 40.2753 10.396 40.2148C10.4854 40.1488 10.5422 40.0519 10.6293 39.9825C10.7515 39.885 10.8796 39.7758 11.012 39.6982C11.0601 39.67 11.114 39.5823 11.1694 39.5752C11.1781 39.5741 11.3057 39.4614 11.3121 39.4385C11.331 39.3704 11.406 39.2978 11.4387 39.2307C11.4684 39.1699 11.5152 39.1095 11.5654 39.0694C11.629 39.0188 11.8174 38.8474 11.8174 38.7633" stroke="#5844E4" stroke-linecap="square"/>
<path d="M10.3053 40.141C10.0521 40.4265 9.80431 40.7343 9.62786 41.0759C9.52632 41.2725 9.34493 41.476 9.18782 41.6281C9.07226 41.74 8.97622 41.8902 8.86511 42.0108C8.77117 42.1128 8.65227 42.1851 8.55308 42.2815C8.46062 42.3712 8.34108 42.4773 8.23571 42.5521C8.10663 42.6437 7.9889 42.7797 7.857 42.8473" stroke="#5844E4" stroke-linecap="square"/>
<path d="M28.7454 39.5053C28.27 39.0828 27.6008 38.944 27.1549 38.4982C27.0183 38.3616 26.8689 38.2019 26.7701 38.0292C26.6463 37.8124 26.4447 37.6533 26.3237 37.4354C26.0839 37.0038 25.8438 36.581 25.6397 36.1501C25.4486 35.7467 25.1737 35.3433 25.1737 34.8648C25.1737 34.6302 25.0654 34.4037 25.0654 34.1748C25.0654 34.0655 25.0102 33.9466 24.9858 33.8366C24.969 33.761 25.0027 33.5186 24.9437 33.4713C24.8722 33.4141 24.9147 33.2152 24.855 33.1406C24.8035 33.0762 24.7451 32.9009 24.7407 32.8219C24.7365 32.7464 24.6707 32.5043 24.6265 32.4491C24.5708 32.3795 24.5769 32.2519 24.5183 32.1785C24.3766 32.0014 24.2031 31.8912 24.0237 31.7516C23.9271 31.6765 23.786 31.5199 23.6719 31.4945C23.6013 31.4789 23.5609 31.4157 23.5096 31.3758C23.4645 31.3407 23.3663 31.3487 23.3337 31.2916C23.2875 31.2108 23.0934 31.1384 23.009 31.0962C22.8882 31.0358 22.7475 30.9551 22.6182 30.9218C22.5166 30.8957 22.4304 30.8387 22.3325 30.8136C22.2643 30.796 22.1237 30.778 22.068 30.7324C21.9926 30.6707 21.8051 30.6661 21.7042 30.6362C21.403 30.547 21.0649 30.5148 20.7767 30.3867C20.6561 30.3331 20.5316 30.2988 20.4114 30.2453C20.3208 30.2051 20.222 30.205 20.1348 30.1552C20.0779 30.1226 19.936 30.0927 19.8702 30.089C19.6 30.074 19.3115 29.9333 19.0449 29.874C18.7858 29.8165 18.5561 29.7373 18.2873 29.7373C18.0255 29.7373 17.8118 29.7259 17.5973 29.8395C17.3833 29.9528 17.3073 30.2105 17.1433 30.3927C16.948 30.6097 16.7028 30.8351 16.4458 30.9819C16.3354 31.045 16.273 31.1485 16.1767 31.2255C16.0995 31.2872 15.9602 31.4454 15.9197 31.5366C15.8941 31.5942 15.7982 31.6348 15.7573 31.6915C15.7148 31.7506 15.6625 31.7902 15.616 31.8418C15.5322 31.9349 15.4618 32.0631 15.3515 32.1244C15.2242 32.1951 15.1705 32.3695 15.0418 32.4431C14.9445 32.4987 14.87 32.6285 14.7682 32.6866C14.7021 32.7244 14.5446 32.8656 14.5066 32.9301C14.4392 33.0448 14.3151 33.1398 14.221 33.2338C14.0146 33.4402 13.7558 33.6647 13.4965 33.802C13.1659 33.977 12.8419 34.2491 12.578 34.5131C12.2976 34.7935 12.0437 35.0984 11.7933 35.4045C11.5999 35.6408 11.2912 35.8792 11.0221 36.0208C10.9747 36.0458 10.8987 36.1111 10.8598 36.1501C10.7973 36.2125 10.7256 36.2366 10.6704 36.3064C10.6226 36.3667 10.5147 36.4104 10.4539 36.4748C10.4017 36.5301 10.3471 36.5816 10.2915 36.6372" stroke="#5844E4" stroke-linecap="square"/>
<path d="M9.92449 37.0829C9.76583 37.1005 9.60652 37.3511 9.46636 37.4253C9.31723 37.5043 9.17019 37.6219 9.04987 37.7493C8.82799 37.9842 8.68704 38.3996 8.42514 38.6054C8.33463 38.6765 8.22747 38.7984 8.14285 38.883C8.07313 38.9528 8.00311 39.0131 7.92535 39.0797C7.78882 39.1967 7.59453 39.3015 7.49961 39.4569C7.40652 39.6092 7.13438 39.743 6.99983 39.8641C6.869 39.9818 6.74729 40.0994 6.61342 40.2065C6.48525 40.3091 6.31983 40.433 6.21776 40.5606C6.09676 40.7118 5.90781 40.7664 5.78045 40.8937C5.54538 41.1288 5.15191 41.302 4.97755 41.5809C4.79818 41.8679 4.51413 42.0969 4.34356 42.3954C4.1751 42.6902 3.90806 42.9631 3.71883 43.2469" stroke="#5844E4" stroke-linecap="square"/>
<path d="M7.43424 43.0853C7.25883 43.2827 7.1521 43.5163 6.97279 43.6956C6.89484 43.7736 6.83341 43.8618 6.75844 43.9368C6.6914 44.0038 6.56919 44.1184 6.52325 44.1988C6.45248 44.3226 6.31442 44.3846 6.22852 44.492C6.15864 44.5793 6.00809 44.6342 5.95463 44.7197C5.89058 44.8222 5.73408 44.8867 5.64502 44.9668C5.57937 45.0259 5.49094 45.1506 5.40983 45.1737C5.18502 45.238 5.03139 45.5241 4.74296 45.4417C4.64919 45.4149 4.52121 45.3092 4.41995 45.3092C4.33037 45.3092 4.19754 45.1856 4.1922 45.0949C4.18813 45.0257 4.08158 44.8762 4.03739 44.821C3.97095 44.7379 3.87184 44.6429 3.81709 44.5471C3.77737 44.4776 3.64671 44.338 3.58786 44.2791C3.51675 44.208 3.53354 44.0153 3.44198 43.9695" stroke="#5844E4" stroke-linecap="square"/>
<path d="M7.85897 38.3445C7.81344 38.3445 7.79172 38.3836 7.76232 38.4119C7.72422 38.4486 7.68213 38.4655 7.65592 38.5126C7.63022 38.5589 7.58006 38.5863 7.55358 38.6296C7.53111 38.6664 7.48706 38.7218 7.45124 38.7466C7.41414 38.7722 7.38777 38.819 7.35621 38.8505C7.31556 38.8912 7.28438 38.9458 7.23925 38.9805C7.21542 38.9988 7.19456 39.0297 7.17549 39.0532C7.15568 39.0776 7.12531 39.0927 7.10604 39.1177C7.09536 39.1316 7.0759 39.1563 7.06178 39.1669C7.03726 39.1853 7.02636 39.2145 7.0037 39.2323C6.97267 39.2567 6.93766 39.2946 6.91558 39.3277C6.88647 39.3714 6.83261 39.4001 6.79537 39.4374C6.73028 39.5024 6.65466 39.5569 6.5911 39.6205C6.53689 39.6747 6.47348 39.7207 6.42256 39.7773C6.40054 39.8017 6.36194 39.8179 6.33484 39.839C6.30453 39.8626 6.33806 39.7701 6.33849 39.7627C6.34175 39.7074 6.3867 39.6562 6.42459 39.6221C6.44241 39.6061 6.45281 39.5785 6.4717 39.5596C6.4912 39.5401 6.51299 39.5219 6.53586 39.5084C6.55967 39.4944 6.58788 39.4788 6.60734 39.4613C6.62077 39.4492 6.67288 39.4048 6.67475 39.3898C6.67753 39.3676 6.72501 39.3341 6.74054 39.3167C6.76959 39.2843 6.78536 39.2354 6.8173 39.2034C6.8433 39.1774 6.87556 39.1404 6.89405 39.108C6.90475 39.0893 6.93734 39.05 6.9566 39.039C6.97188 39.0302 7.01177 38.9916 7.01832 38.9768C7.02692 38.9575 7.06962 38.9321 7.08777 38.9179C7.11118 38.8997 7.13012 38.875 7.15356 38.8562C7.16968 38.8433 7.19747 38.8123 7.21163 38.7941C7.22848 38.7724 7.25884 38.7621 7.27417 38.7429C7.28903 38.7243 7.32373 38.7132 7.33265 38.6954" stroke="#5844E4" stroke-width="0.25" stroke-linecap="round"/>
<path d="M8.54611 37.8474C8.50087 37.8474 8.47003 37.8819 8.43809 37.9116C8.39586 37.9508 8.35312 37.9892 8.31219 38.0302C8.24433 38.098 8.16884 38.1534 8.09858 38.2186C8.08179 38.2342 8.05858 38.2423 8.04172 38.2568C8.02561 38.2706 7.99538 38.2798 7.98324 38.295C7.94507 38.3427 7.87705 38.3725 7.82933 38.4107C7.78392 38.447 7.73204 38.4787 7.69084 38.5199C7.65983 38.551 7.61909 38.5674 7.5885 38.5963C7.54847 38.6341 7.55109 38.5643 7.56657 38.5402C7.60133 38.4862 7.65359 38.4415 7.6945 38.392C7.71549 38.3666 7.7379 38.3428 7.76394 38.3226C7.78323 38.3076 7.80908 38.2994 7.82608 38.2824C7.86169 38.2468 7.90169 38.2141 7.93776 38.178C7.9985 38.1173 8.05696 38.0566 8.11117 37.9904C8.15831 37.9328 8.23086 37.8951 8.28295 37.8401C8.35005 37.7693 8.42866 37.7013 8.50915 37.646C8.60208 37.5821 8.68402 37.4996 8.77272 37.4291C8.95077 37.2877 9.10581 37.121 9.28442 36.9792C9.33934 36.9356 9.38769 36.8824 9.44362 36.8386C9.4972 36.7967 9.53521 36.738 9.58778 36.6965C9.62346 36.6683 9.66188 36.6255 9.68972 36.5901C9.73283 36.5352 9.66036 36.5851 9.64423 36.6047C9.5779 36.6853 9.50632 36.775 9.41965 36.835C9.34918 36.8838 9.2818 36.9592 9.20401 36.9926C9.16921 37.0075 9.13501 37.0516 9.10492 37.0762C9.0512 37.1202 8.99011 37.1585 8.93923 37.2058C8.89578 37.2461 8.8408 37.2819 8.80358 37.3284C8.76999 37.3704 8.71855 37.416 8.67769 37.4523C8.59438 37.5263 8.53711 37.6367 8.4454 37.7012C8.39881 37.734 8.37538 37.7976 8.33087 37.8344C8.27377 37.8817 8.22472 37.9393 8.1664 37.9859C8.0506 38.0785 7.92487 38.1571 7.80943 38.2495C7.72476 38.3172 7.66057 38.404 7.58444 38.4801C7.43855 38.626 7.28417 38.7616 7.15356 38.9224C7.06175 39.0354 6.95408 39.1375 6.85182 39.242C6.75484 39.3411 6.65142 39.4465 6.53261 39.5178C6.51074 39.5309 6.49741 39.5536 6.47738 39.5693C6.45816 39.5844 6.43822 39.598 6.4189 39.6132C6.38019 39.6436 6.33821 39.6762 6.29626 39.7025C6.24954 39.7319 6.20612 39.7645 6.16143 39.7959C6.12143 39.8241 6.06559 39.8633 6.03553 39.9015C6.01096 39.9328 5.98564 39.9641 5.95837 39.9929C5.92774 40.0252 5.90944 40.0623 5.87959 40.0932C5.82987 40.1448 5.78284 40.1987 5.73176 40.2484C5.69341 40.2857 5.65226 40.3167 5.61846 40.358C5.59076 40.3919 5.57492 40.4344 5.54901 40.4681C5.51256 40.5154 5.47272 40.5581 5.43205 40.6033C5.40215 40.6365 5.38643 40.6884 5.3553 40.7243C5.31262 40.7736 5.26933 40.8139 5.20544 40.8299" stroke="#5844E4" stroke-width="0.25" stroke-linecap="round"/>
<path d="M11.106 40.2571C10.9808 40.3823 10.8785 40.531 10.7391 40.6394C10.6074 40.7419 10.4847 40.9127 10.3794 41.048C10.2621 41.1988 10.1233 41.3005 9.97356 41.4231C9.91068 41.4745 9.97886 41.4363 10.0098 41.4149C10.0646 41.377 10.1151 41.3332 10.1638 41.2881C10.2209 41.2352 10.3382 41.1897 10.3722 41.1132C10.4038 41.042 10.4989 41.0086 10.5443 40.9502C10.5969 40.8826 10.7111 40.8503 10.7763 40.7916C10.8179 40.7541 10.8559 40.7018 10.9022 40.6648C10.9316 40.6413 11.0191 40.5616 11.0245 40.518C11.0262 40.5041 11.1177 40.3815 11.1305 40.3712C11.1874 40.3257 11.2027 40.2275 11.2564 40.1792C11.378 40.0698 11.4308 39.9011 11.4974 39.7679" stroke="#5844E4" stroke-width="0.25" stroke-linecap="round"/>
<path d="M11.318 39.9472C11.3919 39.9125 11.4366 39.8393 11.5047 39.8005C11.5705 39.7629 11.5955 39.6862 11.6687 39.6537C11.7826 39.6031 11.8417 39.4456 11.9377 39.3892C11.9611 39.3754 12.0202 39.2965 12.0356 39.2696C12.0719 39.206 12.1283 39.1489 12.1733 39.0911C12.2152 39.0372 12.2331 38.9784 12.2675 38.9199C12.3118 38.8446 12.4607 38.7444 12.5411 38.7042C12.6092 38.6702 12.7044 38.5772 12.7613 38.5203C12.8268 38.4548 12.9 38.4001 12.9724 38.3409C13.1031 38.234 13.1959 38.1086 13.3076 37.9903C13.3532 37.942 13.3799 37.8691 13.4299 37.8191C13.4611 37.7879 13.5359 37.7174 13.5422 37.6732C13.5439 37.6613 13.3447 37.7822 13.3248 37.7955C13.2204 37.8652 13.1163 37.9445 13.0177 38.0229C12.8906 38.124 12.7324 38.1876 12.6263 38.3165C12.5648 38.3912 12.4976 38.4374 12.4424 38.5203C12.3809 38.6125 12.4876 38.5005 12.5158 38.4723C12.6088 38.3793 12.7285 38.2777 12.793 38.1616C12.9591 37.8625 12.9345 37.4865 12.9325 37.1568C12.9301 36.7476 12.7805 36.376 12.5574 36.037C12.468 35.9011 12.3583 35.7747 12.2557 35.6493C12.1755 35.5512 12.0907 35.4723 11.9903 35.3938C11.9326 35.3487 11.8372 35.3003 11.791 35.2425C11.7424 35.1818 11.5327 35.2632 11.4811 35.2905C11.3636 35.3527 11.2352 35.3478 11.1097 35.3974C11.016 35.4344 10.9239 35.4787 10.8379 35.5279C10.7653 35.5693 10.7163 35.6566 10.6576 35.7154C10.5957 35.7773 10.5469 35.8447 10.4827 35.9066C10.3856 36.0001 10.2578 36.0608 10.1602 36.1476C10.085 36.2144 9.977 36.2786 9.89112 36.3342C9.77287 36.4107 9.68917 36.4881 9.58943 36.5879C9.51548 36.6618 9.43013 36.7308 9.36475 36.8035C9.27832 36.8995 9.45818 36.8436 9.49159 36.8325" stroke="#5844E4" stroke-width="0.25" stroke-linecap="round"/>
<path d="M9.89928 36.4085C9.95557 36.4022 10.0364 36.3189 10.075 36.2817C10.149 36.2104 10.218 36.1376 10.2825 36.0588C10.3518 35.9741 10.4652 35.9125 10.5199 35.8214C10.5394 35.7889 10.6006 35.738 10.6331 35.7199C10.6929 35.6868 10.7254 35.615 10.7717 35.5686C10.83 35.5103 10.9347 35.4437 10.9756 35.372C11.0204 35.2937 11.1278 35.2654 11.1749 35.1854C11.218 35.1121 11.3275 35.0793 11.3706 35.006C11.4049 34.9476 11.491 34.9001 11.5391 34.852C11.5985 34.7926 11.6771 34.7465 11.7257 34.6763C11.7959 34.5749 11.887 34.4333 12.0066 34.3827C12.1129 34.3378 12.1986 34.2206 12.2883 34.1508C12.4235 34.0457 12.5939 33.9821 12.7278 33.8726C12.8116 33.804 12.9141 33.7553 12.9805 33.6779C13.0738 33.5691 13.1881 33.4622 13.2994 33.368C13.4058 33.278 13.5048 33.1578 13.621 33.0817C13.7651 32.9875 13.8852 32.8792 14.0088 32.7556C14.0745 32.6899 14.1327 32.6172 14.1973 32.5526C14.2499 32.4999 14.325 32.4547 14.3676 32.3932C14.3833 32.3705 14.4949 32.2205 14.4247 32.2908C14.3679 32.3476 14.297 32.3922 14.2371 32.4457C14.1372 32.5351 13.9892 32.6268 13.8711 32.6912C13.7867 32.7373 13.6671 32.8262 13.6093 32.9032C13.5526 32.9788 13.4694 33.0673 13.3973 33.1234C13.3631 33.15 13.2995 33.2092 13.2786 33.2448C13.2483 33.2963 13.1748 33.3275 13.1373 33.3753C13.0666 33.4652 12.9328 33.5581 12.8383 33.6199C12.7377 33.6856 12.6558 33.7987 12.5737 33.8808C12.3744 34.0801 12.1242 34.2397 11.9251 34.4389C11.8404 34.5236 11.7673 34.6057 11.685 34.688C11.5906 34.7824 11.4691 34.8468 11.3824 34.948C11.3141 35.0277 11.1889 35.0777 11.1224 35.161C11.0587 35.2405 10.9745 35.3006 10.9022 35.373C10.5464 35.7288 10.1443 36.0438 9.83405 36.4574" stroke="#5844E4" stroke-width="0.25" stroke-linecap="round"/>
<path d="M15.4602 35.854C15.3815 35.8587 15.241 36.0222 15.1866 36.0787C15.0983 36.1704 15.0166 36.2673 14.9293 36.3605C14.8272 36.4693 14.6844 36.5355 14.5705 36.6286C14.4809 36.702 14.3691 36.7662 14.2734 36.8325C14.1179 36.9401 14.0167 37.0903 13.8702 37.2076C13.7954 37.2674 13.7353 37.3638 13.65 37.4159C13.6207 37.4339 13.4725 37.5342 13.4725 37.5736C13.4725 37.6179 13.5876 37.4983 13.5939 37.492C13.6423 37.4436 13.6924 37.4003 13.7488 37.3616C13.7965 37.3288 13.8668 37.2563 13.9191 37.2402C13.975 37.223 14.0191 37.1439 14.074 37.1133C14.2097 37.038 14.3536 36.9371 14.4618 36.8289C14.5682 36.7225 14.6823 36.6143 14.7753 36.4982C14.8573 36.3956 14.9744 36.3349 15.0525 36.2373C15.1461 36.1203 15.2476 35.9923 15.3533 35.8866C15.4163 35.8236 15.4787 35.7195 15.5218 35.642C15.6004 35.5005 15.7467 35.4151 15.876 35.324C15.9519 35.2706 16.0498 35.234 16.1116 35.1619C16.1322 35.1378 16.1574 35.1002 16.1859 35.0876C16.2632 35.0532 16.3272 34.9839 16.406 34.9444C16.5296 34.8826 16.7192 34.8082 16.8626 34.8719C16.8896 34.8839 16.9301 34.9065 16.9605 34.9082C16.9732 34.9089 17.0439 34.931 17.0384 34.9372C16.9927 34.9886 16.86 34.998 16.7974 35.0069C16.6303 35.0308 16.5021 35.1591 16.3499 35.2026C16.2467 35.2321 16.0888 35.3324 16.011 35.4101C15.9664 35.4547 15.9022 35.5111 15.8443 35.5442C15.781 35.5803 15.7382 35.6579 15.6722 35.691" stroke="#5844E4" stroke-width="0.25" stroke-linecap="round"/>
<path d="M15.607 31.19C15.5066 31.2196 15.4263 31.3055 15.3533 31.3785C15.2378 31.494 15.1211 31.6345 15.028 31.769C14.9399 31.8963 14.871 32.0608 14.739 32.1522C14.6495 32.2141 14.5462 32.29 14.4654 32.3642C14.4105 32.4146 14.3176 32.4795 14.2453 32.4956C14.2296 32.499 14.1763 32.5552 14.1592 32.5399C14.1409 32.5236 14.1869 32.4518 14.1954 32.4385C14.24 32.3684 14.2822 32.3 14.3386 32.2374C14.3843 32.1866 14.4447 32.0997 14.5107 32.0743C14.5661 32.053 14.6433 31.9907 14.6856 31.9483C14.7472 31.8867 14.8204 31.8462 14.8813 31.7853C14.9254 31.7412 14.9835 31.6922 15.0362 31.6593C15.0755 31.6348 15.1624 31.5572 15.1866 31.5162C15.2554 31.3991 15.3752 31.3207 15.4602 31.2145C15.4701 31.2022 15.5819 31.0574 15.5127 31.0795C15.4495 31.0997 15.3351 31.1643 15.3007 31.2227C15.2779 31.2615 15.2039 31.2604 15.183 31.2969C15.1727 31.3149 15.1473 31.336 15.1304 31.3495C15.1151 31.3618 15.0927 31.3925 15.076 31.402C14.9731 31.4608 14.9229 31.5976 14.8242 31.6593C14.7459 31.7083 14.6389 31.8252 14.5796 31.8994C14.5141 31.9813 14.4295 32.0648 14.3549 32.1395C14.1964 32.298 14.1055 32.521 13.9019 32.6287C13.8344 32.6645 13.7672 32.7095 13.6999 32.7474C13.6312 32.7861 13.5406 32.8281 13.4797 32.8779C13.4003 32.9429 13.2268 33.0305 13.1934 33.1306" stroke="#5844E4" stroke-width="0.25" stroke-linecap="round"/>
<path d="M10.0925 41.4869C10.0276 41.4869 9.98695 41.577 9.93352 41.6066C9.87392 41.6397 9.81886 41.6917 9.76566 41.7342C9.67106 41.8099 9.59278 41.8757 9.50945 41.964C9.41638 42.0625 9.34188 42.1895 9.23557 42.2722C9.16448 42.3275 9.01264 42.4462 8.97937 42.5294C8.944 42.6178 8.80178 42.7241 8.72807 42.7905C8.65139 42.8595 8.54224 42.9215 8.45812 42.9888C8.36395 43.0641 8.20551 43.1509 8.14498 43.2538C8.11315 43.3079 8.03933 43.3121 8.00755 43.3677C7.98197 43.4124 7.86375 43.4884 7.81711 43.5189C7.70824 43.59 7.58387 43.6711 7.50299 43.7751C7.41501 43.8882 7.26165 43.9467 7.15942 44.0489C7.02969 44.1787 7.33627 43.9896 7.3793 43.9773C7.4342 43.9616 7.48386 43.9092 7.54422 43.886C7.58677 43.8696 7.69628 43.8108 7.72484 43.7751C7.7574 43.7344 7.8301 43.7318 7.86619 43.6867C7.89408 43.6519 7.95782 43.6259 7.9938 43.5935C8.03508 43.5563 8.06458 43.5266 8.09982 43.4874C8.13805 43.445 8.22224 43.3964 8.23627 43.3333C8.25406 43.2533 8.39616 43.1174 8.46695 43.0732C8.51619 43.0424 8.53701 42.9716 8.5818 42.9358C8.61396 42.91 8.66132 42.8337 8.66132 42.7944" stroke="#5844E4" stroke-width="0.25" stroke-linecap="round"/>
<path d="M13.8915 37.4406C13.841 37.4911 13.7606 37.5346 13.6971 37.5682C13.6194 37.6093 13.5886 37.6549 13.6892 37.5957C13.736 37.5682 13.7636 37.4654 13.8208 37.4582C13.8534 37.4542 13.9777 37.3504 13.9975 37.3257C14.0453 37.266 14.1366 37.2492 14.1742 37.1834C14.2133 37.1149 14.277 37.0912 14.3155 37.043C14.3794 36.9632 14.5629 36.8792 14.5629 36.7691" stroke="#5844E4" stroke-width="0.25" stroke-linecap="round"/>
<path d="M15.6878 35.7731C15.6878 35.8322 15.5494 35.9012 15.4993 35.9278C15.4255 35.9668 15.3627 36.0359 15.3107 36.1009C15.2868 36.1307 15.242 36.1537 15.2229 36.1862C15.197 36.2302 15.1348 36.2512 15.1042 36.2894C15.0727 36.3288 15.0152 36.3565 14.9945 36.4036C14.983 36.4296 14.9377 36.463 14.9156 36.4819C14.8993 36.4959 14.8801 36.5092 14.8618 36.5184" stroke="#5844E4" stroke-width="0.25" stroke-linecap="round"/>
<path d="M29.6467 33.1364C29.6467 33.7575 29.6707 34.3645 29.6707 34.9837" stroke="#5844E4" stroke-width="0.25"/>
<path d="M29.5926 33.9379C29.5189 33.9461 29.547 34.2448 29.547 34.3025C29.547 34.3663 29.547 34.4301 29.547 34.4939C29.547 34.5585 29.5197 34.618 29.5197 34.6853" stroke="#5844E4" stroke-width="0.25"/>
<path d="M29.5197 34.6852C29.5197 34.9279 29.5197 35.1819 29.5197 35.4235C29.5197 35.4857 29.5197 35.548 29.5197 35.6103C29.5197 35.6437 29.5197 35.6771 29.5197 35.7105C29.5197 35.7569 29.5363 35.7992 29.5379 35.8447C29.5409 35.9322 29.5561 36.0203 29.5561 36.1075C29.5561 36.1959 29.4911 36.289 29.4604 36.3708C29.4429 36.4175 29.4285 36.4582 29.4285 36.508" stroke="#5844E4" stroke-width="0.25"/>
<path d="M29.5105 36.344C29.5678 36.3511 29.5713 36.5299 29.5789 36.5678C29.5972 36.6591 29.6037 36.7708 29.5921 36.864C29.5776 36.9795 29.5426 37.0967 29.5197 37.2113C29.5022 37.2984 29.4643 37.3857 29.4559 37.4741C29.4547 37.4867 29.4418 37.4973 29.4488 37.5105C29.4572 37.5265 29.465 37.5208 29.465 37.5424C29.465 37.6052 29.4741 37.665 29.4741 37.7293C29.4741 37.7928 29.4441 37.85 29.4376 37.9115C29.4336 37.9495 29.4183 37.9963 29.4098 38.0346C29.4029 38.0657 29.3942 38.0896 29.3759 38.0483C29.3581 38.0082 29.3738 37.9288 29.3738 37.8842C29.3738 37.8319 29.3921 37.784 29.3921 37.7338C29.3921 37.6807 29.3921 37.6275 29.3921 37.5743C29.3921 37.5142 29.3888 37.4457 29.4017 37.3875C29.4138 37.333 29.4079 37.2785 29.4199 37.2245C29.4406 37.1313 29.4467 37.017 29.4467 36.9181C29.4467 36.8141 29.4741 36.7125 29.4741 36.6083" stroke="#5844E4" stroke-width="0.25"/>
<path d="M29.4467 36.5627C29.3929 36.5694 29.3949 36.7211 29.4123 36.7541C29.4509 36.827 29.4376 36.9256 29.4376 37.0093C29.4376 37.1958 29.383 37.3667 29.383 37.5511C29.383 37.6409 29.3738 37.7276 29.3738 37.8159C29.3738 37.8575 29.3647 37.9019 29.3647 37.9389C29.3647 37.9857 29.349 38.0216 29.3465 38.0665C29.342 38.1476 29.3088 38.2291 29.2913 38.308C29.2832 38.3443 29.2629 38.389 29.2483 38.4219C29.2454 38.4284 29.2331 38.4685 29.23 38.4655C29.2214 38.4569 29.228 38.4158 29.228 38.4037" stroke="#5844E4" stroke-width="0.25"/>
<path d="M29.4103 38.2123C29.4084 38.2423 29.3611 38.3009 29.3414 38.3262C29.3144 38.361 29.2868 38.4124 29.2716 38.4564C29.2508 38.5164 29.2061 38.5741 29.1774 38.6315C29.1459 38.6946 29.1026 38.752 29.0731 38.8184C29.0452 38.8812 29.0074 38.9421 28.984 39.0072C28.9641 39.0624 28.9202 39.0378 28.8726 39.0326C28.7747 39.0217 28.8537 38.8319 28.8954 38.8042C28.9172 38.7896 28.9357 38.7449 28.95 38.7227C28.9642 38.7006 28.9882 38.6472 29.0093 38.6336C29.0482 38.6084 29.0591 38.5425 29.0959 38.5131C29.1232 38.4912 29.1277 38.4362 29.1531 38.4108C29.186 38.3779 29.1836 38.3225 29.2078 38.2923C29.2238 38.2723 29.2098 38.1885 29.2098 38.1622C29.2098 38.1278 29.2181 38.076 29.2275 38.0432C29.2484 37.9699 29.2554 37.8806 29.2554 37.8022" stroke="#5844E4" stroke-width="0.25"/>
<path d="M29.2827 37.8842C29.2827 37.8248 29.2645 37.7766 29.2645 37.7202" stroke="#5844E4" stroke-width="0.25"/>
<path d="M29.2617 37.7617C29.2634 37.748 29.2734 37.736 29.2734 37.7207C29.2734 37.7083 29.2812 37.6923 29.2812 37.6797C29.2812 37.6476 29.293 37.6181 29.293 37.5859" stroke="#5844E4" stroke-width="0.25"/>
<path d="M29.2852 37.7031C29.2852 37.6976 29.2873 37.6592 29.291 37.6562C29.2985 37.6503 29.2924 37.6151 29.293 37.6055C29.2946 37.5773 29.317 37.5556 29.3244 37.5295C29.3439 37.4615 29.3281 37.3937 29.3281 37.3242" stroke="#5844E4" stroke-width="0.25"/>
<path d="M29.3516 37.5508C29.3444 37.5283 29.3539 37.5014 29.3446 37.4805C29.3418 37.4741 29.3416 37.462 29.3401 37.4551C29.3386 37.4485 29.3324 37.4391 29.332 37.4336C29.3303 37.4049 29.308 37.3656 29.3212 37.3359C29.3331 37.3092 29.342 37.2837 29.3438 37.2539C29.3446 37.2398 29.3516 37.2272 29.3516 37.2109C29.3516 37.2009 29.347 37.1683 29.3555 37.1641" stroke="#5844E4" stroke-width="0.25"/>
<path d="M29.3555 37.1953C29.3555 37.1725 29.3555 37.1497 29.3555 37.127C29.3555 37.1086 29.3489 37.0752 29.3563 37.0586C29.3604 37.0496 29.3605 37.0379 29.3631 37.0291C29.3661 37.0186 29.3681 37.0074 29.3709 36.9978C29.3736 36.9884 29.3711 36.9747 29.3711 36.9648C29.3711 36.953 29.375 36.9435 29.375 36.9306C29.375 36.8854 29.3828 36.8427 29.3828 36.7969C29.3828 36.774 29.3906 36.7518 29.3906 36.7285C29.3906 36.7046 29.3912 36.6859 29.3984 36.6641" stroke="#5844E4" stroke-width="0.25"/>
<path d="M29.4609 36.6797C29.4768 36.63 29.4453 36.5797 29.4453 36.5312C29.4453 36.4889 29.4453 36.4466 29.4453 36.4043C29.4453 36.3822 29.4453 36.36 29.4453 36.3379C29.4453 36.3164 29.4375 36.2949 29.4375 36.2734C29.4375 36.2561 29.4336 36.2372 29.4336 36.2188C29.4336 36.2012 29.4414 36.1864 29.4414 36.1699C29.4414 36.1531 29.4531 36.1357 29.4531 36.1191C29.4531 36.0996 29.4531 36.0801 29.4531 36.0605C29.4531 36.0237 29.4609 35.9862 29.4609 35.9492C29.4609 35.8812 29.4883 35.8188 29.4883 35.75" stroke="#5844E4" stroke-width="0.25"/>
<path d="M34.0742 35.5402C34.0451 35.4595 33.9896 35.3977 33.9513 35.321C33.914 35.2465 33.8834 35.1638 33.855 35.0856C33.8188 34.986 33.7715 34.8702 33.7715 34.7626C33.7715 34.7218 33.7611 34.6805 33.7611 34.6373C33.7611 34.6182 33.7611 34.5991 33.7611 34.5799C33.7611 34.5363 33.7624 34.5686 33.7819 34.5904C33.8118 34.6236 33.8282 34.6678 33.8469 34.7052C33.8664 34.7442 33.9 34.78 33.92 34.82C33.955 34.89 34.0218 34.9471 34.0435 35.0229C34.0485 35.0405 34.0757 35.0905 34.0899 35.1018C34.1125 35.1199 34.1075 35.166 34.1316 35.1853C34.1521 35.2017 34.1435 35.2574 34.1635 35.2688C34.1927 35.2855 34.1943 35.3472 34.2203 35.3732" stroke="#5844E4" stroke-width="0.25"/>
<path d="M34.0533 34.9348C34.0174 34.9146 34.0039 34.8796 33.9779 34.8536C33.9541 34.8298 33.948 34.7775 33.9228 34.7574C33.8925 34.7331 33.8955 34.6834 33.8707 34.6536C33.8445 34.6222 33.8313 34.5557 33.8109 34.5173C33.775 34.4494 33.7397 34.3772 33.7187 34.3039C33.6947 34.2197 33.6337 34.127 33.5941 34.0476" stroke="#5844E4" stroke-width="0.25"/>
<path d="M33.688 34.0685C33.6616 34.0124 33.652 33.9458 33.6231 33.8911C33.5974 33.8426 33.5732 33.7999 33.5622 33.7501C33.5496 33.6935 33.5244 33.6496 33.521 33.5884C33.5182 33.5385 33.5034 33.4719 33.4903 33.426C33.477 33.3796 33.4715 33.3239 33.4688 33.2752C33.4657 33.2187 33.445 33.1651 33.4369 33.1082C33.418 32.9759 33.3853 32.8426 33.3853 32.707C33.3853 32.596 33.354 32.4847 33.354 32.3695C33.354 32.2372 33.3467 32.1026 33.354 31.9705C33.367 31.7371 33.3853 31.4966 33.3853 31.2608C33.3853 31.2051 33.3853 31.1494 33.3853 31.0938C33.3853 31.0419 33.354 30.994 33.354 30.9424C33.354 30.9156 33.3273 30.8255 33.3099 30.8038C33.2772 30.7629 33.2906 30.6853 33.2653 30.6397C33.2382 30.591 33.26 30.5196 33.2369 30.4675C33.2165 30.4217 33.211 30.3612 33.198 30.3156C33.1871 30.2772 33.1781 30.198 33.1534 30.1671C33.1301 30.138 33.1045 30.0718 33.0936 30.0338C33.0643 29.931 33.0199 29.8535 32.9678 29.7624C32.9222 29.6825 32.8375 29.6367 32.7799 29.5646C32.7647 29.5456 32.734 29.5299 32.7127 29.5177C32.6872 29.5031 32.6699 29.4725 32.6442 29.4574C32.6061 29.4349 32.5753 29.3839 32.5341 29.3721C32.4719 29.3543 32.4107 29.3016 32.3647 29.2648C32.3325 29.239 32.3042 29.1817 32.2633 29.1726C32.2478 29.1692 32.1925 29.1274 32.1798 29.1147C32.1505 29.0853 32.1182 29.0694 32.0818 29.0485C32.0622 29.0374 32.05 29.0159 32.0331 29.0062C31.9803 28.9761 31.9427 28.9257 31.8846 28.9042C31.8259 28.8824 31.7763 28.8335 31.7211 28.8178C31.7099 28.8146 31.6941 28.7983 31.6834 28.7922C31.6549 28.7762 31.6235 28.7741 31.5958 28.7557C31.5611 28.7326 31.5134 28.7195 31.4833 28.6954C31.4509 28.6694 31.3648 28.6722 31.3239 28.6722C31.2056 28.6722 31.0903 28.6409 30.9719 28.6409C30.8598 28.6409 30.7477 28.6409 30.6356 28.6409C30.5461 28.6409 30.4561 28.669 30.3665 28.6722C30.2833 28.6752 30.1634 28.7728 30.1398 28.8555C30.1234 28.9128 30.0562 28.9525 30.0325 29.0085C30.0212 29.0353 29.9828 29.0778 29.9618 29.1002C29.9359 29.1276 29.9194 29.1656 29.9043 29.1987C29.8472 29.3244 29.8976 29.4738 29.8522 29.6012C29.8279 29.6691 29.8401 29.7698 29.8365 29.8412C29.832 29.9307 29.8156 30.0164 29.8156 30.108C29.8156 30.2081 29.7947 30.3096 29.7947 30.4107C29.7947 30.4934 29.7739 30.5735 29.7739 30.6554C29.7739 30.8624 29.7112 31.0629 29.7112 31.2689C29.7112 31.3547 29.6799 31.4444 29.6799 31.5316C29.6799 31.5774 29.6863 31.6278 29.6794 31.673C29.6737 31.7095 29.6759 31.7604 29.6614 31.7931C29.6468 31.826 29.6486 31.8982 29.6486 31.9334C29.6486 32.0239 29.6357 32.1149 29.6272 32.2048C29.6232 32.2464 29.6069 32.2829 29.6069 32.3248C29.6069 32.3632 29.608 32.4018 29.6069 32.4402C29.5919 32.9497 29.5964 33.4698 29.5964 33.9746" stroke="#5844E4" stroke-width="0.25"/>
<path d="M30.3584 28.8288C30.3514 28.7657 30.2861 28.8247 30.3166 28.8705" stroke="#5844E4" stroke-width="0.25"/>
<path d="M29.6258 38.8466C29.2759 38.7043 28.8895 38.6933 28.5351 38.5921C28.18 38.4906 27.7723 38.3978 27.502 38.1275C27.4456 38.0711 27.3597 38.0324 27.3217 37.9603C27.287 37.8942 27.2427 37.8259 27.201 37.7633C27.1655 37.7101 27.1323 37.6682 27.1043 37.6091C27.0935 37.5862 27.0839 37.5103 27.0839 37.5357C27.0839 37.5768 27.1126 37.5985 27.1341 37.6295C27.2513 37.7989 27.3978 37.9136 27.5596 38.043C27.6542 38.1187 27.7586 38.162 27.8392 38.2548C27.9673 38.4021 28.1512 38.5113 28.3028 38.6292C28.3967 38.7022 28.4644 38.7858 28.5723 38.8429C28.6199 38.8681 28.6596 38.8939 28.7135 38.9135C28.7505 38.927 28.9029 39.0267 28.8463 38.9135C28.7449 38.7105 28.4817 38.6221 28.3214 38.4787C28.2684 38.4313 28.1999 38.3856 28.1412 38.3449C28.0709 38.2963 28.0169 38.2267 27.9498 38.1777C27.8186 38.0818 27.6922 37.9814 27.5782 37.8674C27.5352 37.8244 27.4799 37.7738 27.4258 37.7429C27.3687 37.7102 27.2734 37.6462 27.2279 37.6007C27.0752 37.448 26.8162 37.3177 26.729 37.1037C26.6937 37.017 26.6089 36.9291 26.5581 36.8491C26.5153 36.782 26.4732 36.7137 26.4401 36.6401C26.388 36.5244 26.2721 36.3849 26.2645 36.2545C26.2634 36.237 26.2202 36.1618 26.2552 36.1718C26.2979 36.184 26.3459 36.2457 26.3722 36.2796C26.4434 36.3711 26.5108 36.4643 26.5748 36.5648C26.6901 36.7461 26.7821 36.964 26.9334 37.1241C26.9754 37.1686 27.0043 37.2233 27.0421 37.2737C27.0731 37.315 27.1098 37.3251 27.1341 37.3675C27.1448 37.3864 27.2072 37.4473 27.227 37.4586C27.2659 37.4808 27.2979 37.5319 27.3255 37.5673C27.4252 37.6955 27.5556 37.8956 27.7268 37.9445C27.7467 37.9502 27.8161 37.9992 27.8327 38.0142C27.8709 38.0485 27.9178 38.0751 27.9535 38.1108C28.0219 38.1792 28.1183 38.2255 28.1839 38.2985C28.3092 38.4377 28.4402 38.4912 28.6141 38.5298C28.7204 38.5534 28.8116 38.579 28.9235 38.579C29.0164 38.579 29.1576 38.6193 29.1576 38.4954" stroke="#5844E4" stroke-width="0.25"/>
<path d="M29.2852 37.4531C29.2656 37.4531 29.2548 37.4532 29.2402 37.4648C29.2311 37.4721 29.2398 37.5019 29.2452 37.5087C29.2526 37.5179 29.25 37.5486 29.25 37.5605C29.25 37.5781 29.25 37.5957 29.25 37.6133" stroke="#5844E4" stroke-width="0.12"/>
<path d="M29.207 37.8164C29.182 37.8164 29.1914 37.925 29.1914 37.9453C29.1914 37.9689 29.182 37.9888 29.176 38.01C29.1706 38.0289 29.1534 38.051 29.1523 38.0703C29.1515 38.0862 29.1386 38.113 29.1309 38.127C29.1208 38.145 29.1223 38.1733 29.1102 38.1884C29.1071 38.1923 29.1055 38.2152 29.1055 38.2207C29.1055 38.2326 29.1047 38.242 29.1018 38.2522C29.0956 38.2738 29.1033 38.2976 29.0918 38.3184C29.0811 38.3377 29.0742 38.3585 29.0634 38.3789C29.0549 38.3949 29.0404 38.4216 29.0254 38.4336C29.0107 38.4453 29.0001 38.4692 28.9805 38.4796C28.9611 38.4899 28.9302 38.5027 28.9084 38.4931C28.8895 38.4847 28.86 38.4648 28.8379 38.4648C28.8288 38.4648 28.8096 38.456 28.8008 38.4523C28.7878 38.4468 28.7747 38.447 28.7617 38.4405C28.7339 38.4266 28.6984 38.4294 28.6682 38.4199C28.6511 38.4146 28.6345 38.4163 28.6172 38.4138C28.6004 38.4114 28.5836 38.4047 28.5666 38.4026C28.5266 38.3976 28.4884 38.3786 28.4501 38.3663C28.4232 38.3577 28.3913 38.3402 28.3694 38.3223C28.356 38.3114 28.3427 38.3014 28.3312 38.2899C28.3212 38.2799 28.3118 38.266 28.2999 38.2578C28.2886 38.25 28.2578 38.2285 28.2578 38.2129C28.2578 38.1996 28.2739 38.2122 28.2812 38.2188C28.2903 38.2269 28.3137 38.2333 28.3194 38.2422C28.335 38.2662 28.3826 38.2834 28.408 38.2949C28.4309 38.3053 28.4573 38.3099 28.4813 38.3173C28.5018 38.3236 28.5238 38.3265 28.543 38.3351C28.5641 38.3445 28.5921 38.3423 28.6113 38.3572C28.6182 38.3626 28.6359 38.3667 28.6445 38.3672C28.6527 38.3677 28.6632 38.3784 28.6719 38.3789C28.6846 38.3796 28.6929 38.3877 28.7051 38.3904C28.7174 38.3931 28.732 38.3913 28.7439 38.3947C28.7627 38.4001 28.7901 38.4062 28.8105 38.4062C28.8561 38.4062 28.9017 38.4062 28.9473 38.4062C28.9676 38.4062 28.9886 38.4058 29.003 38.3898C29.0082 38.384 29.0152 38.3699 29.0187 38.3633C29.0233 38.3546 29.0294 38.3485 29.0352 38.3398" stroke="#5844E4" stroke-width="0.12"/>
<path d="M29 38.3828C29.027 38.3828 29.0383 38.3484 29.0556 38.3329C29.0778 38.3129 29.0857 38.3007 29.094 38.2717C29.101 38.2472 29.1101 38.223 29.1174 38.1975C29.1207 38.1861 29.1227 38.1693 29.1289 38.1584C29.1317 38.1535 29.135 38.1476 29.1365 38.1424C29.1377 38.1382 29.1391 38.1249 29.1415 38.122C29.1485 38.1131 29.1523 38.0974 29.1523 38.0859C29.1523 38.0794 29.157 38.0528 29.161 38.0477C29.1741 38.0314 29.1797 37.9918 29.1797 37.9707C29.1797 37.9431 29.185 37.9086 29.1912 37.8809C29.1929 37.8732 29.1955 37.8483 29.2012 37.8438C29.2088 37.8377 29.2063 37.81 29.2109 37.8008" stroke="#5844E4" stroke-width="0.12"/>
<path d="M29.1641 38.043C29.1406 38.043 29.1367 38.103 29.1367 38.1211C29.1367 38.134 29.1371 38.1525 29.1319 38.1641C29.1268 38.1756 29.1295 38.1987 29.1191 38.207C29.1116 38.2131 29.113 38.2307 29.1035 38.2383C29.1016 38.2398 29.0861 38.2705 29.0859 38.2734C29.0851 38.2873 29.0711 38.299 29.0703 38.3125C29.0701 38.3169 29.0558 38.3452 29.0527 38.3477C29.0429 38.3555 29.0455 38.3756 29.0293 38.3828C29.0128 38.3901 29.003 38.3895 28.9844 38.3906C28.9721 38.3913 28.958 38.4023 28.9453 38.4023C28.9278 38.4023 28.9103 38.4023 28.8928 38.4023C28.8782 38.4023 28.8622 38.3984 28.8496 38.3984C28.8374 38.3984 28.8131 38.4029 28.8038 38.3954C28.7986 38.3912 28.7874 38.3964 28.7812 38.3937C28.773 38.39 28.7713 38.3867 28.7617 38.3867C28.7482 38.3867 28.7322 38.3828 28.7168 38.3828C28.7008 38.3828 28.6876 38.3792 28.6736 38.3752C28.6678 38.3735 28.6396 38.3688 28.6367 38.3652C28.6309 38.358 28.6048 38.3624 28.5977 38.3535C28.5916 38.3459 28.5639 38.3365 28.5547 38.3359C28.547 38.3355 28.5284 38.3259 28.5226 38.3212C28.5184 38.3179 28.4879 38.3086 28.4824 38.3086C28.4725 38.3086 28.4476 38.3027 28.4414 38.2949C28.4321 38.2833 28.4164 38.2878 28.4071 38.2804C28.3669 38.2482 28.313 38.2364 28.2726 38.204C28.2529 38.1882 28.2274 38.1706 28.2051 38.1582C28.1819 38.1453 28.1676 38.1145 28.1406 38.1055" stroke="#5844E4" stroke-width="0.12"/>
<path d="M28.1484 38.0977C28.1475 38.0901 28.1292 38.0729 28.123 38.0681C28.1099 38.0579 28.099 38.0436 28.0842 38.0352C28.065 38.0242 28.0511 38.006 28.0312 37.9961" stroke="#5844E4" stroke-width="0.12"/>
<path d="M28.3906 38.2578C28.3787 38.2565 28.3635 38.2502 28.3546 38.2431C28.3493 38.2388 28.3303 38.2272 28.3283 38.2205C28.3237 38.2044 28.2695 38.1806 28.2539 38.1797C28.2318 38.1784 28.2055 38.1519 28.1858 38.1406C28.1719 38.1327 28.1596 38.1225 28.1465 38.1152C28.1314 38.1069 28.1224 38.0916 28.1055 38.0859" stroke="#5844E4" stroke-width="0.12"/>
<path d="M28.3945 38.3125C28.3929 38.2979 28.3752 38.2811 28.3641 38.2734C28.352 38.265 28.3429 38.2496 28.3299 38.2422C28.307 38.2291 28.2933 38.2038 28.2695 38.1905C28.2443 38.1765 28.2222 38.1564 28.1973 38.1426C28.1704 38.1276 28.1461 38.1034 28.1172 38.0938" stroke="#5844E4" stroke-width="0.12"/>
<path d="M28.4727 38.332C28.4603 38.3196 28.4453 38.3057 28.4316 38.2951C28.4211 38.2869 28.3976 38.2761 28.3906 38.2639C28.3878 38.2589 28.3771 38.2574 28.3728 38.252C28.3668 38.2441 28.3554 38.2429 28.3485 38.2374C28.3352 38.2268 28.3202 38.2218 28.3077 38.2118C28.2967 38.203 28.2714 38.2015 28.2617 38.1895C28.2518 38.1771 28.2235 38.1666 28.209 38.1602C28.1921 38.1527 28.1795 38.1393 28.1641 38.1319C28.1475 38.1241 28.1232 38.1016 28.1055 38.1016" stroke="#5844E4" stroke-width="0.12"/>
<path d="M28.5469 38.3711C28.5469 38.3532 28.5104 38.3274 28.4961 38.3194C28.4766 38.3086 28.4587 38.2924 28.4392 38.2812C28.4201 38.2703 28.3958 38.2578 28.3798 38.2431C28.3594 38.2243 28.3314 38.2172 28.3105 38.201C28.2771 38.1749 28.2305 38.1678 28.1962 38.1398C28.1889 38.1338 28.174 38.1296 28.1682 38.1228C28.1597 38.113 28.145 38.1128 28.1369 38.1033C28.1196 38.0831 28.0839 38.0631 28.0586 38.0547" stroke="#5844E4" stroke-width="0.12"/>
<path d="M28.6562 38.3945C28.6562 38.365 28.6079 38.3481 28.5898 38.332C28.579 38.3224 28.5593 38.3267 28.5499 38.3173C28.5428 38.3102 28.5236 38.3072 28.5139 38.3045C28.501 38.3008 28.4888 38.2885 28.4746 38.2854C28.4575 38.2816 28.4376 38.272 28.4201 38.2656C28.3784 38.2505 28.3296 38.2227 28.2852 38.2227" stroke="#5844E4" stroke-width="0.12"/>
<path d="M28.7539 38.4336C28.7533 38.4285 28.7182 38.4076 28.7129 38.4065C28.6939 38.4022 28.6793 38.3841 28.6619 38.3791C28.6488 38.3754 28.6346 38.3533 28.6211 38.3516C28.603 38.3493 28.5914 38.3359 28.5703 38.3359" stroke="#5844E4" stroke-width="0.12"/>
<path d="M28.8086 38.418C28.796 38.4166 28.788 38.4044 28.7756 38.4021C28.7711 38.4013 28.7483 38.3914 28.7461 38.3887C28.744 38.386 28.7208 38.3789 28.7168 38.3789C28.7096 38.3789 28.7003 38.3695 28.6931 38.3674C28.671 38.3611 28.6571 38.3491 28.6328 38.3477C28.6234 38.3471 28.6123 38.3398 28.6016 38.3398C28.5898 38.3398 28.5781 38.3398 28.5664 38.3398" stroke="#5844E4" stroke-width="0.12"/>
<path d="M28.9883 38.4102C28.9505 38.4121 28.914 38.4228 28.8765 38.4256C28.8464 38.4278 28.8154 38.4258 28.7852 38.4258C28.7562 38.4258 28.7273 38.4258 28.6984 38.4258C28.6287 38.4258 28.5463 38.3887 28.4842 38.3615C28.4626 38.3521 28.4423 38.339 28.4238 38.3242C28.412 38.3147 28.4214 38.2918 28.4082 38.2812C28.3818 38.2601 28.3689 38.2305 28.332 38.2305" stroke="#5844E4" stroke-width="0.12"/>
<path d="M28.4922 38.3203C28.485 38.3139 28.4556 38.3025 28.4533 38.2947C28.4509 38.286 28.4268 38.2733 28.418 38.2687C28.412 38.2655 28.403 38.2595 28.3965 38.258C28.3926 38.2572 28.377 38.2545 28.375 38.252C28.3711 38.2471 28.3618 38.2507 28.3563 38.2452C28.352 38.2409 28.3384 38.2383 28.332 38.2383" stroke="#5844E4" stroke-width="0.12"/>
<path d="M28.5156 38.3867C28.5083 38.3826 28.498 38.3676 28.4924 38.3611C28.4845 38.3518 28.4763 38.3434 28.4688 38.334C28.4569 38.3191 28.4368 38.3062 28.4227 38.2921C28.408 38.2774 28.3835 38.2675 28.3711 38.252C28.3614 38.2398 28.3268 38.2227 28.3125 38.2227" stroke="#5844E4" stroke-width="0.12"/>
<path d="M28.4727 38.332C28.4727 38.2965 28.4388 38.2925 28.4188 38.2726C28.411 38.2647 28.3958 38.2597 28.3865 38.252C28.3801 38.2466 28.3597 38.2344 28.3516 38.2344" stroke="#5844E4" stroke-width="0.12"/>
<path d="M28.4883 38.3516C28.4883 38.326 28.4402 38.2973 28.4258 38.2793C28.4151 38.266 28.3998 38.2564 28.3848 38.248C28.3707 38.2402 28.3475 38.2227 28.332 38.2227" stroke="#5844E4" stroke-width="0.12"/>
<path d="M28.4766 38.3555C28.4766 38.3255 28.4386 38.3076 28.4249 38.2852C28.4139 38.2671 28.3859 38.2481 28.3694 38.2352C28.354 38.2233 28.3361 38.2151 28.3203 38.204C28.3115 38.1978 28.2964 38.1977 28.293 38.1875" stroke="#5844E4" stroke-width="0.12"/>
<path d="M28.4844 38.332C28.4844 38.3102 28.4443 38.2729 28.4258 38.2626C28.4119 38.2549 28.3995 38.2448 28.3848 38.2383C28.3603 38.2274 28.3318 38.2225 28.3086 38.2109" stroke="#5844E4" stroke-width="0.12"/>
<path d="M29.0898 38.4258C29.0647 38.4258 28.9844 38.4524 28.9844 38.4121C28.9844 38.4016 28.9833 38.3932 28.9883 38.3845C28.9936 38.3752 29.0014 38.3733 29.0078 38.3652C29.0176 38.3529 29.0235 38.3395 29.0312 38.326C29.0381 38.3139 29.0504 38.2951 29.0595 38.286C29.0708 38.2747 29.0765 38.2528 29.0829 38.2383C29.1023 38.1945 29.1367 38.1436 29.1367 38.0938" stroke="#5844E4" stroke-width="0.12" stroke-linecap="square"/>
<path d="M29.0664 38.4062C29.0664 38.3468 29.1016 38.3005 29.1016 38.2422C29.1016 38.2159 29.1115 38.1944 29.117 38.1699C29.1197 38.1576 29.1211 38.1436 29.1211 38.1309C29.1211 38.1247 29.1262 38.099 29.1298 38.0946C29.1359 38.087 29.1367 38.0688 29.1367 38.0586C29.1367 38.0473 29.1445 38.037 29.1445 38.0254C29.1445 38.0164 29.146 37.9982 29.1504 37.9902C29.1545 37.9829 29.1602 37.9617 29.1602 37.9531C29.1602 37.9282 29.168 37.9008 29.168 37.877C29.168 37.8478 29.1706 37.8242 29.1797 37.7969" stroke="#5844E4" stroke-width="0.12" stroke-linecap="square"/>
<path d="M29.293 37.4258C29.2666 37.4258 29.2687 37.4727 29.2569 37.4874C29.2517 37.4939 29.2466 37.5183 29.2461 37.5273C29.2458 37.5332 29.2409 37.565 29.2374 37.5694C29.2327 37.5754 29.2305 37.6016 29.2305 37.6094C29.2305 37.625 29.2305 37.6406 29.2305 37.6562C29.2305 37.688 29.2227 37.7182 29.2227 37.75C29.2227 37.7694 29.2109 37.8069 29.2109 37.8069C29.2109 37.8069 29.207 37.7794 29.207 37.7656C29.207 37.7561 29.2021 37.7269 29.2079 37.7196C29.2131 37.7132 29.2187 37.6925 29.2187 37.6836C29.2187 37.6206 29.25 37.5641 29.25 37.5" stroke="#5844E4" stroke-width="0.12" stroke-linecap="square"/>
<path d="M49.5411 29.5952C51.9938 29.5952 53.2202 30.3075 53.2202 31.7321C53.2202 32.5148 52.9143 33.1413 52.3025 33.6116C51.7018 34.0807 50.8759 34.3153 49.8247 34.3153C49.3353 34.3153 48.9001 34.1997 48.5191 33.9686C48.3384 33.8702 48.1882 33.7552 48.0686 33.6236C48.8 33.6236 49.3582 33.4399 49.7434 33.0726C50.1285 32.7065 50.3211 32.1652 50.3211 31.4489C50.3211 30.7314 49.8908 30.3727 49.0301 30.3727H48.6693C48.6095 30.3727 48.5546 30.3767 48.5045 30.3847L46.7776 37.8374H43.5178L45.3656 29.7428C46.4363 29.6604 47.2823 29.6152 47.9039 29.6072C48.524 29.5992 49.0697 29.5952 49.5411 29.5952ZM56.3736 37.8374H53.1597L54.9909 29.7187C55.9822 29.6272 57.2009 29.5814 58.647 29.5814C60.0944 29.5814 61.1532 29.7548 61.8234 30.1015C62.495 30.4471 62.8308 30.9683 62.8308 31.6652C62.8308 32.3609 62.6125 32.9273 62.1759 33.3644C61.7407 33.8004 61.1477 34.0887 60.3968 34.2295C60.5679 34.9126 60.848 35.5305 61.2373 36.0832C61.5989 36.6016 61.9896 36.9431 62.4095 37.1079C62.2593 37.4546 62.0313 37.7041 61.7254 37.8563C61.4209 38.0085 61.051 38.0846 60.6158 38.0846C60.1792 38.0846 59.7913 37.9793 59.452 37.7687C59.1114 37.5593 58.8055 37.2607 58.5344 36.8728C57.9643 36.0329 57.6494 34.9498 57.5896 33.6236H57.6938C58.4349 33.6064 58.9904 33.4394 59.3603 33.1224C59.7315 32.8054 59.9171 32.3134 59.9171 31.6463C59.9171 30.8144 59.4917 30.3819 58.6407 30.3487H58.3091C58.2201 30.3487 58.1506 30.3527 58.1005 30.3607L56.3736 37.8374ZM63.7464 34.8217C63.7464 33.2643 64.2365 31.9959 65.2167 31.0164C66.2582 29.9533 67.6847 29.4218 69.4965 29.4218C70.809 29.4218 71.7955 29.6833 72.456 30.2062C73.1164 30.7291 73.4467 31.5427 73.4467 32.647C73.4467 34.3279 72.926 35.6587 71.8845 36.6393C70.8542 37.6028 69.4728 38.0846 67.7404 38.0846C66.3889 38.0846 65.385 37.8065 64.7287 37.2504C64.0738 36.6943 63.7464 35.8847 63.7464 34.8217ZM67.6945 32.2642C67.244 33.7472 67.0187 35.0734 67.0187 36.2428C67.0187 36.5232 67.0764 36.7538 67.1918 36.9346C67.3072 37.1165 67.5179 37.2075 67.8238 37.2075C68.1283 37.2075 68.3758 37.1474 68.5663 37.0273C68.7568 36.9082 68.9271 36.7126 69.0773 36.4402C69.3178 35.9963 69.5507 35.3023 69.7759 34.3582C70.0012 33.4153 70.1236 32.7482 70.143 32.3569C70.1625 31.9655 70.1722 31.6217 70.1722 31.3253C70.1722 31.0278 70.1173 30.7846 70.0075 30.5958C69.8976 30.4059 69.6953 30.3109 69.4005 30.3109C69.1044 30.3109 68.8562 30.3853 68.656 30.534C68.2861 30.8144 67.9656 31.3911 67.6945 32.2642ZM80.054 29.5952C82.5067 29.5952 83.733 30.3075 83.733 31.7321C83.733 32.5148 83.4278 33.1413 82.8174 33.6116C82.2168 34.0807 81.3909 34.3153 80.3397 34.3153C79.8489 34.3153 79.413 34.1997 79.032 33.9686C78.8526 33.8702 78.7025 33.7552 78.5815 33.6236C79.3129 33.6236 79.8711 33.4399 80.2563 33.0726C80.6414 32.7065 80.834 32.1652 80.834 31.4489C80.834 30.7314 80.4037 30.3727 79.543 30.3727H79.1822C79.1224 30.3727 79.0675 30.3767 79.0174 30.3847L77.2905 37.8374H74.0327L75.8785 29.7428C76.9505 29.6604 77.7966 29.6152 78.4167 29.6072C79.0383 29.5992 79.584 29.5952 80.054 29.5952ZM90.2194 35.9339C90.4099 36.1319 90.5051 36.3916 90.5051 36.7131C90.5051 37.1583 90.3049 37.4981 89.9044 37.7327C89.504 37.9673 88.9888 38.0846 88.359 38.0846C87.9975 38.0846 87.5414 38.0514 86.9908 37.985C85.9104 37.8454 85.2048 37.7756 84.8739 37.7756C84.5443 37.7756 84.3142 37.7819 84.1835 37.7945C84.0528 37.8071 83.8825 37.8214 83.6726 37.8374L85.5204 29.681H91.9922C91.9922 30.1833 91.8448 30.5667 91.55 30.831C91.2538 31.0942 90.8159 31.2258 90.2361 31.2258C89.6549 31.2258 89.0688 31.1148 88.4779 30.8928L88.0128 33.0555H90.6866C90.6866 33.4914 90.5559 33.8313 90.2945 34.075C90.0344 34.3176 89.6868 34.4389 89.2516 34.4389C88.8164 34.4389 88.4633 34.3977 88.1921 34.3153C87.9224 34.2329 87.7722 34.1791 87.7416 34.154L87.2015 36.49C87.442 36.5152 87.7875 36.5278 88.238 36.5278C89.0083 36.5278 89.6688 36.3298 90.2194 35.9339ZM94.9663 37.8374H91.7523L93.5835 29.7187C94.5749 29.6272 95.7936 29.5814 97.2396 29.5814C98.6871 29.5814 99.7459 29.7548 100.416 30.1015C101.088 30.4471 101.423 30.9683 101.423 31.6652C101.423 32.3609 101.205 32.9273 100.769 33.3644C100.333 33.8004 99.7403 34.0887 98.9895 34.2295C99.1605 34.9126 99.4407 35.5305 99.83 36.0832C100.192 36.6016 100.582 36.9431 101.002 37.1079C100.852 37.4546 100.624 37.7041 100.318 37.8563C100.014 38.0085 99.6437 38.0846 99.2085 38.0846C98.7719 38.0846 98.384 37.9793 98.0447 37.7687C97.704 37.5593 97.3981 37.2607 97.127 36.8728C96.5569 36.0329 96.242 34.9498 96.1822 33.6236H96.2865C97.0276 33.6064 97.5831 33.4394 97.9529 33.1224C98.3242 32.8054 98.5098 32.3134 98.5098 31.6463C98.5098 30.8144 98.0843 30.3819 97.2334 30.3487H96.9018C96.8128 30.3487 96.7432 30.3527 96.6932 30.3607L94.9663 37.8374ZM103.315 31.8196C102.974 31.6045 102.804 31.2687 102.804 30.8121C102.804 30.3544 102.987 30.006 103.353 29.7668C103.718 29.5288 104.216 29.4098 104.846 29.4098C105.246 29.4098 105.922 29.467 106.873 29.5814L107.895 29.705C108.236 29.7382 108.583 29.7548 108.938 29.7548C109.294 29.7548 109.592 29.693 109.833 29.5694C110.193 29.8337 110.373 30.1553 110.373 30.534C110.373 30.9128 110.168 31.2383 109.758 31.5107C109.336 31.799 108.855 31.9432 108.314 31.9432C108.054 31.9432 107.714 31.914 107.294 31.8557C106.804 33.1247 106.558 34.1997 106.558 35.0808C106.558 35.9631 106.829 36.6348 107.37 37.0959C107.119 37.4667 106.809 37.7241 106.437 37.8683C106.067 38.0125 105.604 38.0846 105.048 38.0846C104.493 38.0846 104.043 37.9587 103.697 37.707C103.352 37.4564 103.18 37.0713 103.18 36.5518C103.18 35.9511 103.38 35.1564 103.78 34.1677C104.181 33.1871 104.681 32.322 105.282 31.5725C104.991 31.5473 104.696 31.5347 104.395 31.5347C103.775 31.5347 103.415 31.6297 103.315 31.8196ZM111.318 37.8374L112.189 34.2037C111.899 31.9713 111.243 30.6159 110.223 30.1376C110.433 29.9236 110.708 29.7571 111.049 29.6381C111.389 29.5179 111.765 29.4578 112.175 29.4578C112.585 29.4578 112.945 29.5179 113.255 29.6381C113.565 29.7571 113.82 29.9442 114.021 30.1993C114.402 30.6857 114.592 31.5095 114.592 32.671V33.5618C115.193 32.112 115.793 31.0736 116.394 30.4465C117.005 29.8046 117.69 29.4836 118.451 29.4836C118.751 29.4836 119.001 29.5471 119.201 29.6741C119.402 29.8023 119.552 29.9613 119.652 30.1513C118.882 30.4305 118.126 30.974 117.385 31.7819C116.644 32.5897 116.033 33.5578 115.554 34.6861L114.667 37.8374H111.318Z" fill="black"/>
<path d="M30.7833 28.1862C31.0169 28.1862 31.1837 28.3376 31.4266 28.3376C31.528 28.3376 31.6056 28.4133 31.7104 28.4133C31.8276 28.4133 31.9743 28.459 32.0867 28.4911C32.2437 28.5359 32.4433 28.716 32.6185 28.716C32.8354 28.716 32.9804 28.943 33.205 28.943" stroke="#5844E4" stroke-width="0.5"/>
<path d="M32.9023 29.0566C32.8219 29.0666 32.8645 29.638 32.8645 29.7377C32.8645 29.964 32.8645 29.7848 32.8645 29.662C32.8645 29.5296 32.8645 29.3971 32.8645 29.2647C32.8645 29.1694 32.9071 28.9809 32.7699 28.9809C32.7153 28.9809 32.4629 28.947 32.4882 29.0356C32.5024 29.0852 32.7883 29.0566 32.8456 29.0566C32.9963 29.0566 32.978 29.1604 32.978 29.2836C32.978 29.5096 32.9661 29.7391 32.978 29.9647C32.9886 30.1664 33.0158 30.143 33.0158 29.9647C33.0158 29.8555 33.026 29.7115 33.0558 29.6074C33.0826 29.5136 33.1689 29.0372 33.0831 28.9515C32.935 28.8034 32.6517 28.8434 32.4609 28.7518C32.306 28.6774 32.0074 28.691 31.8785 28.5836C31.8013 28.5192 31.6389 28.4674 31.5401 28.4533C31.2972 28.4186 31.0535 28.291 30.8211 28.262C30.7279 28.2503 30.6235 28.1863 30.5184 28.1863C30.4788 28.1863 30.2526 28.1628 30.2241 28.14C30.1527 28.0829 30.0128 28.0728 30.1779 28.0728C30.2843 28.0728 30.4316 28.0892 30.5373 28.1127C30.6483 28.1374 30.7667 28.1258 30.8779 28.1505C31.0668 28.1925 30.7826 28.1863 30.7265 28.1863C30.6005 28.1863 30.1733 28.0563 30.0728 28.1568C29.9338 28.2958 29.9508 28.5807 29.9508 28.7707C29.9508 29.0426 29.9508 29.3145 29.9508 29.5863" stroke="#5844E4" stroke-width="0.5"/>
<path d="M32.978 29.3971C32.978 29.5565 33.0171 29.7529 33.0516 29.908C33.067 29.9775 33.0537 30.0638 33.0537 30.135C33.0537 30.2826 33.092 30.0582 33.0999 30.0404C33.1628 29.899 33.1364 29.7533 33.1693 29.6053C33.1809 29.553 33.1917 29.1604 33.1756 29.1785C33.0902 29.2746 33.0915 29.6271 33.0915 29.7566C33.0915 29.9302 33.0537 30.0896 33.0537 30.2674C33.0537 30.5932 33.0915 30.0418 33.0915 29.9458C33.0915 29.8024 33.1204 29.6256 33.1294 29.4728C33.1374 29.3366 33.205 29.1937 33.205 29.0377C33.205 28.7787 33.0136 28.8581 32.8729 28.7455C32.7812 28.6721 32.5803 28.6256 32.4672 28.6004C32.3136 28.5663 32.1641 28.5014 32.032 28.4427C31.9252 28.3953 31.7417 28.2998 31.6347 28.2998C31.4975 28.2998 31.3422 28.1564 31.1995 28.1484C30.8583 28.1295 30.5616 27.9592 30.2157 27.9592" stroke="#5844E4" stroke-width="0.5"/>
<path d="M33.1249 29.5081C33.1249 29.6561 33.1249 29.8041 33.1249 29.9522C33.1249 30.1066 33.0826 30.2514 33.0826 30.408C33.0826 30.5627 33.0826 30.7174 33.0826 30.8721C33.0826 30.8863 33.1144 31.0636 33.1249 31.0636C33.1605 31.0636 33.1249 30.9923 33.1249 30.9567C33.1249 30.914 33.1151 30.8685 33.1413 30.8356C33.1792 30.7884 33.134 30.6568 33.1472 30.5972C33.1597 30.5411 33.1708 30.4552 33.2048 30.4127C33.258 30.3461 33.2095 30.0512 33.2095 29.9627C33.2095 29.8147 33.2095 29.6667 33.2095 29.5186C33.2095 29.4087 33.2154 29.2026 33.1672 29.1063" stroke="#5844E4" stroke-width="0.5"/>
<path d="M33.1037 30.8403C33.1791 30.8403 33.146 30.5803 33.146 30.5126C33.146 30.4749 33.1273 30.3668 33.1507 30.3375C33.1945 30.2828 33.149 30.2248 33.1836 30.3375C33.2013 30.3949 33.1883 30.4737 33.1883 30.5337C33.1883 30.5961 33.2306 30.6616 33.2306 30.724C33.2306 30.8615 33.2306 30.9989 33.2306 31.1364" stroke="#5844E4" stroke-width="0.5"/>
<path d="M33.2418 30.8943C33.1758 30.8201 33.1992 30.6989 33.1992 30.6072C33.1992 30.5182 33.2099 30.4334 33.2099 30.3412C33.2099 30.3166 33.1818 30.2197 33.2075 30.2774C33.2217 30.3094 33.2397 30.3582 33.2418 30.3944C33.2468 30.486 33.2418 30.5793 33.2418 30.671" stroke="#5844E4" stroke-width="0.5"/>
<path d="M29.9747 28.8971C29.9747 28.9284 29.9324 28.9674 29.9195 28.9964C29.903 29.0337 29.9136 29.093 29.9136 29.1339C29.9136 29.2433 29.8754 29.3508 29.8754 29.4624" stroke="#5844E4" stroke-width="0.5"/>
<path d="M29.883 29.4624C29.883 29.3904 29.8525 29.3202 29.8525 29.2485C29.8525 29.2124 29.8601 29.1737 29.8601 29.1416C29.8601 29.1056 29.883 29.0702 29.883 29.0308C29.883 28.9953 29.8907 28.9522 29.8987 28.9162C29.9073 28.8775 29.906 28.8384 29.906 28.7978C29.906 28.7176 29.906 28.6374 29.906 28.5572C29.906 28.5178 29.9136 28.4802 29.9136 28.4426C29.9136 28.4027 29.9365 28.366 29.9365 28.328C29.9365 28.2963 29.9459 28.2404 29.9628 28.2138C29.9826 28.1827 29.9755 28.1341 29.9993 28.1043C30.018 28.081 30.0185 28.0512 30.0435 28.0262C30.0712 27.9985 30.1024 27.9957 30.139 27.9876C30.1765 27.9793 30.2141 27.9804 30.2535 27.9804C30.2725 27.9804 30.2919 27.9817 30.3108 27.9804C30.3116 27.9803 30.2727 27.9651 30.2574 27.9651" stroke="#5844E4" stroke-width="0.5"/>
<path d="M30.3872 28.1637C30.3508 28.0864 30.3036 28.0258 30.2463 27.9685C30.2319 27.9541 30.2262 27.9341 30.2098 27.921C30.1997 27.9129 30.1633 27.9193 30.1504 27.9193C30.1232 27.9193 30.0527 27.9374 30.0435 27.9651" stroke="#5844E4" stroke-width="0.5"/>
<g filter="url(#filter0_d_2_167)">
<path d="M57.8027 42.6153C57.946 42.3753 58.0176 42.1435 58.0176 41.9198C58.0176 41.6961 58.0034 41.5223 57.9751 41.3986C57.9452 41.2736 57.8975 41.1636 57.8318 41.0686C57.6885 40.8599 57.4736 40.7555 57.1871 40.7555C56.8333 40.7555 56.5132 40.8636 56.2267 41.0799C55.9207 41.3036 55.7677 41.5917 55.7677 41.9441C55.7677 42.1679 55.861 42.366 56.0476 42.5385C56.2341 42.7097 56.4707 42.8753 56.7572 43.0353C57.0438 43.1952 57.349 43.3552 57.6728 43.5152C57.9982 43.6752 58.3042 43.8514 58.5907 44.0439C59.2489 44.4838 59.578 44.9994 59.578 45.5906C59.578 45.9905 59.4519 46.3605 59.1996 46.7005C58.9459 47.0404 58.6094 47.3348 58.19 47.5835C57.2721 48.1272 56.2065 48.399 54.9931 48.399C54.0096 48.399 53.2649 48.2653 52.7589 47.9978C52.253 47.7291 52 47.391 52 46.9836C52 46.2549 52.3388 45.7987 53.0164 45.615C53.2074 45.5587 53.4484 45.5306 53.7395 45.5306C54.032 45.5306 54.3454 45.5831 54.6797 45.6881C54.526 46.0155 54.4491 46.3274 54.4491 46.6236C54.4491 47.2635 54.7215 47.5835 55.2663 47.5835C55.62 47.5835 55.9423 47.4754 56.2334 47.2591C56.5244 47.0429 56.6699 46.8129 56.6699 46.5692C56.6699 46.3255 56.5766 46.1155 56.3901 45.9393C56.205 45.7631 55.9737 45.605 55.6961 45.465C55.4185 45.325 55.12 45.1869 54.8006 45.0507C54.4812 44.9157 54.1827 44.7519 53.9051 44.5595C53.2559 44.1195 52.9313 43.5477 52.9313 42.844C52.9313 42.3878 53.0649 41.9816 53.332 41.6254C53.5992 41.2692 53.9477 40.9711 54.3775 40.7312C55.2371 40.2437 56.1946 40 57.2497 40C58.3064 40 59.0899 40.1319 59.6004 40.3956C60.1108 40.6593 60.366 41.0155 60.366 41.4642C60.366 41.8554 60.1847 42.1754 59.822 42.4241C59.5071 42.6316 59.1586 42.7353 58.7765 42.7353C58.3945 42.7353 58.0698 42.6953 57.8027 42.6153ZM66.7866 46.3105C66.9672 46.503 67.0574 46.7555 67.0574 47.0679C67.0574 47.4991 66.8664 47.8291 66.4843 48.0578C66.1023 48.2853 65.6105 48.399 65.009 48.399C64.6658 48.399 64.2315 48.3671 63.7061 48.3034C62.6733 48.1672 61.9995 48.099 61.6846 48.099C61.3697 48.099 61.1503 48.1053 61.0264 48.1178C60.9025 48.129 60.7399 48.1428 60.5384 48.159L62.3002 40.24H68.4768C68.4768 40.7274 68.3357 41.0992 68.0537 41.3555C67.7716 41.6117 67.3537 41.7398 66.8 41.7398C66.2463 41.7398 65.6874 41.6317 65.1232 41.4155L64.68 43.5152H67.2298C67.2298 43.9389 67.106 44.2689 66.8582 44.5051C66.609 44.7413 66.2769 44.8594 65.862 44.8594C65.4456 44.8594 65.109 44.8194 64.8523 44.7394C64.5941 44.6595 64.4509 44.6076 64.4225 44.5838L63.9054 46.8504C64.1352 46.8754 64.465 46.8879 64.8949 46.8879C65.6307 46.8879 66.2612 46.6955 66.7866 46.3105ZM74.6668 48.399C73.4429 48.399 72.7743 47.671 72.6609 46.2149H70.1961C70.0051 46.5836 69.8424 46.9279 69.7081 47.2479L69.3364 48.159H67.3306L71.8438 40.24H74.9242L75.5264 46.0705C75.6219 46.9104 75.8607 47.4547 76.2428 47.7035C75.9652 48.1672 75.4399 48.399 74.6668 48.399ZM71.4274 43.8152L70.6394 45.3394H72.6161L72.446 42.2554V41.931L71.4274 43.8152ZM80.0105 48.159H76.9435L78.6919 40.2756C79.6382 40.1881 80.8008 40.1444 82.1798 40.1444C83.5603 40.1444 84.5707 40.3125 85.211 40.6487C85.8513 40.9836 86.1714 41.4892 86.1714 42.1654C86.1714 42.8415 85.9632 43.3915 85.5468 43.8152C85.1319 44.2389 84.5663 44.5188 83.8499 44.6551C84.0126 45.3187 84.2797 45.9187 84.6513 46.4549C84.9961 46.9586 85.3692 47.2904 85.7707 47.4504C85.6274 47.7866 85.4095 48.0291 85.117 48.1778C84.8259 48.3253 84.473 48.399 84.0581 48.399C83.6417 48.399 83.2715 48.2971 82.9477 48.0934C82.6223 47.8897 82.3306 47.5997 82.0724 47.2235C81.5291 46.4074 81.2284 45.3556 81.1702 44.0683H81.2709C81.9783 44.052 82.5082 43.8895 82.8604 43.5808C83.2141 43.2734 83.3909 42.7959 83.3909 42.1485C83.3909 41.3398 82.985 40.9199 82.1731 40.8886H81.8574C81.7724 40.8886 81.706 40.8924 81.6582 40.8999L80.0105 48.159ZM94.3091 45.675C94.5568 45.8274 94.6807 46.0655 94.6807 46.3892C94.6807 46.713 94.5971 46.9892 94.4299 47.2179C94.2628 47.4454 94.0173 47.6472 93.6934 47.8235C92.9964 48.1997 92.039 48.3878 90.8212 48.3878C89.6033 48.3878 88.6623 48.1215 87.9982 47.5891C87.334 47.0567 87.002 46.3186 87.002 45.375C87.002 44.0389 87.4176 42.8634 88.2489 41.8485C88.8787 41.0961 89.757 40.5599 90.8839 40.24C91.4674 40.08 92.0457 40 92.6188 40C93.1919 40 93.6554 40.0319 94.0091 40.0956C94.3613 40.1594 94.6717 40.2556 94.9404 40.3843C95.5224 40.6643 95.8135 41.028 95.8135 41.4755C95.8135 41.8842 95.5844 42.2404 95.1262 42.5441C94.7053 42.8153 94.3232 42.9509 93.98 42.9509C93.6352 42.9509 93.3912 42.9309 93.2479 42.8909C93.2867 42.6034 93.3061 42.366 93.3061 42.1785C93.3061 41.9898 93.3016 41.8273 93.2927 41.6911C93.2822 41.5561 93.2531 41.4242 93.2054 41.2955C93.1099 40.9993 92.9166 40.8512 92.6256 40.8512C92.3345 40.8512 92.0435 40.9655 91.7525 41.1942C91.4599 41.4217 91.1898 41.7273 90.9421 42.111C90.3779 42.9834 90.0958 43.9358 90.0958 44.9682C90.0958 45.4631 90.263 45.8531 90.5973 46.138C90.9316 46.4217 91.457 46.5636 92.1733 46.5636C92.7091 46.5636 93.23 46.4155 93.7359 46.1193C93.9553 45.9918 94.1464 45.8437 94.3091 45.675ZM101.215 47.2591C101.215 46.6992 101.349 45.8593 101.616 44.7394H99.4961L98.7081 48.159H95.7127L97.5328 40.24H100.555L99.7244 43.7796H101.844L102.633 40.24H105.657C105.523 40.8324 105.37 41.4605 105.198 42.1241L104.71 44.0795C104.347 45.5993 104.166 46.6911 104.166 47.3548C104.166 47.6272 104.219 47.8391 104.325 47.9903C103.847 48.2628 103.329 48.399 102.769 48.399C102.211 48.399 101.812 48.2872 101.574 48.0634C101.335 47.8397 101.215 47.5716 101.215 47.2591Z" fill="#CCCCCC"/>
</g>
</g>
<path d="M33.1836 28.5195C33.153 28.4923 33.1097 28.4594 33.0664 28.457C33.0572 28.4565 33.0439 28.4501 33.0352 28.4462C33.0257 28.442 33.0114 28.4405 33.0017 28.4377C32.9924 28.4351 32.9753 28.4326 32.9679 28.4266C32.9596 28.42 32.9355 28.4194 32.9297 28.4121C32.9206 28.4007 32.8952 28.3997 32.8826 28.3926C32.8631 28.3816 32.8403 28.3797 32.8203 28.3702C32.79 28.3559 32.7559 28.3474 32.7244 28.3359C32.7025 28.328 32.6808 28.3177 32.6582 28.3127C32.6441 28.3096 32.6214 28.3006 32.6085 28.293C32.5708 28.2706 32.5217 28.2679 32.4835 28.2461C32.4658 28.236 32.4343 28.2249 32.4141 28.2227C32.3935 28.2204 32.3743 28.2065 32.3535 28.2033C32.3334 28.2002 32.3128 28.1911 32.293 28.1855C32.2612 28.1767 32.2251 28.1673 32.1953 28.1532C32.18 28.1459 32.1577 28.1434 32.1445 28.1328C32.1324 28.1231 32.1072 28.1233 32.0977 28.1113C32.0945 28.1074 32.0849 28.1061 32.0803 28.1053C32.0738 28.1041 32.0653 28.0955 32.0577 28.0929C32.0446 28.0883 32.0295 28.0803 32.0156 28.0783C31.9863 28.0742 31.9581 28.0563 31.9297 28.0547C31.905 28.0533 31.8786 28.0312 31.8533 28.0312C31.8439 28.0312 31.8228 28.0261 31.8145 28.0215C31.8029 28.0151 31.7893 28.0162 31.7773 28.0109C31.7565 28.0016 31.7367 27.9917 31.7148 27.9844" stroke="white" stroke-width="0.1"/>
<path d="M29.7461 27.9062C29.7503 27.9057 29.764 27.8793 29.7654 27.873C29.7673 27.8647 29.7783 27.8569 29.7815 27.8459C29.7842 27.8363 29.7949 27.8288 29.8008 27.8186C29.8055 27.8104 29.8187 27.799 29.8262 27.793C29.8335 27.7871 29.8377 27.772 29.8457 27.7656C29.8537 27.7593 29.86 27.7531 29.8672 27.7441C29.8826 27.7249 29.9048 27.7117 29.9238 27.7012C29.946 27.6889 29.9736 27.6844 29.9931 27.6688C30.0066 27.658 30.0403 27.6367 30.0586 27.6367C30.0707 27.6367 30.0816 27.625 30.0938 27.625C30.1034 27.625 30.1234 27.6223 30.1328 27.6181C30.1441 27.613 30.1634 27.6179 30.1758 27.6172C30.1874 27.6165 30.2013 27.6133 30.2148 27.6133" stroke="white" stroke-width="0.1"/>
<path d="M29.7656 27.8594C29.7825 27.8594 29.7996 27.8342 29.8116 27.8234C29.8297 27.8071 29.8522 27.7902 29.8672 27.7715C29.8934 27.7387 29.925 27.7129 29.9627 27.6914C29.9833 27.6796 30.001 27.6657 30.0215 27.6543C30.0295 27.6498 30.0498 27.6487 30.0547 27.6426C30.0568 27.6399 30.0891 27.6328 30.0938 27.6328C30.1155 27.6328 30.1456 27.6272 30.1662 27.6213C30.177 27.6182 30.1899 27.6172 30.2012 27.6172C30.2121 27.6172 30.2226 27.6094 30.2344 27.6094" stroke="white" stroke-width="0.1"/>
<path d="M29.7891 27.8633C29.7995 27.862 29.8081 27.8434 29.8134 27.8368C29.8225 27.8254 29.8339 27.8177 29.8429 27.8077C29.852 27.7976 29.8621 27.7881 29.872 27.7782C29.8758 27.7743 29.879 27.7684 29.8828 27.7637C29.8842 27.7619 29.894 27.751 29.8967 27.7502C29.9096 27.7465 29.921 27.7292 29.9316 27.7209C29.9428 27.7123 29.9642 27.7078 29.9727 27.6973C29.9817 27.686 29.9968 27.6833 30.0061 27.674C30.0165 27.6636 30.0404 27.6532 30.0547 27.6484" stroke="white" stroke-width="0.1"/>
<path d="M30.3008 27.6484C30.3008 27.6264 30.1737 27.6328 30.1523 27.6328C30.1256 27.6328 30.0997 27.6367 30.0723 27.6367C30.0589 27.6367 30.0489 27.6382 30.0371 27.6409C30.0287 27.6427 29.9944 27.6517 29.9922 27.6563" stroke="white" stroke-width="0.1"/>
<path d="M30.3789 27.6719C30.3656 27.6711 30.3508 27.6597 30.3381 27.656C30.3282 27.6532 30.3152 27.6445 30.3047 27.6445C30.2754 27.6445 30.2477 27.6328 30.2168 27.6328C30.1536 27.6328 30.0905 27.6328 30.0273 27.6328" stroke="white" stroke-width="0.1"/>
<path d="M32.8207 28.6555H32.9924" stroke="#5844E4" stroke-width="0.1"/>
<path d="M32.3582 28.6158H32.9264" stroke="#5844E4" stroke-width="0.1"/>
<path d="M31.512 28.1139H31.7311" stroke="#5844E4" stroke-width="0.1"/>
<path d="M31.6367 28.0664C31.6202 28.0664 31.601 28.0583 31.5859 28.0516C31.5774 28.0478 31.5674 28.0499 31.5586 28.046C31.5502 28.0423 31.5355 28.0398 31.5265 28.0391C31.5027 28.0372 31.465 28.0278 31.4444 28.0156C31.4313 28.0078 31.4137 28.0084 31.3993 28.003C31.3879 27.9988 31.3758 27.9922 31.3633 27.9922" stroke="#5844E4" stroke-width="0.1"/>
<path d="M31.7617 28.1367C31.7298 28.1252 31.6988 28.1075 31.668 28.0938C31.6467 28.0842 31.6246 28.0762 31.6037 28.0664C31.5936 28.0616 31.577 28.0514 31.5664 28.0508C31.5483 28.0497 31.5294 28.0332 31.5117 28.0273C31.4843 28.0182 31.456 28.0154 31.4288 28.0069C31.3876 27.9941 31.3442 27.9883 31.3008 27.9883" stroke="#5844E4" stroke-width="0.1"/>
<path d="M32.0234 28.2227C32.0001 28.2068 31.978 28.1951 31.9514 28.1855C31.9236 28.1755 31.8888 28.1661 31.8633 28.1521C31.8351 28.1367 31.7986 28.1249 31.7676 28.1155C31.7378 28.1064 31.7103 28.0924 31.6819 28.0799C31.6494 28.0656 31.616 28.0574 31.5829 28.0451C31.5591 28.0363 31.5318 28.0257 31.5069 28.0204C31.4405 28.0062 31.3779 27.9883 31.3086 27.9883" stroke="#5844E4" stroke-width="0.1"/>
<path d="M33.0703 28.6094C33.0657 28.5886 33.0135 28.5781 32.9978 28.5681C32.9694 28.55 32.9366 28.5473 32.9062 28.5352" stroke="#5844E4" stroke-width="0.1"/>
<path d="M33.2109 28.6797C33.1922 28.6778 33.164 28.6606 33.1476 28.6515C33.1286 28.641 33.107 28.6376 33.0879 28.627C33.0582 28.6105 33.0268 28.593 32.9944 28.5825C32.9699 28.5745 32.9357 28.5625 32.9102 28.5625" stroke="#5844E4" stroke-width="0.1"/>
<path d="M33.207 28.6641C33.1801 28.6436 33.151 28.6277 33.1191 28.6152C33.0903 28.604 33.0654 28.5863 33.0352 28.5781C33.0165 28.5731 32.9998 28.5625 32.9805 28.5625" stroke="#5844E4" stroke-width="0.1"/>
<path d="M31.2305 27.9414C31.2174 27.9414 31.2023 27.9331 31.1897 27.9295C31.1763 27.9257 31.1606 27.9217 31.1467 27.9178C31.1195 27.91 31.0872 27.8984 31.0569 27.8984C31.0251 27.8984 30.9939 27.8828 30.9609 27.8828C30.9285 27.8828 30.8947 27.8672 30.8633 27.8672C30.8453 27.8672 30.8288 27.8555 30.8103 27.8555C30.7895 27.8555 30.7709 27.8422 30.7502 27.8396C30.7255 27.8365 30.6981 27.8248 30.6738 27.8184C30.6503 27.8122 30.6266 27.8096 30.6035 27.8045C30.5587 27.7945 30.513 27.7923 30.4679 27.7843C30.4279 27.7772 30.3843 27.7695 30.3438 27.7695C30.3265 27.7695 30.3091 27.7734 30.293 27.7734" stroke="#5844E4" stroke-width="0.1"/>
<path d="M31.2656 27.957C31.2621 27.9453 31.2395 27.9412 31.2305 27.9336C31.2211 27.9257 31.2075 27.9256 31.1973 27.9199C31.1887 27.9152 31.1738 27.9102 31.1641 27.9102C31.1515 27.9102 31.1426 27.9005 31.1309 27.8987C31.0948 27.8931 31.0594 27.883 31.0232 27.877C30.9726 27.8685 30.9213 27.8621 30.8713 27.8496C30.8498 27.8442 30.8251 27.8414 30.803 27.8396C30.7809 27.8379 30.7592 27.8288 30.7365 27.8281C30.6856 27.8267 30.6324 27.8083 30.582 27.7999C30.5298 27.7912 30.4746 27.7714 30.4219 27.7695C30.3865 27.7682 30.3526 27.7617 30.3168 27.7617C30.2985 27.7617 30.2801 27.7617 30.2617 27.7617" stroke="#5844E4" stroke-width="0.1"/>
<path d="M30.3789 27.7695C30.3771 27.7547 30.3281 27.7578 30.3164 27.7578" stroke="#5844E4" stroke-width="0.1"/>
<path d="M30.4023 27.7695C30.385 27.7539 30.3427 27.7461 30.3205 27.7461C30.2891 27.7461 30.2583 27.7422 30.2266 27.7422" stroke="#5844E4" stroke-width="0.1"/>
</g>
<defs>
<filter id="filter0_d_2_167" x="52" y="40" width="55.657" height="10.399" filterUnits="userSpaceOnUse" color-interpolation-filters="sRGB">
<feFlood flood-opacity="0" result="BackgroundImageFix"/>
<feColorMatrix in="SourceAlpha" type="matrix" values="0 0 0 0 0 0 0 0 0 0 0 0 0 0 0 0 0 0 127 0" result="hardAlpha"/>
<feOffset dx="1" dy="1"/>
<feGaussianBlur stdDeviation="0.5"/>
<feColorMatrix type="matrix" values="0 0 0 0 0.266667 0 0 0 0 0.266667 0 0 0 0 0.266667 0 0 0 1 0"/>
<feBlend mode="normal" in2="BackgroundImageFix" result="effect1_dropShadow_2_167"/>
<feBlend mode="normal" in="SourceGraphic" in2="effect1_dropShadow_2_167" result="shape"/>
</filter>
<clipPath id="clip0_2_167">
<rect width="120" height="100" fill="white"/>
</clipPath>
<clipPath id="clip1_2_167">
<rect width="120" height="47" fill="white" transform="translate(0 7)"/>
</clipPath>
</defs>
</svg>
