<svg width="121" height="44" viewBox="0 0 121 44" fill="none" xmlns="http://www.w3.org/2000/svg">
<g clip-path="url(#clip0_2_167)">
<rect width="121" height="44" fill="white"/>
<g clip-path="url(#clip1_2_167)">
<path d="M30.72 2.41601C29.7 3.45867 29.82 4.37867 31.2 5.66667C32.76 7.13867 32.7 8.67201 31.08 9.77601C29.76 10.696 29.7 10.7573 30.72 12.7813C31.62 14.56 31.74 14.6213 31.44 13.272C31.2 12.1067 31.5 11.1867 32.64 9.96001C34.56 7.81334 34.56 7.20001 32.64 5.29867C31.74 4.44001 31.26 3.39734 31.38 2.78401C31.74 1.49601 31.68 1.43467 30.72 2.41601Z" fill="#5844E4"/>
<path d="M19.9081 20.4396L19.9078 20.4395L17.7146 19.8381L10.7784 26.2135L10.7773 26.2144C8.80089 28.0205 6.96084 29.7639 5.58657 31.1229C4.89898 31.8028 4.33118 32.3834 3.92221 32.8259C3.71734 33.0476 3.55627 33.2304 3.4412 33.3714C3.32927 33.5084 3.28791 33.574 3.27998 33.5866C3.27878 33.5885 3.27834 33.5891 3.27853 33.5887L3.26469 33.6205L3.24658 33.6502C3.19493 33.7346 3.16011 33.9048 3.23117 34.1906C3.29993 34.4673 3.45364 34.7867 3.67086 35.0942C3.88719 35.4003 4.15073 35.6722 4.41821 35.8631C4.65939 36.0351 4.87134 36.1188 5.0355 36.1364C5.04977 36.1284 5.06788 36.1177 5.09014 36.1036C5.18478 36.0437 5.31652 35.9472 5.48554 35.8109C5.82148 35.54 6.26822 35.1419 6.79696 34.6432C7.85202 33.6483 9.20893 32.2767 10.6136 30.7797C12.0299 29.2397 13.4026 27.8518 14.4696 26.8461C15.0024 26.3439 15.4643 25.9321 15.8201 25.6431C15.9969 25.4995 16.156 25.3793 16.2893 25.2925C16.3554 25.2494 16.4249 25.2081 16.4935 25.1758C16.5464 25.151 16.6617 25.1 16.8 25.1C16.959 25.1 17.0957 25.1697 17.1488 25.197C17.2276 25.2375 17.3131 25.2908 17.4002 25.3497C17.5761 25.4685 17.7978 25.6368 18.0553 25.8436C18.5723 26.2588 19.2641 26.8538 20.08 27.5802C21.7134 29.0345 23.863 31.0322 26.1453 33.2117L26.1467 33.213C28.6933 35.6631 30.8292 37.6171 32.3844 38.9254C33.1637 39.581 33.7869 40.0658 34.238 40.3688C34.4657 40.5219 34.6325 40.617 34.7438 40.6661C34.7457 40.6669 34.7476 40.6677 34.7494 40.6685C34.7601 40.661 34.7722 40.6523 34.7856 40.6423C34.8567 40.5891 34.9459 40.5141 35.0527 40.416C35.266 40.2202 35.5286 39.9518 35.8248 39.6292C36.4162 38.9851 37.1208 38.1476 37.7986 37.2949C38.4764 36.4422 39.1214 35.5817 39.5947 34.8926C39.8321 34.5471 40.0212 34.2519 40.149 34.0262C40.2071 33.9236 40.2484 33.8424 40.2753 33.7818C40.2382 33.7157 40.1814 33.6254 40.1027 33.5099C39.9295 33.2556 39.6733 32.9133 39.3498 32.5028C38.7047 31.6842 37.8114 30.6186 36.8253 29.4884C35.2441 27.7195 34.3034 26.5887 33.7687 25.6097C33.211 24.5887 33.1 23.7442 33.1 22.5947C33.1 21.69 33.0244 21.1026 32.8756 20.6969C32.738 20.3219 32.5339 20.0903 32.2139 19.902C31.5403 19.5351 31.0782 19.3333 30.755 19.2756C30.6019 19.2483 30.515 19.2604 30.4665 19.2769C30.4261 19.2907 30.3802 19.3178 30.326 19.3947C30.1942 19.5813 30.0715 19.9748 29.996 20.7324C29.9227 21.4671 29.9 22.4571 29.9 23.76C29.9 25.1221 29.8395 26.3661 29.7475 27.2757C29.7017 27.7279 29.6468 28.1114 29.584 28.3896C29.5535 28.5248 29.5157 28.6601 29.4655 28.7717C29.4413 28.8254 29.4019 28.9022 29.3389 28.9732C29.2797 29.0398 29.1397 29.1667 28.92 29.1667C28.434 29.1667 27.972 28.8819 27.5972 28.5544C27.2048 28.2115 26.8236 27.7475 26.4912 27.2378C25.8365 26.2339 25.3 24.9409 25.3 23.8827C25.3 23.3582 25.2612 23.0094 25.1585 22.7405C25.064 22.4928 24.9016 22.2787 24.5753 22.0584C24.2339 21.828 23.7258 21.5997 22.9556 21.3372C22.1899 21.0763 21.1984 20.7924 19.9081 20.4396ZM4.99456 36.1568C4.9945 36.1569 4.99639 36.1562 5.00042 36.1545C4.99663 36.1558 4.99462 36.1567 4.99456 36.1568ZM40.3144 33.859C40.3143 33.8586 40.3141 33.8581 40.3138 33.8574C40.3155 33.8628 40.3162 33.8635 40.3144 33.859Z" fill="#5844E4" stroke="#5844E4"/>
<path d="M14.4 37.2533V39.7067H17.4H20.4V37.2533V34.8H17.4H14.4V37.2533Z" fill="#5844E4"/>
<path d="M30.2828 20.4525C30.0984 20.4731 30.1719 20.9292 30.1719 21.0643C30.1719 21.3016 30.1349 21.5165 30.1349 21.7502C30.1349 21.9789 30.0241 22.2059 30.0241 22.4362C30.0241 22.6586 30.0241 22.8811 30.0241 23.1036C30.0241 23.2911 30.098 23.4834 30.098 23.6783C30.098 23.8887 30.1349 24.096 30.1349 24.29C30.1349 24.7435 30.098 25.1579 30.098 25.6063" stroke="#5844E4" stroke-linecap="square"/>
<path d="M34.5415 40.4006C34.4488 40.382 34.3599 40.2328 34.3074 40.165C34.2408 40.0791 34.1777 39.9657 34.0882 39.9025C33.983 39.8283 33.9044 39.7059 33.8168 39.6131C33.7805 39.5746 33.7345 39.5453 33.7035 39.5054C33.6823 39.478 33.6413 39.4379 33.6126 39.4179C33.5679 39.3869 33.5395 39.3476 33.5022 39.3102C33.466 39.2739 33.4134 39.2421 33.3874 39.1965C33.3738 39.1726 33.3219 39.1368 33.3002 39.115C33.2586 39.0732 33.1967 39.0473 33.1488 39.014C33.1027 38.982 33.0748 38.9431 33.0251 38.9168C32.9835 38.8948 32.9155 38.8434 32.8901 38.8054C32.8672 38.7708 32.7939 38.7317 32.7574 38.7111C32.6983 38.6777 32.6544 38.6219 32.5986 38.5832C32.375 38.4279 32.1655 38.2253 31.9679 38.0343C31.9249 37.9926 31.8702 37.9291 31.8173 37.8996C31.7754 37.8763 31.7484 37.8225 31.7033 37.8024C31.6541 37.7805 31.6063 37.7084 31.5624 37.6738C31.5008 37.6253 31.4497 37.5647 31.3849 37.5197C31.3308 37.4821 31.2774 37.4399 31.2299 37.3955C31.1754 37.3448 31.1079 37.3133 31.0517 37.2639C30.9507 37.1753 30.8357 37.101 30.7274 37.0216C30.638 36.9561 30.5547 36.8707 30.4679 36.7995C30.4147 36.7558 30.3549 36.7097 30.3084 36.6589C30.2748 36.6221 30.2021 36.5534 30.1563 36.534C30.1173 36.5174 30.0647 36.448 30.0325 36.4158C29.994 36.3771 29.9528 36.3442 29.9185 36.3021C29.841 36.2072 29.7428 36.1251 29.6568 36.0388C29.5046 35.8861 29.358 35.7285 29.2005 35.5871C29.0294 35.4335 28.827 35.3141 28.6637 35.1503C28.5941 35.0805 28.5138 35.0268 28.4423 34.9551C28.3604 34.873 28.2783 34.7998 28.1941 34.7195C28.1043 34.634 28.0126 34.5524 27.9249 34.4645C27.8867 34.4262 27.8397 34.384 27.7974 34.3493C27.761 34.3194 27.7204 34.2689 27.6841 34.2454C27.6121 34.1986 27.5294 34.1074 27.4769 34.0397C27.4474 34.0017 27.4046 33.9679 27.3688 33.932C27.3371 33.9002 27.2648 33.86 27.2443 33.825C27.197 33.7445 27.0983 33.6875 27.0333 33.6224C26.9725 33.5614 26.9094 33.504 26.8491 33.4436C26.8182 33.4126 26.779 33.3882 26.7477 33.3568C26.7294 33.3385 26.6748 33.3037 26.6642 33.285C26.6426 33.247 26.551 33.1617 26.5166 33.1444" stroke="#5844E4" stroke-linecap="square"/>
<path d="M34.6355 40.0255C34.9642 40.0255 35.0971 39.5654 35.3496 39.3684C35.4506 39.2896 35.5505 39.1899 35.6147 39.0805C35.6559 39.0102 35.7562 38.9591 35.7902 38.8823C35.8549 38.7363 35.9867 38.4777 36.1093 38.3793C36.1864 38.3175 36.2153 38.2119 36.2916 38.1524C36.3617 38.0978 36.4383 38.0322 36.4824 37.9525C36.5714 37.7918 36.7592 37.7021 36.8471 37.5258C36.9943 37.2304 37.255 36.9295 37.4987 36.7094C37.7011 36.5267 37.9862 36.3034 38.0997 36.0472C38.1693 35.8902 38.3008 35.745 38.3445 35.5917C38.3631 35.5266 38.4855 35.4963 38.4948 35.4223C38.5008 35.3737 38.5912 35.297 38.6163 35.2529C38.7847 34.9573 38.9979 34.6846 39.2173 34.44C39.3227 34.3225 39.4498 34.1857 39.5212 34.0505C39.5867 33.9263 39.709 33.8397 39.771 33.7151" stroke="#5844E4" stroke-linecap="square"/>
<path d="M35.1217 40.117C35.2447 40.0073 35.398 39.9322 35.5235 39.8189C35.6353 39.7179 35.8108 39.6794 35.8814 39.5378" stroke="#5844E4" stroke-linecap="square"/>
<path d="M35.6383 39.5378C35.6492 39.4287 35.8364 39.143 35.9253 39.0873C35.9908 39.0462 36.0899 38.9312 36.1313 38.8671C36.1613 38.8205 36.2003 38.7958 36.2461 38.7689C36.2876 38.7443 36.2827 38.6772 36.3237 38.6537C36.451 38.5807 36.5666 38.4162 36.6343 38.2879C36.6924 38.1778 36.7515 38.0213 36.8369 37.9356C37.0375 37.7343 37.1915 37.4783 37.394 37.2751C37.5975 37.071 37.7309 36.8048 37.9106 36.6044C38.0279 36.4737 38.0829 36.2885 38.1976 36.1607C38.2722 36.0776 38.4065 35.9381 38.4357 35.8355C38.447 35.7959 38.5313 35.7223 38.5555 35.6797C38.594 35.6122 38.6428 35.5574 38.6838 35.4833C38.7092 35.4376 38.7878 35.3025 38.829 35.2766C38.8796 35.2449 38.8909 35.1532 38.9354 35.1174C38.9603 35.0974 39.0321 34.9857 39.0401 34.9498C39.0546 34.8839 39.1339 34.8222 39.1768 34.7669C39.2697 34.6471 39.3543 34.4855 39.4604 34.379C39.5565 34.2826 39.6755 34.1175 39.7407 34.0031C39.7969 33.9043 39.8238 33.7039 39.923 33.6542" stroke="#5844E4" stroke-linecap="square"/>
<path d="M39.5937 33.3378C39.5937 33.2506 39.5695 33.1286 39.5141 33.0572C39.4554 32.9814 39.4253 32.8713 39.3649 32.804C39.2583 32.6851 39.227 32.5271 39.1237 32.4173C39.0921 32.3837 39.1003 32.329 39.0665 32.2951C39.0386 32.2671 39.0098 32.2384 38.9895 32.2028C38.9431 32.1213 38.8953 32.0388 38.8328 31.9683C38.7539 31.8793 38.6649 31.7045 38.5642 31.654" stroke="#5844E4" stroke-linecap="square"/>
<path d="M38.5195 32.1704C38.4374 32.1539 38.4131 32.0492 38.3504 32.0132C38.3015 31.9852 38.2314 31.9038 38.1887 31.861C38.1043 31.7763 38.0059 31.6858 37.9053 31.6215C37.8516 31.5873 37.7677 31.5422 37.7362 31.4868C37.707 31.4357 37.6583 31.3922 37.6292 31.3397C37.5996 31.2862 37.594 31.2017 37.5571 31.16C37.4794 31.0723 37.472 30.8998 37.4129 30.7896C37.3548 30.6813 37.2874 30.5302 37.199 30.4416C37.105 30.3472 37.0047 30.252 36.9292 30.1385C36.8509 30.0206 36.7415 29.8703 36.6395 29.768C36.581 29.7093 36.5424 29.6412 36.4928 29.5772C36.4393 29.5082 36.3512 29.4515 36.3262 29.3639C36.2819 29.2084 36.1235 29.0747 36.0576 28.9261C36.0062 28.8101 35.8983 28.6754 35.8114 28.5781C35.7362 28.4938 35.642 28.3692 35.5876 28.2737C35.5167 28.1493 35.3943 28.0307 35.2967 27.927C35.2421 27.869 35.202 27.7971 35.1512 27.7349C35.1061 27.6795 35.0387 27.6132 35.0058 27.5553C34.9275 27.4179 34.7757 27.3046 34.7198 27.1586C34.6766 27.046 34.563 26.9531 34.486 26.8655C34.4309 26.8029 34.3893 26.7203 34.3343 26.6597C34.2481 26.5646 34.1437 26.4442 34.0882 26.3329" stroke="#5844E4" stroke-linecap="square"/>
<path d="M30.4079 26.0566C30.2692 26.0566 30.0731 26.2594 30.0731 26.3925C30.0731 26.5542 30.1504 26.6997 30.1504 26.8575C30.1504 27.2269 29.9186 27.5589 29.9186 27.9297C29.9186 28.1017 29.8003 28.2551 29.7898 28.4334C29.7859 28.501 29.7232 28.6004 29.7111 28.6789C29.6973 28.7688 29.6353 28.8768 29.6353 28.963C29.6353 29.1207 29.5162 29.351 29.4493 29.4927C29.4017 29.5935 29.3413 29.6835 29.2948 29.7768C29.2618 29.843 29.1718 29.8482 29.1718 29.9318" stroke="#5844E4" stroke-linecap="square"/>
<path d="M33.5239 26.3925C33.5239 25.9906 33.3437 25.635 33.3437 25.2299C33.3437 25.1396 33.2922 25.0722 33.2922 24.9845C33.2922 24.9345 33.2647 24.7428 33.2278 24.7132C33.1637 24.6618 33.1751 24.5399 33.1248 24.4793C33.0825 24.4284 33.0346 24.2745 33.0346 24.2095C33.0346 24.1197 32.961 24.0272 32.9574 23.9324C32.954 23.8427 32.9107 23.7357 32.9059 23.654C32.8947 23.4637 32.8544 23.3083 32.8544 23.1057C32.8544 22.8986 32.8286 22.6914 32.8286 22.4785C32.8286 22.2817 32.9059 22.1063 32.9059 21.9102C32.9059 21.8173 32.9316 21.7348 32.9316 21.6389C32.9316 21.5753 32.9391 21.4351 32.9002 21.3863C32.8515 21.3253 32.8523 21.2528 32.8158 21.1868C32.7892 21.1388 32.7256 21.0071 32.7256 20.9543C32.7256 20.6514 32.3233 20.425 32.1076 20.2897C31.9666 20.2013 31.8771 20.032 31.7098 19.984C31.6444 19.9653 31.5795 19.8821 31.5024 19.8821C31.4322 19.8821 31.3595 19.8046 31.2706 19.8046C31.1053 19.8046 30.9215 19.753 30.7427 19.753C30.5849 19.753 30.3821 19.8972 30.3821 20.063" stroke="#5844E4" stroke-linecap="square"/>
<path d="M26.5177 32.9012C26.2443 32.7721 25.9475 32.6537 25.7091 32.4677C25.6547 32.4252 25.575 32.3706 25.5157 32.3323C25.4577 32.2949 25.4031 32.2536 25.3468 32.2112C25.2819 32.1623 25.228 32.0862 25.1591 32.0455C25.071 31.9936 25.0094 31.9007 24.9213 31.8487C24.8516 31.8075 24.769 31.7243 24.71 31.665C24.658 31.6129 24.5821 31.538 24.5477 31.4776C24.5225 31.4334 24.396 31.2656 24.3439 31.2656" stroke="#5844E4" stroke-linecap="square"/>
<path d="M24.8024 31.4871C24.7127 31.397 24.6215 31.3075 24.5383 31.224C24.4479 31.1333 24.2725 31.0797 24.208 30.9665C24.1808 30.9188 24.1045 30.8569 24.059 30.8226C24.0098 30.7857 23.9763 30.7172 23.9354 30.6693C23.8562 30.5767 23.7608 30.4295 23.6561 30.3712C23.5468 30.3103 23.4702 30.1932 23.3589 30.1374C23.2277 30.0716 23.1307 29.9197 23.0023 29.8553C22.9461 29.8272 22.8791 29.7549 22.839 29.7058C22.7733 29.6252 22.6737 29.575 22.5984 29.507C22.4915 29.4105 22.3739 29.3203 22.2682 29.2249C22.0216 29.0023 21.7358 28.8423 21.4813 28.6334C21.4129 28.5772 21.3422 28.531 21.2794 28.4715C21.2509 28.4445 21.186 28.4104 21.1511 28.3901C21.1199 28.372 21.105 28.3436 21.0747 28.3267C21.0086 28.2898 20.9616 28.2221 20.8964 28.1857C20.8197 28.1429 20.7295 28.0827 20.6671 28.02C20.6088 27.9616 20.5314 27.9143 20.4812 27.8497C20.4461 27.8044 20.378 27.7711 20.3492 27.7219C20.2787 27.6017 20.1156 27.5489 20.051 27.4323C20.0226 27.381 19.9508 27.3552 19.9284 27.3045C19.9104 27.2639 19.842 27.2096 19.8057 27.1805C19.6942 27.091 19.5659 26.9653 19.4359 26.8871" stroke="#5844E4" stroke-linecap="square"/>
<path d="M20.2341 27.5004C20.2236 27.4482 20.1531 27.4118 20.1227 27.3726C20.0823 27.3205 20.0255 27.265 19.9925 27.2108C19.938 27.1213 19.8726 27.043 19.8095 26.9638C19.7602 26.9019 19.6842 26.7904 19.6151 26.7508C19.5284 26.7011 19.4875 26.5836 19.4019 26.5331C19.328 26.4895 19.2607 26.4182 19.1981 26.3589C19.1313 26.2956 19.051 26.2436 18.9868 26.1791C18.8484 26.0403 18.7011 25.9248 18.5565 25.7929C18.4984 25.7399 18.4207 25.6926 18.349 25.6566C18.2791 25.6216 18.2222 25.5547 18.1537 25.5241C18.1015 25.5009 17.9693 25.4293 17.9414 25.3803C17.9233 25.3485 17.8511 25.3298 17.8225 25.3026C17.8093 25.2902 17.7043 25.2366 17.6866 25.2345C17.6204 25.2267 17.5699 25.1571 17.4998 25.1493C17.4706 25.1461 17.315 25.0623 17.296 25.0386C17.277 25.0148 17.2065 25.0069 17.1771 24.9922C17.1269 24.967 17.0748 24.948 17.0243 24.924C16.9389 24.8834 16.8694 24.8791 16.778 24.8587C16.6946 24.8401 16.6111 24.8426 16.5233 24.8426C16.4222 24.8426 16.3401 24.9069 16.2393 24.9108C16.2006 24.9123 16.1128 24.9301 16.0818 24.9543C16.0323 24.9929 15.9623 24.9858 15.9072 25.0206C15.8237 25.0734 15.7272 25.1236 15.6581 25.1928C15.3988 25.453 14.9288 25.4752 14.7316 25.8213C14.7033 25.8711 14.6387 25.9612 14.5873 25.9841C14.5442 26.0033 14.5037 26.0423 14.4599 26.0655C14.4288 26.082 14.3682 26.1193 14.341 26.145C14.2862 26.1969 14.2104 26.2328 14.1627 26.2917C14.1121 26.3542 14.0555 26.4186 13.9976 26.4744C13.9095 26.5594 13.8506 26.6686 13.7561 26.7498C13.6823 26.8132 13.6248 26.9039 13.5353 26.9552C13.447 27.0058 13.3658 27.0838 13.2843 27.1426C13.1033 27.2734 13.0091 27.504 12.8126 27.6026" stroke="#5844E4" stroke-linecap="square"/>
<path d="M15.3698 25.7164C15.2405 25.7164 15.168 25.7949 15.0698 25.8715C15.006 25.9213 14.8529 26.0025 14.8178 26.0642C14.7924 26.1088 14.7075 26.1194 14.6724 26.1605C14.635 26.2042 14.5618 26.238 14.5177 26.2822C14.4237 26.3766 14.3148 26.4477 14.2044 26.511C13.8286 26.7264 13.4933 27.0176 13.1803 27.3002C12.9989 27.464 12.7973 27.6015 12.6229 27.7765C12.5528 27.8467 12.4733 27.9505 12.3802 28.0039C12.2718 28.066 12.1954 28.224 12.0935 28.3036C12.0127 28.3666 11.9404 28.4914 11.8841 28.5818C11.8442 28.6459 11.7644 28.8125 11.6974 28.852C11.6111 28.903 11.5305 29.0382 11.4574 29.1115C11.3782 29.191 11.2966 29.2728 11.2174 29.3523C11.0622 29.508 10.8447 29.6829 10.7373 29.8714C10.6758 29.9794 10.5699 30.1009 10.4866 30.1844C10.4135 30.2577 10.3745 30.3618 10.2933 30.4252C10.2072 30.4924 10.1576 30.5928 10.0652 30.6473C9.98902 30.6922 9.86527 30.7965 9.81989 30.8693C9.77002 30.9494 9.64757 31.0128 9.57986 31.0807C9.51081 31.15 9.46033 31.222 9.39317 31.2894C9.3313 31.3514 9.21992 31.4551 9.17715 31.5302C9.12524 31.6213 9.00978 31.6855 8.96112 31.771C8.91199 31.8572 8.8177 31.9332 8.75577 32.0131C8.70486 32.0788 8.59182 32.1391 8.55308 32.2071C8.45455 32.38 8.18681 32.5166 8.04369 32.6458C7.89717 32.7781 7.71576 32.9749 7.54497 33.0605" stroke="#5844E4" stroke-linecap="square"/>
<path d="M14.1697 26.6795C13.9061 26.944 13.6717 27.2202 13.3963 27.4688C13.2828 27.5713 13.1451 27.6932 13.0176 27.7685C12.8499 27.8674 12.7503 28.0753 12.5855 28.1671C12.439 28.2487 12.3338 28.4102 12.1962 28.5096C12.0397 28.6226 11.9059 28.7853 11.7454 28.8895C11.7017 28.9178 11.6467 28.9638 11.6134 29.0045C11.57 29.0577 11.495 29.0931 11.4587 29.1477C11.3958 29.2424 11.2709 29.3258 11.188 29.4058C11.0146 29.5734 10.8598 29.7517 10.6787 29.9075C10.5969 29.9778 10.5457 30.0932 10.4493 30.1523C10.3885 30.1896 10.2811 30.3298 10.2466 30.3891C10.2201 30.4346 10.1886 30.4491 10.1613 30.4894C10.1298 30.5359 10.0859 30.5642 10.0599 30.6045C10.0141 30.6755 9.93336 30.8031 9.85989 30.8452C9.80123 30.8789 9.73287 30.9705 9.84923 30.9121C9.94816 30.8625 10.0665 30.7958 10.1386 30.7115C10.2066 30.6319 10.314 30.5673 10.396 30.5081C10.4854 30.4435 10.5422 30.3487 10.6293 30.2807C10.7515 30.1854 10.8796 30.0784 11.012 30.0025C11.0601 29.9749 11.114 29.889 11.1694 29.8821C11.1781 29.881 11.3057 29.7707 11.3121 29.7483C11.331 29.6817 11.406 29.6106 11.4387 29.545C11.4684 29.4854 11.5152 29.4263 11.5654 29.3871C11.629 29.3375 11.8174 29.1698 11.8174 29.0875" stroke="#5844E4" stroke-linecap="square"/>
<path d="M10.3053 30.4359C10.0521 30.7152 9.80431 31.0165 9.62786 31.3509C9.52632 31.5433 9.34493 31.7425 9.18782 31.8913C9.07226 32.0008 8.97622 32.1479 8.86511 32.2659C8.77117 32.3657 8.65227 32.4365 8.55308 32.5308C8.46062 32.6187 8.34108 32.7225 8.23571 32.7956C8.10663 32.8853 7.9889 33.0184 7.857 33.0846" stroke="#5844E4" stroke-linecap="square"/>
<path d="M28.7454 29.8137C28.27 29.4002 27.6008 29.2643 27.1549 28.828C27.0183 28.6943 26.8689 28.5381 26.7701 28.369C26.6463 28.1568 26.4447 28.0011 26.3237 27.7878C26.0839 27.3655 25.8438 26.9516 25.6397 26.5299C25.4486 26.1351 25.1737 25.7402 25.1737 25.272C25.1737 25.0423 25.0654 24.8207 25.0654 24.5966C25.0654 24.4896 25.0102 24.3732 24.9858 24.2656C24.969 24.1917 25.0027 23.9544 24.9437 23.9081C24.8722 23.8521 24.9147 23.6574 24.855 23.5844C24.8035 23.5214 24.7451 23.3498 24.7407 23.2725C24.7365 23.1986 24.6707 22.9617 24.6265 22.9076C24.5708 22.8395 24.5769 22.7146 24.5183 22.6428C24.3766 22.4695 24.2031 22.3616 24.0237 22.225C23.9271 22.1515 23.786 21.9982 23.6719 21.9734C23.6013 21.958 23.5609 21.8962 23.5096 21.8572C23.4645 21.8228 23.3663 21.8306 23.3337 21.7748C23.2875 21.6957 23.0934 21.6248 23.009 21.5835C22.8882 21.5244 22.7475 21.4454 22.6182 21.4128C22.5166 21.3873 22.4304 21.3315 22.3325 21.3069C22.2643 21.2897 22.1237 21.272 22.068 21.2275C21.9926 21.1671 21.8051 21.1625 21.7042 21.1333C21.403 21.046 21.0649 21.0145 20.7767 20.8891C20.6561 20.8366 20.5316 20.803 20.4114 20.7508C20.3208 20.7114 20.222 20.7113 20.1348 20.6625C20.0779 20.6307 19.936 20.6013 19.8702 20.5978C19.6 20.5831 19.3115 20.4453 19.0449 20.3874C18.7858 20.331 18.5561 20.2535 18.2873 20.2535C18.0255 20.2535 17.8118 20.2424 17.5973 20.3535C17.3833 20.4644 17.3073 20.7167 17.1433 20.895C16.948 21.1074 16.7028 21.328 16.4458 21.4717C16.3354 21.5334 16.273 21.6347 16.1767 21.71C16.0995 21.7705 15.9602 21.9253 15.9197 22.0146C15.8941 22.0709 15.7982 22.1106 15.7573 22.1661C15.7148 22.224 15.6625 22.2627 15.616 22.3132C15.5322 22.4044 15.4618 22.5299 15.3515 22.5898C15.2242 22.6591 15.1705 22.8297 15.0418 22.9018C14.9445 22.9562 14.87 23.0832 14.7682 23.1401C14.7021 23.1771 14.5446 23.3153 14.5066 23.3784C14.4392 23.4907 14.3151 23.5836 14.221 23.6756C14.0146 23.8777 13.7558 24.0974 13.4965 24.2318C13.1659 24.403 12.8419 24.6693 12.578 24.9277C12.2976 25.2021 12.0437 25.5006 11.7933 25.8001C11.5999 26.0315 11.2912 26.2648 11.0221 26.4034C10.9747 26.4278 10.8987 26.4918 10.8598 26.5299C10.7973 26.591 10.7256 26.6146 10.6704 26.6829C10.6226 26.7419 10.5147 26.7847 10.4539 26.8477C10.4017 26.9018 10.3471 26.9522 10.2915 27.0066" stroke="#5844E4" stroke-linecap="square"/>
<path d="M9.92449 27.4428C9.76583 27.4601 9.60652 27.7054 9.46636 27.778C9.31723 27.8553 9.17019 27.9704 9.04987 28.095C8.82799 28.325 8.68704 28.7315 8.42514 28.9329C8.33463 29.0025 8.22747 29.1219 8.14285 29.2047C8.07313 29.2729 8.00311 29.332 7.92535 29.3972C7.78882 29.5117 7.59453 29.6143 7.49961 29.7663C7.40652 29.9154 7.13438 30.0463 6.99983 30.1649C6.869 30.2801 6.74729 30.3952 6.61342 30.5C6.48525 30.6004 6.31983 30.7216 6.21776 30.8465C6.09676 30.9945 5.90781 31.048 5.78045 31.1726C5.54538 31.4027 5.15191 31.5722 4.97755 31.8452C4.79818 32.1261 4.51413 32.3502 4.34356 32.6423C4.1751 32.9309 3.90806 33.1979 3.71883 33.4757" stroke="#5844E4" stroke-linecap="square"/>
<path d="M7.43424 33.3176C7.25883 33.5107 7.1521 33.7394 6.97279 33.9149C6.89484 33.9912 6.83341 34.0775 6.75844 34.1509C6.6914 34.2165 6.56919 34.3286 6.52325 34.4073C6.45248 34.5285 6.31442 34.5892 6.22852 34.6943C6.15864 34.7798 6.00809 34.8335 5.95463 34.9172C5.89058 35.0175 5.73408 35.0806 5.64502 35.159C5.57937 35.2169 5.49094 35.3389 5.40983 35.3616C5.18502 35.4244 5.03139 35.7044 4.74296 35.6238C4.64919 35.5976 4.52121 35.4941 4.41995 35.4941C4.33037 35.4941 4.19754 35.3731 4.1922 35.2843C4.18813 35.2166 4.08158 35.0703 4.03739 35.0163C3.97095 34.935 3.87184 34.842 3.81709 34.7482C3.77737 34.6802 3.64671 34.5436 3.58786 34.486C3.51675 34.4164 3.53354 34.2278 3.44198 34.1829" stroke="#5844E4" stroke-linecap="square"/>
<path d="M7.85897 28.6776C7.81344 28.6776 7.79172 28.7159 7.76232 28.7436C7.72422 28.7795 7.68213 28.796 7.65592 28.8422C7.63022 28.8874 7.58006 28.9142 7.55358 28.9566C7.53111 28.9926 7.48706 29.0468 7.45124 29.0711C7.41414 29.0962 7.38777 29.142 7.35621 29.1729C7.31556 29.2126 7.28438 29.2661 7.23925 29.3001C7.21542 29.318 7.19456 29.3482 7.17549 29.3712C7.15568 29.3951 7.12531 29.4099 7.10604 29.4344C7.09536 29.448 7.0759 29.4721 7.06178 29.4825C7.03726 29.5005 7.02636 29.5291 7.0037 29.5465C6.97267 29.5703 6.93766 29.6075 6.91558 29.6399C6.88647 29.6826 6.83261 29.7108 6.79537 29.7472C6.73028 29.8109 6.65466 29.8643 6.5911 29.9265C6.53689 29.9795 6.47348 30.0245 6.42256 30.0799C6.40054 30.1038 6.36194 30.1197 6.33484 30.1403C6.30453 30.1634 6.33806 30.0729 6.33849 30.0656C6.34175 30.0115 6.3867 29.9614 6.42459 29.9281C6.44241 29.9124 6.45281 29.8853 6.4717 29.8668C6.4912 29.8478 6.51299 29.8299 6.53586 29.8168C6.55967 29.8031 6.58788 29.7878 6.60734 29.7707C6.62077 29.7588 6.67288 29.7154 6.67475 29.7007C6.67753 29.6789 6.72501 29.6461 6.74054 29.6292C6.76959 29.5974 6.78536 29.5495 6.8173 29.5183C6.8433 29.4928 6.87556 29.4565 6.89405 29.4249C6.90475 29.4065 6.93734 29.3681 6.9566 29.3573C6.97188 29.3487 7.01177 29.3109 7.01832 29.2965C7.02692 29.2775 7.06962 29.2527 7.08777 29.2388C7.11118 29.221 7.13012 29.1968 7.15356 29.1784C7.16968 29.1658 7.19747 29.1354 7.21163 29.1176C7.22848 29.0964 7.25884 29.0863 7.27417 29.0675C7.28903 29.0494 7.32373 29.0385 7.33265 29.021" stroke="#5844E4" stroke-width="0.25" stroke-linecap="round"/>
<path d="M8.54611 28.1911C8.50087 28.1911 8.47003 28.2249 8.43809 28.2539C8.39586 28.2923 8.35312 28.3299 8.31219 28.37C8.24433 28.4364 8.16884 28.4905 8.09858 28.5544C8.08179 28.5697 8.05858 28.5776 8.04172 28.5918C8.02561 28.6053 7.99538 28.6143 7.98324 28.6291C7.94507 28.6758 7.87705 28.705 7.82933 28.7424C7.78392 28.778 7.73204 28.809 7.69084 28.8493C7.65983 28.8797 7.61909 28.8958 7.5885 28.924C7.54847 28.9611 7.55109 28.8928 7.56657 28.8692C7.60133 28.8163 7.65359 28.7726 7.6945 28.7241C7.71549 28.6992 7.7379 28.676 7.76394 28.6562C7.78323 28.6415 7.80908 28.6334 7.82608 28.6168C7.86169 28.5819 7.90169 28.5499 7.93776 28.5147C7.9985 28.4552 8.05696 28.3959 8.11117 28.331C8.15831 28.2746 8.23086 28.2378 8.28295 28.184C8.35005 28.1146 8.42866 28.0481 8.50915 27.994C8.60208 27.9314 8.68402 27.8507 8.77272 27.7817C8.95077 27.6433 9.10581 27.4801 9.28442 27.3413C9.33934 27.2986 9.38769 27.2466 9.44362 27.2038C9.4972 27.1628 9.53521 27.1053 9.58778 27.0647C9.62346 27.0371 9.66188 26.9952 9.68972 26.9605C9.73283 26.9068 9.66036 26.9557 9.64423 26.9749C9.5779 27.0537 9.50632 27.1415 9.41965 27.2002C9.34918 27.248 9.2818 27.3218 9.20401 27.3544C9.16921 27.369 9.13501 27.4122 9.10492 27.4363C9.0512 27.4793 8.99011 27.5169 8.93923 27.5631C8.89578 27.6026 8.8408 27.6376 8.80358 27.6831C8.76999 27.7242 8.71855 27.7688 8.67769 27.8044C8.59438 27.8769 8.53711 27.9849 8.4454 28.048C8.39881 28.0801 8.37538 28.1423 8.33087 28.1784C8.27377 28.2247 8.22472 28.281 8.1664 28.3267C8.0506 28.4173 7.92487 28.4942 7.80943 28.5846C7.72476 28.6509 7.66057 28.7359 7.58444 28.8104C7.43855 28.9532 7.28417 29.0859 7.15356 29.2432C7.06175 29.3538 6.95408 29.4537 6.85182 29.556C6.75484 29.6531 6.65142 29.7561 6.53261 29.8259C6.51074 29.8388 6.49741 29.861 6.47738 29.8764C6.45816 29.8912 6.43822 29.9045 6.4189 29.9193C6.38019 29.9491 6.33821 29.981 6.29626 30.0068C6.24954 30.0355 6.20612 30.0674 6.16143 30.0982C6.12143 30.1257 6.06559 30.1641 6.03553 30.2015C6.01096 30.2321 5.98564 30.2628 5.95837 30.2909C5.92774 30.3226 5.90944 30.3588 5.87959 30.3891C5.82987 30.4396 5.78284 30.4923 5.73176 30.541C5.69341 30.5775 5.65226 30.6078 5.61846 30.6483C5.59076 30.6814 5.57492 30.723 5.54901 30.756C5.51256 30.8024 5.47272 30.8441 5.43205 30.8883C5.40215 30.9209 5.38643 30.9716 5.3553 31.0068C5.31262 31.055 5.26933 31.0945 5.20544 31.1101" stroke="#5844E4" stroke-width="0.25" stroke-linecap="round"/>
<path d="M11.106 30.5495C10.9808 30.6721 10.8785 30.8176 10.7391 30.9237C10.6074 31.024 10.4847 31.1912 10.3794 31.3236C10.2621 31.4712 10.1233 31.5708 9.97356 31.6907C9.91068 31.741 9.97886 31.7037 10.0098 31.6827C10.0646 31.6456 10.1151 31.6027 10.1638 31.5586C10.2209 31.5068 10.3382 31.4622 10.3722 31.3874C10.4038 31.3178 10.4989 31.285 10.5443 31.2278C10.5969 31.1617 10.7111 31.1301 10.7763 31.0727C10.8179 31.036 10.8559 30.9848 10.9022 30.9485C10.9316 30.9255 11.0191 30.8475 11.0245 30.8049C11.0262 30.7912 11.1177 30.6713 11.1305 30.6612C11.1874 30.6167 11.2027 30.5206 11.2564 30.4732C11.378 30.3662 11.4308 30.2011 11.4974 30.0707" stroke="#5844E4" stroke-width="0.25" stroke-linecap="round"/>
<path d="M11.318 30.2462C11.3919 30.2122 11.4366 30.1406 11.5047 30.1026C11.5705 30.0658 11.5955 29.9908 11.6687 29.959C11.7826 29.9094 11.8417 29.7553 11.9377 29.7C11.9611 29.6866 12.0202 29.6093 12.0356 29.583C12.0719 29.5208 12.1283 29.4649 12.1733 29.4083C12.2152 29.3556 12.2331 29.298 12.2675 29.2407C12.3118 29.167 12.4607 29.069 12.5411 29.0297C12.6092 28.9964 12.7044 28.9054 12.7613 28.8497C12.8268 28.7856 12.9 28.7321 12.9724 28.6741C13.1031 28.5695 13.1959 28.4467 13.3076 28.331C13.3532 28.2837 13.3799 28.2123 13.4299 28.1634C13.4611 28.1329 13.5359 28.0638 13.5422 28.0206C13.5439 28.0089 13.3447 28.1273 13.3248 28.1403C13.2204 28.2085 13.1163 28.2861 13.0177 28.3629C12.8906 28.4618 12.7324 28.524 12.6263 28.6502C12.5648 28.7233 12.4976 28.7686 12.4424 28.8497C12.3809 28.9398 12.4876 28.8303 12.5158 28.8027C12.6088 28.7116 12.7285 28.6122 12.793 28.4985C12.9591 28.2059 12.9345 27.8379 12.9325 27.5152C12.9301 27.1146 12.7805 26.751 12.5574 26.4192C12.468 26.2862 12.3583 26.1625 12.2557 26.0397C12.1755 25.9438 12.0907 25.8665 11.9903 25.7897C11.9326 25.7455 11.8372 25.6982 11.791 25.6416C11.7424 25.5822 11.5327 25.6619 11.4811 25.6886C11.3636 25.7495 11.2352 25.7447 11.1097 25.7932C11.016 25.8294 10.9239 25.8728 10.8379 25.9209C10.7653 25.9615 10.7163 26.0469 10.6576 26.1044C10.5957 26.165 10.5469 26.231 10.4827 26.2915C10.3856 26.3831 10.2578 26.4425 10.1602 26.5274C10.085 26.5929 9.977 26.6557 9.89112 26.7101C9.77287 26.785 9.68917 26.8607 9.58943 26.9583C9.51548 27.0307 9.43013 27.0983 9.36475 27.1694C9.27832 27.2634 9.45818 27.2087 9.49159 27.1978" stroke="#5844E4" stroke-width="0.25" stroke-linecap="round"/>
<path d="M9.89928 26.7828C9.95557 26.7766 10.0364 26.6951 10.075 26.6586C10.149 26.5889 10.218 26.5177 10.2825 26.4405C10.3518 26.3576 10.4652 26.2973 10.5199 26.2082C10.5394 26.1764 10.6006 26.1265 10.6331 26.1089C10.6929 26.0764 10.7254 26.0061 10.7717 25.9608C10.83 25.9037 10.9347 25.8385 10.9756 25.7684C11.0204 25.6917 11.1278 25.664 11.1749 25.5857C11.218 25.514 11.3275 25.4818 11.3706 25.4101C11.4049 25.353 11.491 25.3065 11.5391 25.2594C11.5985 25.2013 11.6771 25.1561 11.7257 25.0874C11.7959 24.9882 11.887 24.8496 12.0066 24.8001C12.1129 24.7561 12.1986 24.6414 12.2883 24.5731C12.4235 24.4702 12.5939 24.408 12.7278 24.3009C12.8116 24.2337 12.9141 24.1861 12.9805 24.1102C13.0738 24.0038 13.1881 23.8992 13.2994 23.807C13.4058 23.7189 13.5048 23.6012 13.621 23.5268C13.7651 23.4346 13.8852 23.3285 14.0088 23.2076C14.0745 23.1433 14.1327 23.0721 14.1973 23.0089C14.2499 22.9574 14.325 22.9131 14.3676 22.8529C14.3833 22.8307 14.4949 22.6839 14.4247 22.7527C14.3679 22.8083 14.297 22.8519 14.2371 22.9043C14.1372 22.9918 13.9892 23.0815 13.8711 23.1446C13.7867 23.1897 13.6671 23.2767 13.6093 23.3521C13.5526 23.426 13.4694 23.5127 13.3973 23.5676C13.3631 23.5936 13.2995 23.6516 13.2786 23.6864C13.2483 23.7368 13.1748 23.7673 13.1373 23.8141C13.0666 23.9021 12.9328 23.993 12.8383 24.0535C12.7377 24.1178 12.6558 24.2285 12.5737 24.3089C12.3744 24.5039 12.1242 24.6601 11.9251 24.8551C11.8404 24.9379 11.7673 25.0184 11.685 25.0989C11.5906 25.1913 11.4691 25.2543 11.3824 25.3534C11.3141 25.4313 11.1889 25.4803 11.1224 25.5618C11.0587 25.6396 10.9745 25.6985 10.9022 25.7693C10.5464 26.1175 10.1443 26.4258 9.83405 26.8306" stroke="#5844E4" stroke-width="0.25" stroke-linecap="round"/>
<path d="M15.4602 26.2401C15.3815 26.2446 15.241 26.4047 15.1866 26.46C15.0983 26.5497 15.0166 26.6446 14.9293 26.7358C14.8272 26.8423 14.6844 26.9071 14.5705 26.9982C14.4809 27.07 14.3691 27.1329 14.2734 27.1978C14.1179 27.3031 14.0167 27.4501 13.8702 27.5649C13.7954 27.6234 13.7353 27.7178 13.65 27.7688C13.6207 27.7863 13.4725 27.8845 13.4725 27.9231C13.4725 27.9664 13.5876 27.8494 13.5939 27.8433C13.6423 27.7959 13.6924 27.7535 13.7488 27.7156C13.7965 27.6835 13.8668 27.6125 13.9191 27.5968C13.975 27.58 14.0191 27.5025 14.074 27.4726C14.2097 27.3989 14.3536 27.3001 14.4618 27.1942C14.5682 27.0901 14.6823 26.9842 14.7753 26.8706C14.8573 26.7702 14.9744 26.7107 15.0525 26.6152C15.1461 26.5007 15.2476 26.3755 15.3533 26.272C15.4163 26.2104 15.4787 26.1085 15.5218 26.0326C15.6004 25.8941 15.7467 25.8105 15.876 25.7214C15.9519 25.6691 16.0498 25.6333 16.1116 25.5627C16.1322 25.5392 16.1574 25.5024 16.1859 25.49C16.2632 25.4563 16.3272 25.3885 16.406 25.3499C16.5296 25.2894 16.7192 25.2165 16.8626 25.2789C16.8896 25.2906 16.9301 25.3127 16.9605 25.3144C16.9732 25.3151 17.0439 25.3367 17.0384 25.3428C16.9927 25.3931 16.86 25.4023 16.7974 25.411C16.6303 25.4344 16.5021 25.56 16.3499 25.6026C16.2467 25.6314 16.0888 25.7296 16.011 25.8056C15.9664 25.8493 15.9022 25.9045 15.8443 25.9369C15.781 25.9723 15.7382 26.0482 15.6722 26.0805" stroke="#5844E4" stroke-width="0.25" stroke-linecap="round"/>
<path d="M15.607 21.6753C15.5066 21.7042 15.4263 21.7883 15.3533 21.8598C15.2378 21.9728 15.1211 22.1104 15.028 22.2419C14.9399 22.3666 14.871 22.5276 14.739 22.617C14.6495 22.6776 14.5462 22.7519 14.4654 22.8245C14.4105 22.8739 14.3176 22.9374 14.2453 22.9531C14.2296 22.9565 14.1763 23.0114 14.1592 22.9965C14.1409 22.9806 14.1869 22.9103 14.1954 22.8972C14.24 22.8286 14.2822 22.7617 14.3386 22.7004C14.3843 22.6507 14.4447 22.5656 14.5107 22.5408C14.5661 22.5199 14.6433 22.4589 14.6856 22.4175C14.7472 22.3572 14.8204 22.3175 14.8813 22.2579C14.9254 22.2147 14.9835 22.1669 15.0362 22.1347C15.0755 22.1106 15.1624 22.0347 15.1866 21.9946C15.2554 21.88 15.3752 21.8032 15.4602 21.6993C15.4701 21.6872 15.5819 21.5455 15.5127 21.5672C15.4495 21.587 15.3351 21.6501 15.3007 21.7073C15.2779 21.7453 15.2039 21.7442 15.183 21.78C15.1727 21.7976 15.1473 21.8182 15.1304 21.8314C15.1151 21.8434 15.0927 21.8735 15.076 21.8828C14.9731 21.9404 14.9229 22.0743 14.8242 22.1347C14.7459 22.1825 14.6389 22.297 14.5796 22.3696C14.5141 22.4498 14.4295 22.5315 14.3549 22.6046C14.1964 22.7598 14.1055 22.9779 13.9019 23.0834C13.8344 23.1184 13.7672 23.1625 13.6999 23.1996C13.6312 23.2374 13.5406 23.2785 13.4797 23.3273C13.4003 23.3909 13.2268 23.4767 13.1934 23.5747" stroke="#5844E4" stroke-width="0.25" stroke-linecap="round"/>
<path d="M10.0925 31.7531C10.0276 31.7531 9.98695 31.8413 9.93352 31.8703C9.87392 31.9027 9.81886 31.9536 9.76566 31.9952C9.67106 32.0693 9.59278 32.1337 9.50945 32.22C9.41638 32.3165 9.34188 32.4408 9.23557 32.5217C9.16448 32.5758 9.01264 32.692 8.97937 32.7734C8.944 32.86 8.80178 32.9641 8.72807 33.029C8.65139 33.0965 8.54224 33.1572 8.45812 33.2231C8.36395 33.2968 8.20551 33.3817 8.14498 33.4825C8.11315 33.5354 8.03933 33.5395 8.00755 33.5939C7.98197 33.6377 7.86375 33.712 7.81711 33.7419C7.70824 33.8115 7.58387 33.8908 7.50299 33.9926C7.41501 34.1033 7.26165 34.1606 7.15942 34.2607C7.02969 34.3876 7.33627 34.2026 7.3793 34.1905C7.4342 34.1752 7.48386 34.1239 7.54422 34.1012C7.58677 34.0852 7.69628 34.0276 7.72484 33.9926C7.7574 33.9528 7.8301 33.9503 7.86619 33.9062C7.89408 33.872 7.95782 33.8466 7.9938 33.8149C8.03508 33.7785 8.06458 33.7494 8.09982 33.7111C8.13805 33.6696 8.22224 33.6221 8.23627 33.5603C8.25406 33.4819 8.39616 33.349 8.46695 33.3057C8.51619 33.2756 8.53701 33.2063 8.5818 33.1712C8.61396 33.146 8.66132 33.0713 8.66132 33.0328" stroke="#5844E4" stroke-width="0.25" stroke-linecap="round"/>
<path d="M13.8915 27.7929C13.841 27.8423 13.7606 27.8849 13.6971 27.9178C13.6194 27.958 13.5886 28.0027 13.6892 27.9447C13.736 27.9178 13.7636 27.8172 13.8208 27.8102C13.8534 27.8062 13.9777 27.7046 13.9975 27.6805C14.0453 27.622 14.1366 27.6056 14.1742 27.5412C14.2133 27.4742 14.277 27.4509 14.3155 27.4038C14.3794 27.3257 14.5629 27.2435 14.5629 27.1357" stroke="#5844E4" stroke-width="0.25" stroke-linecap="round"/>
<path d="M15.6878 26.1609C15.6878 26.2187 15.5494 26.2863 15.4993 26.3123C15.4255 26.3505 15.3627 26.4181 15.3107 26.4817C15.2868 26.5109 15.242 26.5334 15.2229 26.5652C15.197 26.6082 15.1348 26.6288 15.1042 26.6662C15.0727 26.7048 15.0152 26.7319 14.9945 26.778C14.983 26.8034 14.9377 26.8361 14.9156 26.8547C14.8993 26.8683 14.8801 26.8813 14.8618 26.8903" stroke="#5844E4" stroke-width="0.25" stroke-linecap="round"/>
<path d="M29.6467 23.5803C29.6467 24.1882 29.6707 24.7823 29.6707 25.3883" stroke="#5844E4" stroke-width="0.25"/>
<path d="M29.5926 24.3648C29.5189 24.3728 29.547 24.6651 29.547 24.7216C29.547 24.784 29.547 24.8465 29.547 24.9089C29.547 24.9722 29.5197 25.0304 29.5197 25.0962" stroke="#5844E4" stroke-width="0.25"/>
<path d="M29.5197 25.0962C29.5197 25.3337 29.5197 25.5823 29.5197 25.8187C29.5197 25.8797 29.5197 25.9406 29.5197 26.0016C29.5197 26.0343 29.5197 26.067 29.5197 26.0997C29.5197 26.1451 29.5363 26.1865 29.5379 26.231C29.5409 26.3167 29.5561 26.4029 29.5561 26.4882C29.5561 26.5747 29.4911 26.6659 29.4604 26.7459C29.4429 26.7917 29.4285 26.8315 29.4285 26.8802" stroke="#5844E4" stroke-width="0.25"/>
<path d="M29.5105 26.7196C29.5678 26.7266 29.5713 26.9017 29.5789 26.9387C29.5972 27.0281 29.6037 27.1374 29.5921 27.2286C29.5776 27.3417 29.5426 27.4564 29.5197 27.5685C29.5022 27.6538 29.4643 27.7392 29.4559 27.8257C29.4547 27.838 29.4418 27.8484 29.4488 27.8614C29.4572 27.877 29.465 27.8714 29.465 27.8926C29.465 27.954 29.4741 28.0126 29.4741 28.0755C29.4741 28.1377 29.4441 28.1936 29.4376 28.2539C29.4336 28.2911 29.4183 28.3368 29.4098 28.3743C29.4029 28.4048 29.3942 28.4281 29.3759 28.3877C29.3581 28.3485 29.3738 28.2707 29.3738 28.2271C29.3738 28.176 29.3921 28.129 29.3921 28.0799C29.3921 28.0279 29.3921 27.9759 29.3921 27.9238C29.3921 27.865 29.3888 27.7979 29.4017 27.741C29.4138 27.6876 29.4079 27.6343 29.4199 27.5814C29.4406 27.4902 29.4467 27.3784 29.4467 27.2816C29.4467 27.1797 29.4741 27.0803 29.4741 26.9783" stroke="#5844E4" stroke-width="0.25"/>
<path d="M29.4467 26.9337C29.3929 26.9403 29.3949 27.0887 29.4123 27.121C29.4509 27.1923 29.4376 27.2889 29.4376 27.3708C29.4376 27.5534 29.383 27.7206 29.383 27.901C29.383 27.989 29.3738 28.0738 29.3738 28.1602C29.3738 28.201 29.3647 28.2444 29.3647 28.2806C29.3647 28.3264 29.349 28.3615 29.3465 28.4055C29.342 28.4849 29.3088 28.5647 29.2913 28.6419C29.2832 28.6774 29.2629 28.7211 29.2483 28.7534C29.2454 28.7597 29.2331 28.799 29.23 28.796C29.2214 28.7876 29.228 28.7473 29.228 28.7355" stroke="#5844E4" stroke-width="0.25"/>
<path d="M29.4103 28.5482C29.4084 28.5776 29.3611 28.635 29.3414 28.6597C29.3144 28.6937 29.2868 28.7441 29.2716 28.7871C29.2508 28.8458 29.2061 28.9023 29.1774 28.9585C29.1459 29.0202 29.1026 29.0765 29.0731 29.1414C29.0452 29.2029 29.0074 29.2624 28.984 29.3262C28.9641 29.3802 28.9202 29.3562 28.8726 29.351C28.7747 29.3404 28.8537 29.1547 28.8954 29.1275C28.9172 29.1133 28.9357 29.0695 28.95 29.0477C28.9642 29.0262 28.9882 28.9739 29.0093 28.9605C29.0482 28.9359 29.0591 28.8714 29.0959 28.8426C29.1232 28.8212 29.1277 28.7673 29.1531 28.7425C29.186 28.7103 29.1836 28.6561 29.2078 28.6265C29.2238 28.6069 29.2098 28.5249 29.2098 28.4992C29.2098 28.4655 29.2181 28.4148 29.2275 28.3827C29.2484 28.311 29.2554 28.2236 29.2554 28.1468" stroke="#5844E4" stroke-width="0.25"/>
<path d="M29.2827 28.2271C29.2827 28.169 29.2645 28.1218 29.2645 28.0666" stroke="#5844E4" stroke-width="0.25"/>
<path d="M29.2617 28.1072C29.2634 28.0938 29.2734 28.0821 29.2734 28.0671C29.2734 28.055 29.2812 28.0392 29.2812 28.0269C29.2812 27.9956 29.293 27.9667 29.293 27.9352" stroke="#5844E4" stroke-width="0.25"/>
<path d="M29.2852 28.0499C29.2852 28.0444 29.2873 28.0069 29.291 28.004C29.2985 27.9981 29.2924 27.9638 29.293 27.9543C29.2946 27.9267 29.317 27.9054 29.3244 27.8799C29.3439 27.8134 29.3281 27.7471 29.3281 27.679" stroke="#5844E4" stroke-width="0.25"/>
<path d="M29.3516 27.9008C29.3444 27.8788 29.3539 27.8525 29.3446 27.832C29.3418 27.8258 29.3416 27.8139 29.3401 27.8071C29.3386 27.8007 29.3324 27.7915 29.332 27.7861C29.3303 27.758 29.308 27.7195 29.3212 27.6905C29.3331 27.6643 29.342 27.6393 29.3438 27.6102C29.3446 27.5964 29.3516 27.5841 29.3516 27.5682C29.3516 27.5584 29.347 27.5264 29.3555 27.5223" stroke="#5844E4" stroke-width="0.25"/>
<path d="M29.3555 27.5528C29.3555 27.5305 29.3555 27.5082 29.3555 27.4859C29.3555 27.468 29.3489 27.4353 29.3563 27.419C29.3604 27.4102 29.3605 27.3988 29.3631 27.3901C29.3661 27.3799 29.3681 27.369 29.3709 27.3596C29.3736 27.3503 29.3711 27.3369 29.3711 27.3273C29.3711 27.3157 29.375 27.3064 29.375 27.2937C29.375 27.2495 29.3828 27.2078 29.3828 27.1629C29.3828 27.1405 29.3906 27.1188 29.3906 27.096C29.3906 27.0726 29.3912 27.0543 29.3984 27.0329" stroke="#5844E4" stroke-width="0.25"/>
<path d="M29.4609 27.0482C29.4768 26.9996 29.4453 26.9503 29.4453 26.9029C29.4453 26.8615 29.4453 26.8201 29.4453 26.7787C29.4453 26.757 29.4453 26.7354 29.4453 26.7137C29.4453 26.6927 29.4375 26.6717 29.4375 26.6506C29.4375 26.6336 29.4336 26.6152 29.4336 26.5971C29.4336 26.5799 29.4414 26.5654 29.4414 26.5493C29.4414 26.5329 29.4531 26.5158 29.4531 26.4996C29.4531 26.4805 29.4531 26.4614 29.4531 26.4422C29.4531 26.4061 29.4609 26.3695 29.4609 26.3333C29.4609 26.2667 29.4883 26.2057 29.4883 26.1383" stroke="#5844E4" stroke-width="0.25"/>
<path d="M34.0742 25.933C34.0451 25.854 33.9896 25.7935 33.9513 25.7184C33.914 25.6455 33.8834 25.5646 33.855 25.488C33.8188 25.3906 33.7715 25.2772 33.7715 25.1719C33.7715 25.132 33.7611 25.0916 33.7611 25.0493C33.7611 25.0306 33.7611 25.0119 33.7611 24.9931C33.7611 24.9504 33.7624 24.9821 33.7819 25.0033C33.8118 25.0359 33.8282 25.0791 33.8469 25.1157C33.8664 25.1539 33.9 25.189 33.92 25.2281C33.955 25.2967 34.0218 25.3524 34.0435 25.4267C34.0485 25.4439 34.0757 25.4928 34.0899 25.5039C34.1125 25.5217 34.1075 25.5668 34.1316 25.5856C34.1521 25.6017 34.1435 25.6562 34.1635 25.6674C34.1927 25.6837 34.1943 25.744 34.2203 25.7695" stroke="#5844E4" stroke-width="0.25"/>
<path d="M34.0533 25.3405C34.0174 25.3207 34.0039 25.2864 33.9779 25.261C33.9541 25.2377 33.948 25.1865 33.9228 25.1668C33.8925 25.1431 33.8955 25.0944 33.8707 25.0652C33.8445 25.0345 33.8313 24.9694 33.8109 24.9318C33.775 24.8654 33.7397 24.7947 33.7187 24.723C33.6947 24.6406 33.6337 24.5498 33.5941 24.4721" stroke="#5844E4" stroke-width="0.25"/>
<path d="M33.688 24.4926C33.6616 24.4376 33.652 24.3725 33.6231 24.3189C33.5974 24.2715 33.5732 24.2297 33.5622 24.181C33.5496 24.1256 33.5244 24.0826 33.521 24.0226C33.5182 23.9739 33.5034 23.9086 33.4903 23.8637C33.477 23.8183 33.4715 23.7638 33.4688 23.7162C33.4657 23.6609 33.445 23.6084 33.4369 23.5527C33.418 23.4232 33.3853 23.2927 33.3853 23.16C33.3853 23.0514 33.354 22.9425 33.354 22.8297C33.354 22.7002 33.3467 22.5685 33.354 22.4392C33.367 22.2108 33.3853 21.9754 33.3853 21.7446C33.3853 21.6901 33.3853 21.6356 33.3853 21.5811C33.3853 21.5304 33.354 21.4835 33.354 21.433C33.354 21.4068 33.3273 21.3186 33.3099 21.2974C33.2772 21.2573 33.2906 21.1814 33.2653 21.1367C33.2382 21.089 33.26 21.0192 33.2369 20.9682C33.2165 20.9234 33.211 20.8641 33.198 20.8195C33.1871 20.782 33.1781 20.7044 33.1534 20.6742C33.1301 20.6457 33.1045 20.5809 33.0936 20.5437C33.0643 20.4431 33.0199 20.3672 32.9678 20.2781C32.9222 20.1999 32.8375 20.155 32.7799 20.0845C32.7647 20.0659 32.734 20.0505 32.7127 20.0386C32.6872 20.0243 32.6699 19.9943 32.6442 19.9795C32.6061 19.9576 32.5753 19.9077 32.5341 19.8961C32.4719 19.8787 32.4107 19.8271 32.3647 19.7911C32.3325 19.7659 32.3042 19.7098 32.2633 19.7009C32.2478 19.6975 32.1925 19.6566 32.1798 19.6441C32.1505 19.6154 32.1182 19.5998 32.0818 19.5794C32.0622 19.5685 32.05 19.5475 32.0331 19.538C31.9803 19.5085 31.9427 19.4592 31.8846 19.4381C31.8259 19.4168 31.7763 19.369 31.7211 19.3535C31.7099 19.3504 31.6941 19.3345 31.6834 19.3286C31.6549 19.3129 31.6235 19.3109 31.5958 19.2928C31.5611 19.2702 31.5134 19.2573 31.4833 19.2338C31.4509 19.2084 31.3648 19.2111 31.3239 19.2111C31.2056 19.2111 31.0903 19.1805 30.9719 19.1805C30.8598 19.1805 30.7477 19.1805 30.6356 19.1805C30.5461 19.1805 30.4561 19.208 30.3665 19.2111C30.2833 19.214 30.1634 19.3096 30.1398 19.3904C30.1234 19.4466 30.0562 19.4854 30.0325 19.5403C30.0212 19.5665 29.9828 19.6081 29.9618 19.6299C29.9359 19.6568 29.9194 19.694 29.9043 19.7264C29.8472 19.8494 29.8976 19.9956 29.8522 20.1203C29.8279 20.1867 29.8401 20.2853 29.8365 20.3552C29.832 20.4428 29.8156 20.5267 29.8156 20.6163C29.8156 20.7143 29.7947 20.8137 29.7947 20.9126C29.7947 20.9936 29.7739 21.0719 29.7739 21.1521C29.7739 21.3547 29.7112 21.551 29.7112 21.7525C29.7112 21.8365 29.6799 21.9243 29.6799 22.0096C29.6799 22.0545 29.6863 22.1038 29.6794 22.1481C29.6737 22.1838 29.6759 22.2336 29.6614 22.2656C29.6468 22.2978 29.6486 22.3685 29.6486 22.4029C29.6486 22.4915 29.6357 22.5805 29.6272 22.6685C29.6232 22.7093 29.6069 22.745 29.6069 22.786C29.6069 22.8236 29.608 22.8614 29.6069 22.8989C29.5919 23.3975 29.5964 23.9066 29.5964 24.4006" stroke="#5844E4" stroke-width="0.25"/>
<path d="M30.3584 19.3643C30.3514 19.3026 30.2861 19.3603 30.3166 19.4052" stroke="#5844E4" stroke-width="0.25"/>
<path d="M29.6258 29.169C29.2759 29.0297 28.8895 29.019 28.5351 28.9199C28.18 28.8206 27.7723 28.7298 27.502 28.4652C27.4456 28.41 27.3597 28.3721 27.3217 28.3016C27.287 28.2369 27.2427 28.1701 27.201 28.1088C27.1655 28.0567 27.1323 28.0157 27.1043 27.9578C27.0935 27.9354 27.0839 27.8611 27.0839 27.886C27.0839 27.9262 27.1126 27.9475 27.1341 27.9778C27.2513 28.1436 27.3978 28.2558 27.5596 28.3825C27.6542 28.4566 27.7586 28.499 27.8392 28.5898C27.9673 28.7339 28.1512 28.8408 28.3028 28.9562C28.3967 29.0277 28.4644 29.1095 28.5723 29.1654C28.6199 29.19 28.6596 29.2153 28.7135 29.2345C28.7505 29.2477 28.9029 29.3453 28.8463 29.2345C28.7449 29.0358 28.4817 28.9493 28.3214 28.8089C28.2684 28.7625 28.1999 28.7178 28.1412 28.678C28.0709 28.6304 28.0169 28.5623 27.9498 28.5143C27.8186 28.4205 27.6922 28.3222 27.5782 28.2106C27.5352 28.1685 27.4799 28.119 27.4258 28.0888C27.3687 28.0568 27.2734 27.9942 27.2279 27.9497C27.0752 27.8002 26.8162 27.6726 26.729 27.4632C26.6937 27.3784 26.6089 27.2923 26.5581 27.214C26.5153 27.1483 26.4732 27.0815 26.4401 27.0094C26.388 26.8962 26.2721 26.7596 26.2645 26.6321C26.2634 26.6149 26.2202 26.5414 26.2552 26.5512C26.2979 26.5631 26.3459 26.6235 26.3722 26.6566C26.4434 26.7461 26.5108 26.8374 26.5748 26.9358C26.6901 27.1132 26.7821 27.3264 26.9334 27.4832C26.9754 27.5267 27.0043 27.5802 27.0421 27.6296C27.0731 27.67 27.1098 27.6799 27.1341 27.7214C27.1448 27.7399 27.2072 27.7995 27.227 27.8105C27.2659 27.8323 27.2979 27.8823 27.3255 27.9169C27.4252 28.0424 27.5556 28.2382 27.7268 28.2861C27.7467 28.2916 27.8161 28.3396 27.8327 28.3543C27.8709 28.3879 27.9178 28.4139 27.9535 28.4489C28.0219 28.5158 28.1183 28.5612 28.1839 28.6325C28.3092 28.7688 28.4402 28.8211 28.6141 28.859C28.7204 28.8821 28.8116 28.9071 28.9235 28.9071C29.0164 28.9071 29.1576 28.9466 29.1576 28.8253" stroke="#5844E4" stroke-width="0.25"/>
<path d="M29.2852 27.8052C29.2656 27.8052 29.2548 27.8052 29.2402 27.8166C29.2311 27.8238 29.2398 27.8529 29.2452 27.8595C29.2526 27.8685 29.25 27.8986 29.25 27.9103C29.25 27.9275 29.25 27.9447 29.25 27.9619" stroke="#5844E4" stroke-width="0.12"/>
<path d="M29.207 28.1607C29.182 28.1607 29.1914 28.2671 29.1914 28.2869C29.1914 28.31 29.182 28.3295 29.176 28.3502C29.1706 28.3687 29.1534 28.3903 29.1523 28.4092C29.1515 28.4248 29.1386 28.451 29.1309 28.4647C29.1208 28.4823 29.1223 28.5101 29.1102 28.5248C29.1071 28.5286 29.1055 28.5511 29.1055 28.5564C29.1055 28.5681 29.1047 28.5772 29.1018 28.5872C29.0956 28.6084 29.1033 28.6317 29.0918 28.652C29.0811 28.6709 29.0742 28.6913 29.0634 28.7113C29.0549 28.7269 29.0404 28.753 29.0254 28.7648C29.0107 28.7763 29.0001 28.7997 28.9805 28.8098C28.9611 28.8199 28.9302 28.8325 28.9084 28.823C28.8895 28.8148 28.86 28.7954 28.8379 28.7954C28.8288 28.7954 28.8096 28.7867 28.8008 28.7831C28.7878 28.7777 28.7747 28.7779 28.7617 28.7716C28.7339 28.758 28.6984 28.7607 28.6682 28.7514C28.6511 28.7462 28.6345 28.7479 28.6172 28.7455C28.6004 28.7431 28.5836 28.7365 28.5666 28.7344C28.5266 28.7295 28.4884 28.711 28.4501 28.6989C28.4232 28.6905 28.3913 28.6734 28.3694 28.6558C28.356 28.6452 28.3427 28.6355 28.3312 28.6242C28.3212 28.6144 28.3118 28.6008 28.2999 28.5928C28.2886 28.5851 28.2578 28.564 28.2578 28.5488C28.2578 28.5358 28.2739 28.5481 28.2812 28.5545C28.2903 28.5625 28.3137 28.5687 28.3194 28.5775C28.335 28.6009 28.3826 28.6178 28.408 28.6291C28.4309 28.6393 28.4573 28.6437 28.4813 28.6509C28.5018 28.6571 28.5238 28.66 28.543 28.6684C28.5641 28.6776 28.5921 28.6754 28.6113 28.69C28.6182 28.6953 28.6359 28.6993 28.6445 28.6998C28.6527 28.7003 28.6632 28.7108 28.6719 28.7113C28.6846 28.712 28.6929 28.7199 28.7051 28.7225C28.7174 28.7252 28.732 28.7234 28.7439 28.7268C28.7627 28.732 28.7901 28.738 28.8105 28.738C28.8561 28.738 28.9017 28.738 28.9473 28.738C28.9676 28.738 28.9886 28.7376 29.003 28.7219C29.0082 28.7163 29.0152 28.7024 29.0187 28.696C29.0233 28.6874 29.0294 28.6815 29.0352 28.673" stroke="#5844E4" stroke-width="0.12"/>
<path d="M29 28.7151C29.027 28.7151 29.0383 28.6814 29.0556 28.6662C29.0778 28.6466 29.0857 28.6347 29.094 28.6063C29.101 28.5824 29.1101 28.5587 29.1174 28.5337C29.1207 28.5226 29.1227 28.5062 29.1289 28.4955C29.1317 28.4907 29.135 28.4849 29.1365 28.4798C29.1377 28.4757 29.1391 28.4627 29.1415 28.4598C29.1485 28.4512 29.1523 28.4357 29.1523 28.4245C29.1523 28.4181 29.157 28.3921 29.161 28.3872C29.1741 28.3711 29.1797 28.3324 29.1797 28.3118C29.1797 28.2847 29.185 28.2509 29.1912 28.2238C29.1929 28.2164 29.1955 28.192 29.2012 28.1875C29.2088 28.1816 29.2063 28.1544 29.2109 28.1454" stroke="#5844E4" stroke-width="0.12"/>
<path d="M29.1641 28.3825C29.1406 28.3825 29.1367 28.4412 29.1367 28.4589C29.1367 28.4715 29.1371 28.4897 29.1319 28.501C29.1268 28.5122 29.1295 28.5349 29.1191 28.543C29.1116 28.549 29.113 28.5662 29.1035 28.5736C29.1016 28.5752 29.0861 28.6052 29.0859 28.608C29.0851 28.6216 29.0711 28.6331 29.0703 28.6463C29.0701 28.6506 29.0558 28.6783 29.0527 28.6807C29.0429 28.6884 29.0455 28.708 29.0293 28.7151C29.0128 28.7223 29.003 28.7217 28.9844 28.7227C28.9721 28.7234 28.958 28.7342 28.9453 28.7342C28.9278 28.7342 28.9103 28.7342 28.8928 28.7342C28.8782 28.7342 28.8622 28.7304 28.8496 28.7304C28.8374 28.7304 28.8131 28.7347 28.8038 28.7274C28.7986 28.7233 28.7874 28.7284 28.7812 28.7257C28.773 28.7221 28.7713 28.7189 28.7617 28.7189C28.7482 28.7189 28.7322 28.7151 28.7168 28.7151C28.7008 28.7151 28.6876 28.7116 28.6736 28.7077C28.6678 28.706 28.6396 28.7014 28.6367 28.6979C28.6309 28.6908 28.6048 28.6952 28.5977 28.6864C28.5916 28.679 28.5639 28.6697 28.5547 28.6692C28.547 28.6688 28.5284 28.6594 28.5226 28.6548C28.5184 28.6515 28.4879 28.6425 28.4824 28.6425C28.4725 28.6425 28.4476 28.6367 28.4414 28.6291C28.4321 28.6177 28.4164 28.6221 28.4071 28.6148C28.3669 28.5833 28.313 28.5718 28.2726 28.5401C28.2529 28.5247 28.2274 28.5074 28.2051 28.4953C28.1819 28.4827 28.1676 28.4524 28.1406 28.4436" stroke="#5844E4" stroke-width="0.12"/>
<path d="M28.1484 28.436C28.1475 28.4286 28.1292 28.4118 28.123 28.4071C28.1099 28.3971 28.099 28.3831 28.0842 28.3748C28.065 28.3641 28.0511 28.3463 28.0312 28.3366" stroke="#5844E4" stroke-width="0.12"/>
<path d="M28.3906 28.5927C28.3787 28.5915 28.3635 28.5853 28.3546 28.5783C28.3493 28.5742 28.3303 28.5628 28.3283 28.5562C28.3237 28.5405 28.2695 28.5172 28.2539 28.5163C28.2318 28.515 28.2055 28.4891 28.1858 28.4781C28.1719 28.4703 28.1596 28.4604 28.1465 28.4532C28.1314 28.445 28.1224 28.43 28.1055 28.4245" stroke="#5844E4" stroke-width="0.12"/>
<path d="M28.3945 28.6463C28.3929 28.632 28.3752 28.6155 28.3641 28.6081C28.352 28.5998 28.3429 28.5848 28.3299 28.5775C28.307 28.5647 28.2933 28.5399 28.2695 28.5269C28.2443 28.5132 28.2222 28.4935 28.1973 28.48C28.1704 28.4654 28.1461 28.4416 28.1172 28.4322" stroke="#5844E4" stroke-width="0.12"/>
<path d="M28.4727 28.6654C28.4603 28.6533 28.4453 28.6396 28.4316 28.6293C28.4211 28.6212 28.3976 28.6107 28.3906 28.5987C28.3878 28.5938 28.3771 28.5924 28.3728 28.587C28.3668 28.5794 28.3554 28.5781 28.3485 28.5728C28.3352 28.5624 28.3202 28.5575 28.3077 28.5477C28.2967 28.5391 28.2714 28.5377 28.2617 28.5258C28.2518 28.5137 28.2235 28.5035 28.209 28.4972C28.1921 28.4898 28.1795 28.4767 28.1641 28.4696C28.1475 28.4619 28.1232 28.4398 28.1055 28.4398" stroke="#5844E4" stroke-width="0.12"/>
<path d="M28.5469 28.7036C28.5469 28.6861 28.5104 28.6609 28.4961 28.6531C28.4766 28.6425 28.4587 28.6266 28.4392 28.6157C28.4201 28.605 28.3958 28.5928 28.3798 28.5783C28.3594 28.5599 28.3314 28.553 28.3105 28.5371C28.2771 28.5116 28.2305 28.5047 28.1962 28.4772C28.1889 28.4714 28.174 28.4673 28.1682 28.4606C28.1597 28.451 28.145 28.4508 28.1369 28.4415C28.1196 28.4217 28.0839 28.4022 28.0586 28.394" stroke="#5844E4" stroke-width="0.12"/>
<path d="M28.6562 28.7266C28.6562 28.6976 28.6079 28.6811 28.5898 28.6654C28.579 28.656 28.5593 28.6602 28.5499 28.651C28.5428 28.644 28.5236 28.6411 28.5139 28.6384C28.501 28.6348 28.4888 28.6228 28.4746 28.6197C28.4575 28.616 28.4376 28.6066 28.4201 28.6004C28.3784 28.5856 28.3296 28.5583 28.2852 28.5583" stroke="#5844E4" stroke-width="0.12"/>
<path d="M28.7539 28.7648C28.7533 28.7599 28.7182 28.7394 28.7129 28.7382C28.6939 28.7341 28.6793 28.7164 28.6619 28.7115C28.6488 28.7078 28.6346 28.6862 28.6211 28.6845C28.603 28.6823 28.5914 28.6692 28.5703 28.6692" stroke="#5844E4" stroke-width="0.12"/>
<path d="M28.8086 28.7495C28.796 28.7481 28.788 28.7362 28.7756 28.734C28.7711 28.7332 28.7483 28.7235 28.7461 28.7208C28.744 28.7182 28.7208 28.7113 28.7168 28.7113C28.7096 28.7113 28.7003 28.702 28.6931 28.7C28.671 28.6938 28.6571 28.6821 28.6328 28.6807C28.6234 28.6801 28.6123 28.673 28.6016 28.673C28.5898 28.673 28.5781 28.673 28.5664 28.673" stroke="#5844E4" stroke-width="0.12"/>
<path d="M28.9883 28.7418C28.9505 28.7438 28.914 28.7542 28.8765 28.7569C28.8464 28.7591 28.8154 28.7571 28.7852 28.7571C28.7562 28.7571 28.7273 28.7571 28.6984 28.7571C28.6287 28.7571 28.5463 28.7209 28.4842 28.6943C28.4626 28.685 28.4423 28.6722 28.4238 28.6577C28.412 28.6485 28.4214 28.626 28.4082 28.6157C28.3818 28.595 28.3689 28.566 28.332 28.566" stroke="#5844E4" stroke-width="0.12"/>
<path d="M28.4922 28.6539C28.485 28.6477 28.4556 28.6365 28.4533 28.6289C28.4509 28.6204 28.4268 28.6079 28.418 28.6034C28.412 28.6003 28.403 28.5944 28.3965 28.593C28.3926 28.5921 28.377 28.5895 28.375 28.587C28.3711 28.5823 28.3618 28.5858 28.3563 28.5804C28.352 28.5762 28.3384 28.5736 28.332 28.5736" stroke="#5844E4" stroke-width="0.12"/>
<path d="M28.5156 28.7189C28.5083 28.7149 28.498 28.7003 28.4924 28.6939C28.4845 28.6848 28.4763 28.6766 28.4688 28.6673C28.4569 28.6528 28.4368 28.6401 28.4227 28.6263C28.408 28.6119 28.3835 28.6022 28.3711 28.587C28.3614 28.5752 28.3268 28.5583 28.3125 28.5583" stroke="#5844E4" stroke-width="0.12"/>
<path d="M28.4727 28.6654C28.4727 28.6306 28.4388 28.6267 28.4188 28.6072C28.411 28.5995 28.3958 28.5946 28.3865 28.587C28.3801 28.5818 28.3597 28.5698 28.3516 28.5698" stroke="#5844E4" stroke-width="0.12"/>
<path d="M28.4883 28.6845C28.4883 28.6595 28.4402 28.6314 28.4258 28.6138C28.4151 28.6007 28.3998 28.5914 28.3848 28.5832C28.3707 28.5755 28.3475 28.5583 28.332 28.5583" stroke="#5844E4" stroke-width="0.12"/>
<path d="M28.4766 28.6883C28.4766 28.6589 28.4386 28.6414 28.4249 28.6195C28.4139 28.6018 28.3859 28.5833 28.3694 28.5707C28.354 28.559 28.3361 28.551 28.3203 28.5401C28.3115 28.534 28.2964 28.5339 28.293 28.5239" stroke="#5844E4" stroke-width="0.12"/>
<path d="M28.4844 28.6654C28.4844 28.644 28.4443 28.6075 28.4258 28.5974C28.4119 28.5899 28.3995 28.58 28.3848 28.5736C28.3603 28.563 28.3318 28.5582 28.3086 28.5469" stroke="#5844E4" stroke-width="0.12"/>
<path d="M29.0898 28.7572C29.0647 28.7572 28.9844 28.7832 28.9844 28.7438C28.9844 28.7335 28.9833 28.7253 28.9883 28.7168C28.9936 28.7076 29.0014 28.7057 29.0078 28.6979C29.0176 28.6859 29.0235 28.6727 29.0312 28.6595C29.0381 28.6476 29.0504 28.6292 29.0595 28.6204C29.0708 28.6093 29.0765 28.5878 29.0829 28.5736C29.1023 28.5308 29.1367 28.481 29.1367 28.4322" stroke="#5844E4" stroke-width="0.12" stroke-linecap="square"/>
<path d="M29.0664 28.738C29.0664 28.6799 29.1016 28.6346 29.1016 28.5775C29.1016 28.5518 29.1115 28.5307 29.117 28.5067C29.1197 28.4947 29.1211 28.4809 29.1211 28.4685C29.1211 28.4625 29.1262 28.4374 29.1298 28.433C29.1359 28.4256 29.1367 28.4078 29.1367 28.3978C29.1367 28.3867 29.1445 28.3766 29.1445 28.3653C29.1445 28.3565 29.146 28.3387 29.1504 28.3309C29.1545 28.3237 29.1602 28.3029 29.1602 28.2946C29.1602 28.2702 29.168 28.2433 29.168 28.22C29.168 28.1915 29.1706 28.1684 29.1797 28.1416" stroke="#5844E4" stroke-width="0.12" stroke-linecap="square"/>
<path d="M29.293 27.7784C29.2666 27.7784 29.2687 27.8243 29.2569 27.8387C29.2517 27.8451 29.2466 27.869 29.2461 27.8778C29.2458 27.8835 29.2409 27.9147 29.2374 27.919C29.2327 27.9248 29.2305 27.9505 29.2305 27.9581C29.2305 27.9734 29.2305 27.9887 29.2305 28.004C29.2305 28.0351 29.2227 28.0646 29.2227 28.0957C29.2227 28.1147 29.2109 28.1514 29.2109 28.1514C29.2109 28.1514 29.207 28.1245 29.207 28.111C29.207 28.1017 29.2021 28.0731 29.2079 28.066C29.2131 28.0597 29.2187 28.0394 29.2187 28.0307C29.2187 27.9691 29.25 27.9138 29.25 27.8511" stroke="#5844E4" stroke-width="0.12" stroke-linecap="square"/>
<path d="M49.5411 20.1144C51.9938 20.1144 53.2202 20.8116 53.2202 22.2059C53.2202 22.9719 52.9143 23.5851 52.3025 24.0454C51.7018 24.5045 50.8759 24.7341 49.8247 24.7341C49.3353 24.7341 48.9001 24.621 48.5191 24.3948C48.3384 24.2985 48.1882 24.1859 48.0686 24.0571C48.8 24.0571 49.3582 23.8774 49.7434 23.5179C50.1285 23.1595 50.3211 22.6298 50.3211 21.9287C50.3211 21.2265 49.8908 20.8754 49.0301 20.8754H48.6693C48.6095 20.8754 48.5546 20.8793 48.5045 20.8872L46.7776 28.1813H43.5178L45.3656 20.2589C46.4363 20.1782 47.2823 20.134 47.9039 20.1262C48.524 20.1183 49.0697 20.1144 49.5411 20.1144ZM56.3736 28.1813H53.1597L54.9909 20.2354C55.9822 20.1458 57.2009 20.101 58.647 20.101C60.0944 20.101 61.1532 20.2706 61.8234 20.61C62.495 20.9482 62.8308 21.4583 62.8308 22.1404C62.8308 22.8213 62.6125 23.3757 62.1759 23.8035C61.7407 24.2302 61.1477 24.5124 60.3968 24.6501C60.5679 25.3187 60.848 25.9235 61.2373 26.4644C61.5989 26.9718 61.9896 27.3061 62.4095 27.4673C62.2593 27.8067 62.0313 28.0508 61.7254 28.1998C61.4209 28.3487 61.051 28.4232 60.6158 28.4232C60.1792 28.4232 59.7913 28.3202 59.452 28.1141C59.1114 27.9091 58.8055 27.6168 58.5344 27.2372C57.9643 26.4152 57.6494 25.3551 57.5896 24.0571H57.6938C58.4349 24.0403 58.9904 23.8768 59.3603 23.5666C59.7315 23.2564 59.9171 22.7748 59.9171 22.1219C59.9171 21.3077 59.4917 20.8844 58.6407 20.8519H58.3091C58.2201 20.8519 58.1506 20.8558 58.1005 20.8636L56.3736 28.1813ZM63.7464 25.2297C63.7464 23.7055 64.2365 22.464 65.2167 21.5054C66.2582 20.465 67.6847 19.9447 69.4965 19.9447C70.809 19.9447 71.7955 20.2006 72.456 20.7125C73.1164 21.2243 73.4467 22.0205 73.4467 23.1013C73.4467 24.7465 72.926 26.0489 71.8845 27.0087C70.8542 27.9517 69.4728 28.4232 67.7404 28.4232C66.3889 28.4232 65.385 28.151 64.7287 27.6068C64.0738 27.0625 63.7464 26.2701 63.7464 25.2297ZM67.6945 22.7267C67.244 24.1781 67.0187 25.4761 67.0187 26.6207C67.0187 26.895 67.0764 27.1207 67.1918 27.2977C67.3072 27.4757 67.5179 27.5648 67.8238 27.5648C68.1283 27.5648 68.3758 27.506 68.5663 27.3884C68.7568 27.2719 68.9271 27.0804 69.0773 26.8138C69.3178 26.3793 69.5507 25.7001 69.7759 24.7761C70.0012 23.8533 70.1236 23.2004 70.143 22.8174C70.1625 22.4344 70.1722 22.0978 70.1722 21.8077C70.1722 21.5166 70.1173 21.2786 70.0075 21.0938C69.8976 20.9079 69.6953 20.8149 69.4005 20.8149C69.1044 20.8149 68.8562 20.8877 68.656 21.0333C68.2861 21.3077 67.9656 21.8721 67.6945 22.7267ZM80.054 20.1144C82.5067 20.1144 83.733 20.8116 83.733 22.2059C83.733 22.9719 83.4278 23.5851 82.8174 24.0454C82.2168 24.5045 81.3909 24.7341 80.3397 24.7341C79.8489 24.7341 79.413 24.621 79.032 24.3948C78.8526 24.2985 78.7025 24.1859 78.5815 24.0571C79.3129 24.0571 79.8711 23.8774 80.2563 23.5179C80.6414 23.1595 80.834 22.6298 80.834 21.9287C80.834 21.2265 80.4037 20.8754 79.543 20.8754H79.1822C79.1224 20.8754 79.0675 20.8793 79.0174 20.8872L77.2905 28.1813H74.0327L75.8785 20.2589C76.9505 20.1782 77.7966 20.134 78.4167 20.1262C79.0383 20.1183 79.584 20.1144 80.054 20.1144ZM90.2194 26.3183C90.4099 26.512 90.5051 26.7662 90.5051 27.081C90.5051 27.5166 90.3049 27.8492 89.9044 28.0788C89.504 28.3084 88.9888 28.4232 88.359 28.4232C87.9975 28.4232 87.5414 28.3907 86.9908 28.3258C85.9104 28.1891 85.2048 28.1208 84.8739 28.1208C84.5443 28.1208 84.3142 28.127 84.1835 28.1393C84.0528 28.1516 83.8825 28.1656 83.6726 28.1813L85.5204 20.1984H91.9922C91.9922 20.6901 91.8448 21.0652 91.55 21.3239C91.2538 21.5815 90.8159 21.7103 90.2361 21.7103C89.6549 21.7103 89.0688 21.6017 88.4779 21.3844L88.0128 23.5011H90.6866C90.6866 23.9278 90.5559 24.2604 90.2945 24.4989C90.0344 24.7364 89.6868 24.8551 89.2516 24.8551C88.8164 24.8551 88.4633 24.8148 88.1921 24.7341C87.9224 24.6535 87.7722 24.6009 87.7416 24.5762L87.2015 26.8626C87.442 26.8872 87.7875 26.8995 88.238 26.8995C89.0083 26.8995 89.6688 26.7058 90.2194 26.3183ZM94.9663 28.1813H91.7523L93.5835 20.2354C94.5749 20.1458 95.7936 20.101 97.2396 20.101C98.6871 20.101 99.7459 20.2706 100.416 20.61C101.088 20.9482 101.423 21.4583 101.423 22.1404C101.423 22.8213 101.205 23.3757 100.769 23.8035C100.333 24.2302 99.7403 24.5124 98.9895 24.6501C99.1605 25.3187 99.4407 25.9235 99.83 26.4644C100.192 26.9718 100.582 27.3061 101.002 27.4673C100.852 27.8067 100.624 28.0508 100.318 28.1998C100.014 28.3487 99.6437 28.4232 99.2085 28.4232C98.7719 28.4232 98.3839 28.3202 98.0447 28.1141C97.704 27.9091 97.3981 27.6168 97.127 27.2372C96.5569 26.4152 96.242 25.3551 96.1822 24.0571H96.2865C97.0276 24.0403 97.5831 23.8768 97.9529 23.5666C98.3242 23.2564 98.5098 22.7748 98.5098 22.1219C98.5098 21.3077 98.0843 20.8844 97.2334 20.8519H96.9018C96.8128 20.8519 96.7432 20.8558 96.6932 20.8636L94.9663 28.1813ZM103.315 22.2916C102.974 22.081 102.804 21.7523 102.804 21.3055C102.804 20.8575 102.987 20.5165 103.353 20.2824C103.718 20.0495 104.216 19.933 104.846 19.933C105.246 19.933 105.922 19.989 106.873 20.101L107.895 20.2219C108.236 20.2544 108.583 20.2706 108.938 20.2706C109.294 20.2706 109.592 20.2102 109.833 20.0892C110.193 20.3479 110.373 20.6626 110.373 21.0333C110.373 21.404 110.168 21.7226 109.758 21.9892C109.336 22.2714 108.855 22.4125 108.314 22.4125C108.054 22.4125 107.714 22.384 107.294 22.3268C106.804 23.5688 106.558 24.621 106.558 25.4834C106.558 26.3468 106.829 27.0042 107.37 27.4556C107.119 27.8184 106.809 28.0704 106.437 28.2115C106.067 28.3526 105.604 28.4232 105.048 28.4232C104.493 28.4232 104.043 28.3 103.697 28.0536C103.352 27.8083 103.18 27.4315 103.18 26.923C103.18 26.3351 103.38 25.5573 103.78 24.5897C104.181 23.6299 104.681 22.7832 105.282 22.0497C104.991 22.025 104.696 22.0127 104.395 22.0127C103.775 22.0127 103.415 22.1057 103.315 22.2916ZM111.318 28.1813L112.189 24.6249C111.899 22.44 111.243 21.1134 110.223 20.6453C110.433 20.4358 110.708 20.2729 111.049 20.1564C111.389 20.0388 111.765 19.98 112.175 19.98C112.585 19.98 112.945 20.0388 113.255 20.1564C113.565 20.2729 113.82 20.456 114.021 20.7057C114.402 21.1817 114.592 21.9881 114.592 23.1248V23.9967C115.193 22.5777 115.793 21.5614 116.394 20.9476C117.005 20.3194 117.69 20.0052 118.451 20.0052C118.751 20.0052 119.001 20.0674 119.201 20.1917C119.402 20.3171 119.552 20.4728 119.652 20.6587C118.882 20.932 118.126 21.4639 117.385 22.2546C116.644 23.0453 116.033 23.9927 115.554 25.097L114.667 28.1813H111.318Z" fill="black"/>
<path d="M30.7833 18.7355C31.0169 18.7355 31.1837 18.8836 31.4266 18.8836C31.528 18.8836 31.6056 18.9577 31.7104 18.9577C31.8276 18.9577 31.9743 19.0024 32.0867 19.0338C32.2437 19.0777 32.4433 19.254 32.6185 19.254C32.8354 19.254 32.9804 19.4762 33.205 19.4762" stroke="#5844E4" stroke-width="0.5"/>
<path d="M32.9023 19.5873C32.8219 19.5971 32.8645 20.1563 32.8645 20.2539C32.8645 20.4754 32.8645 20.3 32.8645 20.1798C32.8645 20.0502 32.8645 19.9206 32.8645 19.791C32.8645 19.6977 32.9071 19.5132 32.7699 19.5132C32.7153 19.5132 32.4629 19.4801 32.4882 19.5667C32.5024 19.6153 32.7883 19.5873 32.8456 19.5873C32.9963 19.5873 32.978 19.6889 32.978 19.8095C32.978 20.0307 32.9661 20.2553 32.978 20.4761C32.9886 20.6734 33.0158 20.6506 33.0158 20.4761C33.0158 20.3692 33.026 20.2283 33.0558 20.1263C33.0826 20.0346 33.1689 19.5684 33.0831 19.4844C32.935 19.3395 32.6517 19.3786 32.4609 19.289C32.306 19.2162 32.0074 19.2294 31.8785 19.1244C31.8013 19.0613 31.6389 19.0106 31.5401 18.9968C31.2972 18.9628 31.0535 18.838 30.8211 18.8096C30.7279 18.7981 30.6235 18.7355 30.5184 18.7355C30.4788 18.7355 30.2526 18.7125 30.2241 18.6902C30.1527 18.6343 30.0128 18.6244 30.1779 18.6244C30.2843 18.6244 30.4316 18.6405 30.5373 18.6635C30.6483 18.6876 30.7667 18.6763 30.8779 18.7005C31.0668 18.7416 30.7826 18.7355 30.7265 18.7355C30.6005 18.7355 30.1733 18.6083 30.0728 18.7067C29.9338 18.8427 29.9508 19.1215 29.9508 19.3075C29.9508 19.5736 29.9508 19.8397 29.9508 20.1058" stroke="#5844E4" stroke-width="0.5"/>
<path d="M32.978 19.9206C32.978 20.0766 33.0171 20.2688 33.0516 20.4206C33.067 20.4886 33.0537 20.5731 33.0537 20.6428C33.0537 20.7872 33.092 20.5676 33.0999 20.5502C33.1628 20.4118 33.1364 20.2692 33.1693 20.1243C33.1809 20.0731 33.1917 19.6889 33.1756 19.7066C33.0902 19.8006 33.0915 20.1457 33.0915 20.2724C33.0915 20.4423 33.0537 20.5983 33.0537 20.7724C33.0537 21.0913 33.0915 20.5515 33.0915 20.4576C33.0915 20.3172 33.1204 20.1442 33.1294 19.9947C33.1374 19.8613 33.205 19.7215 33.205 19.5688C33.205 19.3153 33.0136 19.393 32.8729 19.2828C32.7812 19.211 32.5803 19.1654 32.4672 19.1408C32.3136 19.1074 32.1641 19.0439 32.032 18.9865C31.9252 18.94 31.7417 18.8466 31.6347 18.8466C31.4975 18.8466 31.3422 18.7062 31.1995 18.6984C30.8583 18.6799 30.5616 18.5133 30.2157 18.5133" stroke="#5844E4" stroke-width="0.5"/>
<path d="M33.1249 20.0292C33.1249 20.1741 33.1249 20.3189 33.1249 20.4638C33.1249 20.615 33.0826 20.7567 33.0826 20.91C33.0826 21.0614 33.0826 21.2128 33.0826 21.3642C33.0826 21.3781 33.1144 21.5516 33.1249 21.5516C33.1605 21.5516 33.1249 21.4818 33.1249 21.4469C33.1249 21.4052 33.1151 21.3606 33.1413 21.3285C33.1792 21.2822 33.134 21.1535 33.1472 21.0951C33.1597 21.0403 33.1708 20.9562 33.2048 20.9146C33.258 20.8494 33.2095 20.5608 33.2095 20.4742C33.2095 20.3293 33.2095 20.1844 33.2095 20.0395C33.2095 19.9319 33.2154 19.7303 33.1672 19.6359" stroke="#5844E4" stroke-width="0.5"/>
<path d="M33.1037 21.3331C33.1791 21.3331 33.146 21.0786 33.146 21.0123C33.146 20.9755 33.1273 20.8697 33.1507 20.841C33.1945 20.7874 33.149 20.7307 33.1836 20.841C33.2013 20.8972 33.1883 20.9743 33.1883 21.033C33.1883 21.0941 33.2306 21.1582 33.2306 21.2193C33.2306 21.3538 33.2306 21.4884 33.2306 21.6229" stroke="#5844E4" stroke-width="0.5"/>
<path d="M33.2418 21.386C33.1758 21.3133 33.1992 21.1947 33.1992 21.1049C33.1992 21.0178 33.2099 20.9348 33.2099 20.8446C33.2099 20.8205 33.1818 20.7256 33.2075 20.7822C33.2217 20.8135 33.2397 20.8612 33.2418 20.8967C33.2468 20.9863 33.2418 21.0776 33.2418 21.1673" stroke="#5844E4" stroke-width="0.5"/>
<path d="M29.9747 19.4312C29.9747 19.4618 29.9324 19.5 29.9195 19.5284C29.903 19.5648 29.9136 19.6229 29.9136 19.663C29.9136 19.77 29.8754 19.8752 29.8754 19.9845" stroke="#5844E4" stroke-width="0.5"/>
<path d="M29.883 19.9845C29.883 19.914 29.8525 19.8453 29.8525 19.7752C29.8525 19.7398 29.8601 19.702 29.8601 19.6705C29.8601 19.6353 29.883 19.6006 29.883 19.5621C29.883 19.5273 29.8907 19.4851 29.8987 19.4499C29.9073 19.4121 29.906 19.3738 29.906 19.334C29.906 19.2555 29.906 19.177 29.906 19.0985C29.906 19.06 29.9136 19.0232 29.9136 18.9864C29.9136 18.9474 29.9365 18.9115 29.9365 18.8742C29.9365 18.8432 29.9459 18.7885 29.9628 18.7625C29.9826 18.732 29.9755 18.6845 29.9993 18.6553C30.018 18.6324 30.0185 18.6034 30.0435 18.5789C30.0712 18.5517 30.1024 18.549 30.139 18.5411C30.1765 18.5329 30.2141 18.534 30.2535 18.534C30.2725 18.534 30.2919 18.5353 30.3108 18.534C30.3116 18.534 30.2727 18.5191 30.2574 18.5191" stroke="#5844E4" stroke-width="0.5"/>
<path d="M30.3872 18.7135C30.3508 18.6377 30.3036 18.5784 30.2463 18.5224C30.2319 18.5083 30.2262 18.4887 30.2098 18.4759C30.1997 18.468 30.1633 18.4742 30.1504 18.4742C30.1232 18.4742 30.0527 18.4919 30.0435 18.5191" stroke="#5844E4" stroke-width="0.5"/>
<g filter="url(#filter0_d_2_167)">
<path d="M57.8027 32.8576C57.946 32.6227 58.0176 32.3958 58.0176 32.1768C58.0176 31.9578 58.0034 31.7878 57.9751 31.6667C57.9452 31.5444 57.8975 31.4367 57.8318 31.3438C57.6885 31.1395 57.4736 31.0373 57.1871 31.0373C56.8333 31.0373 56.5132 31.1432 56.2267 31.3548C55.9207 31.5737 55.7677 31.8557 55.7677 32.2007C55.7677 32.4196 55.861 32.6135 56.0476 32.7823C56.2341 32.9499 56.4707 33.112 56.7572 33.2686C57.0438 33.4251 57.349 33.5817 57.6728 33.7383C57.9982 33.8949 58.3042 34.0674 58.5907 34.2557C59.2489 34.6863 59.578 35.1909 59.578 35.7695C59.578 36.161 59.4519 36.5231 59.1996 36.8558C58.9459 37.1885 58.6094 37.4766 58.19 37.72C57.2721 38.2521 56.2065 38.5182 54.9931 38.5182C54.0096 38.5182 53.2649 38.3873 52.7589 38.1255C52.253 37.8625 52 37.5316 52 37.1328C52 36.4197 52.3388 35.9732 53.0164 35.7934C53.2074 35.7383 53.4484 35.7108 53.7395 35.7108C54.032 35.7108 54.3454 35.7622 54.6797 35.8649C54.526 36.1854 54.4491 36.4906 54.4491 36.7806C54.4491 37.4069 54.7215 37.72 55.2663 37.72C55.62 37.72 55.9423 37.6142 56.2334 37.4026C56.5244 37.191 56.6699 36.9659 56.6699 36.7273C56.6699 36.4888 56.5766 36.2833 56.3901 36.1108C56.205 35.9383 55.9737 35.7836 55.6961 35.6466C55.4185 35.5096 55.12 35.3744 54.8006 35.2411C54.4812 35.109 54.1827 34.9487 53.9051 34.7603C53.2559 34.3297 52.9313 33.7701 52.9313 33.0814C52.9313 32.6349 53.0649 32.2374 53.332 31.8887C53.5992 31.5401 53.9477 31.2484 54.3775 31.0135C55.2371 30.5364 56.1946 30.2979 57.2497 30.2979C58.3064 30.2979 59.0899 30.4269 59.6004 30.685C60.1108 30.9432 60.366 31.2918 60.366 31.7309C60.366 32.1138 60.1847 32.427 59.822 32.6704C59.5071 32.8735 59.1586 32.975 58.7765 32.975C58.3945 32.975 58.0698 32.9358 57.8027 32.8576ZM66.7866 36.4741C66.9672 36.6625 67.0574 36.9096 67.0574 37.2154C67.0574 37.6374 66.8664 37.9604 66.4843 38.1842C66.1023 38.4069 65.6105 38.5182 65.009 38.5182C64.6658 38.5182 64.2315 38.487 63.7061 38.4246C62.6733 38.2913 61.9995 38.2246 61.6846 38.2246C61.3697 38.2246 61.1503 38.2307 61.0264 38.243C60.9025 38.254 60.7399 38.2674 60.5384 38.2833L62.3002 30.5327H68.4768C68.4768 31.0098 68.3357 31.3737 68.0537 31.6245C67.7716 31.8753 67.3537 32.0007 66.8 32.0007C66.2463 32.0007 65.6874 31.8948 65.1232 31.6832L64.68 33.7383H67.2298C67.2298 34.153 67.106 34.4759 66.8582 34.7071C66.609 34.9383 66.2769 35.0539 65.862 35.0539C65.4456 35.0539 65.109 35.0148 64.8523 34.9365C64.5941 34.8582 64.4509 34.8074 64.4225 34.7842L63.9054 37.0026C64.1352 37.027 64.465 37.0393 64.8949 37.0393C65.6307 37.0393 66.2612 36.8509 66.7866 36.4741ZM74.6668 38.5182C73.4429 38.5182 72.7743 37.8056 72.6609 36.3805H70.1961C70.0051 36.7414 69.8424 37.0784 69.7081 37.3916L69.3364 38.2833H67.3306L71.8438 30.5327H74.9242L75.5264 36.2393C75.6219 37.0613 75.8607 37.594 76.2428 37.8374C75.9652 38.2913 75.4399 38.5182 74.6668 38.5182ZM71.4274 34.0319L70.6394 35.5237H72.6161L72.446 32.5053V32.1878L71.4274 34.0319ZM80.0105 38.2833H76.9435L78.6919 30.5676C79.6382 30.482 80.8008 30.4392 82.1798 30.4392C83.5603 30.4392 84.5707 30.6037 85.211 30.9328C85.8513 31.2606 86.1714 31.7554 86.1714 32.4172C86.1714 33.079 85.9632 33.6172 85.5468 34.0319C85.1319 34.4466 84.5663 34.7206 83.8499 34.8539C84.0126 35.5035 84.2797 36.0906 84.6513 36.6154C84.9961 37.1084 85.3692 37.4332 85.7707 37.5897C85.6274 37.9188 85.4095 38.1561 85.117 38.3017C84.8259 38.446 84.473 38.5182 84.0581 38.5182C83.6417 38.5182 83.2715 38.4185 82.9477 38.2191C82.6223 38.0197 82.3306 37.7359 82.0724 37.3677C81.5291 36.5689 81.2284 35.5396 81.1702 34.2796H81.2709C81.9783 34.2637 82.5082 34.1047 82.8604 33.8025C83.2141 33.5016 83.3909 33.0343 83.3909 32.4007C83.3909 31.6092 82.985 31.1982 82.1731 31.1676H81.8574C81.7724 31.1676 81.706 31.1713 81.6582 31.1786L80.0105 38.2833ZM94.3091 35.8521C94.5568 36.0013 94.6807 36.2344 94.6807 36.5512C94.6807 36.868 94.5971 37.1384 94.4299 37.3622C94.2628 37.5848 94.0173 37.7824 93.6934 37.9549C92.9964 38.3231 92.039 38.5072 90.8212 38.5072C89.6033 38.5072 88.6623 38.2466 87.9982 37.7255C87.334 37.2044 87.002 36.4821 87.002 35.5585C87.002 34.2508 87.4176 33.1004 88.2489 32.1071C88.8787 31.3707 89.757 30.8459 90.8839 30.5327C91.4674 30.3762 92.0457 30.2979 92.6188 30.2979C93.1919 30.2979 93.6554 30.3291 94.0091 30.3915C94.3613 30.4538 94.6717 30.548 94.9404 30.674C95.5224 30.948 95.8135 31.304 95.8135 31.7419C95.8135 32.1419 95.5844 32.4906 95.1262 32.7878C94.7053 33.0533 94.3232 33.186 93.98 33.186C93.6352 33.186 93.3912 33.1664 93.2479 33.1273C93.2867 32.8459 93.3061 32.6135 93.3061 32.43C93.3061 32.2453 93.3016 32.0863 93.2927 31.953C93.2822 31.8208 93.2531 31.6918 93.2054 31.5658C93.1099 31.2759 92.9166 31.1309 92.6256 31.1309C92.3345 31.1309 92.0435 31.2429 91.7525 31.4667C91.4599 31.6893 91.1898 31.9884 90.9421 32.364C90.3779 33.2178 90.0958 34.1499 90.0958 35.1603C90.0958 35.6448 90.263 36.0264 90.5973 36.3053C90.9316 36.583 91.457 36.7218 92.1733 36.7218C92.7091 36.7218 93.23 36.5769 93.7359 36.287C93.9553 36.1622 94.1464 36.0172 94.3091 35.8521ZM101.215 37.4026C101.215 36.8546 101.349 36.0325 101.616 34.9365H99.4961L98.7081 38.2833H95.7127L97.5328 30.5327H100.555L99.7244 33.997H101.844L102.633 30.5327H105.657C105.523 31.1126 105.37 31.7273 105.198 32.3768L104.71 34.2906C104.347 35.7781 104.166 36.8466 104.166 37.4962C104.166 37.7628 104.219 37.9702 104.325 38.1182C103.847 38.3849 103.329 38.5182 102.769 38.5182C102.211 38.5182 101.812 38.4087 101.574 38.1897C101.335 37.9708 101.215 37.7084 101.215 37.4026Z" fill="#CCCCCC"/>
</g>
</g>
<path d="M33.1836 28.5195C33.153 28.4923 33.1097 28.4594 33.0664 28.457C33.0572 28.4565 33.0439 28.4501 33.0352 28.4462C33.0257 28.442 33.0114 28.4405 33.0017 28.4377C32.9924 28.4351 32.9753 28.4326 32.9679 28.4266C32.9596 28.42 32.9355 28.4194 32.9297 28.4121C32.9206 28.4007 32.8952 28.3997 32.8826 28.3926C32.8631 28.3816 32.8403 28.3797 32.8203 28.3702C32.79 28.3559 32.7559 28.3474 32.7244 28.3359C32.7025 28.328 32.6808 28.3177 32.6582 28.3127C32.6441 28.3096 32.6214 28.3006 32.6085 28.293C32.5708 28.2706 32.5217 28.2679 32.4835 28.2461C32.4658 28.236 32.4343 28.2249 32.4141 28.2227C32.3935 28.2204 32.3743 28.2065 32.3535 28.2033C32.3334 28.2002 32.3128 28.1911 32.293 28.1855C32.2612 28.1767 32.2251 28.1673 32.1953 28.1532C32.18 28.1459 32.1577 28.1434 32.1445 28.1328C32.1324 28.1231 32.1072 28.1233 32.0977 28.1113C32.0945 28.1074 32.0849 28.1061 32.0803 28.1053C32.0738 28.1041 32.0653 28.0955 32.0577 28.0929C32.0446 28.0883 32.0295 28.0803 32.0156 28.0783C31.9863 28.0742 31.9581 28.0563 31.9297 28.0547C31.905 28.0533 31.8786 28.0312 31.8533 28.0312C31.8439 28.0312 31.8228 28.0261 31.8145 28.0215C31.8029 28.0151 31.7893 28.0162 31.7773 28.0109C31.7565 28.0016 31.7367 27.9917 31.7148 27.9844" stroke="white" stroke-width="0.1"/>
<path d="M29.7461 27.9062C29.7503 27.9057 29.764 27.8793 29.7654 27.873C29.7673 27.8647 29.7783 27.8569 29.7815 27.8459C29.7842 27.8363 29.7949 27.8288 29.8008 27.8186C29.8055 27.8104 29.8187 27.799 29.8262 27.793C29.8335 27.7871 29.8377 27.772 29.8457 27.7656C29.8537 27.7593 29.86 27.7531 29.8672 27.7441C29.8826 27.7249 29.9048 27.7117 29.9238 27.7012C29.946 27.6889 29.9736 27.6844 29.9931 27.6688C30.0066 27.658 30.0403 27.6367 30.0586 27.6367C30.0707 27.6367 30.0816 27.625 30.0938 27.625C30.1034 27.625 30.1234 27.6223 30.1328 27.6181C30.1441 27.613 30.1634 27.6179 30.1758 27.6172C30.1874 27.6165 30.2013 27.6133 30.2148 27.6133" stroke="white" stroke-width="0.1"/>
<path d="M29.7656 27.8594C29.7825 27.8594 29.7996 27.8342 29.8116 27.8234C29.8297 27.8071 29.8522 27.7902 29.8672 27.7715C29.8934 27.7387 29.925 27.7129 29.9627 27.6914C29.9833 27.6796 30.001 27.6657 30.0215 27.6543C30.0295 27.6498 30.0498 27.6487 30.0547 27.6426C30.0568 27.6399 30.0891 27.6328 30.0938 27.6328C30.1155 27.6328 30.1456 27.6272 30.1662 27.6213C30.177 27.6182 30.1899 27.6172 30.2012 27.6172C30.2121 27.6172 30.2226 27.6094 30.2344 27.6094" stroke="white" stroke-width="0.1"/>
<path d="M29.7891 27.8633C29.7995 27.862 29.8081 27.8434 29.8134 27.8368C29.8225 27.8254 29.8339 27.8177 29.8429 27.8077C29.852 27.7976 29.8621 27.7881 29.872 27.7782C29.8758 27.7743 29.879 27.7684 29.8828 27.7637C29.8842 27.7619 29.894 27.751 29.8967 27.7502C29.9096 27.7465 29.921 27.7292 29.9316 27.7209C29.9428 27.7123 29.9642 27.7078 29.9727 27.6973C29.9817 27.686 29.9968 27.6833 30.0061 27.674C30.0165 27.6636 30.0404 27.6532 30.0547 27.6484" stroke="white" stroke-width="0.1"/>
<path d="M30.3008 27.6484C30.3008 27.6264 30.1737 27.6328 30.1523 27.6328C30.1256 27.6328 30.0997 27.6367 30.0723 27.6367C30.0589 27.6367 30.0489 27.6382 30.0371 27.6409C30.0287 27.6427 29.9944 27.6517 29.9922 27.6563" stroke="white" stroke-width="0.1"/>
<path d="M30.3789 27.6719C30.3656 27.6711 30.3508 27.6597 30.3381 27.656C30.3282 27.6532 30.3152 27.6445 30.3047 27.6445C30.2754 27.6445 30.2477 27.6328 30.2168 27.6328C30.1536 27.6328 30.0905 27.6328 30.0273 27.6328" stroke="white" stroke-width="0.1"/>
<path d="M32.8207 28.6555H32.9924" stroke="#5844E4" stroke-width="0.1"/>
<path d="M32.3582 28.6158H32.9264" stroke="#5844E4" stroke-width="0.1"/>
<path d="M31.512 28.1139H31.7311" stroke="#5844E4" stroke-width="0.1"/>
<path d="M31.6367 28.0664C31.6202 28.0664 31.601 28.0583 31.5859 28.0516C31.5774 28.0478 31.5674 28.0499 31.5586 28.046C31.5502 28.0423 31.5355 28.0398 31.5265 28.0391C31.5027 28.0372 31.465 28.0278 31.4444 28.0156C31.4313 28.0078 31.4137 28.0084 31.3993 28.003C31.3879 27.9988 31.3758 27.9922 31.3633 27.9922" stroke="#5844E4" stroke-width="0.1"/>
<path d="M31.7617 28.1367C31.7298 28.1252 31.6988 28.1075 31.668 28.0938C31.6467 28.0842 31.6246 28.0762 31.6037 28.0664C31.5936 28.0616 31.577 28.0514 31.5664 28.0508C31.5483 28.0497 31.5294 28.0332 31.5117 28.0273C31.4843 28.0182 31.456 28.0154 31.4288 28.0069C31.3876 27.9941 31.3442 27.9883 31.3008 27.9883" stroke="#5844E4" stroke-width="0.1"/>
<path d="M32.0234 28.2227C32.0001 28.2068 31.978 28.1951 31.9514 28.1855C31.9236 28.1755 31.8888 28.1661 31.8633 28.1521C31.8351 28.1367 31.7986 28.1249 31.7676 28.1155C31.7378 28.1064 31.7103 28.0924 31.6819 28.0799C31.6494 28.0656 31.616 28.0574 31.5829 28.0451C31.5591 28.0363 31.5318 28.0257 31.5069 28.0204C31.4405 28.0062 31.3779 27.9883 31.3086 27.9883" stroke="#5844E4" stroke-width="0.1"/>
<path d="M33.0703 28.6094C33.0657 28.5886 33.0135 28.5781 32.9978 28.5681C32.9694 28.55 32.9366 28.5473 32.9062 28.5352" stroke="#5844E4" stroke-width="0.1"/>
<path d="M33.2109 28.6797C33.1922 28.6778 33.164 28.6606 33.1476 28.6515C33.1286 28.641 33.107 28.6376 33.0879 28.627C33.0582 28.6105 33.0268 28.593 32.9944 28.5825C32.9699 28.5745 32.9357 28.5625 32.9102 28.5625" stroke="#5844E4" stroke-width="0.1"/>
<path d="M33.207 28.6641C33.1801 28.6436 33.151 28.6277 33.1191 28.6152C33.0903 28.604 33.0654 28.5863 33.0352 28.5781C33.0165 28.5731 32.9998 28.5625 32.9805 28.5625" stroke="#5844E4" stroke-width="0.1"/>
<path d="M31.2305 27.9414C31.2174 27.9414 31.2023 27.9331 31.1897 27.9295C31.1763 27.9257 31.1606 27.9217 31.1467 27.9178C31.1195 27.91 31.0872 27.8984 31.0569 27.8984C31.0251 27.8984 30.9939 27.8828 30.9609 27.8828C30.9285 27.8828 30.8947 27.8672 30.8633 27.8672C30.8453 27.8672 30.8288 27.8555 30.8103 27.8555C30.7895 27.8555 30.7709 27.8422 30.7502 27.8396C30.7255 27.8365 30.6981 27.8248 30.6738 27.8184C30.6503 27.8122 30.6266 27.8096 30.6035 27.8045C30.5587 27.7945 30.513 27.7923 30.4679 27.7843C30.4279 27.7772 30.3843 27.7695 30.3438 27.7695C30.3265 27.7695 30.3091 27.7734 30.293 27.7734" stroke="#5844E4" stroke-width="0.1"/>
<path d="M31.2656 27.957C31.2621 27.9453 31.2395 27.9412 31.2305 27.9336C31.2211 27.9257 31.2075 27.9256 31.1973 27.9199C31.1887 27.9152 31.1738 27.9102 31.1641 27.9102C31.1515 27.9102 31.1426 27.9005 31.1309 27.8987C31.0948 27.8931 31.0594 27.883 31.0232 27.877C30.9726 27.8685 30.9213 27.8621 30.8713 27.8496C30.8498 27.8442 30.8251 27.8414 30.803 27.8396C30.7809 27.8379 30.7592 27.8288 30.7365 27.8281C30.6856 27.8267 30.6324 27.8083 30.582 27.7999C30.5298 27.7912 30.4746 27.7714 30.4219 27.7695C30.3865 27.7682 30.3526 27.7617 30.3168 27.7617C30.2985 27.7617 30.2801 27.7617 30.2617 27.7617" stroke="#5844E4" stroke-width="0.1"/>
<path d="M30.3789 27.7695C30.3771 27.7547 30.3281 27.7578 30.3164 27.7578" stroke="#5844E4" stroke-width="0.1"/>
<path d="M30.4023 27.7695C30.385 27.7539 30.3427 27.7461 30.3205 27.7461C30.2891 27.7461 30.2583 27.7422 30.2266 27.7422" stroke="#5844E4" stroke-width="0.1"/>
<path d="M34.7677 30.7621C34.7677 30.4544 34.0752 30.0696 33.8654 29.8598C33.6904 29.6848 33.1432 29.3461 33.1134 29.1078C33.0721 28.7778 32.4176 28.5228 32.1358 28.5062C31.7665 28.4845 31.3398 28.431 30.9326 28.431" stroke="#5844E4" stroke-width="3" stroke-linecap="round"/>
</g>
<defs>
<filter id="filter0_d_2_167" x="52" y="30.2979" width="55.657" height="10.2203" filterUnits="userSpaceOnUse" color-interpolation-filters="sRGB">
<feFlood flood-opacity="0" result="BackgroundImageFix"/>
<feColorMatrix in="SourceAlpha" type="matrix" values="0 0 0 0 0 0 0 0 0 0 0 0 0 0 0 0 0 0 127 0" result="hardAlpha"/>
<feOffset dx="1" dy="1"/>
<feGaussianBlur stdDeviation="0.5"/>
<feColorMatrix type="matrix" values="0 0 0 0 0.266667 0 0 0 0 0.266667 0 0 0 0 0.266667 0 0 0 1 0"/>
<feBlend mode="normal" in2="BackgroundImageFix" result="effect1_dropShadow_2_167"/>
<feBlend mode="normal" in="SourceGraphic" in2="effect1_dropShadow_2_167" result="shape"/>
</filter>
<clipPath id="clip0_2_167">
<rect width="121" height="44" fill="white"/>
</clipPath>
<clipPath id="clip1_2_167">
<rect width="120" height="46" fill="white" transform="translate(0 -2)"/>
</clipPath>
</defs>
</svg>
