<svg width="619" height="339" viewBox="0 0 619 339" fill="none" xmlns="http://www.w3.org/2000/svg">
<g clip-path="url(#clip0_21_1400)">
<rect width="619" height="339" fill="white"/>
<g clip-path="url(#clip1_21_1400)" filter="url(#filter0_d_21_1400)">
<mask id="mask0_21_1400" style="mask-type:luminance" maskUnits="userSpaceOnUse" x="-21" y="-73" width="640" height="420">
<path d="M619 -73H-21V347H619V-73Z" fill="white"/>
</mask>
<g mask="url(#mask0_21_1400)">
<path d="M152.738 13.7241C147.343 23.6768 147.978 32.4586 155.277 44.7532C163.529 58.8041 163.211 73.4405 154.643 83.9787C147.661 92.7604 147.343 93.3455 152.738 112.666C157.499 129.644 158.133 130.229 156.547 117.35C155.277 106.226 156.864 97.4444 162.894 85.735C173.049 65.2441 173.049 59.3896 162.894 41.2404C158.133 33.0441 155.595 23.0914 156.229 17.2369C158.133 4.94232 157.816 4.35681 152.738 13.7241Z" fill="#FFC107"/>
<g filter="url(#filter1_d_21_1400)">
<g filter="url(#filter2_d_21_1400)">
<path d="M284.733 240.49C285.491 238.248 285.87 236.082 285.87 233.992C285.87 231.901 285.795 230.278 285.645 229.122C285.487 227.955 285.234 226.927 284.887 226.04C284.129 224.09 282.992 223.115 281.477 223.115C279.606 223.115 277.912 224.125 276.397 226.145C274.779 228.235 273.969 230.927 273.969 234.22C273.969 236.309 274.463 238.16 275.45 239.771C276.436 241.371 277.688 242.919 279.203 244.413C280.719 245.907 282.333 247.402 284.046 248.897C285.767 250.392 287.386 252.038 288.901 253.836C292.382 257.946 294.123 262.763 294.123 268.286C294.123 272.023 293.456 275.479 292.122 278.655C290.78 281.831 289 284.581 286.782 286.904C281.926 291.983 276.29 294.523 269.872 294.523C264.67 294.523 260.731 293.274 258.055 290.775C255.379 288.264 254.041 285.106 254.041 281.299C254.041 274.492 255.833 270.23 259.417 268.514C260.427 267.988 261.702 267.725 263.242 267.725C264.789 267.725 266.446 268.216 268.215 269.196C267.402 272.256 266.995 275.169 266.995 277.937C266.995 283.915 268.436 286.904 271.317 286.904C273.188 286.904 274.893 285.894 276.433 283.874C277.972 281.854 278.741 279.706 278.741 277.428C278.741 275.152 278.248 273.19 277.261 271.543C276.282 269.897 275.059 268.42 273.591 267.112C272.122 265.805 270.543 264.514 268.854 263.242C267.165 261.981 265.586 260.451 264.118 258.652C260.684 254.542 258.967 249.2 258.967 242.626C258.967 238.364 259.674 234.57 261.086 231.242C262.5 227.914 264.343 225.13 266.616 222.887C271.163 218.333 276.227 216.057 281.808 216.057C287.397 216.057 291.541 217.288 294.241 219.752C296.941 222.216 298.291 225.544 298.291 229.735C298.291 233.39 297.332 236.38 295.414 238.703C293.748 240.642 291.905 241.611 289.884 241.611C287.863 241.611 286.146 241.237 284.733 240.49ZM332.251 275.011C333.206 276.81 333.683 279.168 333.683 282.087C333.683 286.116 332.673 289.199 330.652 291.335C328.632 293.461 326.03 294.523 322.849 294.523C321.034 294.523 318.737 294.225 315.958 293.63C310.495 292.357 306.931 291.721 305.265 291.721C303.6 291.721 302.439 291.779 301.784 291.896C301.129 292.001 300.269 292.129 299.203 292.281L308.521 218.298H341.191C341.191 222.852 340.445 226.326 338.953 228.72C337.461 231.114 335.251 232.311 332.322 232.311C329.393 232.311 326.437 231.3 323.453 229.28L321.109 248.897H334.595C334.595 252.855 333.941 255.938 332.63 258.144C331.312 260.351 329.555 261.455 327.361 261.455C325.158 261.455 323.378 261.082 322.02 260.334C320.654 259.587 319.897 259.102 319.747 258.88L317.012 280.056C318.227 280.289 319.972 280.406 322.245 280.406C326.137 280.406 329.472 278.608 332.251 275.011ZM373.932 294.523C367.458 294.523 363.922 287.721 363.322 274.118H350.285C349.275 277.563 348.414 280.78 347.704 283.769L345.738 292.281H335.128L359 218.298H375.293L378.478 272.77C378.983 280.616 380.246 285.701 382.267 288.025C380.799 292.357 378.021 294.523 373.932 294.523ZM356.798 251.699L352.63 265.939H363.085L362.185 237.127V234.097L356.798 251.699ZM402.196 292.281H385.974L395.221 218.631C400.227 217.814 406.376 217.405 413.67 217.405C420.972 217.405 426.316 218.976 429.703 222.117C433.089 225.246 434.782 229.969 434.782 236.286C434.782 242.603 433.681 247.741 431.479 251.699C429.284 255.658 426.293 258.273 422.503 259.546C423.364 265.746 424.777 271.351 426.742 276.36C428.566 281.066 430.539 284.166 432.663 285.66C431.905 288.802 430.752 291.067 429.205 292.457C427.666 293.834 425.799 294.523 423.605 294.523C421.402 294.523 419.444 293.571 417.731 291.668C416.01 289.765 414.467 287.056 413.102 283.541C410.228 275.916 408.638 266.091 408.33 254.064H408.862C412.604 253.912 415.407 252.394 417.27 249.51C419.14 246.637 420.076 242.177 420.076 236.129C420.076 228.574 417.929 224.65 413.634 224.358H411.964C411.515 224.358 411.164 224.394 410.911 224.463L402.196 292.281ZM477.825 269.074C479.135 270.498 479.79 272.723 479.79 275.747C479.79 278.771 479.348 281.352 478.464 283.489C477.58 285.613 476.281 287.5 474.568 289.146C470.881 292.661 465.818 294.418 459.376 294.418C452.935 294.418 447.957 291.931 444.445 286.956C440.932 281.982 439.176 275.088 439.176 266.271C439.176 253.789 441.374 242.808 445.771 233.326C449.102 226.297 453.747 221.288 459.708 218.298C462.794 216.804 465.853 216.057 468.884 216.057C471.916 216.057 474.367 216.354 476.238 216.95C478.101 217.545 479.743 218.444 481.164 219.647C484.242 222.262 485.782 225.66 485.782 229.84C485.782 233.658 484.57 236.987 482.147 239.824C479.92 242.358 477.899 243.625 476.084 243.625C474.26 243.625 472.97 243.438 472.212 243.065C472.417 240.378 472.52 238.16 472.52 236.409C472.52 234.645 472.496 233.128 472.449 231.855C472.393 230.593 472.239 229.362 471.987 228.159C471.482 225.392 470.459 224.008 468.92 224.008C467.381 224.008 465.841 225.077 464.302 227.213C462.755 229.338 461.326 232.193 460.016 235.778C457.032 243.928 455.539 252.826 455.539 262.47C455.539 267.095 456.424 270.738 458.192 273.4C459.96 276.051 462.739 277.376 466.528 277.376C469.362 277.376 472.117 275.993 474.793 273.225C475.953 272.034 476.964 270.65 477.825 269.074ZM514.352 283.874C514.352 278.643 515.061 270.796 516.473 260.334H505.26L501.092 292.281H485.249L494.876 218.298H510.861L506.468 251.366H517.679L521.852 218.298H537.847C537.138 223.833 536.329 229.701 535.419 235.901L532.838 254.169C530.918 268.368 529.96 278.567 529.96 284.768C529.96 287.313 530.241 289.292 530.801 290.705C528.273 293.251 525.533 294.523 522.571 294.523C519.62 294.523 517.509 293.478 516.251 291.387C514.986 289.298 514.352 286.793 514.352 283.874Z" fill="#FFC107"/>
</g>
</g>
<path d="M55.165 282.449V290C55.165 298.763 62.2693 305.868 71.0328 305.868V305.868V305.868C79.7963 305.868 86.9006 298.763 86.9006 290V282.449V274.899C86.9006 266.135 79.7963 259.031 71.0328 259.031V259.031V259.031C62.2693 259.031 55.165 266.135 55.165 274.899V282.449Z" fill="black"/>
<path d="M70.085 257.427L66.6504 261.113V286.916L70.085 290.602H100.996L104.431 286.916V261.113L100.996 257.427H70.085Z" fill="black" stroke="black"/>
<path d="M14.8916 338.374V252.782V252.118H19.0474L66.6507 194.725L163.746 283.967V338.043L14.8916 338.374Z" fill="#FFC107" stroke="#FFC107"/>
</g>
<path d="M238.666 111.196C251.639 111.196 258.126 117.851 258.126 131.16C258.126 138.472 256.508 144.325 253.272 148.719C250.095 153.101 245.726 155.293 240.166 155.293C237.578 155.293 235.276 154.213 233.261 152.054C232.305 151.135 231.511 150.06 230.878 148.831C234.747 148.831 237.699 147.115 239.736 143.684C241.773 140.263 242.792 135.207 242.792 128.514C242.792 121.811 240.516 118.46 235.964 118.46H234.055C233.739 118.46 233.449 118.497 233.184 118.573L224.05 188.198H206.808L216.581 112.575C222.244 111.805 226.719 111.383 230.007 111.309C233.287 111.233 236.173 111.196 238.666 111.196ZM274.805 188.198H257.806L267.492 112.351C272.735 111.496 279.181 111.068 286.83 111.068C294.485 111.068 300.086 112.687 303.631 115.927C307.183 119.155 308.959 124.024 308.959 130.535C308.959 137.034 307.804 142.326 305.495 146.41C303.193 150.483 300.057 153.177 296.085 154.491C296.99 160.873 298.471 166.646 300.531 171.81C302.443 176.653 304.51 179.844 306.731 181.383C305.936 184.622 304.73 186.952 303.112 188.375C301.502 189.796 299.545 190.507 297.243 190.507C294.934 190.507 292.882 189.524 291.088 187.557C289.286 185.6 287.668 182.81 286.234 179.186C283.219 171.34 281.553 161.221 281.237 148.831H281.788C285.708 148.67 288.646 147.11 290.603 144.149C292.566 141.188 293.548 136.591 293.548 130.358C293.548 122.586 291.298 118.546 286.797 118.236H285.043C284.572 118.236 284.204 118.273 283.939 118.347L274.805 188.198ZM313.802 160.024C313.802 145.475 316.394 133.624 321.579 124.474C327.087 114.543 334.633 109.576 344.216 109.576C351.158 109.576 356.376 112.019 359.869 116.905C363.362 121.79 365.109 129.39 365.109 139.707C365.109 155.411 362.355 167.843 356.846 177.005C351.397 186.006 344.09 190.507 334.927 190.507C327.779 190.507 322.469 187.909 318.997 182.714C315.534 177.519 313.802 169.955 313.802 160.024ZM334.684 136.131C332.302 149.986 331.11 162.376 331.11 173.301C331.11 175.92 331.415 178.074 332.025 179.764C332.636 181.463 333.75 182.313 335.368 182.313C336.979 182.313 338.288 181.752 339.296 180.63C340.303 179.517 341.204 177.69 341.998 175.145C343.27 170.997 344.502 164.514 345.693 155.694C346.885 146.885 347.532 140.653 347.635 136.997C347.738 133.341 347.79 130.128 347.79 127.359C347.79 124.581 347.499 122.309 346.918 120.545C346.337 118.77 345.267 117.882 343.708 117.882C342.142 117.882 340.829 118.577 339.77 119.967C337.813 122.586 336.118 127.974 334.684 136.131ZM400.057 111.196C413.03 111.196 419.516 117.851 419.516 131.16C419.516 138.472 417.902 144.325 414.673 148.719C411.497 153.101 407.128 155.293 401.568 155.293C398.972 155.293 396.667 154.213 394.651 152.054C393.702 151.135 392.908 150.06 392.268 148.831C396.137 148.831 399.09 147.115 401.127 143.684C403.164 140.263 404.183 135.207 404.183 128.514C404.183 121.811 401.907 118.46 397.354 118.46H395.446C395.129 118.46 394.839 118.497 394.574 118.573L385.44 188.198H368.209L377.972 112.575C383.642 111.805 388.117 111.383 391.397 111.309C394.685 111.233 397.571 111.196 400.057 111.196ZM453.824 170.415C454.832 172.264 455.335 174.69 455.335 177.695C455.335 181.853 454.277 185.028 452.158 187.22C450.04 189.411 447.315 190.507 443.984 190.507C442.072 190.507 439.66 190.197 436.747 189.577C431.033 188.273 427.301 187.621 425.551 187.621C423.807 187.621 422.59 187.68 421.899 187.797C421.208 187.915 420.307 188.048 419.197 188.198L428.97 111.998H463.201C463.201 116.691 462.422 120.272 460.862 122.741C459.296 125.2 456.979 126.429 453.913 126.429C450.839 126.429 447.739 125.393 444.613 123.319L442.153 143.523H456.295C456.295 147.597 455.604 150.771 454.222 153.048C452.846 155.315 451.007 156.448 448.705 156.448C446.404 156.448 444.536 156.063 443.101 155.293C441.675 154.524 440.88 154.022 440.719 153.786L437.862 175.611C439.134 175.845 440.961 175.963 443.344 175.963C447.419 175.963 450.912 174.114 453.824 170.415ZM478.932 188.198H461.932L471.618 112.351C476.862 111.496 483.308 111.068 490.956 111.068C498.612 111.068 504.212 112.687 507.757 115.927C511.311 119.155 513.083 124.024 513.083 130.535C513.083 137.034 511.93 142.326 509.624 146.41C507.318 150.483 504.183 153.177 500.212 154.491C501.116 160.873 502.598 166.646 504.657 171.81C506.572 176.653 508.635 179.844 510.856 181.383C510.063 184.622 508.857 186.952 507.238 188.375C505.63 189.796 503.672 190.507 501.37 190.507C499.061 190.507 497.008 189.524 495.214 187.557C493.412 185.6 491.794 182.81 490.36 179.186C487.345 171.34 485.679 161.221 485.363 148.831H485.915C489.835 148.67 492.773 147.11 494.729 144.149C496.693 141.188 497.674 136.591 497.674 130.358C497.674 122.586 495.424 118.546 490.923 118.236H489.169C488.699 118.236 488.33 118.273 488.066 118.347L478.932 188.198ZM523.09 131.978C521.287 129.968 520.388 126.83 520.388 122.565C520.388 118.289 521.355 115.034 523.291 112.8C525.222 110.576 527.856 109.464 531.188 109.464C533.304 109.464 536.879 109.999 541.91 111.068L547.315 112.222C549.119 112.532 550.954 112.687 552.832 112.687C554.715 112.687 556.291 112.11 557.566 110.955C559.47 113.425 560.422 116.429 560.422 119.967C560.422 123.506 559.338 126.547 557.169 129.092C554.937 131.785 552.393 133.132 549.531 133.132C548.156 133.132 546.358 132.86 544.136 132.314C541.545 144.17 540.243 154.213 540.243 162.445C540.243 170.687 541.677 176.962 544.538 181.271C543.211 184.734 541.571 187.14 539.603 188.486C537.646 189.833 535.197 190.507 532.257 190.507C529.321 190.507 526.941 189.331 525.111 186.979C523.286 184.638 522.376 181.041 522.376 176.187C522.376 170.575 523.434 163.151 525.55 153.915C527.671 144.753 530.315 136.671 533.494 129.669C531.955 129.433 530.395 129.316 528.803 129.316C525.523 129.316 523.619 130.204 523.09 131.978ZM565.42 188.198L570.027 154.251C568.493 133.395 565.024 120.732 559.629 116.264C560.739 114.264 562.194 112.709 563.997 111.597C565.796 110.474 567.785 109.913 569.953 109.913C572.122 109.913 574.026 110.474 575.666 111.597C577.305 112.709 578.654 114.457 579.717 116.84C581.732 121.384 582.737 129.081 582.737 139.932V148.254C585.916 134.709 589.09 125.008 592.268 119.149C595.5 113.153 599.123 110.154 603.148 110.154C604.735 110.154 606.058 110.747 607.115 111.934C608.179 113.131 608.972 114.617 609.501 116.391C605.428 119 601.43 124.077 597.51 131.625C593.591 139.173 590.359 148.216 587.826 158.757L583.134 188.198H565.42Z" fill="black"/>
<path d="M11.1134 251.787H18.6695L66.6506 193.73L164.502 283.967L188.304 237.521L164.502 202.687L156.568 187.758V171.502V149.607L149.768 141.313L138.811 209.986L101.031 146.953L79.1182 134.678L2.80176 234.867L11.1134 251.787Z" fill="black" stroke="black"/>
<rect x="95" y="254" width="31" height="26" rx="3" fill="black"/>
<path d="M100 257.413H99.5V257.913V276.087V276.587H100H121H121.5V276.087V257.913V257.413H121H100ZM120.5 275.587H100.5V258.413H120.5V275.587ZM122.5 277.5H98.5V256.5H122.5V277.5Z" fill="black" stroke="#FFC107"/>
<g clip-path="url(#clip2_21_1400)">
<rect x="75" y="306" width="18.8902" height="33.1754" rx="3" fill="black"/>
<path d="M76.5264 337.137V308.137H92.5L92.5264 337.137H76.5264Z" stroke="#FFC107"/>
<circle cx="91" cy="327" r="1" fill="#FFC107"/>
<path d="M80 311H85V316H80V311Z" fill="#FFC107"/>
<path d="M81 315V312H84V315H81Z" stroke="black" stroke-width="0.25"/>
<path d="M83 314H88V319H83V314Z" fill="#FFC107"/>
<path d="M84 318V315H87V318H84Z" stroke="black" stroke-width="0.25"/>
<path d="M86 317H91V322H86V317Z" fill="#FFC107"/>
<path d="M87 321V318H90V321H87Z" stroke="black" stroke-width="0.25"/>
</g>
<rect x="37" y="254" width="31" height="26" rx="3" fill="black"/>
<path d="M42 257.413H41.5V257.913V276.087V276.587H42H63H63.5V276.087V257.913V257.413H63H42ZM62.5 275.587H42.5V258.413H62.5V275.587ZM64.5 277.5H40.5V256.5H64.5V277.5Z" fill="black" stroke="#FFC107"/>
</g>
</g>
<defs>
<filter id="filter0_d_21_1400" x="-25" y="-73" width="648" height="428" filterUnits="userSpaceOnUse" color-interpolation-filters="sRGB">
<feFlood flood-opacity="0" result="BackgroundImageFix"/>
<feColorMatrix in="SourceAlpha" type="matrix" values="0 0 0 0 0 0 0 0 0 0 0 0 0 0 0 0 0 0 127 0" result="hardAlpha"/>
<feOffset dy="4"/>
<feGaussianBlur stdDeviation="2"/>
<feComposite in2="hardAlpha" operator="out"/>
<feColorMatrix type="matrix" values="0 0 0 0 0 0 0 0 0 0 0 0 0 0 0 0 0 0 0.25 0"/>
<feBlend mode="normal" in2="BackgroundImageFix" result="effect1_dropShadow_21_1400"/>
<feBlend mode="normal" in="SourceGraphic" in2="effect1_dropShadow_21_1400" result="shape"/>
</filter>
<filter id="filter1_d_21_1400" x="254.041" y="216.057" width="285.806" height="80.4666" filterUnits="userSpaceOnUse" color-interpolation-filters="sRGB">
<feFlood flood-opacity="0" result="BackgroundImageFix"/>
<feColorMatrix in="SourceAlpha" type="matrix" values="0 0 0 0 0 0 0 0 0 0 0 0 0 0 0 0 0 0 127 0" result="hardAlpha"/>
<feOffset dx="1" dy="1"/>
<feGaussianBlur stdDeviation="0.5"/>
<feColorMatrix type="matrix" values="0 0 0 0 0.266667 0 0 0 0 0.266667 0 0 0 0 0.266667 0 0 0 1 0"/>
<feBlend mode="normal" in2="BackgroundImageFix" result="effect1_dropShadow_21_1400"/>
<feBlend mode="normal" in="SourceGraphic" in2="effect1_dropShadow_21_1400" result="shape"/>
</filter>
<filter id="filter2_d_21_1400" x="254.041" y="216.057" width="299.806" height="86.4666" filterUnits="userSpaceOnUse" color-interpolation-filters="sRGB">
<feFlood flood-opacity="0" result="BackgroundImageFix"/>
<feColorMatrix in="SourceAlpha" type="matrix" values="0 0 0 0 0 0 0 0 0 0 0 0 0 0 0 0 0 0 127 0" result="hardAlpha"/>
<feOffset dx="12" dy="4"/>
<feGaussianBlur stdDeviation="2"/>
<feComposite in2="hardAlpha" operator="out"/>
<feColorMatrix type="matrix" values="0 0 0 0 0 0 0 0 0 0 0 0 0 0 0 0 0 0 0.75 0"/>
<feBlend mode="normal" in2="BackgroundImageFix" result="effect1_dropShadow_21_1400"/>
<feBlend mode="normal" in="SourceGraphic" in2="effect1_dropShadow_21_1400" result="shape"/>
</filter>
<clipPath id="clip0_21_1400">
<rect width="619" height="339" fill="white"/>
</clipPath>
<clipPath id="clip1_21_1400">
<rect width="640" height="420" fill="white" transform="translate(-21 -73)"/>
</clipPath>
<clipPath id="clip2_21_1400">
<rect x="75" y="306" width="18.8902" height="33.1754" rx="3" fill="white"/>
</clipPath>
</defs>
</svg>
