<svg width="580" height="230" viewBox="0 0 580 230" fill="none" xmlns="http://www.w3.org/2000/svg">
<g clip-path="url(#clip0_22_1633)">
<rect width="580" height="230" fill="white"/>
<g clip-path="url(#clip1_22_1633)" filter="url(#filter0_d_22_1633)">
<mask id="mask0_22_1633" style="mask-type:luminance" maskUnits="userSpaceOnUse" x="0" y="19" width="580" height="211">
<path d="M580 19H0V230H580V19Z" fill="white"/>
</mask>
<g mask="url(#mask0_22_1633)">
<path d="M580 19H0V230H580V19Z" fill="white"/>
<mask id="mask1_22_1633" style="mask-type:luminance" maskUnits="userSpaceOnUse" x="0" y="9" width="576" height="221">
<path d="M0.5 9.83331H574.707V229.424H0.5V9.83331Z" fill="white" stroke="white"/>
</mask>
<g mask="url(#mask1_22_1633)">
<path d="M147.253 30.5101C142.364 35.5101 142.939 39.9219 149.554 46.0985C157.032 53.1574 156.744 60.5105 148.979 65.8046C142.652 70.2164 142.364 70.5104 147.253 80.2164C151.567 88.746 152.143 89.04 150.705 82.5695C149.554 76.9814 150.992 72.5695 156.457 66.687C165.66 56.3927 165.66 53.4515 156.457 44.3338C152.143 40.2161 149.842 35.216 150.417 32.2748C152.143 26.0983 151.855 25.8041 147.253 30.5101Z" fill="#FFC107"/>
<path d="M95.4274 116.941L84.9131 114.057L51.6652 144.63L51.6599 144.634C42.1862 153.295 33.3661 161.656 26.7787 168.173C23.4828 171.433 20.7611 174.217 18.8008 176.339C17.8188 177.402 17.0467 178.279 16.4951 178.955C15.9586 179.612 15.7603 179.927 15.7223 179.987C15.7166 179.996 15.7145 179.999 15.7154 179.997L15.649 180.15L15.5622 180.292C15.3147 180.697 15.1477 181.513 15.4884 182.884C15.818 184.211 16.5548 185.742 17.596 187.217C18.6329 188.685 19.8962 189.989 21.1783 190.904C22.3344 191.729 23.3503 192.13 24.1372 192.215C24.2056 192.176 24.2924 192.125 24.3991 192.057C24.8528 191.77 25.4843 191.307 26.2944 190.654C27.9047 189.355 30.0461 187.446 32.5806 185.054C37.6379 180.283 44.1421 173.706 50.8752 166.527C57.6641 159.142 64.244 152.486 69.3585 147.663C71.9124 145.255 74.1265 143.28 75.832 141.895C76.6795 141.206 77.4421 140.629 78.0811 140.213C78.3979 140.007 78.731 139.809 79.0599 139.654C79.3134 139.535 79.8661 139.29 80.529 139.29C81.2912 139.29 81.9464 139.624 82.201 139.755C82.5787 139.949 82.9885 140.205 83.406 140.488C84.2492 141.057 85.3119 141.864 86.5462 142.856C89.0244 144.847 92.3404 147.7 96.2514 151.184C104.081 158.158 114.385 167.738 125.325 178.189L125.331 178.196C137.538 189.945 147.776 199.315 155.231 205.589C158.967 208.733 161.954 211.058 164.116 212.511C165.208 213.245 166.007 213.701 166.541 213.937C166.55 213.94 166.559 213.944 166.567 213.948C166.619 213.912 166.677 213.87 166.741 213.823C167.082 213.567 167.509 213.208 168.021 212.737C169.044 211.798 170.302 210.511 171.722 208.964C174.557 205.875 177.935 201.859 181.183 197.77C184.432 193.681 187.524 189.555 189.793 186.25C190.931 184.593 191.837 183.178 192.45 182.095C192.728 181.603 192.926 181.214 193.055 180.923C192.877 180.606 192.605 180.173 192.228 179.619C191.398 178.4 190.17 176.758 188.619 174.79C185.527 170.864 181.245 165.754 176.518 160.334C168.939 151.852 164.43 146.429 161.867 141.734C159.193 136.838 158.661 132.788 158.661 127.276C158.661 122.938 158.299 120.121 157.586 118.175C156.926 116.377 155.948 115.266 154.414 114.363C151.185 112.604 148.97 111.636 147.421 111.359C146.687 111.229 146.27 111.287 146.038 111.366C145.844 111.432 145.624 111.562 145.364 111.931C144.733 112.825 144.144 114.712 143.783 118.345C143.431 121.869 143.322 126.616 143.322 132.864C143.322 139.396 143.032 145.362 142.591 149.724C142.372 151.892 142.109 153.731 141.808 155.065C141.662 155.714 141.48 156.362 141.24 156.898C141.124 157.155 140.935 157.523 140.633 157.864C140.349 158.183 139.678 158.792 138.625 158.792C136.295 158.792 134.081 157.426 132.284 155.856C130.403 154.211 128.576 151.986 126.983 149.542C123.844 144.728 121.273 138.527 121.273 133.453C121.273 130.937 121.087 129.265 120.595 127.975C120.142 126.787 119.363 125.761 117.799 124.704C116.163 123.599 113.727 122.505 110.035 121.246C106.365 119.995 101.612 118.633 95.4274 116.941ZM193.243 181.294C193.242 181.292 193.241 181.289 193.24 181.286C193.248 181.312 193.251 181.315 193.243 181.294Z" fill="#FFC107"/>
<path d="M23.941 192.312C23.9407 192.313 23.9498 192.31 23.9691 192.301M95.4274 116.941L84.9131 114.057L51.6652 144.63L51.6599 144.634C42.1862 153.295 33.3661 161.656 26.7787 168.173C23.4828 171.433 20.7611 174.217 18.8008 176.339C17.8188 177.402 17.0467 178.279 16.4951 178.955C15.9586 179.612 15.7603 179.927 15.7223 179.987C15.7166 179.996 15.7145 179.999 15.7154 179.997L15.649 180.15L15.5622 180.292C15.3147 180.697 15.1477 181.513 15.4884 182.884C15.818 184.211 16.5548 185.742 17.596 187.217C18.6329 188.685 19.8962 189.989 21.1783 190.904C22.3344 191.729 23.3503 192.13 24.1372 192.215C24.2056 192.176 24.2924 192.125 24.3991 192.057C24.8528 191.77 25.4843 191.307 26.2944 190.654C27.9047 189.355 30.0461 187.446 32.5806 185.054C37.6379 180.283 44.1421 173.706 50.8752 166.527C57.6641 159.142 64.244 152.486 69.3585 147.663C71.9124 145.255 74.1265 143.28 75.832 141.895C76.6795 141.206 77.4421 140.629 78.0811 140.213C78.3979 140.007 78.731 139.809 79.0599 139.654C79.3134 139.535 79.8661 139.29 80.529 139.29C81.2912 139.29 81.9464 139.624 82.201 139.755C82.5787 139.949 82.9885 140.205 83.406 140.488C84.2492 141.057 85.3119 141.864 86.5462 142.856C89.0244 144.847 92.3404 147.7 96.2514 151.184C104.081 158.158 114.385 167.738 125.325 178.189L125.331 178.196C137.538 189.945 147.776 199.315 155.231 205.589C158.967 208.733 161.954 211.058 164.116 212.511C165.208 213.245 166.007 213.701 166.541 213.937C166.55 213.94 166.559 213.944 166.567 213.948C166.619 213.912 166.677 213.87 166.741 213.823C167.082 213.567 167.509 213.208 168.021 212.737C169.044 211.798 170.302 210.511 171.722 208.964C174.557 205.875 177.935 201.859 181.183 197.77C184.432 193.681 187.524 189.555 189.793 186.25C190.931 184.593 191.837 183.178 192.45 182.095C192.728 181.603 192.926 181.214 193.055 180.923C192.877 180.606 192.605 180.173 192.228 179.619C191.398 178.4 190.17 176.758 188.619 174.79C185.527 170.864 181.245 165.754 176.518 160.334C168.939 151.852 164.43 146.429 161.867 141.734C159.193 136.838 158.661 132.788 158.661 127.276C158.661 122.938 158.299 120.121 157.586 118.175C156.926 116.377 155.948 115.266 154.414 114.363C151.185 112.604 148.97 111.636 147.421 111.359C146.687 111.229 146.27 111.287 146.038 111.366C145.844 111.432 145.624 111.562 145.364 111.931C144.733 112.825 144.144 114.712 143.783 118.345C143.431 121.869 143.322 126.616 143.322 132.864C143.322 139.396 143.032 145.362 142.591 149.724C142.372 151.892 142.109 153.731 141.808 155.065C141.662 155.714 141.48 156.362 141.24 156.898C141.124 157.155 140.935 157.523 140.633 157.864C140.349 158.183 139.678 158.792 138.625 158.792C136.295 158.792 134.081 157.426 132.284 155.856C130.403 154.211 128.576 151.986 126.983 149.542C123.844 144.728 121.273 138.527 121.273 133.453C121.273 130.937 121.087 129.265 120.595 127.975C120.142 126.787 119.363 125.761 117.799 124.704C116.163 123.599 113.727 122.505 110.035 121.246C106.365 119.995 101.612 118.633 95.4274 116.941ZM193.243 181.294C193.242 181.292 193.241 181.289 193.24 181.286C193.248 181.312 193.251 181.315 193.243 181.294Z" stroke="#FFC107"/>
<path d="M69.0254 197.571V197.571C69.0254 204.068 74.2928 209.336 80.7906 209.336H83.4056H86.0205C92.5183 209.336 97.7857 204.068 97.7857 197.571V197.571V197.571C97.7857 191.073 92.5185 185.806 86.021 185.806H83.4056H80.7901C74.2926 185.806 69.0254 191.073 69.0254 197.571V197.571Z" fill="#FFC107"/>
<path d="M145.157 117.003C144.273 117.102 144.625 119.289 144.625 119.937C144.625 121.075 144.448 122.106 144.448 123.226C144.448 124.323 143.917 125.412 143.917 126.516C143.917 127.583 143.917 128.65 143.917 129.717C143.917 130.616 144.271 131.538 144.271 132.472C144.271 133.481 144.448 134.476 144.448 135.406C144.448 137.581 144.271 139.568 144.271 141.718" stroke="#FFC107" stroke-linecap="square"/>
<path d="M165.571 212.663C165.127 212.574 164.7 211.859 164.449 211.534C164.13 211.122 163.827 210.578 163.398 210.275C162.894 209.919 162.517 209.332 162.097 208.887C161.923 208.702 161.703 208.562 161.554 208.371C161.452 208.239 161.256 208.047 161.118 207.951C160.904 207.802 160.768 207.614 160.589 207.435C160.416 207.26 160.164 207.108 160.039 206.889C159.974 206.775 159.725 206.603 159.621 206.498C159.422 206.298 159.125 206.174 158.895 206.014C158.674 205.861 158.54 205.674 158.302 205.548C158.103 205.442 157.777 205.196 157.655 205.014C157.545 204.848 157.194 204.66 157.019 204.562C156.736 204.401 156.525 204.134 156.258 203.948C155.186 203.203 154.182 202.232 153.235 201.316C153.029 201.116 152.766 200.812 152.513 200.67C152.312 200.558 152.183 200.3 151.966 200.204C151.731 200.099 151.501 199.753 151.291 199.587C150.996 199.355 150.751 199.064 150.44 198.848C150.181 198.668 149.925 198.466 149.697 198.253C149.436 198.01 149.112 197.858 148.843 197.622C148.359 197.197 147.808 196.84 147.288 196.46C146.86 196.146 146.461 195.736 146.045 195.395C145.79 195.185 145.503 194.964 145.28 194.72C145.119 194.544 144.771 194.214 144.551 194.121C144.364 194.042 144.112 193.709 143.958 193.555C143.773 193.369 143.576 193.211 143.411 193.009C143.04 192.554 142.569 192.16 142.157 191.747C141.427 191.014 140.724 190.259 139.969 189.581C139.149 188.844 138.179 188.271 137.396 187.486C137.063 187.151 136.678 186.894 136.335 186.55C135.943 186.156 135.549 185.805 135.145 185.42C134.715 185.01 134.275 184.619 133.855 184.197C133.672 184.014 133.447 183.811 133.244 183.645C133.069 183.501 132.875 183.259 132.701 183.146C132.356 182.922 131.959 182.485 131.708 182.16C131.566 181.978 131.361 181.816 131.189 181.644C131.037 181.491 130.691 181.298 130.593 181.13C130.366 180.744 129.893 180.471 129.581 180.159C129.29 179.866 128.987 179.591 128.698 179.301C128.55 179.153 128.362 179.036 128.212 178.885C128.125 178.797 127.863 178.631 127.812 178.541C127.708 178.359 127.269 177.95 127.104 177.867" stroke="#FFC107" stroke-linecap="square"/>
<path d="M166.021 210.865C167.597 210.865 168.234 208.658 169.444 207.714C169.929 207.336 170.407 206.858 170.715 206.333C170.913 205.996 171.393 205.751 171.556 205.383C171.867 204.682 172.498 203.442 173.086 202.97C173.456 202.674 173.594 202.168 173.96 201.882C174.296 201.621 174.663 201.306 174.874 200.924C175.301 200.153 176.201 199.723 176.623 198.877C177.328 197.461 178.578 196.018 179.746 194.962C180.716 194.086 182.083 193.016 182.627 191.787C182.96 191.034 183.591 190.338 183.8 189.603C183.889 189.29 184.476 189.145 184.521 188.79C184.549 188.557 184.983 188.189 185.103 187.978C185.91 186.56 186.932 185.253 187.984 184.08C188.489 183.516 189.098 182.86 189.441 182.212C189.754 181.616 190.341 181.201 190.638 180.603" stroke="#FFC107" stroke-linecap="square"/>
<path d="M168.353 211.303C168.942 210.777 169.677 210.417 170.279 209.874C170.814 209.39 171.656 209.205 171.994 208.526" stroke="#FFC107" stroke-linecap="square"/>
<path d="M170.828 208.526C170.88 208.003 171.778 206.633 172.204 206.366C172.518 206.168 172.993 205.617 173.191 205.31C173.335 205.086 173.522 204.968 173.742 204.839C173.94 204.721 173.917 204.399 174.114 204.286C174.724 203.936 175.278 203.147 175.602 202.532C175.881 202.004 176.164 201.254 176.573 200.843C177.535 199.877 178.273 198.65 179.244 197.675C180.219 196.697 180.859 195.42 181.72 194.459C182.282 193.832 182.546 192.944 183.096 192.331C183.453 191.933 184.097 191.264 184.237 190.772C184.291 190.582 184.695 190.229 184.811 190.025C184.996 189.701 185.23 189.438 185.426 189.083C185.548 188.864 185.925 188.216 186.122 188.092C186.365 187.94 186.419 187.5 186.632 187.328C186.752 187.232 187.096 186.697 187.134 186.524C187.204 186.208 187.584 185.912 187.79 185.647C188.235 185.073 188.64 184.298 189.149 183.787C189.61 183.325 190.18 182.533 190.493 181.985C190.762 181.511 190.891 180.55 191.366 180.311" stroke="#FFC107" stroke-linecap="square"/>
<path d="M189.788 178.794C189.788 178.376 189.672 177.791 189.407 177.449C189.125 177.085 188.981 176.557 188.692 176.234C188.181 175.664 188.031 174.906 187.535 174.38C187.384 174.219 187.423 173.956 187.261 173.794C187.128 173.66 186.989 173.522 186.892 173.351C186.67 172.96 186.441 172.565 186.141 172.227C185.763 171.8 185.336 170.962 184.854 170.72" stroke="#FFC107" stroke-linecap="square"/>
<path d="M184.639 173.196C184.246 173.117 184.129 172.615 183.829 172.442C183.594 172.308 183.258 171.917 183.054 171.712C182.649 171.306 182.177 170.872 181.695 170.564C181.438 170.4 181.036 170.183 180.885 169.918C180.745 169.673 180.511 169.464 180.372 169.212C180.23 168.956 180.203 168.551 180.026 168.351C179.654 167.93 179.618 167.103 179.335 166.574C179.057 166.055 178.733 165.33 178.31 164.906C177.859 164.453 177.378 163.996 177.016 163.452C176.641 162.887 176.117 162.166 175.628 161.675C175.347 161.394 175.162 161.067 174.925 160.76C174.668 160.429 174.246 160.158 174.126 159.737C173.914 158.992 173.154 158.351 172.839 157.638C172.592 157.082 172.075 156.436 171.658 155.969C171.298 155.565 170.846 154.967 170.586 154.509C170.246 153.913 169.659 153.344 169.191 152.847C168.93 152.569 168.737 152.224 168.494 151.926C168.278 151.66 167.955 151.342 167.797 151.064C167.422 150.406 166.694 149.862 166.426 149.162C166.219 148.622 165.674 148.177 165.305 147.757C165.041 147.456 164.842 147.06 164.578 146.77C164.165 146.314 163.664 145.736 163.398 145.202" stroke="#FFC107" stroke-linecap="square"/>
<path d="M145.757 143.877C145.092 143.877 144.152 144.85 144.152 145.488C144.152 146.264 144.523 146.961 144.523 147.718C144.523 149.49 143.412 151.082 143.412 152.86C143.412 153.685 142.845 154.42 142.794 155.275C142.776 155.599 142.475 156.076 142.417 156.453C142.351 156.884 142.054 157.402 142.054 157.815C142.054 158.571 141.483 159.676 141.162 160.355C140.934 160.838 140.645 161.27 140.422 161.717C140.263 162.035 139.832 162.06 139.832 162.461" stroke="#FFC107" stroke-linecap="square"/>
<path d="M160.694 145.488C160.694 143.561 159.83 141.856 159.83 139.913C159.83 139.48 159.583 139.157 159.583 138.736C159.583 138.497 159.451 137.577 159.274 137.435C158.967 137.189 159.022 136.604 158.781 136.314C158.578 136.07 158.348 135.332 158.348 135.02C158.348 134.589 157.995 134.146 157.978 133.691C157.962 133.261 157.754 132.748 157.731 132.356C157.678 131.443 157.484 130.698 157.484 129.727C157.484 128.733 157.361 127.74 157.361 126.719C157.361 125.775 157.731 124.934 157.731 123.994C157.731 123.548 157.855 123.152 157.855 122.693C157.855 122.388 157.89 121.715 157.704 121.481C157.471 121.189 157.474 120.841 157.299 120.525C157.172 120.294 156.867 119.663 156.867 119.41C156.867 117.957 154.939 116.871 153.905 116.223C153.229 115.799 152.8 114.987 151.998 114.757C151.684 114.667 151.373 114.268 151.004 114.268C150.667 114.268 150.319 113.896 149.893 113.896C149.1 113.896 148.219 113.649 147.362 113.649C146.606 113.649 145.634 114.34 145.634 115.135" stroke="#FFC107" stroke-linecap="square"/>
<path d="M127.109 176.7C125.799 176.081 124.376 175.514 123.233 174.622C122.973 174.418 122.591 174.156 122.306 173.972C122.028 173.793 121.767 173.595 121.497 173.392C121.186 173.157 120.927 172.792 120.597 172.597C120.175 172.348 119.879 171.903 119.457 171.653C119.123 171.456 118.727 171.057 118.444 170.772C118.195 170.522 117.831 170.163 117.666 169.874C117.546 169.662 116.939 168.857 116.689 168.857" stroke="#FFC107" stroke-linecap="square"/>
<path d="M118.888 169.919C118.458 169.487 118.021 169.058 117.622 168.658C117.189 168.223 116.348 167.966 116.039 167.423C115.908 167.194 115.542 166.897 115.324 166.733C115.089 166.556 114.928 166.227 114.732 165.997C114.352 165.553 113.895 164.848 113.393 164.568C112.869 164.276 112.502 163.714 111.969 163.447C111.34 163.131 110.875 162.403 110.259 162.094C109.99 161.959 109.669 161.613 109.476 161.377C109.162 160.991 108.684 160.75 108.323 160.424C107.811 159.961 107.247 159.528 106.74 159.071C105.558 158.003 104.188 157.236 102.968 156.234C102.641 155.965 102.302 155.743 102.001 155.458C101.864 155.329 101.553 155.165 101.386 155.068C101.236 154.981 101.165 154.845 101.019 154.764C100.703 154.587 100.477 154.262 100.165 154.087C99.7972 153.882 99.3648 153.594 99.0657 153.293C98.7862 153.013 98.4152 152.786 98.1746 152.476C98.0063 152.259 97.6799 152.099 97.5419 151.863C97.2039 151.287 96.4221 151.034 96.1125 150.475C95.9763 150.229 95.6322 150.105 95.5248 149.862C95.4385 149.667 95.1107 149.407 94.9367 149.267C94.4022 148.838 93.7872 148.235 93.1641 147.86" stroke="#FFC107" stroke-linecap="square"/>
<g filter="url(#filter1_d_22_1633)">
<g filter="url(#filter2_d_22_1633)">
<path d="M277.07 176.491C277.757 175.365 278.101 174.277 278.101 173.227C278.101 172.176 278.032 171.361 277.897 170.78C277.754 170.194 277.525 169.677 277.21 169.232C276.523 168.252 275.493 167.762 274.12 167.762C272.424 167.762 270.889 168.27 269.516 169.285C268.049 170.334 267.316 171.687 267.316 173.341C267.316 174.391 267.763 175.321 268.658 176.13C269.552 176.934 270.686 177.711 272.059 178.462C273.433 179.213 274.896 179.964 276.448 180.715C278.008 181.466 279.474 182.293 280.848 183.196C284.003 185.261 285.58 187.681 285.58 190.455C285.58 192.333 284.976 194.069 283.766 195.665C282.55 197.26 280.937 198.642 278.927 199.809C274.527 202.36 269.419 203.637 263.603 203.637C258.889 203.637 255.319 203.009 252.894 201.753C250.469 200.492 249.256 198.905 249.256 196.993C249.256 193.573 250.88 191.432 254.128 190.57C255.043 190.306 256.199 190.174 257.594 190.174C258.996 190.174 260.498 190.42 262.101 190.913C261.364 192.45 260.995 193.913 260.995 195.304C260.995 198.307 262.301 199.809 264.913 199.809C266.608 199.809 268.153 199.301 269.548 198.287C270.943 197.272 271.641 196.193 271.641 195.048C271.641 193.905 271.193 192.919 270.299 192.092C269.412 191.265 268.303 190.523 266.973 189.866C265.642 189.209 264.211 188.561 262.68 187.921C261.149 187.288 259.718 186.519 258.388 185.616C255.276 183.551 253.72 180.867 253.72 177.565C253.72 175.423 254.36 173.517 255.641 171.845C256.921 170.173 258.592 168.775 260.652 167.648C264.773 165.36 269.362 164.216 274.42 164.216C279.485 164.216 283.241 164.835 285.688 166.073C288.134 167.311 289.357 168.983 289.357 171.088C289.357 172.924 288.488 174.426 286.75 175.594C285.24 176.568 283.57 177.054 281.738 177.054C279.907 177.054 278.351 176.866 277.07 176.491ZM320.134 193.834C320.999 194.738 321.432 195.923 321.432 197.389C321.432 199.413 320.516 200.962 318.685 202.035C316.854 203.103 314.496 203.637 311.613 203.637C309.968 203.637 307.886 203.487 305.368 203.188C300.417 202.548 297.187 202.229 295.678 202.229C294.168 202.229 293.117 202.258 292.523 202.317C291.929 202.37 291.15 202.434 290.184 202.51L298.629 165.342H328.236C328.236 167.63 327.559 169.375 326.208 170.578C324.855 171.781 322.852 172.382 320.198 172.382C317.544 172.382 314.865 171.874 312.16 170.86L310.036 180.715H322.258C322.258 182.703 321.665 184.252 320.477 185.361C319.282 186.469 317.691 187.024 315.702 187.024C313.706 187.024 312.092 186.836 310.862 186.461C309.624 186.085 308.938 185.842 308.802 185.73L306.323 196.369C307.425 196.486 309.005 196.545 311.066 196.545C314.593 196.545 317.615 195.641 320.134 193.834ZM357.907 203.637C352.04 203.637 348.835 200.219 348.292 193.385H336.477C335.561 195.116 334.781 196.732 334.138 198.234L332.356 202.51H322.741L344.375 165.342H359.14L362.027 192.708C362.485 196.65 363.629 199.205 365.461 200.372C364.13 202.548 361.612 203.637 357.907 203.637ZM342.379 182.123L338.602 189.277H348.077L347.261 174.802V173.279L342.379 182.123ZM383.521 202.51H368.82L377.201 165.51C381.737 165.099 387.309 164.894 393.919 164.894C400.537 164.894 405.38 165.683 408.449 167.261C411.518 168.833 413.053 171.206 413.053 174.379C413.053 177.553 412.055 180.134 410.059 182.123C408.07 184.111 405.359 185.425 401.925 186.065C402.705 189.18 403.985 191.995 405.766 194.512C407.419 196.876 409.207 198.433 411.132 199.184C410.445 200.762 409.401 201.9 407.999 202.598C406.603 203.29 404.912 203.637 402.923 203.637C400.927 203.637 399.152 203.158 397.6 202.202C396.04 201.246 394.642 199.885 393.405 198.119C390.8 194.289 389.359 189.353 389.08 183.31H389.563C392.953 183.234 395.494 182.472 397.182 181.023C398.877 179.58 399.725 177.339 399.725 174.3C399.725 170.505 397.779 168.534 393.887 168.387H392.374C391.967 168.387 391.648 168.405 391.419 168.44L383.521 202.51ZM452.06 190.851C453.247 191.567 453.841 192.685 453.841 194.204C453.841 195.723 453.44 197.02 452.639 198.093C451.838 199.16 450.661 200.108 449.109 200.935C445.768 202.701 441.178 203.584 435.341 203.584C429.503 203.584 424.993 202.334 421.809 199.835C418.625 197.336 417.034 193.872 417.034 189.443C417.034 183.172 419.026 177.656 423.011 172.892C426.03 169.361 430.24 166.844 435.642 165.342C438.438 164.592 441.21 164.216 443.958 164.216C446.705 164.216 448.926 164.366 450.622 164.665C452.31 164.964 453.798 165.416 455.086 166.02C457.876 167.334 459.271 169.041 459.271 171.141C459.271 173.059 458.173 174.731 455.976 176.157C453.959 177.43 452.127 178.066 450.482 178.066C448.83 178.066 447.66 177.972 446.973 177.785C447.159 176.435 447.252 175.321 447.252 174.441C447.252 173.555 447.23 172.793 447.188 172.153C447.138 171.519 446.998 170.901 446.769 170.297C446.312 168.906 445.385 168.211 443.99 168.211C442.595 168.211 441.2 168.748 439.805 169.821C438.403 170.889 437.108 172.323 435.92 174.124C433.216 178.219 431.864 182.689 431.864 187.534C431.864 189.857 432.665 191.687 434.268 193.025C435.87 194.356 438.389 195.022 441.822 195.022C444.39 195.022 446.887 194.327 449.312 192.937C450.364 192.338 451.28 191.643 452.06 190.851ZM485.162 198.287C485.162 195.659 485.805 191.716 487.085 186.461H476.923L473.146 202.51H458.788L467.512 165.342H481.999L478.017 181.955H488.178L491.96 165.342H506.455C505.812 168.123 505.079 171.071 504.255 174.186L501.915 183.363C500.175 190.496 499.308 195.62 499.308 198.736C499.308 200.014 499.562 201.009 500.07 201.718C497.779 202.997 495.296 203.637 492.611 203.637C489.937 203.637 488.024 203.111 486.883 202.061C485.738 201.011 485.162 199.753 485.162 198.287Z" fill="#FFC107"/>
</g>
</g>
</g>
<path d="M159.062 155.764C158.915 155.633 158.708 155.476 158.5 155.464C158.456 155.462 158.392 155.431 158.351 155.412C158.305 155.392 158.237 155.385 158.19 155.372C158.146 155.359 158.064 155.347 158.028 155.318C157.988 155.287 157.873 155.284 157.845 155.249C157.801 155.194 157.68 155.189 157.619 155.155C157.526 155.103 157.416 155.094 157.321 155.048C157.175 154.979 157.012 154.939 156.861 154.883C156.756 154.846 156.652 154.796 156.544 154.772C156.476 154.757 156.367 154.714 156.305 154.678C156.125 154.57 155.889 154.557 155.706 154.453C155.621 154.404 155.47 154.351 155.374 154.341C155.275 154.33 155.183 154.263 155.083 154.248C154.987 154.233 154.888 154.189 154.793 154.162C154.641 154.12 154.468 154.075 154.325 154.007C154.251 153.972 154.144 153.96 154.081 153.91C154.023 153.863 153.902 153.864 153.857 153.806C153.842 153.788 153.796 153.781 153.773 153.778C153.742 153.772 153.702 153.731 153.665 153.718C153.602 153.696 153.53 153.658 153.463 153.648C153.323 153.629 153.188 153.543 153.052 153.535C152.933 153.528 152.807 153.422 152.685 153.422C152.64 153.422 152.539 153.398 152.499 153.376C152.444 153.345 152.379 153.35 152.321 153.325C152.221 153.28 152.126 153.233 152.021 153.198" stroke="white" stroke-width="0.1"/>
<path d="M142.585 152.823C142.605 152.821 142.671 152.694 142.677 152.664C142.687 152.624 142.739 152.587 142.755 152.534C142.768 152.488 142.819 152.452 142.847 152.403C142.87 152.364 142.933 152.309 142.969 152.28C143.004 152.252 143.024 152.179 143.062 152.149C143.101 152.118 143.131 152.089 143.165 152.046C143.239 151.954 143.346 151.89 143.437 151.84C143.543 151.781 143.675 151.759 143.769 151.684C143.834 151.633 143.995 151.531 144.083 151.531C144.141 151.531 144.193 151.474 144.252 151.474C144.298 151.474 144.394 151.461 144.439 151.441C144.493 151.417 144.585 151.44 144.645 151.437C144.7 151.434 144.767 151.418 144.832 151.418" stroke="white" stroke-width="0.1"/>
<path d="M142.678 152.598C142.759 152.598 142.841 152.478 142.898 152.426C142.985 152.348 143.093 152.267 143.165 152.177C143.29 152.02 143.442 151.896 143.623 151.793C143.721 151.736 143.806 151.67 143.904 151.615C143.943 151.593 144.04 151.588 144.064 151.559C144.074 151.546 144.228 151.512 144.251 151.512C144.355 151.512 144.499 151.485 144.598 151.457C144.65 151.442 144.712 151.437 144.766 151.437C144.818 151.437 144.868 151.4 144.925 151.4" stroke="white" stroke-width="0.1"/>
<path d="M142.791 152.617C142.841 152.611 142.882 152.522 142.907 152.49C142.951 152.435 143.006 152.398 143.049 152.351C143.093 152.302 143.141 152.257 143.188 152.209C143.207 152.19 143.222 152.162 143.24 152.14C143.247 152.131 143.294 152.079 143.307 152.075C143.369 152.057 143.423 151.974 143.474 151.934C143.528 151.893 143.63 151.871 143.671 151.821C143.714 151.767 143.787 151.754 143.831 151.709C143.881 151.66 143.996 151.61 144.064 151.587" stroke="white" stroke-width="0.1"/>
<path d="M145.244 151.586C145.244 151.481 144.635 151.512 144.532 151.512C144.404 151.512 144.28 151.53 144.149 151.53C144.084 151.53 144.036 151.538 143.98 151.551C143.94 151.559 143.775 151.602 143.765 151.624" stroke="white" stroke-width="0.1"/>
<path d="M145.618 151.699C145.554 151.695 145.483 151.641 145.422 151.623C145.375 151.61 145.313 151.568 145.262 151.568C145.122 151.568 144.989 151.512 144.841 151.512C144.538 151.512 144.236 151.512 143.933 151.512" stroke="white" stroke-width="0.1"/>
<path d="M157.322 156.416H158.145" stroke="#FFC107" stroke-width="0.1"/>
<path d="M155.105 156.226H157.829" stroke="#FFC107" stroke-width="0.1"/>
<path d="M151.049 153.819H152.099" stroke="#FFC107" stroke-width="0.1"/>
<path d="M151.647 153.591C151.568 153.591 151.476 153.552 151.404 153.52C151.363 153.502 151.315 153.512 151.273 153.493C151.233 153.476 151.162 153.464 151.119 153.46C151.005 153.451 150.824 153.406 150.726 153.348C150.663 153.31 150.578 153.313 150.509 153.287C150.455 153.267 150.397 153.235 150.337 153.235" stroke="#FFC107" stroke-width="0.1"/>
<path d="M152.246 153.928C152.093 153.873 151.945 153.788 151.797 153.723C151.695 153.676 151.589 153.638 151.489 153.591C151.441 153.568 151.361 153.519 151.31 153.516C151.223 153.511 151.133 153.432 151.048 153.404C150.917 153.36 150.781 153.347 150.651 153.306C150.453 153.244 150.245 153.217 150.037 153.217" stroke="#FFC107" stroke-width="0.1"/>
<path d="M153.501 154.341C153.389 154.264 153.283 154.208 153.155 154.162C153.022 154.114 152.855 154.069 152.733 154.002C152.598 153.928 152.423 153.872 152.274 153.827C152.132 153.783 152 153.716 151.864 153.656C151.708 153.587 151.548 153.548 151.389 153.489C151.275 153.447 151.144 153.396 151.025 153.371C150.706 153.302 150.406 153.217 150.074 153.217" stroke="#FFC107" stroke-width="0.1"/>
<path d="M158.519 156.195C158.497 156.095 158.247 156.045 158.171 155.997C158.035 155.91 157.878 155.897 157.732 155.839" stroke="#FFC107" stroke-width="0.1"/>
<path d="M159.192 156.532C159.103 156.523 158.968 156.441 158.889 156.397C158.798 156.347 158.694 156.33 158.603 156.279C158.46 156.2 158.31 156.116 158.155 156.066C158.037 156.028 157.873 155.97 157.751 155.97" stroke="#FFC107" stroke-width="0.1"/>
<path d="M159.174 156.457C159.045 156.359 158.905 156.283 158.752 156.223C158.614 156.169 158.495 156.084 158.35 156.045C158.26 156.021 158.18 155.97 158.088 155.97" stroke="#FFC107" stroke-width="0.1"/>
<path d="M149.7 152.992C149.637 152.992 149.565 152.952 149.504 152.935C149.44 152.916 149.365 152.897 149.298 152.879C149.168 152.841 149.013 152.785 148.868 152.785C148.715 152.785 148.566 152.711 148.408 152.711C148.252 152.711 148.09 152.636 147.94 152.636C147.853 152.636 147.774 152.58 147.686 152.58C147.586 152.58 147.497 152.516 147.398 152.504C147.279 152.489 147.148 152.433 147.031 152.402C146.919 152.372 146.805 152.36 146.694 152.335C146.48 152.287 146.261 152.277 146.044 152.238C145.853 152.204 145.644 152.167 145.45 152.167C145.367 152.167 145.283 152.186 145.206 152.186" stroke="#FFC107" stroke-width="0.1"/>
<path d="M149.868 153.067C149.851 153.01 149.743 152.991 149.699 152.954C149.654 152.916 149.589 152.916 149.54 152.889C149.499 152.866 149.428 152.842 149.381 152.842C149.321 152.842 149.278 152.796 149.222 152.787C149.049 152.76 148.879 152.712 148.706 152.683C148.463 152.642 148.217 152.611 147.978 152.551C147.875 152.526 147.756 152.512 147.65 152.504C147.544 152.495 147.44 152.452 147.332 152.448C147.088 152.442 146.833 152.353 146.591 152.313C146.341 152.271 146.076 152.176 145.824 152.167C145.654 152.161 145.491 152.13 145.32 152.13C145.232 152.13 145.144 152.13 145.056 152.13" stroke="#FFC107" stroke-width="0.1"/>
<path d="M145.618 152.168C145.61 152.096 145.374 152.111 145.318 152.111" stroke="#FFC107" stroke-width="0.1"/>
<path d="M145.73 152.167C145.647 152.092 145.444 152.055 145.338 152.055C145.187 152.055 145.04 152.036 144.888 152.036" stroke="#FFC107" stroke-width="0.1"/>
<path d="M166.655 166.518C166.655 165.043 163.335 163.197 162.33 162.191C161.491 161.352 158.868 159.728 158.725 158.585C158.527 157.003 155.39 155.78 154.039 155.7C152.269 155.596 150.223 155.34 148.271 155.34" stroke="#FFC107" stroke-width="3" stroke-linecap="round"/>
</g>
<path d="M159.396 155.82C158.875 155.705 158.301 155.531 157.899 155.297C157.716 155.19 157.517 155.094 157.303 155.007C157.079 154.916 156.919 154.785 156.7 154.692C156.332 154.536 156.002 154.37 155.605 154.239C155.368 154.162 155.102 154.116 154.881 154.026C154.563 153.897 154.175 153.837 153.844 153.722C153.641 153.652 153.452 153.57 153.246 153.503C153.045 153.438 152.827 153.397 152.629 153.331C152.458 153.274 152.279 153.223 152.097 153.181C151.97 153.152 151.853 153.116 151.718 153.1C151.673 153.095 151.64 153.092 151.62 153.069" stroke="#FFC107" stroke-width="3" stroke-linecap="round"/>
<path d="M146.211 151.564C146.073 151.544 145.914 151.458 145.789 151.415C145.648 151.368 145.475 151.333 145.313 151.322C145.052 151.304 144.852 151.27 144.598 151.328C144.423 151.367 144.101 151.351 143.994 151.458C143.919 151.533 143.787 151.584 143.734 151.667C143.683 151.748 143.53 151.808 143.504 151.892C143.48 151.97 143.394 152.073 143.312 152.134C143.157 152.25 143.012 152.453 143.012 152.598" stroke="#FFC107" stroke-width="3" stroke-linecap="round"/>
<path d="M24.1226 192.089C24.1226 192.094 24.1079 192.107 24.1004 192.111C24.0923 192.116 24.0848 192.122 24.0802 192.128C24.0758 192.134 24.0719 192.14 24.0674 192.146C24.0649 192.149 24.0586 192.156 24.058 192.159C24.057 192.164 24.0489 192.168 24.0467 192.172C24.0458 192.174 24.0412 192.176 24.0403 192.178C24.0392 192.18 24.0389 192.182 24.0368 192.184C24.029 192.192 24.0243 192.203 24.02 192.212C24.0159 192.22 24.0067 192.231 24.0184 192.238C24.0236 192.241 24.0332 192.241 24.0379 192.244C24.0422 192.247 24.0555 192.245 24.0613 192.248C24.0666 192.251 24.0786 192.252 24.082 192.255C24.0845 192.258 24.0937 192.263 24.0981 192.263C24.1116 192.264 24.1172 192.276 24.127 192.28" stroke="#FFC107" stroke-linecap="round"/>
<path d="M23.993 192.259C23.9917 192.267 23.9911 192.272 23.9979 192.279C24.0019 192.283 24.0091 192.286 24.0148 192.29C24.0243 192.295 24.0371 192.301 24.052 192.301C24.0733 192.301 24.0574 192.316 24.0698 192.322C24.0746 192.324 24.0776 192.33 24.0776 192.333C24.0776 192.341 24.0779 192.342 24.0643 192.342" stroke="#FFC107" stroke-linecap="round"/>
<path d="M235.322 111.537C247.079 111.537 252.958 114.88 252.958 121.566C252.958 125.24 251.491 128.18 248.559 130.388C245.679 132.589 241.72 133.69 236.682 133.69C234.336 133.69 232.25 133.148 230.423 132.063C229.557 131.601 228.837 131.061 228.264 130.444C231.77 130.444 234.446 129.582 236.292 127.858C238.138 126.139 239.061 123.599 239.061 120.237C239.061 116.87 236.998 115.186 232.873 115.186H231.143C230.857 115.186 230.594 115.205 230.353 115.243L222.076 150.221H206.45L215.307 112.23C220.44 111.843 224.495 111.631 227.474 111.593C230.447 111.555 233.063 111.537 235.322 111.537ZM268.073 150.221H252.668L261.445 112.117C266.197 111.687 272.039 111.472 278.97 111.472C285.908 111.472 290.984 112.286 294.196 113.913C297.415 115.535 299.025 117.981 299.025 121.252C299.025 124.517 297.979 127.176 295.886 129.227C293.8 131.274 290.957 132.627 287.358 133.287C288.178 136.494 289.521 139.394 291.387 141.988C293.12 144.421 294.993 146.024 297.005 146.797C296.285 148.425 295.193 149.595 293.726 150.31C292.267 151.024 290.494 151.381 288.408 151.381C286.315 151.381 284.455 150.887 282.829 149.899C281.196 148.916 279.73 147.514 278.431 145.694C275.698 141.752 274.188 136.668 273.902 130.444H274.401C277.954 130.363 280.616 129.579 282.389 128.091C284.169 126.604 285.058 124.294 285.058 121.163C285.058 117.259 283.019 115.229 278.94 115.073H277.351C276.924 115.073 276.591 115.092 276.351 115.129L268.073 150.221ZM303.414 136.067C303.414 128.758 305.763 122.804 310.461 118.207C315.454 113.218 322.292 110.723 330.976 110.723C337.268 110.723 341.996 111.95 345.162 114.405C348.328 116.859 349.911 120.677 349.911 125.86C349.911 133.75 347.415 139.995 342.423 144.598C337.484 149.12 330.863 151.381 322.559 151.381C316.08 151.381 311.268 150.076 308.122 147.466C304.983 144.856 303.414 141.056 303.414 136.067ZM322.339 124.064C320.179 131.024 319.099 137.248 319.099 142.737C319.099 144.053 319.376 145.135 319.929 145.984C320.482 146.837 321.492 147.265 322.958 147.265C324.418 147.265 325.604 146.983 326.517 146.419C327.431 145.86 328.247 144.942 328.967 143.663C330.12 141.58 331.236 138.323 332.315 133.892C333.395 129.466 333.982 126.335 334.075 124.499C334.169 122.662 334.215 121.048 334.215 119.657C334.215 118.261 333.952 117.119 333.426 116.233C332.899 115.342 331.929 114.896 330.516 114.896C329.097 114.896 327.907 115.245 326.947 115.943C325.174 117.259 323.638 119.966 322.339 124.064ZM381.582 111.537C393.339 111.537 399.217 114.88 399.217 121.566C399.217 125.24 397.754 128.18 394.828 130.388C391.95 132.589 387.991 133.69 382.952 133.69C380.599 133.69 378.51 133.148 376.684 132.063C375.824 131.601 375.104 131.061 374.524 130.444C378.03 130.444 380.706 129.582 382.552 127.858C384.398 126.139 385.321 123.599 385.321 120.237C385.321 116.87 383.259 115.186 379.133 115.186H377.404C377.117 115.186 376.854 115.205 376.614 115.243L368.336 150.221H352.72L361.568 112.23C366.706 111.843 370.762 111.631 373.734 111.593C376.714 111.555 379.33 111.537 381.582 111.537ZM430.309 141.287C431.222 142.216 431.679 143.435 431.679 144.945C431.679 147.033 430.719 148.628 428.799 149.729C426.88 150.831 424.41 151.381 421.391 151.381C419.659 151.381 417.472 151.225 414.833 150.914C409.654 150.258 406.272 149.931 404.686 149.931C403.106 149.931 402.003 149.961 401.377 150.02C400.75 150.079 399.934 150.146 398.928 150.221L407.785 111.939H438.807C438.807 114.297 438.1 116.096 436.687 117.337C435.267 118.572 433.168 119.19 430.389 119.19C427.603 119.19 424.794 118.669 421.961 117.627L419.732 127.777H432.549C432.549 129.824 431.922 131.419 430.669 132.562C429.422 133.701 427.756 134.27 425.67 134.27C423.584 134.27 421.891 134.077 420.591 133.69C419.299 133.304 418.579 133.051 418.432 132.933L415.843 143.897C416.996 144.015 418.652 144.074 420.811 144.074C424.504 144.074 427.67 143.145 430.309 141.287ZM453.063 150.221H437.657L446.435 112.117C451.187 111.687 457.028 111.472 463.96 111.472C470.898 111.472 475.973 112.286 479.185 113.913C482.407 115.535 484.012 117.981 484.012 121.252C484.012 124.517 482.967 127.176 480.877 129.227C478.788 131.274 475.946 132.627 472.348 133.287C473.167 136.494 474.51 139.394 476.376 141.988C478.112 144.421 479.981 146.024 481.994 146.797C481.275 148.425 480.182 149.595 478.716 150.31C477.258 151.024 475.483 151.381 473.397 151.381C471.305 151.381 469.445 150.887 467.819 149.899C466.186 148.916 464.719 147.514 463.42 145.694C460.687 141.752 459.178 136.668 458.891 130.444H459.391C462.943 130.363 465.606 129.579 467.379 128.091C469.159 126.604 470.048 124.294 470.048 121.163C470.048 117.259 468.009 115.229 463.93 115.073H462.34C461.914 115.073 461.58 115.092 461.341 115.129L453.063 150.221ZM493.081 121.977C491.447 120.967 490.632 119.391 490.632 117.248C490.632 115.1 491.509 113.465 493.264 112.342C495.013 111.225 497.4 110.667 500.42 110.667C502.337 110.667 505.578 110.935 510.136 111.472L515.035 112.052C516.67 112.208 518.333 112.286 520.035 112.286C521.741 112.286 523.17 111.996 524.325 111.416C526.05 112.656 526.913 114.165 526.913 115.943C526.913 117.721 525.931 119.249 523.965 120.527C521.942 121.88 519.637 122.557 517.044 122.557C515.797 122.557 514.168 122.42 512.154 122.146C509.806 128.102 508.626 133.148 508.626 137.283C508.626 141.424 509.925 144.576 512.519 146.741C511.315 148.481 509.829 149.689 508.046 150.366C506.273 151.042 504.053 151.381 501.388 151.381C498.728 151.381 496.571 150.79 494.912 149.609C493.259 148.432 492.434 146.625 492.434 144.187C492.434 141.368 493.393 137.638 495.31 132.998C497.232 128.395 499.629 124.335 502.51 120.817C501.115 120.699 499.701 120.64 498.258 120.64C495.286 120.64 493.561 121.086 493.081 121.977ZM531.443 150.221L535.618 133.166C534.228 122.689 531.083 116.327 526.194 114.082C527.201 113.078 528.519 112.297 530.153 111.738C531.783 111.174 533.586 110.892 535.551 110.892C537.516 110.892 539.242 111.174 540.728 111.738C542.214 112.297 543.436 113.175 544.399 114.372C546.226 116.655 547.136 120.522 547.136 125.973V130.154C550.017 123.349 552.893 118.476 555.774 115.532C558.703 112.52 561.986 111.013 565.634 111.013C567.072 111.013 568.27 111.311 569.229 111.907C570.193 112.509 570.912 113.255 571.391 114.147C567.7 115.457 564.076 118.008 560.524 121.8C556.972 125.592 554.044 130.135 551.748 135.43L547.496 150.221H531.443Z" fill="black"/>
<path d="M121.791 138.138C121.791 138.719 122.348 139.231 122.348 139.803C122.348 139.947 122.41 140.081 122.41 140.229C122.41 140.363 122.523 140.473 122.534 140.599C122.553 140.81 122.591 141.192 122.83 141.367C122.936 141.445 122.924 141.633 122.981 141.729C123.029 141.81 123.081 141.897 123.139 141.974C123.182 142.03 123.124 142.099 123.167 142.155C123.291 142.318 123.285 142.509 123.353 142.682C123.449 142.929 123.556 143.174 123.662 143.422C124.063 144.359 124.703 145.246 125.272 146.144C125.515 146.527 125.762 146.921 126.029 147.302C126.193 147.536 126.328 147.789 126.497 148.017C126.621 148.186 126.649 148.508 126.854 148.641C127.036 148.759 126.996 149.026 127.116 149.175C127.238 149.327 127.311 149.515 127.411 149.674C127.644 150.04 127.838 150.413 128.106 150.776C128.278 151.009 128.503 151.208 128.664 151.447C128.818 151.678 128.907 151.918 129.049 152.151C129.175 152.357 129.356 152.551 129.482 152.75C129.605 152.944 129.778 153.166 129.95 153.345C130.341 153.754 130.588 154.208 131.016 154.612C131.266 154.847 131.691 155.508 132.317 155.508" stroke="#FFC107" stroke-linecap="round"/>
<path d="M119.253 139.875C119.394 139.875 119.587 140.208 119.655 140.291C119.86 140.54 120.168 140.758 120.395 140.999C120.732 141.357 121.012 141.777 121.248 142.163C121.48 142.542 121.81 142.924 121.977 143.315C122.128 143.667 122.574 143.982 122.72 144.324C122.842 144.609 123.131 144.873 123.264 145.159C123.345 145.334 123.446 145.535 123.563 145.701C123.662 145.843 123.765 146.07 123.924 146.19C124.064 146.295 124.167 146.489 124.22 146.614C124.306 146.815 124.513 146.996 124.626 147.193C124.802 147.502 125.06 147.78 125.245 148.082C125.493 148.487 125.973 148.829 126.246 149.228C126.534 149.649 126.944 150.097 127.364 150.478C127.697 150.781 127.957 151.083 128.172 151.417C128.37 151.725 128.622 152.045 128.784 152.362C128.958 152.699 129.272 153.017 129.531 153.337C129.786 153.652 130.037 153.965 130.305 154.278C130.574 154.593 130.926 154.876 131.202 155.183C131.337 155.332 131.687 155.686 131.945 155.762" stroke="#FFC107" stroke-width="4" stroke-linecap="round"/>
<path d="M120.435 132.06C120.736 132.797 120.659 133.523 120.887 134.254C121.006 134.637 121.136 134.994 121.136 135.383C121.136 136.326 121.504 137.346 121.705 138.283C121.813 138.788 121.977 139.311 121.977 139.827C121.977 140.239 121.83 140.821 122.188 141.197C122.474 141.498 122.258 141.976 122.507 142.303C122.659 142.504 122.818 142.941 122.818 143.164C122.818 143.466 123.099 143.758 123.099 144.065C123.099 144.268 123.404 144.804 123.551 145.007C124.177 145.877 124.573 146.767 125.311 147.63C126.764 149.328 128.386 150.965 130.109 152.565C131.046 153.434 131.777 154.363 132.695 155.242C132.962 155.497 133.314 155.732 133.505 156.006C133.692 156.275 134.505 156.909 134.938 157.053C135.507 157.243 135.662 157.807 136.278 158.019C136.777 158.19 137.098 158.544 137.548 158.774C138.102 159.058 138.727 159.349 139.331 159.594C139.89 159.82 140.081 159.668 139.573 159.43C139.033 159.178 138.944 158.552 138.451 158.36C137.985 158.178 137.657 157.641 137.259 157.381C137.038 157.237 136.808 157.053 136.628 156.89C136.509 156.781 136.054 156.698 136.005 156.598C135.672 155.917 133.873 155.358 133.131 154.8C132.359 154.22 131.691 153.572 130.88 152.993C130.072 152.415 129.951 151.545 129.19 150.989C128.921 150.793 128.686 150.295 128.497 150.052C128.241 149.723 127.866 149.433 127.616 149.105C127.022 148.323 126.56 147.493 125.872 146.728C125.492 146.307 124.933 145.672 124.789 145.208C124.662 144.798 124.307 144.207 123.94 143.842C123.567 143.47 123.292 142.676 123.239 142.239C123.166 141.643 122.845 140.964 122.608 140.382C122.024 138.947 121.36 137.593 120.513 136.198C120.249 135.764 119.913 135.312 119.734 134.864C119.664 134.689 119.594 134.512 119.594 134.332C119.594 134.093 119.846 134.785 119.983 135.01C120.821 136.376 121.767 137.713 122.46 139.112C123.107 140.419 123.568 141.735 124.361 143.022C124.938 143.96 125.577 144.932 125.965 145.904C126.808 148.016 128.436 150.258 131.09 151.809C133.865 153.43 136.654 155.058 139.082 156.871C139.427 157.129 139.713 157.406 140.063 157.668C140.288 157.836 140.51 158.012 140.764 158.164C140.932 158.265 141.294 158.592 141.294 158.451C141.294 157.836 139.713 157.025 139.082 156.625C137.919 155.89 136.591 155.254 135.748 154.367C134.495 153.049 133.394 151.689 132.002 150.416C130.9 149.408 129.882 148.363 128.878 147.32C127.87 146.272 126.813 145.28 126.168 144.129C125.801 143.474 125.177 142.857 124.921 142.185C124.616 141.381 124.184 140.595 123.769 139.808C123.036 138.42 122.298 137.089 121.892 135.665C121.711 135.034 121.523 134.417 121.385 133.781C121.359 133.659 121.028 133.191 121.035 133.243C121.154 134.187 121.739 135.164 122.086 136.084C122.797 137.968 123.102 139.867 123.59 141.77C123.938 143.133 124.117 144.529 125.202 145.777C126.662 147.457 128.836 148.831 130.701 150.352C131.395 150.918 131.896 151.56 132.617 152.114C133.505 152.795 134.419 153.461 135.382 154.108C136.568 154.904 137.993 155.54 139.284 156.27C140.159 156.765 141.412 157.709 142.727 157.709" stroke="#FFC107" stroke-width="4" stroke-linecap="round"/>
<path d="M120.949 130.921C121.386 131.885 121.641 132.879 122.179 133.822C122.705 134.744 123.198 135.665 123.322 136.647C123.404 137.297 123.946 137.918 123.982 138.577C124.018 139.221 124.58 139.839 124.638 140.483C124.657 140.696 124.872 140.905 124.948 141.116C125.011 141.292 125.115 141.524 125.258 141.678C125.602 142.052 125.868 142.487 126.155 142.878C126.471 143.309 127.051 143.696 127.28 144.145C127.378 144.339 127.606 144.518 127.735 144.71C127.854 144.887 127.995 145.11 128.163 145.271C128.673 145.76 128.978 146.341 129.539 146.807C129.927 147.131 130.24 147.483 130.541 147.835C130.812 148.152 131.156 148.548 131.524 148.817C131.952 149.13 132.165 149.639 132.713 149.895C133.106 150.079 133.45 150.544 133.674 150.806C133.852 151.013 134.206 151.572 134.64 151.572" stroke="#FFC107" stroke-width="4" stroke-linecap="round"/>
<path d="M134.817 151.555C134.817 152.062 135.486 152.607 136.011 153.001C136.406 153.298 136.765 153.71 137.054 154.049C137.386 154.436 137.928 154.775 138.296 155.146C138.679 155.532 139.262 155.855 139.638 156.246C139.941 156.561 140.428 156.815 140.724 157.141C140.789 157.213 140.871 157.279 140.961 157.341C140.976 157.351 141.192 157.589 141.212 157.559C141.335 157.379 140.779 157.119 140.624 157.014C140.008 156.594 139.235 156.204 138.723 155.733C138.266 155.314 137.518 155.014 137.083 154.597C136.531 154.069 135.842 153.636 135.201 153.151C134.408 152.551 133.391 152.056 132.598 151.455C132.172 151.133 131.636 150.873 131.237 150.538C131.094 150.418 130.928 150.289 130.721 150.208" stroke="#FFC107" stroke-width="4" stroke-linecap="round"/>
<path d="M120.087 129.697C120.087 130.217 120.512 130.851 120.77 131.347C121.002 131.793 121.054 132.289 121.273 132.746C121.608 133.446 121.824 134.152 122.277 134.833C123.024 135.956 123.634 137.131 124.606 138.208C125.609 139.319 126.757 140.432 127.494 141.616C127.957 142.36 128.799 143.057 129.223 143.801C129.525 144.329 130.044 144.842 130.576 145.309C131.647 146.248 132.626 147.271 133.582 148.265C134.473 149.19 135.829 150.014 136.561 150.976C137.108 151.695 138.122 152.349 138.423 153.14C138.649 153.735 139.235 154.355 139.699 154.897C139.942 155.181 140.55 156.385 141.178 156.405C141.409 156.413 141.303 155.906 141.303 155.818" stroke="#FFC107" stroke-width="4" stroke-linecap="round"/>
<path d="M138.039 155.011C137.66 154.762 137.425 154.363 137.279 154.049C137 153.451 136.504 152.832 136.1 152.26C135.435 151.316 134.819 150.315 134.245 149.345C133.753 148.514 132.628 147.797 131.951 147.005C130.762 145.616 129.677 144.136 128.875 142.651C128.546 142.043 128.257 141.458 127.968 140.85C127.707 140.299 127.16 139.811 126.894 139.268C126.368 138.192 125.312 137.219 124.676 136.158C123.946 134.938 123.303 133.606 122.221 132.468C121.083 131.271 120.262 130.057 119.306 128.816C119.076 128.517 119.059 128.239 118.894 127.931C118.757 127.675 119.057 127.114 118.769 126.912C118.681 126.851 118.654 126.529 118.734 126.81C118.93 127.497 119.547 128.079 119.934 128.726C120.518 129.704 121.34 130.644 121.719 131.661C122.506 133.773 123.26 135.85 125.36 137.69C127.102 139.217 128.708 140.786 129.823 142.505C130.376 143.356 131.152 144.166 131.637 145.032C132.053 145.776 132.636 146.426 133.143 147.144C134.016 148.379 135.252 149.499 136.414 150.645C137.731 151.944 139.533 153.086 140.745 154.424C141.207 154.934 141.653 155.457 142.182 155.949C142.406 156.157 142.594 156.699 143.061 156.699" stroke="#FFC107" stroke-width="4" stroke-linecap="round"/>
<path d="M114.631 124.34C113.667 123.699 112.714 123.075 111.785 122.423C110.912 121.81 109.729 121.328 108.764 120.764C107.158 119.825 105.088 119.352 103.401 118.514C103.11 118.37 102.647 118.323 102.329 118.178C101.893 117.98 101.373 117.811 100.877 117.666C99.9084 117.383 99.0157 117.038 98.1014 116.711C97.1984 116.389 96.2854 116.066 95.4235 115.712C94.4047 115.292 93.5284 114.678 92.5494 114.22C91.8054 113.872 91.1228 113.55 90.4673 113.167C90.0017 112.895 89.2717 112.635 88.8901 112.356C88.5229 112.088 86.3513 114.256 86.0159 114.474C85.8505 114.582 85.8405 114.822 85.6724 114.9C85.5208 114.971 85.5726 114.578 85.6724 114.531C85.9234 114.414 86.1504 113.738 86.2472 113.54C86.2556 113.523 86.6012 113.315 86.6819 113.278C86.8853 113.183 87.0909 113.062 87.2497 112.946C87.4019 112.835 88.0087 112.466 88.3222 112.466C88.6808 112.466 88.9691 112.24 89.2966 112.171C89.9408 112.037 90.2036 112.736 90.3061 112.999C90.4716 113.425 90.8887 113.846 91.1613 114.253C91.4203 114.64 91.6053 114.971 92.1147 115.269C92.2573 115.352 92.424 115.436 92.5494 115.527C92.6707 115.616 92.3971 115.237 92.2339 115.162C91.732 114.934 91.0953 114.642 90.4603 114.536C90.1712 114.487 89.9168 114.508 89.6191 114.441C89.2354 114.355 88.8748 114.201 88.5115 114.089C87.7137 113.842 89.0012 114.636 89.1985 114.769C89.8514 115.208 90.7198 115.689 91.638 115.933C92.5578 116.177 93.3713 116.574 94.3159 116.814C95.0291 116.995 95.6685 117.096 96.3979 117.191C96.7632 117.238 97.1957 117.521 97.4985 117.645C97.9728 117.84 98.4592 117.959 98.9707 118.108C99.1245 118.153 99.406 118.359 99.209 118.17C98.8711 117.846 98.4329 117.602 97.9752 117.334C97.0179 116.775 95.9042 116.334 94.9468 115.785C94.5125 115.536 93.8483 115.278 93.5308 114.974C92.9987 114.465 91.8417 114.135 91.4418 113.589C91.2354 113.308 91.1665 112.967 90.909 112.704C90.8496 112.643 90.6602 112.425 90.895 112.589C91.4716 112.992 92.0741 113.395 92.7386 113.749C93.8101 114.319 95.0851 114.857 96.2788 115.339C96.9152 115.595 97.6921 115.808 98.1785 116.158C98.6821 116.52 99.4709 116.876 100.12 117.15C101.655 117.797 103.182 118.522 104.943 118.957C105.92 119.198 106.811 119.547 107.761 119.825C108.93 120.167 110.085 120.492 111.168 120.931C113.088 121.709 114.925 122.498 116.776 123.324C117.759 123.763 118.786 124.185 119.875 124.529C120.396 124.694 120.808 125.152 121.445 125.152" stroke="#FFC107" stroke-width="4" stroke-linecap="round"/>
<path d="M118.558 124.013C118.558 124.598 119.648 125.056 120.243 125.491C120.948 126.006 121.267 126.453 121.573 127.079C121.754 127.449 121.573 127.968 121.592 128.349C121.625 129.007 122.382 129.66 122.604 130.309C122.915 131.22 123.591 132.015 124.121 132.881C125.098 134.48 126.499 135.984 127.661 137.513C128.297 138.349 128.685 139.254 129.309 140.074C129.838 140.77 130.353 141.689 130.714 142.428C131.069 143.155 132.072 143.842 132.363 144.607C132.662 145.394 133.218 146.256 133.899 146.972C135.383 148.533 136.532 150.17 137.907 151.778C138.471 152.438 138.962 153.015 139.462 153.672C139.629 153.891 141.003 155.326 140.792 154.647C140.516 153.759 139.429 153.008 138.638 152.282C138.041 151.734 137.382 150.419 136.577 150.015C135.498 149.475 134.918 148.447 134.479 147.705C133.905 146.735 132.943 145.826 132.307 144.859C130.936 142.776 128.711 140.836 127.586 138.684C127.102 137.758 126.244 136.923 125.713 135.991C125.082 134.884 124.831 133.761 124.215 132.641C123.191 130.779 122.117 128.942 121.929 126.969C121.895 126.607 121.592 126.304 121.592 125.907C121.592 125.356 121.557 127.01 121.592 127.561C121.725 129.62 123.791 131.712 124.552 133.714C125.558 136.36 128.144 138.742 129.609 141.312C130.42 142.734 131.816 144.037 132.456 145.494C132.982 146.688 133.72 148.04 134.479 149.194C135.607 150.908 137.038 153.025 138.788 154.559" stroke="#FFC107" stroke-width="4" stroke-linecap="round"/>
<path d="M136.41 151.111C135.89 150.769 135.67 150.314 135.186 149.951C134.705 149.589 134.058 148.939 133.877 148.491C133.647 147.918 133.303 147.344 132.888 146.81C132.724 146.6 132.776 146.258 132.696 146.024C132.594 145.726 132.312 145.461 132.312 145.159C132.312 145.012 132.188 144.731 132.084 144.598C131.838 144.282 131.791 143.763 131.415 143.517C130.941 143.205 130.933 142.534 130.583 142.165C129.786 141.327 129.473 140.322 128.697 139.491C128.272 139.035 128.182 138.513 127.829 138.047C127.56 137.694 127.513 137.212 127.188 136.904C126.958 136.685 126.891 136.423 126.797 136.176C126.734 136.011 126.492 135.898 126.427 135.727C126.34 135.497 126.015 134.781 125.715 134.641C125.309 134.451 125.223 133.859 124.982 133.593C124.816 133.409 124.81 133.19 124.691 132.994C124.552 132.768 124.309 132.562 124.25 132.321C124.053 131.515 123.371 130.733 123.218 129.925C123.08 129.198 122.071 128.536 121.937 127.829C121.869 127.47 121.553 127.108 121.553 126.743C121.553 126.569 121.553 126.394 121.553 126.219C121.553 125.875 121.666 126.696 121.752 126.818C122.886 128.428 123.255 130.273 124.05 131.946C124.838 133.603 125.473 135.34 126.548 136.945C126.696 137.167 126.992 138.035 126.925 137.328C126.844 136.471 126.089 135.661 125.772 134.828C125.586 134.338 125.135 133.885 124.911 133.402C124.676 132.893 124.46 132.371 124.186 131.871C123.674 130.94 123.269 129.855 123.083 128.877C123.002 128.451 122.705 128.048 122.705 127.608C122.705 127.507 122.488 127.042 122.456 127.126C122.245 127.682 123.124 128.53 123.446 129.027C123.899 129.728 124.319 130.435 124.755 131.139C125.411 132.2 125.881 133.348 126.164 134.462C126.458 135.623 126.886 136.794 127.445 137.919C127.619 138.27 127.859 138.62 128.056 138.967C128.161 139.15 128.296 139.494 128.597 139.582" stroke="#FFC107" stroke-width="4" stroke-linecap="round"/>
<path d="M123.222 131.913C123.222 130.913 122.239 129.855 121.581 128.941C120.903 127.999 120.863 126.935 120.128 125.969C119.866 125.624 119.832 125.004 119.832 124.624C119.832 124.168 119.152 123.737 119.106 123.28C119.064 122.858 118.851 123.321 118.864 123.531C118.891 123.992 119.204 124.544 119.469 124.978C119.831 125.57 120.228 126.095 120.559 126.676" stroke="#FFC107" stroke-width="4" stroke-linecap="round"/>
<path d="M122.012 126.676C122.012 125.988 121.163 125.43 121.043 124.836C120.986 124.554 120.534 123.438 120.196 123.28C120.022 123.198 120.075 123.059 120.075 122.941C120.075 122.759 120.097 123.311 120.196 123.484C120.477 123.978 120.514 124.591 120.936 125.049C121.26 125.401 121.528 126.961 121.528 125.796C121.528 125.284 121.197 124.515 120.855 124.066C120.476 123.568 120.778 123.099 119.954 122.713C119.116 122.322 118.006 122.105 117.048 121.793C116.114 121.49 114.393 121.006 113.833 120.449C113.568 120.186 111.924 119.948 111.357 119.773C110.17 119.405 108.962 118.986 107.833 118.609C106.82 118.271 105.829 117.938 104.712 117.752C103.711 117.585 102.632 116.94 101.671 116.659C99.6889 116.08 97.9953 115.028 95.9807 114.505C95.131 114.284 93.5602 113.995 92.9 113.687C92.3694 113.439 90.3743 113.655 92.5906 113.655C93.4961 113.655 94.8262 114.199 95.7386 114.363C97.0348 114.596 98.0586 115.07 99.3036 115.322C101.439 115.754 103.799 116.323 105.801 116.981C107.179 117.434 108.722 117.697 110.146 118.114C110.931 118.343 112.678 118.978 113.537 119.034C114.46 119.094 115.832 119.904 116.685 120.197C117.588 120.508 118.62 121.043 119.469 121.44C119.558 121.481 120.245 122.135 120.061 121.652C119.969 121.409 119.582 120.846 119.241 120.732C118.474 120.476 118.223 119.78 117.411 119.49C116.483 119.158 115.114 118.709 114.317 118.294C112.962 117.591 110.929 117.496 109.447 116.918C108.831 116.678 108.142 116.679 107.59 116.415C107.037 116.151 106.345 115.986 105.653 115.912C103.932 115.729 102.266 114.985 100.46 114.929C99.036 114.885 97.7395 114.505 96.344 114.505C95.2861 114.505 94.4957 114.363 93.4382 114.363" stroke="#FFC107" stroke-width="4" stroke-linecap="round"/>
<path d="M115.883 118.344C114.831 117.972 113.793 117.506 112.875 117.026C111.519 116.316 109.399 115.878 107.78 115.405C105.175 114.644 102.295 114.226 99.5011 113.818C98.078 113.61 96.5924 113.522 95.1321 113.427C94.0893 113.359 93.1482 113.209 92.1582 113.002C91.8967 112.948 90.2558 112.687 91.0137 112.861C91.8271 113.047 92.5428 113.375 93.3277 113.598C94.3488 113.888 95.5206 114.079 96.6023 114.282C97.7302 114.493 98.8454 114.68 99.9605 114.921C101.634 115.283 103.194 115.807 104.889 116.137C106.135 116.38 107.865 116.458 108.832 116.996C110.267 117.795 112.153 118.304 113.995 118.695C114.356 118.772 114.804 119.15 115.014 119.33C115.461 119.714 116.162 120.031 116.718 120.365C117.555 120.869 117.917 121.503 118.447 122.123C118.995 122.764 119.595 123.427 120.243 124.037C120.553 124.328 120.885 124.663 121.07 124.989C121.294 125.382 121.694 125.736 121.897 126.122C122.174 126.647 122.765 127.124 122.95 127.665C123.204 128.408 123.609 129.134 123.885 129.877C124.346 131.114 125.03 132.355 125.623 133.568C126.202 134.752 126.666 135.919 127.043 137.132C127.316 138.011 127.591 138.971 128.179 139.788C128.451 140.166 128.567 140.583 128.814 140.98C129.013 141.299 129.352 141.668 129.416 142.005C129.528 142.595 130.2 143.234 130.543 143.792C131.065 144.64 131.726 145.465 132.239 146.311C133.092 147.717 134.482 149.01 135.647 150.335C136.191 150.953 136.878 152.208 137.986 152.532" stroke="#FFC107" stroke-width="4" stroke-linecap="round"/>
<path d="M121.446 124.848C120.756 123.991 120.038 123.155 119.266 122.343C119 122.063 118.89 121.608 118.89 121.288C118.89 120.887 118.595 120.448 118.447 120.058C118.417 119.98 118.34 119.637 118.255 119.594C117.863 119.393 118.555 120.182 118.806 120.448C119.356 121.033 119.965 121.654 120.243 122.304C120.863 123.753 121.499 125.241 122.19 126.654C122.83 127.963 120.236 124.178 119.458 122.895C118.879 121.939 118.273 120.926 117.537 120.014C117.47 119.932 116.847 119.309 116.793 119.594C116.679 120.194 116.759 120.815 116.668 121.42C116.549 122.208 116.577 123.046 116.643 123.837C116.692 124.427 117.063 124.977 117.086 125.57C117.09 125.698 117.148 126.387 117.378 126.454C117.634 126.529 117.39 126.119 117.386 125.951C117.377 125.549 117.231 125.171 117.086 124.779C116.782 123.962 116.625 123.122 116.258 122.313C116.197 122.178 115.857 121.512 115.916 121.615C116.312 122.31 116.804 122.98 117.169 123.681C117.588 124.485 117.838 125.376 118.89 125.99" stroke="#FFC107" stroke-width="4" stroke-linecap="round"/>
<path d="M122.198 125.902C120.473 124.834 119.642 123.153 119.642 121.728C119.642 121.027 119.3 120.365 118.773 119.75C118.52 119.455 117.797 118.835 117.353 118.627C116.85 118.392 116.036 118.374 115.432 118.256" stroke="#FFC107" stroke-width="4" stroke-linecap="round"/>
<path d="M120.545 123.793C120.545 123.179 119.555 122.662 119.333 122.079C119.096 121.455 118.515 120.843 118.139 120.238C117.764 119.637 116.963 119.151 116.184 118.696C115.798 118.47 115.355 118.306 114.906 118.124C114.365 117.906 112.546 117.154 111.974 117.377" stroke="#FFC107" stroke-width="4" stroke-linecap="round"/>
<path d="M118.138 123.881C118.138 123.607 118.269 123.417 118.405 123.158C118.579 122.829 118.439 122.378 118.439 122.035C118.439 121.444 118.286 120.682 117.954 120.121C117.557 119.451 117.036 118.722 116.183 118.168C115.934 118.006 115.621 117.678 115.281 117.572C114.867 117.444 114.319 117.442 113.928 117.289" stroke="#FFC107" stroke-width="4" stroke-linecap="round"/>
<path d="M118.589 121.596C118.589 121.087 117.912 120.692 117.445 120.273C116.74 119.639 115.978 119.103 115.064 118.569C113.6 117.713 111.833 116.618 109.868 116.235" stroke="#FFC107" stroke-width="4" stroke-linecap="round"/>
<path d="M89.2306 115.353C88.7252 115.317 88.9147 113.966 88.9147 113.757C88.9147 113.376 88.8924 112.965 89.6518 113.261" stroke="#FFC107" stroke-width="4" stroke-linecap="round"/>
<path d="M112.189 116.4C111.754 116.315 111.449 116.032 111.077 115.907C110.377 115.674 109.712 115.433 108.983 115.23C107.923 114.936 106.841 114.644 105.741 114.396C104.148 114.036 102.484 113.719 100.821 113.476C99.1736 113.235 97.4688 112.953 95.7606 112.953C94.6316 112.953 93.5643 112.83 92.4433 112.83C92.1126 112.83 90.2872 113.173 90.0973 113.062C89.6139 112.78 91.1323 112.461 91.3903 112.461C91.9547 112.461 92.432 112.372 93.0225 112.447C93.8233 112.548 94.6398 112.527 95.4446 112.632C97.0756 112.843 98.656 112.882 100.242 113.233C101.31 113.47 102.379 113.637 103.471 113.815C104.341 113.956 105.203 114.155 106.081 114.259C106.805 114.346 107.502 114.607 108.24 114.673C108.983 114.74 109.786 114.934 110.498 115.08C111.682 115.322 112.79 115.693 113.956 115.955C114.73 116.13 115.397 116.453 116.032 116.742C116.384 116.902 117.193 117.193 117.243 117.446C117.306 117.756 117.953 117.928 118.092 118.212C118.285 118.608 118.827 118.805 119.139 119.17" stroke="#FFC107" stroke-width="4" stroke-linecap="round"/>
<path d="M119.771 121.324C119.771 120.899 119.984 120.234 119.689 119.847C119.322 119.364 118.886 118.95 118.425 118.493C117.968 118.038 117.22 117.673 116.588 117.337C115.948 116.997 115.215 116.523 114.295 116.523" stroke="#FFC107" stroke-width="4" stroke-linecap="round"/>
<path d="M118.191 120.154C118.478 120.134 118.274 118.72 118.168 118.54C117.937 118.151 117.653 117.802 117.144 117.504C116.667 117.226 115.985 116.709 115.348 116.585" stroke="#FFC107" stroke-width="4" stroke-linecap="round"/>
<path d="M106.923 117.077C106.689 117.077 106.547 116.934 106.315 116.879C105.878 116.775 105.324 116.453 104.945 116.277C104.47 116.056 103.875 115.896 103.342 115.723C102.89 115.576 102.506 115.342 102.079 115.169C100.747 114.63 99.7583 113.814 98.2877 113.384C96.339 112.814 94.1812 112.325 92.0159 112.043C91.4571 111.971 90.513 111.854 90.0502 112.105C89.4339 112.439 89.0205 112.741 89.0205 113.261" stroke="#FFC107" stroke-width="4" stroke-linecap="round"/>
<path d="M141.288 157.88C141.19 156.964 139.107 156.366 138.915 155.415C138.88 155.241 138.237 154.902 138.11 154.567C137.949 154.145 137.605 153.683 137.216 153.326C136.829 152.971 137.023 152.542 136.748 152.179C136.477 151.823 136.179 151.261 136.03 150.87C135.619 149.788 135.179 148.481 134.17 147.523C132.606 146.038 132.321 144.225 130.875 142.704C129.758 141.529 129.22 140.142 128.429 138.894C128.18 138.502 128.047 137.795 127.697 137.473C127.161 136.982 127.215 136.201 126.642 135.77C125.581 134.972 125.949 133.608 125.075 132.689C124.266 131.837 124.525 130.597 123.831 129.684C123.509 129.261 123.217 128.53 123.113 128.075C123.045 127.778 123.059 127.543 122.893 127.253C122.726 126.96 123.029 127.929 123.098 128.058C124.475 130.613 126.156 133.099 127.712 135.625C128.67 137.181 129.776 138.748 130.875 140.247C132.094 141.91 132.575 143.837 133.174 145.588C133.771 147.331 134.532 149.349 135.898 150.947C136.475 151.62 137.597 152.827 137.597 153.566" stroke="#FFC107" stroke-width="4" stroke-linecap="round"/>
<path d="M139.969 154.028C139.969 153.457 139.402 152.961 139.193 152.41C139.014 151.94 139.09 151.391 138.709 150.947C138.455 150.649 138.35 149.727 137.992 149.56C137.722 149.434 137.169 148.493 137.055 148.259C136.473 147.069 135.023 145.991 134.433 144.784C133.89 143.673 132.324 142.589 132.324 141.394" stroke="#FFC107" stroke-width="4" stroke-linecap="round"/>
<path d="M132.324 141.394C132.324 142.562 132.956 143.404 133.774 144.467C134.473 145.374 134.881 146.531 135.751 147.369C137.353 148.911 137.299 150.966 138.915 152.522C139.443 153.031 140.526 153.991 140.745 154.567C140.869 154.892 141.884 156.108 141.492 155.192C140.759 153.478 139.199 151.798 138.373 150.108C137.787 148.91 136.399 147.692 136 146.41C135.837 145.885 135.185 144.471 134.492 144.116C133.014 143.36 136.059 146.222 136.937 147.249C138.882 149.522 140.651 151.857 142.473 154.105C142.666 154.344 143.004 154.652 143.118 154.884C143.284 155.225 143.089 154.605 142.869 154.525C142.402 154.354 141.702 152.995 141.551 152.642" stroke="#FFC107" stroke-width="4" stroke-linecap="round"/>
<path d="M136.015 150.793C135.524 150.183 134.961 149.228 134.961 148.558C134.961 147.829 133.906 147.013 133.906 146.247C133.906 145.527 133.047 144.655 132.647 143.979C132.163 143.162 131.948 142.362 131.329 141.548C130.647 140.651 130.325 139.446 129.952 138.466C129.562 137.44 128.437 136.469 128.121 135.453C127.902 134.747 127.329 133.704 126.73 133.074C125.823 132.12 125.28 131.066 124.621 130.026C124.38 129.646 123.804 129.422 123.64 128.991C123.357 128.247 123.802 129.834 124.021 130.146C125.038 131.599 125.749 133.074 126.672 134.537C127.356 135.623 127.68 136.592 128.165 137.696C128.487 138.426 128.769 139.634 129.425 140.281C130.24 141.085 130.365 142.044 131.138 142.858C132.1 143.869 132.439 145.114 133.496 146.085C133.88 146.437 134.268 147.029 134.492 147.437C134.95 148.27 135.702 149.017 136.22 149.834C136.434 150.171 136.572 150.57 137.011 150.827C137.084 150.869 137.07 150.19 137.07 150.022" stroke="#FFC107" stroke-width="4" stroke-linecap="round"/>
<path d="M137.07 149.406C137.07 147.364 135.786 145.56 134.375 143.705C132.846 141.695 131.566 139.841 130.069 137.842C129.319 136.839 128.506 135.858 128.122 134.846C127.799 133.998 127.265 132.946 126.584 132.149C125.815 131.25 125.427 130.281 124.739 129.376C124.14 128.588 124.053 127.377 123.098 126.68C122.365 126.144 121.508 124.769 121.238 124.06C121.099 123.692 120.532 123.112 120.257 122.751C119.902 122.283 119.886 121.918 119.657 121.45C119.535 121.2 119.435 121.032 119.408 120.748C119.37 120.35 118.83 120.299 119.408 120.679C120.075 121.118 120.203 121.73 120.843 122.211C121.916 123.017 121.861 124.264 122.513 125.216C123.381 126.484 123.667 127.944 124.358 129.256C124.73 129.962 124.76 130.729 125.207 131.447C125.61 132.095 126.306 132.963 126.511 133.622C126.959 135.064 128.216 136.674 129.425 137.936C130.78 139.349 131.464 140.963 132.325 142.472" stroke="#FFC107" stroke-width="4" stroke-linecap="round"/>
<path d="M119.604 120.047C119.604 120.214 119.93 120.375 120.053 120.536C120.222 120.758 120.556 121.023 120.58 121.27C120.627 121.771 120.968 122.259 120.998 122.755C121.09 124.266 121.57 125.695 122.392 127.138" stroke="#FFC107" stroke-width="4" stroke-linecap="round"/>
<path d="M121.138 124.774C121.138 126.651 123.261 128.448 124.314 130.171C124.844 131.039 125.386 131.898 125.817 132.797C126.219 133.637 126.687 134.661 127.552 135.369" stroke="#FFC107" stroke-width="4" stroke-linecap="round"/>
</g>
</g>
<defs>
<filter id="filter0_d_22_1633" x="-8" y="15" width="596" height="227" filterUnits="userSpaceOnUse" color-interpolation-filters="sRGB">
<feFlood flood-opacity="0" result="BackgroundImageFix"/>
<feColorMatrix in="SourceAlpha" type="matrix" values="0 0 0 0 0 0 0 0 0 0 0 0 0 0 0 0 0 0 127 0" result="hardAlpha"/>
<feOffset dy="4"/>
<feGaussianBlur stdDeviation="4"/>
<feComposite in2="hardAlpha" operator="out"/>
<feColorMatrix type="matrix" values="0 0 0 0 0 0 0 0 0 0 0 0 0 0 0 0 0 0 0.15 0"/>
<feBlend mode="normal" in2="BackgroundImageFix" result="effect1_dropShadow_22_1633"/>
<feBlend mode="normal" in="SourceGraphic" in2="effect1_dropShadow_22_1633" result="shape"/>
</filter>
<filter id="filter1_d_22_1633" x="244.256" y="159.216" width="267.199" height="49.4201" filterUnits="userSpaceOnUse" color-interpolation-filters="sRGB">
<feFlood flood-opacity="0" result="BackgroundImageFix"/>
<feColorMatrix in="SourceAlpha" type="matrix" values="0 0 0 0 0 0 0 0 0 0 0 0 0 0 0 0 0 0 127 0" result="hardAlpha"/>
<feOffset/>
<feGaussianBlur stdDeviation="2.5"/>
<feColorMatrix type="matrix" values="0 0 0 0 0.266667 0 0 0 0 0.266667 0 0 0 0 0.266667 0 0 0 0.5 0"/>
<feBlend mode="normal" in2="BackgroundImageFix" result="effect1_dropShadow_22_1633"/>
<feBlend mode="normal" in="SourceGraphic" in2="effect1_dropShadow_22_1633" result="shape"/>
</filter>
<filter id="filter2_d_22_1633" x="249.256" y="164.216" width="269.199" height="47.4201" filterUnits="userSpaceOnUse" color-interpolation-filters="sRGB">
<feFlood flood-opacity="0" result="BackgroundImageFix"/>
<feColorMatrix in="SourceAlpha" type="matrix" values="0 0 0 0 0 0 0 0 0 0 0 0 0 0 0 0 0 0 127 0" result="hardAlpha"/>
<feOffset dx="8" dy="4"/>
<feGaussianBlur stdDeviation="2"/>
<feComposite in2="hardAlpha" operator="out"/>
<feColorMatrix type="matrix" values="0 0 0 0 0 0 0 0 0 0 0 0 0 0 0 0 0 0 0.75 0"/>
<feBlend mode="normal" in2="BackgroundImageFix" result="effect1_dropShadow_22_1633"/>
<feBlend mode="normal" in="SourceGraphic" in2="effect1_dropShadow_22_1633" result="shape"/>
</filter>
<clipPath id="clip0_22_1633">
<rect width="580" height="230" fill="white"/>
</clipPath>
<clipPath id="clip1_22_1633">
<rect width="580" height="211" fill="white" transform="translate(0 19)"/>
</clipPath>
</defs>
</svg>
