<svg width="866" height="620" viewBox="0 0 866 620" fill="none" xmlns="http://www.w3.org/2000/svg">
<g clip-path="url(#clip0_21_826)">
<rect width="866" height="620" fill="white"/>
<g clip-path="url(#clip1_21_826)" filter="url(#filter0_d_21_826)">
<mask id="mask0_21_826" style="mask-type:luminance" maskUnits="userSpaceOnUse" x="0" y="0" width="847" height="633">
<path d="M847 0H0V633H847V0Z" fill="white"/>
</mask>
<g mask="url(#mask0_21_826)">
<path d="M229.932 130.706C222.792 145.706 223.632 158.941 233.292 177.471C244.212 198.647 243.792 220.707 232.452 236.589C223.212 249.825 222.792 250.706 229.932 279.824C236.232 305.413 237.072 306.295 234.972 286.884C233.292 270.119 235.392 256.884 243.372 239.236C256.812 208.354 256.812 199.53 243.372 172.177C237.072 159.824 233.712 144.823 234.552 136C237.072 117.47 236.652 116.588 229.932 130.706Z" fill="#FFC107"/>
<g filter="url(#filter1_d_21_826)">
<g filter="url(#filter2_d_21_826)">
<path d="M404.618 472.474C405.622 469.095 406.123 465.831 406.123 462.68C406.123 459.529 406.023 457.084 405.825 455.341C405.616 453.582 405.282 452.033 404.822 450.696C403.819 447.757 402.315 446.287 400.309 446.287C397.833 446.287 395.592 447.81 393.586 450.854C391.444 454.004 390.373 458.06 390.373 463.024C390.373 466.173 391.027 468.962 392.333 471.391C393.638 473.802 395.294 476.134 397.3 478.387C399.306 480.638 401.443 482.891 403.709 485.144C405.987 487.397 408.129 489.879 410.134 492.588C414.742 498.783 417.046 506.042 417.046 514.366C417.046 519.998 416.163 525.207 414.397 529.994C412.621 534.78 410.265 538.925 407.33 542.426C400.904 550.081 393.445 553.91 384.951 553.91C378.067 553.91 372.854 552.026 369.312 548.26C365.771 544.477 364 539.716 364 533.979C364 523.72 366.371 517.296 371.114 514.71C372.451 513.917 374.138 513.521 376.176 513.521C378.223 513.521 380.417 514.261 382.757 515.738C381.682 520.349 381.143 524.74 381.143 528.912C381.143 537.922 383.05 542.426 386.864 542.426C389.34 542.426 391.596 540.904 393.633 537.86C395.67 534.816 396.689 531.578 396.689 528.145C396.689 524.714 396.036 521.758 394.73 519.276C393.435 516.794 391.815 514.569 389.872 512.598C387.929 510.627 385.84 508.682 383.604 506.764C381.368 504.864 379.278 502.558 377.335 499.847C372.791 493.652 370.519 485.602 370.519 475.694C370.519 469.27 371.454 463.552 373.324 458.535C375.194 453.52 377.633 449.324 380.642 445.944C386.659 439.081 393.362 435.649 400.747 435.649C408.144 435.649 413.629 437.505 417.202 441.218C420.775 444.933 422.562 449.948 422.562 456.265C422.562 461.774 421.292 466.279 418.754 469.781C416.549 472.703 414.11 474.163 411.435 474.163C408.761 474.163 406.488 473.599 404.618 472.474ZM467.506 524.502C468.77 527.213 469.401 530.768 469.401 535.167C469.401 541.238 468.064 545.885 465.39 549.105C462.716 552.308 459.273 553.91 455.063 553.91C452.66 553.91 449.62 553.461 445.942 552.563C438.713 550.645 433.996 549.686 431.792 549.686C429.587 549.686 428.052 549.774 427.184 549.951C426.317 550.109 425.179 550.302 423.768 550.53L436.101 439.027H479.337C479.337 445.891 478.349 451.126 476.375 454.734C474.401 458.342 471.475 460.147 467.6 460.147C463.724 460.147 459.811 458.623 455.862 455.579L452.76 485.144H470.608C470.608 491.11 469.742 495.756 468.007 499.082C466.263 502.408 463.938 504.071 461.034 504.071C458.119 504.071 455.763 503.508 453.966 502.382C452.158 501.256 451.156 500.525 450.957 500.191L447.337 532.106C448.946 532.457 451.254 532.634 454.264 532.634C459.414 532.634 463.828 529.923 467.506 524.502ZM522.667 553.91C514.1 553.91 509.42 543.658 508.626 523.156H491.372C490.035 528.348 488.896 533.196 487.956 537.702L485.354 550.53H471.314L502.906 439.027H524.469L528.684 521.125C529.353 532.95 531.024 540.614 533.699 544.115C531.756 550.645 528.079 553.91 522.667 553.91ZM499.991 489.368L494.475 510.83H508.312L507.122 467.406V462.838L499.991 489.368ZM560.073 550.53H538.604L550.843 439.529C557.467 438.298 565.605 437.682 575.258 437.682C584.922 437.682 591.994 440.049 596.477 444.783C600.959 449.499 603.199 456.618 603.199 466.138C603.199 475.659 601.742 483.402 598.827 489.368C595.923 495.334 591.964 499.276 586.949 501.194C588.088 510.539 589.957 518.985 592.559 526.535C594.972 533.628 597.584 538.3 600.394 540.552C599.391 545.286 597.866 548.7 595.819 550.795C593.781 552.871 591.311 553.91 588.406 553.91C585.491 553.91 582.9 552.475 580.633 549.607C578.356 546.738 576.314 542.655 574.506 537.358C570.703 525.866 568.598 511.058 568.191 492.932H568.896C573.848 492.703 577.557 490.415 580.022 486.068C582.498 481.739 583.736 475.016 583.736 465.901C583.736 454.514 580.895 448.601 575.211 448.161H573.001C572.406 448.161 571.942 448.214 571.607 448.32L560.073 550.53ZM660.163 515.554C661.897 517.701 662.764 521.054 662.764 525.612C662.764 530.169 662.179 534.059 661.009 537.279C659.839 540.481 658.121 543.324 655.853 545.806C650.974 551.103 644.273 553.751 635.748 553.751C627.223 553.751 620.636 550.002 615.987 542.506C611.338 535.009 609.014 524.618 609.014 511.33C609.014 492.517 611.923 475.967 617.742 461.677C622.15 451.083 628.299 443.533 636.187 439.027C640.271 436.776 644.319 435.649 648.331 435.649C652.343 435.649 655.587 436.098 658.063 436.996C660.529 437.892 662.701 439.247 664.582 441.06C668.656 445.002 670.694 450.124 670.694 456.423C670.694 462.178 669.09 467.194 665.883 471.47C662.937 475.29 660.262 477.199 657.86 477.199C655.446 477.199 653.738 476.917 652.735 476.354C653.006 472.306 653.142 468.962 653.142 466.323C653.142 463.665 653.111 461.378 653.048 459.46C652.975 457.558 652.771 455.703 652.437 453.89C651.769 449.719 650.416 447.633 648.379 447.633C646.341 447.633 644.304 449.245 642.267 452.464C640.219 455.667 638.328 459.97 636.594 465.373C632.645 477.656 630.67 491.066 630.67 505.602C630.67 512.572 631.841 518.062 634.181 522.074C636.521 526.069 640.199 528.066 645.213 528.066C648.963 528.066 652.61 525.981 656.151 521.811C657.687 520.015 659.024 517.929 660.163 515.554ZM708.505 537.86C708.505 529.976 709.443 518.149 711.312 502.382H696.472L690.956 550.53H669.988L682.729 439.027H703.885L698.07 488.866H712.908L718.431 439.027H739.599C738.661 447.37 737.59 456.213 736.386 465.557L732.97 493.09C730.429 514.49 729.162 529.861 729.162 539.207C729.162 543.042 729.533 546.026 730.275 548.155C726.929 551.992 723.303 553.91 719.383 553.91C715.477 553.91 712.684 552.334 711.018 549.184C709.345 546.035 708.505 542.26 708.505 537.86Z" fill="#FFC107"/>
</g>
</g>
<path d="M100.8 535.712V550.008C100.8 552.794 100.8 554.188 100.954 555.357C102.017 563.434 108.373 569.79 116.45 570.854C117.62 571.008 119.013 571.008 121.8 571.008V571.008V571.008C124.586 571.008 125.98 571.008 127.149 570.854C135.226 569.79 141.582 563.434 142.646 555.357C142.8 554.188 142.8 552.794 142.8 550.008V535.712V521.418C142.8 518.632 142.8 517.238 142.646 516.069C141.582 507.992 135.226 501.636 127.149 500.572C125.98 500.418 124.586 500.418 121.8 500.418V500.418V500.418C119.013 500.418 117.62 500.418 116.45 500.572C108.373 501.636 102.017 507.992 100.954 516.069C100.8 517.238 100.8 518.632 100.8 521.418V535.712Z" fill="black"/>
<path d="M120.545 498L116 503.556V542.444L120.545 548H161.455L166 542.444V503.556L161.455 498H120.545Z" fill="black" stroke="black"/>
<path d="M47.5 620V491V490H53L116 403.5L244.5 538V619.5L47.5 620Z" fill="#FFC107" stroke="#FFC107"/>
</g>
<path d="M343.652 277.61C360.821 277.61 369.406 287.64 369.406 307.699C369.406 318.719 367.264 327.54 362.982 334.162C358.777 340.767 352.995 344.07 345.637 344.07C342.211 344.07 339.165 342.443 336.498 339.189C335.233 337.804 334.182 336.184 333.344 334.331C338.464 334.331 342.372 331.746 345.068 326.574C347.764 321.418 349.112 313.797 349.112 303.711C349.112 293.609 346.1 288.558 340.075 288.558H337.549C337.131 288.558 336.746 288.614 336.396 288.727L324.307 393.663H301.489L314.423 279.689C321.918 278.528 327.84 277.892 332.191 277.779C336.532 277.666 340.352 277.61 343.652 277.61ZM391.479 393.663H368.982L381.8 279.35C388.74 278.061 397.27 277.417 407.393 277.417C417.525 277.417 424.937 279.857 429.628 284.74C434.329 289.605 436.68 296.944 436.68 306.756C436.68 316.552 435.152 324.528 432.095 330.682C429.049 336.821 424.898 340.881 419.642 342.862C420.839 352.481 422.8 361.181 425.525 368.963C428.056 376.263 430.791 381.072 433.731 383.391C432.679 388.274 431.083 391.786 428.942 393.929C426.81 396.071 424.221 397.143 421.175 397.143C418.119 397.143 415.403 395.661 413.028 392.696C410.644 389.747 408.503 385.542 406.605 380.081C402.614 368.255 400.41 353.004 399.991 334.331H400.721C405.908 334.089 409.797 331.737 412.386 327.274C414.985 322.812 416.284 315.883 416.284 306.49C416.284 294.777 413.306 288.687 407.349 288.22H405.028C404.405 288.22 403.918 288.276 403.568 288.388L391.479 393.663ZM443.089 351.2C443.089 329.273 446.52 311.412 453.381 297.621C460.672 282.654 470.657 275.168 483.34 275.168C492.527 275.168 499.433 278.85 504.056 286.214C508.679 293.577 510.991 305.032 510.991 320.58C510.991 344.249 507.346 362.986 500.056 376.794C492.844 390.36 483.174 397.143 471.047 397.143C461.586 397.143 454.559 393.227 449.965 385.398C445.381 377.568 443.089 366.168 443.089 351.2ZM470.726 315.191C467.572 336.072 465.995 354.745 465.995 371.212C465.995 375.158 466.399 378.405 467.207 380.951C468.015 383.512 469.489 384.794 471.631 384.794C473.762 384.794 475.495 383.948 476.828 382.256C478.162 380.58 479.354 377.825 480.405 373.99C482.089 367.739 483.719 357.968 485.295 344.675C486.873 331.399 487.729 322.006 487.865 316.496C488.002 310.986 488.07 306.144 488.07 301.97C488.07 297.782 487.685 294.358 486.917 291.7C486.147 289.025 484.731 287.687 482.668 287.687C480.595 287.687 478.858 288.735 477.456 290.829C474.867 294.777 472.623 302.897 470.726 315.191ZM557.242 277.61C574.411 277.61 582.995 287.64 582.995 307.699C582.995 318.719 580.859 327.54 576.586 334.162C572.382 340.767 566.6 344.07 559.242 344.07C555.806 344.07 552.755 342.443 550.088 339.189C548.832 337.804 547.782 336.184 546.935 334.331C552.054 334.331 555.962 331.746 558.658 326.574C561.354 321.418 562.702 313.797 562.702 303.711C562.702 293.609 559.69 288.558 553.665 288.558H551.14C550.721 288.558 550.337 288.614 549.986 288.727L537.898 393.663H515.093L528.014 279.689C535.518 278.528 541.44 277.892 545.781 277.779C550.132 277.666 553.952 277.61 557.242 277.61ZM628.4 366.861C629.733 369.648 630.4 373.305 630.4 377.834C630.4 384.1 628.998 388.885 626.195 392.188C623.392 395.492 619.786 397.143 615.377 397.143C612.847 397.143 609.654 396.676 605.8 395.742C598.237 393.775 593.298 392.793 590.981 392.793C588.674 392.793 587.064 392.882 586.149 393.059C585.234 393.236 584.042 393.437 582.572 393.663L595.507 278.818H640.81C640.81 285.892 639.778 291.288 637.714 295.01C635.641 298.716 632.575 300.569 628.517 300.569C624.448 300.569 620.346 299.007 616.209 295.88L612.954 326.332H631.67C631.67 332.471 630.755 337.256 628.926 340.687C627.105 344.103 624.672 345.811 621.625 345.811C618.579 345.811 616.107 345.231 614.209 344.07C612.321 342.911 611.27 342.154 611.055 341.799L607.275 374.692C608.958 375.046 611.377 375.223 614.53 375.223C619.922 375.223 624.546 372.436 628.4 366.861ZM661.628 393.663H639.13L651.949 279.35C658.888 278.061 667.419 277.417 677.541 277.417C687.674 277.417 695.085 279.857 699.776 284.74C704.48 289.605 706.825 296.944 706.825 306.756C706.825 316.552 705.299 324.528 702.247 330.682C699.195 336.821 695.046 340.881 689.791 342.862C690.988 352.481 692.949 361.181 695.674 368.963C698.208 376.263 700.938 381.072 703.878 383.391C702.828 388.274 701.232 391.786 699.09 393.929C696.962 396.071 694.37 397.143 691.324 397.143C688.267 397.143 685.551 395.661 683.177 392.696C680.792 389.747 678.651 385.542 676.753 380.081C672.762 368.255 670.558 353.004 670.14 334.331H670.87C676.057 334.089 679.946 331.737 682.535 327.274C685.134 322.812 686.433 315.883 686.433 306.49C686.433 294.777 683.454 288.687 677.498 288.22H675.177C674.554 288.22 674.067 288.276 673.717 288.388L661.628 393.663ZM720.069 308.932C717.682 305.902 716.492 301.173 716.492 294.745C716.492 288.3 717.773 283.394 720.335 280.027C722.89 276.676 726.376 275 730.786 275C733.586 275 738.318 275.806 744.975 277.417L752.129 279.156C754.516 279.624 756.945 279.857 759.43 279.857C761.922 279.857 764.008 278.988 765.695 277.247C768.215 280.969 769.475 285.496 769.475 290.829C769.475 296.162 768.04 300.746 765.17 304.581C762.216 308.641 758.849 310.671 755.062 310.671C753.242 310.671 750.862 310.261 747.922 309.438C744.492 327.306 742.77 342.443 742.77 354.85C742.77 367.271 744.667 376.729 748.454 383.223C746.697 388.442 744.527 392.068 741.923 394.098C739.333 396.127 736.092 397.143 732.2 397.143C728.315 397.143 725.165 395.371 722.743 391.826C720.328 388.297 719.124 382.876 719.124 375.561C719.124 367.103 720.524 355.913 723.324 341.993C726.131 328.185 729.631 316.004 733.838 305.452C731.801 305.096 729.736 304.919 727.629 304.919C723.289 304.919 720.769 306.257 720.069 308.932ZM776.09 393.663L782.187 342.499C780.157 311.067 775.565 291.982 768.425 285.247C769.895 282.233 771.82 279.89 774.207 278.214C776.587 276.522 779.219 275.676 782.089 275.676C784.959 275.676 787.479 276.522 789.649 278.214C791.819 279.89 793.604 282.524 795.011 286.116C797.678 292.964 799.008 304.565 799.008 320.918V333.462C803.215 313.048 807.415 298.427 811.622 289.596C815.899 280.559 820.694 276.039 826.021 276.039C828.121 276.039 829.871 276.934 831.271 278.722C832.678 280.526 833.728 282.766 834.428 285.44C829.038 289.372 823.746 297.024 818.559 308.399C813.372 319.775 809.095 333.404 805.742 349.291L799.533 393.663H776.09Z" fill="black"/>
<path d="M42.5 489.5H52.5L116 402L245.5 538L277 468L245.5 415.5L235 393V368.5V335.5L226 323L211.5 426.5L161.5 331.5L132.5 313L31.5 464L42.5 489.5Z" fill="black" stroke="black"/>
<rect x="154" y="492" width="40" height="40" rx="3" fill="black"/>
<path d="M161 497.5H160.5V498V526V526.5H161H187H187.5V526V498V497.5H187H161ZM186.5 525.5H161.5V498.5H186.5V525.5ZM188.5 527.5H159.5V496.5H188.5V527.5Z" fill="black" stroke="#FFC107"/>
<rect x="129" y="571" width="25" height="50" rx="3" fill="black"/>
<path d="M132 618V574H150.5L151 618H132Z" stroke="#FFC107"/>
<circle cx="148" cy="598" r="1" fill="#FFC107"/>
<path d="M136 578H141V583H136V578Z" fill="#FFC107"/>
<path d="M139 581H144V586H139V581Z" fill="#FFC107"/>
<path d="M142 584H147V589H142V584Z" fill="#FFC107"/>
<rect x="81" y="492" width="40" height="40" rx="3" fill="black"/>
<path d="M88 497.5H87.5V498V526V526.5H88H114H114.5V526V498V497.5H114H88ZM113.5 525.5H88.5V498.5H113.5V525.5ZM115.5 527.5H86.5V496.5H115.5V527.5Z" fill="black" stroke="#FFC107"/>
</g>
</g>
<defs>
<filter id="filter0_d_21_826" x="-4" y="0" width="855" height="641" filterUnits="userSpaceOnUse" color-interpolation-filters="sRGB">
<feFlood flood-opacity="0" result="BackgroundImageFix"/>
<feColorMatrix in="SourceAlpha" type="matrix" values="0 0 0 0 0 0 0 0 0 0 0 0 0 0 0 0 0 0 127 0" result="hardAlpha"/>
<feOffset dy="4"/>
<feGaussianBlur stdDeviation="2"/>
<feComposite in2="hardAlpha" operator="out"/>
<feColorMatrix type="matrix" values="0 0 0 0 0 0 0 0 0 0 0 0 0 0 0 0 0 0 0.25 0"/>
<feBlend mode="normal" in2="BackgroundImageFix" result="effect1_dropShadow_21_826"/>
<feBlend mode="normal" in="SourceGraphic" in2="effect1_dropShadow_21_826" result="shape"/>
</filter>
<filter id="filter1_d_21_826" x="364" y="435.649" width="377.599" height="120.26" filterUnits="userSpaceOnUse" color-interpolation-filters="sRGB">
<feFlood flood-opacity="0" result="BackgroundImageFix"/>
<feColorMatrix in="SourceAlpha" type="matrix" values="0 0 0 0 0 0 0 0 0 0 0 0 0 0 0 0 0 0 127 0" result="hardAlpha"/>
<feOffset dx="1" dy="1"/>
<feGaussianBlur stdDeviation="0.5"/>
<feColorMatrix type="matrix" values="0 0 0 0 0.266667 0 0 0 0 0.266667 0 0 0 0 0.266667 0 0 0 1 0"/>
<feBlend mode="normal" in2="BackgroundImageFix" result="effect1_dropShadow_21_826"/>
<feBlend mode="normal" in="SourceGraphic" in2="effect1_dropShadow_21_826" result="shape"/>
</filter>
<filter id="filter2_d_21_826" x="364" y="435.649" width="391.599" height="126.26" filterUnits="userSpaceOnUse" color-interpolation-filters="sRGB">
<feFlood flood-opacity="0" result="BackgroundImageFix"/>
<feColorMatrix in="SourceAlpha" type="matrix" values="0 0 0 0 0 0 0 0 0 0 0 0 0 0 0 0 0 0 127 0" result="hardAlpha"/>
<feOffset dx="12" dy="4"/>
<feGaussianBlur stdDeviation="2"/>
<feComposite in2="hardAlpha" operator="out"/>
<feColorMatrix type="matrix" values="0 0 0 0 0 0 0 0 0 0 0 0 0 0 0 0 0 0 0.75 0"/>
<feBlend mode="normal" in2="BackgroundImageFix" result="effect1_dropShadow_21_826"/>
<feBlend mode="normal" in="SourceGraphic" in2="effect1_dropShadow_21_826" result="shape"/>
</filter>
<clipPath id="clip0_21_826">
<rect width="866" height="620" fill="white"/>
</clipPath>
<clipPath id="clip1_21_826">
<rect width="847" height="633" fill="white"/>
</clipPath>
</defs>
</svg>
