<svg width="640" height="412" viewBox="0 0 640 412" fill="none" xmlns="http://www.w3.org/2000/svg">
<g clip-path="url(#clip0_21_1400)">
<rect width="640" height="412" fill="white"/>
<g clip-path="url(#clip1_21_1400)" filter="url(#filter0_d_21_1400)">
<mask id="mask0_21_1400" style="mask-type:luminance" maskUnits="userSpaceOnUse" x="0" y="0" width="640" height="420">
<path d="M640 0H0V420H640V0Z" fill="white"/>
</mask>
<g mask="url(#mask0_21_1400)">
<path d="M173.738 86.7241C168.343 96.6768 168.978 105.459 176.277 117.753C184.529 131.804 184.211 146.441 175.643 156.979C168.661 165.76 168.343 166.346 173.738 185.666C178.499 202.644 179.133 203.229 177.547 190.35C176.277 179.226 177.864 170.444 183.894 158.735C194.049 138.244 194.049 132.39 183.894 114.24C179.133 106.044 176.595 96.0914 177.229 90.2369C179.133 77.9423 178.816 77.3568 173.738 86.7241Z" fill="#FFC107"/>
<g filter="url(#filter1_d_21_1400)">
<g filter="url(#filter2_d_21_1400)">
<path d="M305.733 313.49C306.491 311.248 306.87 309.082 306.87 306.992C306.87 304.901 306.795 303.278 306.645 302.122C306.487 300.955 306.234 299.927 305.887 299.04C305.129 297.09 303.992 296.115 302.477 296.115C300.606 296.115 298.912 297.125 297.397 299.145C295.779 301.235 294.969 303.927 294.969 307.22C294.969 309.309 295.463 311.16 296.45 312.771C297.436 314.371 298.688 315.919 300.203 317.413C301.719 318.907 303.333 320.402 305.046 321.897C306.767 323.392 308.386 325.038 309.901 326.836C313.382 330.946 315.123 335.763 315.123 341.286C315.123 345.023 314.456 348.479 313.122 351.655C311.78 354.831 310 357.581 307.782 359.904C302.926 364.983 297.29 367.523 290.872 367.523C285.67 367.523 281.731 366.274 279.055 363.775C276.379 361.264 275.041 358.106 275.041 354.299C275.041 347.492 276.833 343.23 280.417 341.514C281.427 340.988 282.702 340.725 284.242 340.725C285.789 340.725 287.446 341.216 289.215 342.196C288.402 345.256 287.995 348.169 287.995 350.937C287.995 356.915 289.436 359.904 292.317 359.904C294.188 359.904 295.893 358.894 297.433 356.874C298.972 354.854 299.741 352.706 299.741 350.428C299.741 348.152 299.248 346.19 298.261 344.543C297.282 342.897 296.059 341.42 294.591 340.112C293.122 338.805 291.543 337.514 289.854 336.242C288.165 334.981 286.586 333.451 285.118 331.652C281.684 327.542 279.967 322.2 279.967 315.626C279.967 311.364 280.674 307.57 282.086 304.242C283.5 300.914 285.343 298.13 287.616 295.887C292.163 291.333 297.227 289.057 302.808 289.057C308.397 289.057 312.541 290.288 315.241 292.752C317.941 295.216 319.291 298.544 319.291 302.735C319.291 306.39 318.332 309.38 316.414 311.703C314.748 313.642 312.905 314.611 310.884 314.611C308.863 314.611 307.146 314.237 305.733 313.49ZM353.251 348.011C354.206 349.81 354.683 352.168 354.683 355.087C354.683 359.116 353.673 362.199 351.652 364.335C349.632 366.461 347.03 367.523 343.849 367.523C342.034 367.523 339.737 367.225 336.958 366.63C331.495 365.357 327.931 364.721 326.265 364.721C324.6 364.721 323.439 364.779 322.784 364.896C322.129 365.001 321.269 365.129 320.203 365.281L329.521 291.298H362.191C362.191 295.852 361.445 299.326 359.953 301.72C358.461 304.114 356.251 305.311 353.322 305.311C350.393 305.311 347.437 304.3 344.453 302.28L342.109 321.897H355.595C355.595 325.855 354.941 328.938 353.63 331.144C352.312 333.351 350.555 334.455 348.361 334.455C346.158 334.455 344.378 334.082 343.02 333.334C341.654 332.587 340.897 332.102 340.747 331.88L338.012 353.056C339.227 353.289 340.972 353.406 343.245 353.406C347.137 353.406 350.472 351.608 353.251 348.011ZM394.932 367.523C388.458 367.523 384.922 360.721 384.322 347.118H371.285C370.275 350.563 369.414 353.78 368.704 356.769L366.738 365.281H356.128L380 291.298H396.293L399.478 345.77C399.983 353.616 401.246 358.701 403.267 361.025C401.799 365.357 399.021 367.523 394.932 367.523ZM377.798 324.699L373.63 338.939H384.085L383.185 310.127V307.097L377.798 324.699ZM423.196 365.281H406.974L416.221 291.631C421.227 290.814 427.376 290.405 434.67 290.405C441.972 290.405 447.316 291.976 450.703 295.117C454.089 298.246 455.782 302.969 455.782 309.286C455.782 315.603 454.681 320.741 452.479 324.699C450.284 328.658 447.293 331.273 443.503 332.546C444.364 338.746 445.777 344.351 447.742 349.36C449.566 354.066 451.539 357.166 453.663 358.66C452.905 361.802 451.752 364.067 450.205 365.457C448.666 366.834 446.799 367.523 444.605 367.523C442.402 367.523 440.444 366.571 438.731 364.668C437.01 362.765 435.467 360.056 434.102 356.541C431.228 348.916 429.638 339.091 429.33 327.064H429.862C433.604 326.912 436.407 325.394 438.27 322.51C440.14 319.637 441.076 315.177 441.076 309.129C441.076 301.574 438.929 297.65 434.634 297.358H432.964C432.515 297.358 432.164 297.394 431.911 297.463L423.196 365.281ZM498.825 342.074C500.135 343.498 500.79 345.723 500.79 348.747C500.79 351.771 500.348 354.352 499.464 356.489C498.58 358.613 497.281 360.5 495.568 362.146C491.881 365.661 486.818 367.418 480.376 367.418C473.935 367.418 468.957 364.931 465.445 359.956C461.932 354.982 460.176 348.088 460.176 339.271C460.176 326.789 462.374 315.808 466.771 306.326C470.102 299.297 474.747 294.288 480.708 291.298C483.794 289.804 486.853 289.057 489.884 289.057C492.916 289.057 495.367 289.354 497.238 289.95C499.101 290.545 500.743 291.444 502.164 292.647C505.242 295.262 506.782 298.66 506.782 302.84C506.782 306.658 505.57 309.987 503.147 312.824C500.92 315.358 498.899 316.625 497.084 316.625C495.26 316.625 493.97 316.438 493.212 316.065C493.417 313.378 493.52 311.16 493.52 309.409C493.52 307.645 493.496 306.128 493.449 304.855C493.393 303.593 493.239 302.362 492.987 301.159C492.482 298.392 491.459 297.008 489.92 297.008C488.381 297.008 486.841 298.077 485.302 300.213C483.755 302.338 482.326 305.193 481.016 308.778C478.032 316.928 476.539 325.826 476.539 335.47C476.539 340.095 477.424 343.738 479.192 346.4C480.96 349.051 483.739 350.376 487.528 350.376C490.362 350.376 493.117 348.993 495.793 346.225C496.953 345.034 497.964 343.65 498.825 342.074ZM535.352 356.874C535.352 351.643 536.061 343.796 537.473 333.334H526.26L522.092 365.281H506.249L515.876 291.298H531.861L527.468 324.366H538.679L542.852 291.298H558.847C558.138 296.833 557.329 302.701 556.419 308.901L553.838 327.169C551.918 341.368 550.96 351.567 550.96 357.768C550.96 360.313 551.241 362.292 551.801 363.705C549.273 366.251 546.533 367.523 543.571 367.523C540.62 367.523 538.509 366.478 537.251 364.387C535.986 362.298 535.352 359.793 535.352 356.874Z" fill="#FFC107"/>
</g>
</g>
<path d="M76.165 355.449V363C76.165 371.763 83.2693 378.868 92.0328 378.868V378.868V378.868C100.796 378.868 107.901 371.763 107.901 363V355.449V347.899C107.901 339.135 100.796 332.031 92.0328 332.031V332.031V332.031C83.2693 332.031 76.165 339.135 76.165 347.899V355.449Z" fill="black"/>
<path d="M91.085 330.427L87.6504 334.113V359.916L91.085 363.602H121.996L125.431 359.916V334.113L121.996 330.427H91.085Z" fill="black" stroke="black"/>
<path d="M35.8916 411.374V325.782V325.118H40.0474L87.6507 267.725L184.746 356.967V411.043L35.8916 411.374Z" fill="#FFC107" stroke="#FFC107"/>
</g>
<path d="M259.666 184.196C272.639 184.196 279.126 190.851 279.126 204.16C279.126 211.472 277.508 217.325 274.272 221.719C271.095 226.101 266.726 228.293 261.166 228.293C258.578 228.293 256.276 227.213 254.261 225.054C253.305 224.135 252.511 223.06 251.878 221.831C255.747 221.831 258.699 220.115 260.736 216.684C262.773 213.263 263.792 208.207 263.792 201.514C263.792 194.811 261.516 191.46 256.964 191.46H255.055C254.739 191.46 254.449 191.497 254.184 191.573L245.05 261.198H227.808L237.581 185.575C243.244 184.805 247.719 184.383 251.007 184.309C254.287 184.233 257.173 184.196 259.666 184.196ZM295.805 261.198H278.806L288.492 185.351C293.735 184.496 300.181 184.068 307.83 184.068C315.485 184.068 321.086 185.687 324.631 188.927C328.183 192.155 329.959 197.024 329.959 203.535C329.959 210.034 328.804 215.326 326.495 219.41C324.193 223.483 321.057 226.177 317.085 227.491C317.99 233.873 319.471 239.646 321.531 244.81C323.443 249.653 325.51 252.844 327.731 254.383C326.936 257.622 325.73 259.952 324.112 261.375C322.502 262.796 320.545 263.507 318.243 263.507C315.934 263.507 313.882 262.524 312.088 260.557C310.286 258.6 308.668 255.81 307.234 252.186C304.219 244.34 302.553 234.221 302.237 221.831H302.788C306.708 221.67 309.646 220.11 311.603 217.149C313.566 214.188 314.548 209.591 314.548 203.358C314.548 195.586 312.298 191.546 307.797 191.236H306.043C305.572 191.236 305.204 191.273 304.939 191.347L295.805 261.198ZM334.802 233.024C334.802 218.475 337.394 206.624 342.579 197.474C348.087 187.543 355.633 182.576 365.216 182.576C372.158 182.576 377.376 185.019 380.869 189.905C384.362 194.79 386.109 202.39 386.109 212.707C386.109 228.411 383.355 240.843 377.846 250.005C372.397 259.006 365.09 263.507 355.927 263.507C348.779 263.507 343.469 260.909 339.997 255.714C336.534 250.519 334.802 242.955 334.802 233.024ZM355.684 209.131C353.302 222.986 352.11 235.376 352.11 246.301C352.11 248.92 352.415 251.074 353.025 252.764C353.636 254.463 354.75 255.313 356.368 255.313C357.979 255.313 359.288 254.752 360.296 253.63C361.303 252.517 362.204 250.69 362.998 248.145C364.27 243.997 365.502 237.514 366.693 228.694C367.885 219.885 368.532 213.653 368.635 209.997C368.738 206.341 368.79 203.128 368.79 200.359C368.79 197.581 368.499 195.309 367.918 193.545C367.337 191.77 366.267 190.882 364.708 190.882C363.142 190.882 361.829 191.577 360.77 192.967C358.813 195.586 357.118 200.974 355.684 209.131ZM421.057 184.196C434.03 184.196 440.516 190.851 440.516 204.16C440.516 211.472 438.902 217.325 435.673 221.719C432.497 226.101 428.128 228.293 422.568 228.293C419.972 228.293 417.667 227.213 415.651 225.054C414.702 224.135 413.908 223.06 413.268 221.831C417.137 221.831 420.09 220.115 422.127 216.684C424.164 213.263 425.183 208.207 425.183 201.514C425.183 194.811 422.907 191.46 418.354 191.46H416.446C416.129 191.46 415.839 191.497 415.574 191.573L406.44 261.198H389.209L398.972 185.575C404.642 184.805 409.117 184.383 412.397 184.309C415.685 184.233 418.571 184.196 421.057 184.196ZM474.824 243.415C475.832 245.264 476.335 247.69 476.335 250.695C476.335 254.853 475.277 258.028 473.158 260.22C471.04 262.411 468.315 263.507 464.984 263.507C463.072 263.507 460.66 263.197 457.747 262.577C452.033 261.273 448.301 260.621 446.551 260.621C444.807 260.621 443.59 260.68 442.899 260.797C442.208 260.915 441.307 261.048 440.197 261.198L449.97 184.998H484.201C484.201 189.691 483.422 193.272 481.862 195.741C480.296 198.2 477.979 199.429 474.913 199.429C471.839 199.429 468.739 198.393 465.613 196.319L463.153 216.523H477.295C477.295 220.597 476.604 223.771 475.222 226.048C473.846 228.315 472.007 229.448 469.705 229.448C467.404 229.448 465.536 229.063 464.101 228.293C462.675 227.524 461.88 227.022 461.719 226.786L458.862 248.611C460.134 248.845 461.961 248.963 464.344 248.963C468.419 248.963 471.912 247.114 474.824 243.415ZM499.932 261.198H482.932L492.618 185.351C497.862 184.496 504.308 184.068 511.956 184.068C519.612 184.068 525.212 185.687 528.757 188.927C532.311 192.155 534.083 197.024 534.083 203.535C534.083 210.034 532.93 215.326 530.624 219.41C528.318 223.483 525.183 226.177 521.212 227.491C522.116 233.873 523.598 239.646 525.657 244.81C527.572 249.653 529.635 252.844 531.856 254.383C531.063 257.622 529.857 259.952 528.238 261.375C526.63 262.796 524.672 263.507 522.37 263.507C520.061 263.507 518.008 262.524 516.214 260.557C514.412 258.6 512.794 255.81 511.36 252.186C508.345 244.34 506.679 234.221 506.363 221.831H506.915C510.835 221.67 513.773 220.11 515.729 217.149C517.693 214.188 518.674 209.591 518.674 203.358C518.674 195.586 516.424 191.546 511.923 191.236H510.169C509.699 191.236 509.33 191.273 509.066 191.347L499.932 261.198ZM544.09 204.978C542.287 202.968 541.388 199.83 541.388 195.565C541.388 191.289 542.355 188.034 544.291 185.8C546.222 183.576 548.856 182.464 552.188 182.464C554.304 182.464 557.879 182.999 562.91 184.068L568.315 185.222C570.119 185.532 571.954 185.687 573.832 185.687C575.715 185.687 577.291 185.11 578.566 183.955C580.47 186.425 581.422 189.429 581.422 192.967C581.422 196.506 580.338 199.547 578.169 202.092C575.937 204.785 573.393 206.132 570.531 206.132C569.156 206.132 567.358 205.86 565.136 205.314C562.545 217.17 561.243 227.213 561.243 235.445C561.243 243.687 562.677 249.962 565.538 254.271C564.211 257.734 562.571 260.14 560.603 261.486C558.646 262.833 556.197 263.507 553.257 263.507C550.321 263.507 547.941 262.331 546.111 259.979C544.286 257.638 543.376 254.041 543.376 249.187C543.376 243.575 544.434 236.151 546.55 226.915C548.671 217.753 551.315 209.671 554.494 202.669C552.955 202.433 551.395 202.316 549.803 202.316C546.523 202.316 544.619 203.204 544.09 204.978ZM586.42 261.198L591.027 227.251C589.493 206.395 586.024 193.732 580.629 189.264C581.739 187.264 583.194 185.709 584.997 184.597C586.796 183.474 588.785 182.913 590.953 182.913C593.122 182.913 595.026 183.474 596.666 184.597C598.305 185.709 599.654 187.457 600.717 189.84C602.732 194.384 603.737 202.081 603.737 212.932V221.254C606.916 207.709 610.09 198.008 613.268 192.149C616.5 186.153 620.123 183.154 624.148 183.154C625.735 183.154 627.058 183.747 628.115 184.934C629.179 186.131 629.972 187.617 630.501 189.391C626.428 192 622.43 197.077 618.51 204.625C614.591 212.173 611.359 221.216 608.826 231.757L604.134 261.198H586.42Z" fill="black"/>
<path d="M32.1134 324.787H39.6695L87.6506 266.73L185.502 356.967L209.304 310.521L185.502 275.687L177.568 260.758V244.502V222.607L170.768 214.313L159.811 282.986L122.031 219.953L100.118 207.678L23.8018 307.867L32.1134 324.787Z" fill="black" stroke="black"/>
<rect x="116" y="327" width="31" height="26" rx="3" fill="black"/>
<path d="M121 330.413H120.5V330.913V349.087V349.587H121H142H142.5V349.087V330.913V330.413H142H121ZM141.5 348.587H121.5V331.413H141.5V348.587ZM143.5 350.5H119.5V329.5H143.5V350.5Z" fill="black" stroke="#FFC107"/>
<g clip-path="url(#clip2_21_1400)">
<rect x="96" y="379" width="18.8902" height="33.1754" rx="3" fill="black"/>
<path d="M97.5264 410.137V381.137H113.5L113.526 410.137H97.5264Z" stroke="#FFC107"/>
<circle cx="112" cy="400" r="1" fill="#FFC107"/>
<path d="M101 384H106V389H101V384Z" fill="#FFC107"/>
<path d="M102 388V385H105V388H102Z" stroke="black" stroke-width="0.25"/>
<path d="M104 387H109V392H104V387Z" fill="#FFC107"/>
<path d="M105 391V388H108V391H105Z" stroke="black" stroke-width="0.25"/>
<path d="M107 390H112V395H107V390Z" fill="#FFC107"/>
<path d="M108 394V391H111V394H108Z" stroke="black" stroke-width="0.25"/>
</g>
<rect x="58" y="327" width="31" height="26" rx="3" fill="black"/>
<path d="M63 330.413H62.5V330.913V349.087V349.587H63H84H84.5V349.087V330.913V330.413H84H63ZM83.5 348.587H63.5V331.413H83.5V348.587ZM85.5 350.5H61.5V329.5H85.5V350.5Z" fill="black" stroke="#FFC107"/>
</g>
</g>
<defs>
<filter id="filter0_d_21_1400" x="-4" y="0" width="648" height="428" filterUnits="userSpaceOnUse" color-interpolation-filters="sRGB">
<feFlood flood-opacity="0" result="BackgroundImageFix"/>
<feColorMatrix in="SourceAlpha" type="matrix" values="0 0 0 0 0 0 0 0 0 0 0 0 0 0 0 0 0 0 127 0" result="hardAlpha"/>
<feOffset dy="4"/>
<feGaussianBlur stdDeviation="2"/>
<feComposite in2="hardAlpha" operator="out"/>
<feColorMatrix type="matrix" values="0 0 0 0 0 0 0 0 0 0 0 0 0 0 0 0 0 0 0.25 0"/>
<feBlend mode="normal" in2="BackgroundImageFix" result="effect1_dropShadow_21_1400"/>
<feBlend mode="normal" in="SourceGraphic" in2="effect1_dropShadow_21_1400" result="shape"/>
</filter>
<filter id="filter1_d_21_1400" x="275.041" y="289.057" width="285.806" height="80.4666" filterUnits="userSpaceOnUse" color-interpolation-filters="sRGB">
<feFlood flood-opacity="0" result="BackgroundImageFix"/>
<feColorMatrix in="SourceAlpha" type="matrix" values="0 0 0 0 0 0 0 0 0 0 0 0 0 0 0 0 0 0 127 0" result="hardAlpha"/>
<feOffset dx="1" dy="1"/>
<feGaussianBlur stdDeviation="0.5"/>
<feColorMatrix type="matrix" values="0 0 0 0 0.266667 0 0 0 0 0.266667 0 0 0 0 0.266667 0 0 0 1 0"/>
<feBlend mode="normal" in2="BackgroundImageFix" result="effect1_dropShadow_21_1400"/>
<feBlend mode="normal" in="SourceGraphic" in2="effect1_dropShadow_21_1400" result="shape"/>
</filter>
<filter id="filter2_d_21_1400" x="275.041" y="289.057" width="299.806" height="86.4666" filterUnits="userSpaceOnUse" color-interpolation-filters="sRGB">
<feFlood flood-opacity="0" result="BackgroundImageFix"/>
<feColorMatrix in="SourceAlpha" type="matrix" values="0 0 0 0 0 0 0 0 0 0 0 0 0 0 0 0 0 0 127 0" result="hardAlpha"/>
<feOffset dx="12" dy="4"/>
<feGaussianBlur stdDeviation="2"/>
<feComposite in2="hardAlpha" operator="out"/>
<feColorMatrix type="matrix" values="0 0 0 0 0 0 0 0 0 0 0 0 0 0 0 0 0 0 0.75 0"/>
<feBlend mode="normal" in2="BackgroundImageFix" result="effect1_dropShadow_21_1400"/>
<feBlend mode="normal" in="SourceGraphic" in2="effect1_dropShadow_21_1400" result="shape"/>
</filter>
<clipPath id="clip0_21_1400">
<rect width="640" height="412" fill="white"/>
</clipPath>
<clipPath id="clip1_21_1400">
<rect width="640" height="420" fill="white"/>
</clipPath>
<clipPath id="clip2_21_1400">
<rect x="96" y="379" width="18.8902" height="33.1754" rx="3" fill="white"/>
</clipPath>
</defs>
</svg>
