<svg width="612" height="339" viewBox="0 0 612 339" fill="none" xmlns="http://www.w3.org/2000/svg">
<g clip-path="url(#clip0_21_1471)">
<rect width="612" height="339" fill="white"/>
<g clip-path="url(#clip1_21_1471)" filter="url(#filter0_d_21_1471)">
<mask id="mask0_21_1471" style="mask-type:luminance" maskUnits="userSpaceOnUse" x="-21" y="-73" width="640" height="420">
<path d="M-20.5 -72.5H618.5V346.5H-20.5V-72.5Z" fill="white" stroke="white"/>
</mask>
<g mask="url(#mask0_21_1471)">
<g filter="url(#filter1_d_21_1471)">
<path d="M149.727 4.32896C144.332 11.0194 144.966 16.9228 152.266 25.1875C160.517 34.6329 160.199 44.4719 151.631 51.556C144.649 57.4593 144.332 57.8526 149.727 70.8401C154.487 82.2535 155.122 82.6468 153.535 73.9888C152.266 66.5114 153.852 60.608 159.882 52.7367C170.037 38.9621 170.037 35.0265 159.882 22.8262C155.122 17.3164 152.583 10.6259 153.218 6.69031C155.122 -1.57442 154.804 -1.96803 149.727 4.32896Z" fill="#FFC107"/>
</g>
<g filter="url(#filter2_d_21_1471)">
<g filter="url(#filter3_d_21_1471)">
<path d="M284.733 240.49C285.491 238.248 285.87 236.082 285.87 233.992C285.87 231.901 285.795 230.278 285.645 229.122C285.487 227.955 285.234 226.927 284.887 226.04C284.129 224.09 282.992 223.115 281.477 223.115C279.606 223.115 277.912 224.125 276.397 226.145C274.779 228.235 273.969 230.927 273.969 234.22C273.969 236.309 274.463 238.16 275.45 239.771C276.436 241.371 277.688 242.919 279.203 244.413C280.719 245.907 282.333 247.402 284.046 248.897C285.767 250.392 287.386 252.038 288.901 253.836C292.382 257.946 294.123 262.763 294.123 268.286C294.123 272.023 293.456 275.479 292.122 278.655C290.78 281.831 289 284.581 286.782 286.904C281.926 291.983 276.29 294.523 269.872 294.523C264.67 294.523 260.731 293.274 258.055 290.775C255.379 288.264 254.041 285.106 254.041 281.299C254.041 274.492 255.833 270.23 259.417 268.514C260.427 267.988 261.702 267.725 263.242 267.725C264.789 267.725 266.446 268.216 268.215 269.196C267.402 272.256 266.995 275.169 266.995 277.937C266.995 283.915 268.436 286.904 271.317 286.904C273.188 286.904 274.893 285.894 276.433 283.874C277.972 281.854 278.741 279.706 278.741 277.428C278.741 275.152 278.248 273.19 277.261 271.543C276.282 269.897 275.059 268.42 273.591 267.112C272.122 265.805 270.543 264.514 268.854 263.242C267.165 261.981 265.586 260.451 264.118 258.652C260.684 254.542 258.967 249.2 258.967 242.626C258.967 238.364 259.674 234.57 261.086 231.242C262.5 227.914 264.343 225.13 266.616 222.887C271.163 218.333 276.227 216.057 281.808 216.057C287.397 216.057 291.541 217.288 294.241 219.752C296.941 222.216 298.291 225.544 298.291 229.735C298.291 233.39 297.332 236.38 295.414 238.703C293.748 240.642 291.905 241.611 289.884 241.611C287.863 241.611 286.146 241.237 284.733 240.49ZM332.251 275.011C333.206 276.81 333.683 279.168 333.683 282.087C333.683 286.116 332.673 289.199 330.652 291.335C328.632 293.461 326.03 294.523 322.849 294.523C321.034 294.523 318.737 294.225 315.958 293.63C310.495 292.357 306.931 291.721 305.265 291.721C303.6 291.721 302.439 291.779 301.784 291.896C301.129 292.001 300.269 292.129 299.203 292.281L308.521 218.298H341.191C341.191 222.852 340.445 226.326 338.953 228.72C337.461 231.114 335.251 232.311 332.322 232.311C329.393 232.311 326.437 231.3 323.453 229.28L321.109 248.897H334.595C334.595 252.855 333.941 255.938 332.63 258.144C331.312 260.351 329.555 261.455 327.361 261.455C325.158 261.455 323.378 261.082 322.02 260.334C320.654 259.587 319.897 259.102 319.747 258.88L317.012 280.056C318.227 280.289 319.972 280.406 322.245 280.406C326.137 280.406 329.472 278.608 332.251 275.011ZM373.932 294.523C367.458 294.523 363.922 287.721 363.322 274.118H350.285C349.275 277.563 348.414 280.78 347.704 283.769L345.738 292.281H335.128L359 218.298H375.293L378.478 272.77C378.983 280.616 380.246 285.701 382.267 288.025C380.799 292.357 378.021 294.523 373.932 294.523ZM356.798 251.699L352.63 265.939H363.085L362.185 237.127V234.097L356.798 251.699ZM402.196 292.281H385.974L395.221 218.631C400.227 217.814 406.376 217.405 413.67 217.405C420.972 217.405 426.316 218.976 429.703 222.117C433.089 225.246 434.782 229.969 434.782 236.286C434.782 242.603 433.681 247.741 431.479 251.699C429.284 255.658 426.293 258.273 422.503 259.546C423.364 265.746 424.777 271.351 426.742 276.36C428.566 281.066 430.539 284.166 432.663 285.66C431.905 288.802 430.752 291.067 429.205 292.457C427.666 293.834 425.799 294.523 423.605 294.523C421.402 294.523 419.444 293.571 417.731 291.668C416.01 289.765 414.467 287.056 413.102 283.541C410.228 275.916 408.638 266.091 408.33 254.064H408.862C412.604 253.912 415.407 252.394 417.27 249.51C419.14 246.637 420.076 242.177 420.076 236.129C420.076 228.574 417.929 224.65 413.634 224.358H411.964C411.515 224.358 411.164 224.394 410.911 224.463L402.196 292.281ZM477.825 269.074C479.135 270.498 479.79 272.723 479.79 275.747C479.79 278.771 479.348 281.352 478.464 283.489C477.58 285.613 476.281 287.5 474.568 289.146C470.881 292.661 465.818 294.418 459.376 294.418C452.935 294.418 447.957 291.931 444.445 286.956C440.932 281.982 439.176 275.088 439.176 266.271C439.176 253.789 441.374 242.808 445.771 233.326C449.102 226.297 453.747 221.288 459.708 218.298C462.794 216.804 465.853 216.057 468.884 216.057C471.916 216.057 474.367 216.354 476.238 216.95C478.101 217.545 479.743 218.444 481.164 219.647C484.242 222.262 485.782 225.66 485.782 229.84C485.782 233.658 484.57 236.987 482.147 239.824C479.92 242.358 477.899 243.625 476.084 243.625C474.26 243.625 472.97 243.438 472.212 243.065C472.417 240.378 472.52 238.16 472.52 236.409C472.52 234.645 472.496 233.128 472.449 231.855C472.393 230.593 472.239 229.362 471.987 228.159C471.482 225.392 470.459 224.008 468.92 224.008C467.381 224.008 465.841 225.077 464.302 227.213C462.755 229.338 461.326 232.193 460.016 235.778C457.032 243.928 455.539 252.826 455.539 262.47C455.539 267.095 456.424 270.738 458.192 273.4C459.96 276.051 462.739 277.376 466.528 277.376C469.362 277.376 472.117 275.993 474.793 273.225C475.953 272.034 476.964 270.65 477.825 269.074ZM514.352 283.874C514.352 278.643 515.061 270.796 516.473 260.334H505.26L501.092 292.281H485.249L494.876 218.298H510.861L506.468 251.366H517.679L521.852 218.298H537.847C537.138 223.833 536.329 229.701 535.419 235.901L532.838 254.169C530.918 268.368 529.96 278.567 529.96 284.768C529.96 287.313 530.241 289.292 530.801 290.705C528.273 293.251 525.533 294.523 522.571 294.523C519.62 294.523 517.509 293.478 516.251 291.387C514.986 289.298 514.352 286.793 514.352 283.874Z" fill="#FFC107"/>
</g>
</g>
<path d="M55.165 282.449V290C55.165 298.764 62.2693 305.868 71.0328 305.868V305.868V305.868C79.7963 305.868 86.9006 298.764 86.9006 290V282.449V274.899C86.9006 266.135 79.7963 259.031 71.0328 259.031V259.031V259.031C62.2693 259.031 55.165 266.135 55.165 274.899V282.449Z" fill="black"/>
<path d="M70.085 257.427L66.6504 261.113V286.916L70.085 290.602H100.996L104.431 286.916V261.113L100.996 257.427H70.085Z" fill="black" stroke="black"/>
<g filter="url(#filter4_d_21_1471)">
<path d="M15 333.989V230.152C15 229.691 15.3743 229.316 15.836 229.316H17.7036C18.6127 229.316 19.461 228.859 19.9612 228.1L63.9006 161.415C65.3602 159.2 68.5323 158.993 70.267 161L163.026 268.319C163.654 269.046 164 269.974 164 270.935V333.593C164 335.798 162.216 337.587 160.011 337.593L19.0112 337.989C16.7977 337.995 15 336.202 15 333.989Z" fill="#FFC107"/>
<path d="M15 333.989V230.152C15 229.691 15.3743 229.316 15.836 229.316H17.7036C18.6127 229.316 19.461 228.859 19.9612 228.1L63.9006 161.415C65.3602 159.2 68.5323 158.993 70.267 161L163.026 268.319C163.654 269.046 164 269.974 164 270.935V333.593C164 335.798 162.216 337.587 160.011 337.593L19.0112 337.989C16.7977 337.995 15 336.202 15 333.989Z" stroke="#FFC107"/>
</g>
</g>
<path d="M240.859 106.732C253.832 106.732 260.318 113.387 260.318 126.696C260.318 134.008 258.701 139.861 255.465 144.255C252.287 148.637 247.919 150.829 242.359 150.829C239.77 150.829 237.468 149.749 235.453 147.59C234.497 146.671 233.703 145.596 233.07 144.366C236.939 144.366 239.891 142.651 241.929 139.219C243.966 135.798 244.984 130.742 244.984 124.05C244.984 117.347 242.708 113.996 238.156 113.996H236.248C235.931 113.996 235.641 114.033 235.376 114.108L226.242 183.734H209L218.773 108.111C224.437 107.341 228.911 106.919 232.199 106.844C235.479 106.769 238.365 106.732 240.859 106.732ZM276.998 183.734H259.998L269.684 107.887C274.927 107.031 281.373 106.604 289.022 106.604C296.678 106.604 302.278 108.223 305.823 111.462C309.375 114.691 311.151 119.56 311.151 126.071C311.151 132.57 309.997 137.862 307.687 141.946C305.386 146.019 302.249 148.712 298.277 150.027C299.182 156.409 300.664 162.182 302.723 167.345C304.636 172.189 306.702 175.38 308.923 176.918C308.129 180.158 306.923 182.488 305.305 183.91C303.694 185.332 301.738 186.043 299.436 186.043C297.126 186.043 295.075 185.06 293.28 183.092C291.479 181.135 289.861 178.345 288.427 174.722C285.411 166.876 283.746 156.756 283.429 144.366H283.981C287.9 144.206 290.839 142.645 292.795 139.684C294.758 136.723 295.74 132.126 295.74 125.894C295.74 118.122 293.49 114.082 288.989 113.771H287.235C286.764 113.771 286.397 113.809 286.132 113.883L276.998 183.734ZM315.994 155.559C315.994 141.01 318.587 129.16 323.771 120.009C329.28 110.078 336.825 105.112 346.408 105.112C353.35 105.112 358.568 107.554 362.062 112.441C365.555 117.326 367.302 124.926 367.302 135.243C367.302 150.947 364.547 163.379 359.039 172.541C353.589 181.542 346.283 186.043 337.12 186.043C329.971 186.043 324.661 183.445 321.19 178.25C317.726 173.054 315.994 165.49 315.994 155.559ZM336.877 131.667C334.494 145.521 333.302 157.911 333.302 168.837C333.302 171.455 333.607 173.61 334.218 175.299C334.828 176.998 335.943 177.849 337.561 177.849C339.171 177.849 340.48 177.288 341.488 176.165C342.496 175.053 343.396 173.225 344.191 170.68C345.463 166.533 346.695 160.05 347.886 151.23C349.077 142.421 349.725 136.189 349.827 132.533C349.931 128.877 349.982 125.664 349.982 122.895C349.982 120.116 349.692 117.844 349.111 116.08C348.53 114.306 347.459 113.418 345.9 113.418C344.334 113.418 343.021 114.113 341.962 115.503C340.006 118.122 338.311 123.51 336.877 131.667ZM402.249 106.732C415.222 106.732 421.709 113.387 421.709 126.696C421.709 134.008 420.094 139.861 416.866 144.255C413.689 148.637 409.321 150.829 403.76 150.829C401.164 150.829 398.859 149.749 396.844 147.59C395.895 146.671 395.101 145.596 394.461 144.366C398.329 144.366 401.282 142.651 403.319 139.219C405.356 135.798 406.375 130.742 406.375 124.05C406.375 117.347 404.099 113.996 399.547 113.996H397.638C397.322 113.996 397.031 114.033 396.766 114.108L387.632 183.734H370.401L380.164 108.111C385.834 107.341 390.309 106.919 393.589 106.844C396.877 106.769 399.763 106.732 402.249 106.732ZM456.017 165.951C457.024 167.8 457.528 170.226 457.528 173.231C457.528 177.389 456.469 180.564 454.351 182.755C452.233 184.947 449.508 186.043 446.177 186.043C444.265 186.043 441.852 185.733 438.94 185.113C433.225 183.808 429.493 183.156 427.743 183.156C426 183.156 424.783 183.215 424.091 183.333C423.4 183.45 422.499 183.584 421.389 183.734L431.163 107.533H465.394C465.394 112.227 464.614 115.807 463.055 118.277C461.488 120.736 459.172 121.965 456.105 121.965C453.031 121.965 449.931 120.928 446.805 118.854L444.345 139.059H458.488C458.488 143.132 457.797 146.307 456.414 148.584C455.038 150.851 453.2 151.984 450.898 151.984C448.596 151.984 446.728 151.599 445.294 150.829C443.867 150.059 443.073 149.557 442.911 149.321L440.054 171.146C441.326 171.381 443.154 171.498 445.537 171.498C449.611 171.498 453.104 169.649 456.017 165.951ZM481.124 183.734H464.125L473.81 107.887C479.054 107.031 485.5 106.604 493.148 106.604C500.805 106.604 506.405 108.223 509.949 111.462C513.504 114.691 515.275 119.56 515.275 126.071C515.275 132.57 514.122 137.862 511.816 141.946C509.51 146.019 506.375 148.712 502.404 150.027C503.309 156.409 504.791 162.182 506.85 167.345C508.764 172.189 510.827 175.38 513.049 176.918C512.255 180.158 511.049 182.488 509.431 183.91C507.823 185.332 505.864 186.043 503.562 186.043C501.253 186.043 499.201 185.06 497.407 183.092C495.605 181.135 493.987 178.345 492.553 174.722C489.537 166.876 487.872 156.756 487.555 144.366H488.107C492.027 144.206 494.965 142.645 496.921 139.684C498.885 136.723 499.867 132.126 499.867 125.894C499.867 118.122 497.616 114.082 493.116 113.771H491.362C490.891 113.771 490.523 113.809 490.258 113.883L481.124 183.734ZM525.283 127.514C523.479 125.504 522.58 122.366 522.58 118.101C522.58 113.825 523.548 110.57 525.484 108.335C527.414 106.112 530.048 105 533.381 105C535.496 105 539.072 105.535 544.102 106.604L549.507 107.758C551.311 108.068 553.147 108.223 555.024 108.223C556.907 108.223 558.483 107.646 559.758 106.491C561.662 108.96 562.614 111.964 562.614 115.503C562.614 119.041 561.53 122.083 559.361 124.627C557.129 127.321 554.585 128.668 551.724 128.668C550.349 128.668 548.55 128.396 546.329 127.85C543.737 139.705 542.436 149.749 542.436 157.981C542.436 166.223 543.869 172.498 546.731 176.807C545.403 180.27 543.763 182.675 541.796 184.022C539.839 185.369 537.39 186.043 534.449 186.043C531.513 186.043 529.133 184.867 527.303 182.515C525.478 180.173 524.569 176.577 524.569 171.723C524.569 166.111 525.627 158.686 527.742 149.45C529.863 140.289 532.508 132.206 535.687 125.205C534.147 124.969 532.587 124.852 530.995 124.852C527.716 124.852 525.812 125.739 525.283 127.514ZM567.613 183.734L572.22 149.786C570.686 128.93 567.216 116.267 561.821 111.799C562.932 109.799 564.386 108.245 566.19 107.132C567.988 106.01 569.977 105.449 572.146 105.449C574.314 105.449 576.218 106.01 577.858 107.132C579.498 108.245 580.846 109.992 581.91 112.376C583.925 116.919 584.93 124.617 584.93 135.467V143.79C588.109 130.245 591.282 120.544 594.461 114.685C597.693 108.688 601.316 105.689 605.341 105.689C606.928 105.689 608.25 106.283 609.308 107.469C610.371 108.666 611.164 110.153 611.693 111.927C607.621 114.536 603.622 119.613 599.703 127.161C595.783 134.708 592.551 143.752 590.018 154.293L585.326 183.734H567.613Z" fill="black"/>
<g filter="url(#filter5_d_21_1471)">
<path d="M13.4277 238.302H17.0974C18.1667 238.302 19.1552 237.733 19.692 236.808L64.4191 159.747C65.4932 157.896 68.104 157.733 69.4004 159.435L160.921 279.612C162.362 281.504 165.325 281.048 166.13 278.81L187.575 219.226C187.847 218.47 187.804 217.637 187.457 216.912L164.263 168.578L156.54 147.885C156.414 147.55 156.35 147.194 156.35 146.836V124.293V94.002C156.35 93.4766 156.212 92.9603 155.95 92.505L154.131 89.3463C152.685 86.8354 148.873 87.6299 148.55 90.5093L139.73 169.231C139.401 172.169 135.469 172.91 134.093 170.293L105.42 115.77L81.8332 76.5303C80.6333 74.5341 77.7153 74.6071 76.6167 76.6608L3.61793 213.12C3.22394 213.857 3.15483 214.724 3.42724 215.514L10.5918 236.281C11.0091 237.49 12.148 238.302 13.4277 238.302Z" fill="black"/>
<path d="M13.4277 238.302H17.0974C18.1667 238.302 19.1552 237.733 19.692 236.808L64.4191 159.747C65.4932 157.896 68.104 157.733 69.4004 159.435L160.921 279.612C162.362 281.504 165.325 281.048 166.13 278.81L187.575 219.226C187.847 218.47 187.804 217.637 187.457 216.912L164.263 168.578L156.54 147.885C156.414 147.55 156.35 147.194 156.35 146.836V124.293V94.002C156.35 93.4766 156.212 92.9603 155.95 92.505L154.131 89.3463C152.685 86.8354 148.873 87.6299 148.55 90.5093L139.73 169.231C139.401 172.169 135.469 172.91 134.093 170.293L105.42 115.77L81.8332 76.5303C80.6333 74.5341 77.7153 74.6071 76.6167 76.6608L3.61793 213.12C3.22394 213.857 3.15483 214.724 3.42724 215.514L10.5918 236.281C11.0091 237.49 12.148 238.302 13.4277 238.302Z" stroke="black"/>
</g>
<g filter="url(#filter6_d_21_1471)">
<rect x="96" y="239" width="31" height="26" rx="3" fill="black"/>
<path d="M101 242.413H100.5V242.913V261.087V261.587H101H122H122.5V261.087V242.913V242.413H122H101ZM121.5 260.587H101.5V243.413H121.5V260.587ZM123.5 262.5H99.5V241.5H123.5V262.5Z" fill="black" stroke="#FFC107"/>
</g>
<g filter="url(#filter7_d_21_1471)">
<rect x="74" y="296" width="24" height="44" rx="3" fill="black"/>
<path d="M76 337V298H95.967L96 337H76Z" stroke="#FFC107"/>
<path d="M94.5 319.5C94.5 320.052 94.0523 320.5 93.5 320.5C92.9477 320.5 92.5 320.052 92.5 319.5C92.5 318.948 92.9477 318.5 93.5 318.5C94.0523 318.5 94.5 318.948 94.5 319.5Z" fill="#FFC107"/>
<path d="M79 301H85V307H79V301Z" fill="#FFC107"/>
<path d="M80 306V302H84V306H80Z" stroke="black" stroke-width="0.25"/>
<path d="M83 304H89V310H83V304Z" fill="#FFC107"/>
<path d="M84 309V305H88V309H84Z" stroke="black" stroke-width="0.25"/>
<path d="M87 307H93V313H87V307Z" fill="#FFC107"/>
<path d="M88 312V308H92V312H88Z" stroke="black" stroke-width="0.25"/>
</g>
<g filter="url(#filter8_d_21_1471)">
<rect x="39" y="239" width="31" height="26" rx="3" fill="black"/>
<path d="M44 242.413H43.5V242.913V261.087V261.587H44H65H65.5V261.087V242.913V242.413H65H44ZM64.5 260.587H44.5V243.413H64.5V260.587ZM66.5 262.5H42.5V241.5H66.5V262.5Z" fill="black" stroke="#FFC107"/>
</g>
</g>
</g>
<defs>
<filter id="filter0_d_21_1471" x="-25" y="-73" width="648" height="428" filterUnits="userSpaceOnUse" color-interpolation-filters="sRGB">
<feFlood flood-opacity="0" result="BackgroundImageFix"/>
<feColorMatrix in="SourceAlpha" type="matrix" values="0 0 0 0 0 0 0 0 0 0 0 0 0 0 0 0 0 0 127 0" result="hardAlpha"/>
<feOffset dy="4"/>
<feGaussianBlur stdDeviation="2"/>
<feComposite in2="hardAlpha" operator="out"/>
<feColorMatrix type="matrix" values="0 0 0 0 0 0 0 0 0 0 0 0 0 0 0 0 0 0 0.25 0"/>
<feBlend mode="normal" in2="BackgroundImageFix" result="effect1_dropShadow_21_1471"/>
<feBlend mode="normal" in="SourceGraphic" in2="effect1_dropShadow_21_1471" result="shape"/>
</filter>
<filter id="filter1_d_21_1471" x="146" y="0" width="29.499" height="88" filterUnits="userSpaceOnUse" color-interpolation-filters="sRGB">
<feFlood flood-opacity="0" result="BackgroundImageFix"/>
<feColorMatrix in="SourceAlpha" type="matrix" values="0 0 0 0 0 0 0 0 0 0 0 0 0 0 0 0 0 0 127 0" result="hardAlpha"/>
<feOffset dx="4" dy="4"/>
<feGaussianBlur stdDeviation="2"/>
<feComposite in2="hardAlpha" operator="out"/>
<feColorMatrix type="matrix" values="0 0 0 0 0 0 0 0 0 0 0 0 0 0 0 0 0 0 0.25 0"/>
<feBlend mode="normal" in2="BackgroundImageFix" result="effect1_dropShadow_21_1471"/>
<feBlend mode="normal" in="SourceGraphic" in2="effect1_dropShadow_21_1471" result="shape"/>
</filter>
<filter id="filter2_d_21_1471" x="254.041" y="216.057" width="285.806" height="80.4666" filterUnits="userSpaceOnUse" color-interpolation-filters="sRGB">
<feFlood flood-opacity="0" result="BackgroundImageFix"/>
<feColorMatrix in="SourceAlpha" type="matrix" values="0 0 0 0 0 0 0 0 0 0 0 0 0 0 0 0 0 0 127 0" result="hardAlpha"/>
<feOffset dx="1" dy="1"/>
<feGaussianBlur stdDeviation="0.5"/>
<feColorMatrix type="matrix" values="0 0 0 0 0.266667 0 0 0 0 0.266667 0 0 0 0 0.266667 0 0 0 1 0"/>
<feBlend mode="normal" in2="BackgroundImageFix" result="effect1_dropShadow_21_1471"/>
<feBlend mode="normal" in="SourceGraphic" in2="effect1_dropShadow_21_1471" result="shape"/>
</filter>
<filter id="filter3_d_21_1471" x="254.041" y="216.057" width="299.806" height="86.4666" filterUnits="userSpaceOnUse" color-interpolation-filters="sRGB">
<feFlood flood-opacity="0" result="BackgroundImageFix"/>
<feColorMatrix in="SourceAlpha" type="matrix" values="0 0 0 0 0 0 0 0 0 0 0 0 0 0 0 0 0 0 127 0" result="hardAlpha"/>
<feOffset dx="12" dy="4"/>
<feGaussianBlur stdDeviation="2"/>
<feComposite in2="hardAlpha" operator="out"/>
<feColorMatrix type="matrix" values="0 0 0 0 0 0 0 0 0 0 0 0 0 0 0 0 0 0 0.75 0"/>
<feBlend mode="normal" in2="BackgroundImageFix" result="effect1_dropShadow_21_1471"/>
<feBlend mode="normal" in="SourceGraphic" in2="effect1_dropShadow_21_1471" result="shape"/>
</filter>
<filter id="filter4_d_21_1471" x="14.5" y="159.116" width="160" height="187.373" filterUnits="userSpaceOnUse" color-interpolation-filters="sRGB">
<feFlood flood-opacity="0" result="BackgroundImageFix"/>
<feColorMatrix in="SourceAlpha" type="matrix" values="0 0 0 0 0 0 0 0 0 0 0 0 0 0 0 0 0 0 127 0" result="hardAlpha"/>
<feOffset dx="6" dy="4"/>
<feGaussianBlur stdDeviation="2"/>
<feComposite in2="hardAlpha" operator="out"/>
<feColorMatrix type="matrix" values="0 0 0 0 0 0 0 0 0 0 0 0 0 0 0 0 0 0 0.25 0"/>
<feBlend mode="normal" in2="BackgroundImageFix" result="effect1_dropShadow_21_1471"/>
<feBlend mode="normal" in="SourceGraphic" in2="effect1_dropShadow_21_1471" result="shape"/>
</filter>
<filter id="filter5_d_21_1471" x="2.76367" y="74.5759" width="195.488" height="214.719" filterUnits="userSpaceOnUse" color-interpolation-filters="sRGB">
<feFlood flood-opacity="0" result="BackgroundImageFix"/>
<feColorMatrix in="SourceAlpha" type="matrix" values="0 0 0 0 0 0 0 0 0 0 0 0 0 0 0 0 0 0 127 0" result="hardAlpha"/>
<feOffset dx="6" dy="4"/>
<feGaussianBlur stdDeviation="2"/>
<feComposite in2="hardAlpha" operator="out"/>
<feColorMatrix type="matrix" values="0 0 0 0 0 0 0 0 0 0 0 0 0 0 0 0 0 0 0.25 0"/>
<feBlend mode="normal" in2="BackgroundImageFix" result="effect1_dropShadow_21_1471"/>
<feBlend mode="normal" in="SourceGraphic" in2="effect1_dropShadow_21_1471" result="shape"/>
</filter>
<filter id="filter6_d_21_1471" x="94" y="239" width="39" height="34" filterUnits="userSpaceOnUse" color-interpolation-filters="sRGB">
<feFlood flood-opacity="0" result="BackgroundImageFix"/>
<feColorMatrix in="SourceAlpha" type="matrix" values="0 0 0 0 0 0 0 0 0 0 0 0 0 0 0 0 0 0 127 0" result="hardAlpha"/>
<feOffset dx="2" dy="4"/>
<feGaussianBlur stdDeviation="2"/>
<feComposite in2="hardAlpha" operator="out"/>
<feColorMatrix type="matrix" values="0 0 0 0 0 0 0 0 0 0 0 0 0 0 0 0 0 0 0.25 0"/>
<feBlend mode="normal" in2="BackgroundImageFix" result="effect1_dropShadow_21_1471"/>
<feBlend mode="normal" in="SourceGraphic" in2="effect1_dropShadow_21_1471" result="shape"/>
</filter>
<filter id="filter7_d_21_1471" x="74" y="296" width="32" height="52" filterUnits="userSpaceOnUse" color-interpolation-filters="sRGB">
<feFlood flood-opacity="0" result="BackgroundImageFix"/>
<feColorMatrix in="SourceAlpha" type="matrix" values="0 0 0 0 0 0 0 0 0 0 0 0 0 0 0 0 0 0 127 0" result="hardAlpha"/>
<feOffset dx="4" dy="4"/>
<feGaussianBlur stdDeviation="2"/>
<feComposite in2="hardAlpha" operator="out"/>
<feColorMatrix type="matrix" values="0 0 0 0 0 0 0 0 0 0 0 0 0 0 0 0 0 0 0.25 0"/>
<feBlend mode="normal" in2="BackgroundImageFix" result="effect1_dropShadow_21_1471"/>
<feBlend mode="normal" in="SourceGraphic" in2="effect1_dropShadow_21_1471" result="shape"/>
</filter>
<filter id="filter8_d_21_1471" x="37" y="239" width="39" height="34" filterUnits="userSpaceOnUse" color-interpolation-filters="sRGB">
<feFlood flood-opacity="0" result="BackgroundImageFix"/>
<feColorMatrix in="SourceAlpha" type="matrix" values="0 0 0 0 0 0 0 0 0 0 0 0 0 0 0 0 0 0 127 0" result="hardAlpha"/>
<feOffset dx="2" dy="4"/>
<feGaussianBlur stdDeviation="2"/>
<feComposite in2="hardAlpha" operator="out"/>
<feColorMatrix type="matrix" values="0 0 0 0 0 0 0 0 0 0 0 0 0 0 0 0 0 0 0.25 0"/>
<feBlend mode="normal" in2="BackgroundImageFix" result="effect1_dropShadow_21_1471"/>
<feBlend mode="normal" in="SourceGraphic" in2="effect1_dropShadow_21_1471" result="shape"/>
</filter>
<clipPath id="clip0_21_1471">
<rect width="612" height="339" fill="white"/>
</clipPath>
<clipPath id="clip1_21_1471">
<rect width="640" height="420" fill="white" transform="translate(-21 -73)"/>
</clipPath>
</defs>
</svg>
