<svg data-v-423bf9ae="" xmlns="http://www.w3.org/2000/svg" viewBox="0 0 531.2621378836309 163" class="iconAbove"><!----><defs data-v-423bf9ae=""><linearGradient data-v-423bf9ae="" gradientTransform="rotate(25)" id="4b94d0a2-eb91-4366-8c48-55ac5ab1928c" x1="0%" y1="0%" x2="100%" y2="0%"><stop data-v-423bf9ae="" offset="0%" style="stop-color: rgb(0, 125, 232); stop-opacity: 1;"></stop><stop data-v-423bf9ae="" offset="100%" style="stop-color: rgb(161, 195, 219); stop-opacity: 1;"></stop></linearGradient></defs><!----><g data-v-423bf9ae="" id="807bafb3-2849-4109-a186-8b936dbe5bd6" fill="#ffffff" transform="matrix(5.295675234247834,0,0,5.295675234247834,-4.977937165865512,90.39629424379686)"><path d="M2.56 3.21L4.05 3.21C5.49 3.21 6.26 4.05 6.26 5.60C6.26 7.31 5.49 8.22 4.05 8.22L2.56 8.22ZM0.94 2.51L0.94 11.37L2.56 11.37L2.56 8.92L4.40 8.92C6.52 8.92 7.94 7.59 7.94 5.60C7.94 3.75 6.52 2.51 4.40 2.51ZM13.30 6.03L13.41 4.62C12.40 4.62 11.98 5.05 11.49 5.56L10.96 6.09L10.60 4.77L9.34 4.83L9.34 11.37L10.96 11.37L10.96 7L11.58 6.38C11.93 6.03 12.40 6.03 12.85 6.03ZM17.67 10.75C16.32 10.75 15.61 9.83 15.61 8.09C15.61 6.37 16.11 5.45 17.08 5.45C18.42 5.45 19.14 6.37 19.14 8.11C19.14 9.83 18.63 10.75 17.67 10.75ZM17.37 4.72C15.30 4.72 13.93 6.08 13.93 8.11C13.93 10.14 15.30 11.48 17.37 11.48C19.45 11.48 20.82 10.14 20.82 8.11C20.82 6.08 19.45 4.72 17.37 4.72ZM22.22 4.90L22.22 13.71L23.84 13.71L23.84 10.74L24.82 11.13C25.33 11.33 25.79 11.48 26.21 11.48C27.69 11.48 28.69 10.14 28.69 8.11C28.69 6.08 27.69 4.72 26.21 4.72C25.79 4.72 25.33 4.87 24.82 5.07L23.73 5.50L23.35 4.77ZM23.84 6.10L25.05 5.71C25.42 5.59 25.66 5.56 25.87 5.56C26.61 5.56 26.99 6.45 26.99 8.11C26.99 9.77 26.61 10.65 25.87 10.65C25.66 10.65 25.42 10.63 25.05 10.50L23.84 10.11ZM31.40 7.28C31.56 6.06 32.13 5.42 33.04 5.42C34.05 5.42 34.61 6.06 34.64 7.25ZM31.36 7.98L36.27 8.08L36.27 7.42C36.27 5.80 35.01 4.72 33.12 4.72C31.05 4.72 29.67 6.06 29.67 8.08C29.67 10.12 31.08 11.48 33.18 11.48C34.30 11.48 35.74 10.86 36.12 10.68L35.76 9.81L34.45 10.46C34.15 10.61 33.63 10.78 33.29 10.78C31.88 10.78 31.36 9.97 31.36 8.04ZM41.68 6.03L41.79 4.62C40.78 4.62 40.36 5.05 39.87 5.56L39.34 6.09L38.98 4.77L37.72 4.83L37.72 11.37L39.34 11.37L39.34 7L39.96 6.38C40.31 6.03 40.78 6.03 41.23 6.03ZM43.54 5.77L43.54 9.86C43.54 10.84 44.35 11.48 45.58 11.48C45.85 11.48 46.69 11.33 47.15 11.13L46.90 10.49C46.72 10.56 46.34 10.67 46.13 10.67C45.42 10.67 45.02 10.30 45.02 9.63C45.02 9.39 45.18 8.12 45.18 7.52L45.18 5.77L47.28 5.77L47.28 4.96C47.03 4.96 46.37 5.07 45.18 5.07L45.18 3.32L43.54 3.78L43.54 5.07L42.38 5.07L42.38 5.77ZM47.92 4.86L50.76 11.31C50.88 11.56 50.96 11.93 50.96 12.18C50.96 12.31 50.93 12.40 50.86 12.49C50.75 12.63 50.54 12.77 50.09 12.77L50.04 12.77C49.62 12.77 49.21 12.54 48.78 12.54L48.31 12.54L48.31 13.71L49.97 13.71C51.17 13.71 51.63 13.08 51.95 12.19L54.82 4.87L53.40 4.72C53.40 5.26 53.10 7.11 52.23 9.55L51.88 10.51L51.87 10.50L49.63 4.72ZM60.14 10.75C60.87 11.02 61.89 11.48 63.35 11.48L63.70 11.48C65.63 11.48 66.91 10.46 66.91 8.92C66.91 7.31 65.24 6.57 63.85 6.01C62.61 5.50 61.54 5.00 61.54 4.26C61.54 3.50 62.23 3.08 63.52 3.08C64.16 3.08 64.78 3.29 65.69 3.67L65.98 3.79L66.35 2.93C65.63 2.66 64.81 2.38 63.70 2.38L63.29 2.38C61.47 2.38 60.26 3.35 60.26 4.79C60.26 6.16 61.61 6.82 62.83 7.34C64.15 7.90 65.42 8.48 65.42 9.44C65.42 10.32 64.75 10.78 63.52 10.78C62.69 10.78 61.94 10.51 60.79 10.00L60.49 9.87ZM69.57 7.28C69.72 6.06 70.29 5.42 71.20 5.42C72.21 5.42 72.77 6.06 72.80 7.25ZM69.52 7.98L74.44 8.08L74.44 7.42C74.44 5.80 73.18 4.72 71.29 4.72C69.22 4.72 67.83 6.06 67.83 8.08C67.83 10.12 69.24 11.48 71.34 11.48C72.46 11.48 73.91 10.86 74.28 10.68L73.92 9.81L72.62 10.46C72.31 10.61 71.79 10.78 71.46 10.78C70.04 10.78 69.52 9.97 69.52 8.04ZM78.67 4.72C77.45 4.72 76.41 5.11 75.88 5.38L76.20 6.24L77.42 5.70C77.77 5.54 78.22 5.42 78.67 5.42C79.48 5.42 79.93 5.85 79.93 6.65L79.93 7.63L77.85 7.63C76.40 7.63 75.32 8.33 75.32 9.55C75.32 10.67 76.33 11.48 77.73 11.48C77.98 11.48 78.33 11.41 78.85 11.19L80.07 10.65L80.42 11.44L81.86 11.27L81.77 11.02C81.69 10.74 81.56 10.16 81.56 9.79L81.56 6.61C81.56 5.38 80.54 4.72 78.67 4.72ZM79.93 10.21L78.46 10.61C78.30 10.65 78.05 10.70 77.94 10.70C77.29 10.70 76.94 10.30 76.94 9.59C76.94 8.78 77.42 8.33 78.26 8.33L79.93 8.33ZM87.33 6.03L87.44 4.62C86.44 4.62 86.02 5.05 85.53 5.56L84.99 6.09L84.63 4.77L83.37 4.83L83.37 11.37L84.99 11.37L84.99 7L85.61 6.38C85.96 6.03 86.44 6.03 86.88 6.03ZM93.55 5.14C93.17 4.96 92.11 4.72 91.45 4.72C89.36 4.72 87.96 6.08 87.96 8.11C87.96 10.14 89.36 11.48 91.45 11.48C92.11 11.48 93.17 11.24 93.55 11.06L93.21 10.22L92.26 10.63C92.08 10.71 91.71 10.78 91.56 10.78C90.34 10.78 89.67 9.84 89.67 8.11C89.67 6.36 90.34 5.42 91.56 5.42C91.71 5.42 92.08 5.50 92.26 5.59L93.21 5.99ZM94.96 11.37L96.59 11.37L96.59 6.10L98.08 5.63C98.32 5.56 98.62 5.49 98.90 5.49C99.37 5.49 99.62 5.88 99.62 6.59L99.62 11.37L101.26 11.37L101.26 6.34C101.26 5.36 100.45 4.72 99.23 4.72C98.83 4.72 98.38 4.76 97.80 4.98L96.59 5.46L96.59 2.51L94.96 2.51Z"></path></g><!----><g data-v-423bf9ae="" id="2052dd94-3400-4190-a1b4-d74eb88a05e3" transform="matrix(1.5908648478689502,0,0,1.5908648478689502,186.4567576065525,-60.705162409122536)" stroke="none" fill="#ffffff"><path d="M60.348 38.428l-9.933 6.621v9.38l10.05 11.06V38.782l13.947 3.573v24.019l.362.406-.035-24.68-14.391-3.673zm2.35 4.87v24.309l1.521 1.883 7.044-6.634.002-.01h.005l.007-.01.116.145 1.362 1.525V45.735l-2.044-.473V62.93l-1.945 1.55V44.796l-2.092-.55v21.707l-1.89 1.102v-23.25l-2.085-.517zm16.378 1.953l-3.692 2.337v19.876l3.798 4.258V45.604l12.241 3.073V92.93H90.1V51.8l-1.895-.509v41.64h-1.631V50.855l-2.065-.553v27.393l.838.938h-.838v14.298h-1.63V78.56L70.985 65.264l-.898.983L81.14 78.559v14.372H33.668V74.025L20.46 79.68v13.251h-3.992V81.39l-8.564 3.666v7.875H5V95h90l-.146-2.069h-3.102v-44.51l-12.676-3.17zm1.892 4.103v24.37l1.91 2.143V49.865l-1.91-.511zm-31.114 4.712L15.088 75.839l-9.507 9.217 23.733-10.668 20.54-20.322zm.266 2.866l-1.437 1.283 14.884 16.577 1.693-.667-15.14-17.193zM43.902 71.58v.821h9.533V84.55h.822V71.58H43.902zm.012 2.11v4.718h3.738V73.69h-3.738zm4.986.01v4.719h3.738V73.7H48.9zm17.648 2.67v.644h7.461v9.507h.643v-10.15h-8.104zm.008 1.65v3.694h2.926v-3.693h-2.926zm3.902.01v3.693h2.927v-3.692h-2.927zm-26.55 1.73v4.718h3.74v-4.718h-3.74zm4.987 0v4.717h3.737V79.76h-3.737zm17.658 3.012v3.692h2.925v-3.692h-2.925zm3.902 0v3.692h2.926v-3.692h-2.926z"></path></g><!----></svg>